<svg xmlns="http://www.w3.org/2000/svg" xmlns:xlink="http://www.w3.org/1999/xlink" contentStyleType="text/css" height="1166px" preserveAspectRatio="none" style="width:1989px;height:1166px;background:#FFFFFF;" version="1.1" viewBox="0 0 1989 1166" width="1989px" zoomAndPan="magnify"><!-- GENERATED from cat-harness/uml/overview/cat-harness/qa.puml by cat-harness/scripts/gen-uml-overview.ts (PlantUML 1.2024.7) --><!-- puml-sha256: 1be2925595ab835eeecd9dfa20727ba0d32c76fd87337e5304a5d82476286612 --><defs/><g><rect fill="#FFFFFF" height="1143.8516" rx="2.5" ry="2.5" style="stroke:#000000;stroke-width:1.0;" width="1966.4814" x="17" y="17"/><text fill="#000000" font-family="Verdana" font-size="14" font-style="italic" lengthAdjust="spacing" textLength="34.5967" x="982.9424" y="31.9951">&#171;qa&#187;</text><text fill="#000000" font-family="Verdana" font-size="14" font-weight="bold" lengthAdjust="spacing" textLength="117.2773" x="941.6021" y="48.292">cat-harness/qa</text><!--class cat_harness_qa_kg_qa_v1_kg_qa_v1--><g id="elem_cat_harness_qa_kg_qa_v1_kg_qa_v1"><rect codeLine="11" fill="#F4E6E6" height="162.3438" id="cat_harness_qa_kg_qa_v1_kg_qa_v1" rx="2.5" ry="2.5" style="stroke:#000000;stroke-width:1.0;" width="216.6475" x="305.2593" y="129.1875"/><ellipse cx="329.3849" cy="149.3203" fill="#FFFFFF" rx="9" ry="9" style="stroke:#000000;stroke-width:1.0;"/><path d="M332.3537,154.9609 Q331.7755,155.2578 331.1349,155.3984 Q330.4943,155.5547 329.7912,155.5547 Q327.2912,155.5547 325.963,153.9141 Q324.6505,152.2578 324.6505,149.1328 Q324.6505,146.0078 325.963,144.3516 Q327.2912,142.6953 329.7912,142.6953 Q330.4943,142.6953 331.1349,142.8516 Q331.7912,143.0078 332.3537,143.3047 L332.3537,146.0234 Q331.7287,145.4453 331.1349,145.1797 Q330.5412,144.8984 329.9162,144.8984 Q328.5724,144.8984 327.8849,145.9766 Q327.1974,147.0391 327.1974,149.1328 Q327.1974,151.2266 327.8849,152.3047 Q328.5724,153.3672 329.9162,153.3672 Q330.5412,153.3672 331.1349,153.1016 Q331.7287,152.8203 332.3537,152.2422 L332.3537,154.9609 Z " fill="#000000"/><text fill="#000000" font-family="Verdana" font-size="12" font-style="italic" lengthAdjust="spacing" textLength="167.9238" x="341.8573" y="145.3262">&#171;json: KgQaReportSchema&#187;</text><text fill="#000000" font-family="Verdana" font-size="14" lengthAdjust="spacing" textLength="61.4209" x="395.1087" y="161.1514">kg-qa/v1</text><line style="stroke:#000000;stroke-width:1.0;" x1="306.2593" x2="520.9067" y1="169.4531" y2="169.4531"/><text fill="#000000" font-family="Verdana" font-size="14" lengthAdjust="spacing" textLength="170.6182" x="311.2593" y="186.4482">$schema [1] : 'kg-qa/v1'</text><text fill="#000000" font-family="Verdana" font-size="14" lengthAdjust="spacing" textLength="131.7832" x="311.2593" y="202.7451">subject [1] : object</text><text fill="#000000" font-family="Verdana" font-size="14" lengthAdjust="spacing" textLength="204.6475" x="311.2593" y="219.042">source_hash [1] : string | null</text><text fill="#000000" font-family="Verdana" font-size="14" lengthAdjust="spacing" textLength="185.2744" x="311.2593" y="235.3389">criteria [1] : map&lt;object&gt;</text><text fill="#000000" font-family="Verdana" font-size="14" lengthAdjust="spacing" textLength="186.4092" x="311.2593" y="251.6357">totals [1] : map&lt;number&gt;</text><text fill="#000000" font-family="Verdana" font-size="14" lengthAdjust="spacing" textLength="199.1992" x="311.2593" y="267.9326">pair_attestations [0..1] : any</text><text fill="#000000" font-family="Verdana" font-size="14" lengthAdjust="spacing" textLength="179.3955" x="311.2593" y="284.2295">voice_reviews [0..1] : any</text></g><!--class cat_harness_qa_kg_qa_manifest_v1_kg_qa_manifest_v1--><g id="elem_cat_harness_qa_kg_qa_manifest_v1_kg_qa_manifest_v1"><rect codeLine="20" fill="#F4E6E6" height="80.8594" id="cat_harness_qa_kg_qa_manifest_v1_kg_qa_manifest_v1" rx="2.5" ry="2.5" style="stroke:#000000;stroke-width:1.0;" width="248.9746" x="252.9878" y="464.7422"/><ellipse cx="286.759" cy="484.875" fill="#FFFFFF" rx="9" ry="9" style="stroke:#000000;stroke-width:1.0;"/><path d="M289.7277,490.5156 Q289.1496,490.8125 288.509,490.9531 Q287.8684,491.1094 287.1652,491.1094 Q284.6652,491.1094 283.3371,489.4688 Q282.0246,487.8125 282.0246,484.6875 Q282.0246,481.5625 283.3371,479.9063 Q284.6652,478.25 287.1652,478.25 Q287.8684,478.25 288.509,478.4063 Q289.1652,478.5625 289.7277,478.8594 L289.7277,481.5781 Q289.1027,481 288.509,480.7344 Q287.9152,480.4531 287.2902,480.4531 Q285.9465,480.4531 285.259,481.5313 Q284.5715,482.5938 284.5715,484.6875 Q284.5715,486.7813 285.259,487.8594 Q285.9465,488.9219 287.2902,488.9219 Q287.9152,488.9219 288.509,488.6563 Q289.1027,488.375 289.7277,487.7969 L289.7277,490.5156 Z " fill="#000000"/><text fill="#000000" font-family="Verdana" font-size="12" font-style="italic" lengthAdjust="spacing" textLength="178.8164" x="301.3748" y="480.8809">&#171;json: KgQaManifestSchema&#187;</text><text fill="#000000" font-family="Verdana" font-size="14" lengthAdjust="spacing" textLength="127.7773" x="326.8943" y="496.7061">kg-qa-manifest/v1</text><line style="stroke:#000000;stroke-width:1.0;" x1="253.9878" x2="500.9624" y1="505.0078" y2="505.0078"/><text fill="#000000" font-family="Verdana" font-size="14" lengthAdjust="spacing" textLength="236.9746" x="258.9878" y="522.0029">$schema [1] : 'kg-qa-manifest/v1'</text><text fill="#000000" font-family="Verdana" font-size="14" lengthAdjust="spacing" textLength="131.0791" x="258.9878" y="538.2998">auditor [1] : object</text></g><!--class cat_harness_qa_block_qa_v1_block_qa_v1--><g id="elem_cat_harness_qa_block_qa_v1_block_qa_v1"><rect codeLine="24" fill="#F4E6E6" height="162.3438" id="cat_harness_qa_block_qa_v1_block_qa_v1" rx="2.5" ry="2.5" style="stroke:#000000;stroke-width:1.0;" width="208.1982" x="273.376" y="699.6797"/><ellipse cx="307.7743" cy="719.8125" fill="#FFFFFF" rx="9" ry="9" style="stroke:#000000;stroke-width:1.0;"/><path d="M310.743,725.4531 Q310.1649,725.75 309.5243,725.8906 Q308.8836,726.0469 308.1805,726.0469 Q305.6805,726.0469 304.3524,724.4063 Q303.0399,722.75 303.0399,719.625 Q303.0399,716.5 304.3524,714.8438 Q305.6805,713.1875 308.1805,713.1875 Q308.8836,713.1875 309.5243,713.3438 Q310.1805,713.5 310.743,713.7969 L310.743,716.5156 Q310.118,715.9375 309.5243,715.6719 Q308.9305,715.3906 308.3055,715.3906 Q306.9618,715.3906 306.2743,716.4688 Q305.5868,717.5313 305.5868,719.625 Q305.5868,721.7188 306.2743,722.7969 Q306.9618,723.8594 308.3055,723.8594 Q308.9305,723.8594 309.5243,723.5938 Q310.118,723.3125 310.743,722.7344 L310.743,725.4531 Z " fill="#000000"/><text fill="#000000" font-family="Verdana" font-size="12" font-style="italic" lengthAdjust="spacing" textLength="136.6465" x="322.5294" y="715.8184">&#171;json: BlockQaReport&#187;</text><text fill="#000000" font-family="Verdana" font-size="14" lengthAdjust="spacing" textLength="81.5732" x="350.0661" y="731.6436">block-qa/v1</text><line style="stroke:#000000;stroke-width:1.0;" x1="274.376" x2="480.5742" y1="739.9453" y2="739.9453"/><text fill="#000000" font-family="Verdana" font-size="14" lengthAdjust="spacing" textLength="190.7705" x="279.376" y="756.9404">$schema [1] : 'block-qa/v1'</text><text fill="#000000" font-family="Verdana" font-size="14" lengthAdjust="spacing" textLength="111.9453" x="279.376" y="773.2373">label [1] : string</text><text fill="#000000" font-family="Verdana" font-size="14" lengthAdjust="spacing" textLength="107.8438" x="279.376" y="789.5342">kind [1] : string</text><text fill="#000000" font-family="Verdana" font-size="14" lengthAdjust="spacing" textLength="120.1621" x="279.376" y="805.8311">paths [1] : object</text><text fill="#000000" font-family="Verdana" font-size="14" lengthAdjust="spacing" textLength="184.3652" x="279.376" y="822.1279">source_hashes [1] : object</text><text fill="#000000" font-family="Verdana" font-size="14" lengthAdjust="spacing" textLength="196.1982" x="279.376" y="838.4248">criteria [1] : map&lt;object[]&gt;</text><text fill="#000000" font-family="Verdana" font-size="14" lengthAdjust="spacing" textLength="157.3701" x="279.376" y="854.7217">updated_at [1] : string</text></g><!--class cat_harness_qa_folio_test_run_v1_Case--><g id="elem_cat_harness_qa_folio_test_run_v1_Case"><rect codeLine="33" fill="#F4E6E6" height="80.8594" id="cat_harness_qa_folio_test_run_v1_Case" rx="2.5" ry="2.5" style="stroke:#000000;stroke-width:1.0;" width="168.5391" x="64.4487" y="367.7969"/><ellipse cx="77.4487" cy="387.9297" fill="#FFFFFF" rx="9" ry="9" style="stroke:#000000;stroke-width:1.0;"/><path d="M80.4175,393.5703 Q79.8394,393.8672 79.1987,394.0078 Q78.5581,394.1641 77.855,394.1641 Q75.355,394.1641 74.0269,392.5234 Q72.7144,390.8672 72.7144,387.7422 Q72.7144,384.6172 74.0269,382.9609 Q75.355,381.3047 77.855,381.3047 Q78.5581,381.3047 79.1987,381.4609 Q79.855,381.6172 80.4175,381.9141 L80.4175,384.6328 Q79.7925,384.0547 79.1987,383.7891 Q78.605,383.5078 77.98,383.5078 Q76.6362,383.5078 75.9487,384.5859 Q75.2612,385.6484 75.2612,387.7422 Q75.2612,389.8359 75.9487,390.9141 Q76.6362,391.9766 77.98,391.9766 Q78.605,391.9766 79.1987,391.7109 Q79.7925,391.4297 80.4175,390.8516 L80.4175,393.5703 Z " fill="#000000"/><text fill="#000000" font-family="Verdana" font-size="12" font-style="italic" lengthAdjust="spacing" textLength="144.5391" x="87.4487" y="383.9355">&#171;json: TestRunSchema&#187;</text><text fill="#000000" font-family="Verdana" font-size="14" lengthAdjust="spacing" textLength="34.2617" x="142.5874" y="399.7607">Case</text><line style="stroke:#000000;stroke-width:1.0;" x1="65.4487" x2="231.9878" y1="408.0625" y2="408.0625"/><text fill="#000000" font-family="Verdana" font-size="14" lengthAdjust="spacing" textLength="99.6475" x="70.4487" y="425.0576">input [1] : any</text><text fill="#000000" font-family="Verdana" font-size="14" lengthAdjust="spacing" textLength="109.8125" x="70.4487" y="441.3545">output [1] : any</text></g><!--class cat_harness_qa_folio_test_run_v1_folio_test_run_v1--><g id="elem_cat_harness_qa_folio_test_run_v1_folio_test_run_v1"><rect codeLine="37" fill="#F4E6E6" height="227.5313" id="cat_harness_qa_folio_test_run_v1_folio_test_run_v1" rx="2.5" ry="2.5" style="stroke:#000000;stroke-width:1.0;" width="233.4365" x="32" y="64"/><ellipse cx="74.6987" cy="84.1328" fill="#FFFFFF" rx="9" ry="9" style="stroke:#000000;stroke-width:1.0;"/><path d="M77.6675,89.7734 Q77.0894,90.0703 76.4487,90.2109 Q75.8081,90.3672 75.105,90.3672 Q72.605,90.3672 71.2769,88.7266 Q69.9644,87.0703 69.9644,83.9453 Q69.9644,80.8203 71.2769,79.1641 Q72.605,77.5078 75.105,77.5078 Q75.8081,77.5078 76.4487,77.6641 Q77.105,77.8203 77.6675,78.1172 L77.6675,80.8359 Q77.0425,80.2578 76.4487,79.9922 Q75.855,79.7109 75.23,79.7109 Q73.8862,79.7109 73.1987,80.7891 Q72.5112,81.8516 72.5112,83.9453 Q72.5112,86.0391 73.1987,87.1172 Q73.8862,88.1797 75.23,88.1797 Q75.855,88.1797 76.4487,87.9141 Q77.0425,87.6328 77.6675,87.0547 L77.6675,89.7734 Z " fill="#000000"/><text fill="#000000" font-family="Verdana" font-size="12" font-style="italic" lengthAdjust="spacing" textLength="144.5391" x="90.1987" y="80.1387">&#171;json: TestRunSchema&#187;</text><text fill="#000000" font-family="Verdana" font-size="14" lengthAdjust="spacing" textLength="112.2393" x="106.3486" y="95.9639">folio-test-run/v1</text><line style="stroke:#000000;stroke-width:1.0;" x1="33" x2="264.4365" y1="104.2656" y2="104.2656"/><text fill="#000000" font-family="Verdana" font-size="14" lengthAdjust="spacing" textLength="221.4365" x="38" y="121.2607">$schema [1] : 'folio-test-run/v1'</text><text fill="#000000" font-family="Verdana" font-size="14" lengthAdjust="spacing" textLength="105.1572" x="38" y="137.5576">skill [1] : string</text><text fill="#000000" font-family="Verdana" font-size="14" lengthAdjust="spacing" textLength="128.8301" x="38" y="153.8545">subject [1] : string</text><text fill="#000000" font-family="Verdana" font-size="14" lengthAdjust="spacing" textLength="112.5742" x="38" y="170.1514">data [1] : object</text><text fill="#000000" font-family="Verdana" font-size="14" lengthAdjust="spacing" textLength="135.1465" x="38" y="186.4482">process [1] : object</text><text fill="#000000" font-family="Verdana" font-size="14" lengthAdjust="spacing" textLength="179.6416" x="38" y="202.7451">outcome [1] : map&lt;any&gt;</text><text fill="#000000" font-family="Verdana" font-size="14" lengthAdjust="spacing" textLength="138.4619" x="38" y="219.042">cases [0..*] : Case[]</text><text fill="#000000" font-family="Verdana" font-size="14" lengthAdjust="spacing" textLength="199.2061" x="38" y="235.3389">requirements [0..*] : string[]</text><text fill="#000000" font-family="Verdana" font-size="14" lengthAdjust="spacing" textLength="157.3701" x="38" y="251.6357">updated_at [1] : string</text><text fill="#000000" font-family="Verdana" font-size="14" lengthAdjust="spacing" textLength="129.0762" x="38" y="267.9326">plan [0..1] : object</text><text fill="#000000" font-family="Verdana" font-size="14" lengthAdjust="spacing" textLength="120.5039" x="38" y="284.2295">sut [0..1] : object</text></g><!--class cat_harness_qa_qa_witness_v1--><g id="elem_cat_harness_qa_qa_witness_v1"><rect codeLine="50" fill="#F4E6E6" height="309.0156" id="cat_harness_qa_qa_witness_v1" rx="2.5" ry="2.5" style="stroke:#000000;stroke-width:1.0;" width="258.2715" x="1005.2728" y="350.6641"/><ellipse cx="1081.9935" cy="370.7969" fill="#FFFFFF" rx="9" ry="9" style="stroke:#000000;stroke-width:1.0;"/><path d="M1084.9622,376.4375 Q1084.3841,376.7344 1083.7435,376.875 Q1083.1029,377.0313 1082.3997,377.0313 Q1079.8997,377.0313 1078.5716,375.3906 Q1077.2591,373.7344 1077.2591,370.6094 Q1077.2591,367.4844 1078.5716,365.8281 Q1079.8997,364.1719 1082.3997,364.1719 Q1083.1029,364.1719 1083.7435,364.3281 Q1084.3997,364.4844 1084.9622,364.7813 L1084.9622,367.5 Q1084.3372,366.9219 1083.7435,366.6563 Q1083.1497,366.375 1082.5247,366.375 Q1081.181,366.375 1080.4935,367.4531 Q1079.806,368.5156 1079.806,370.6094 Q1079.806,372.7031 1080.4935,373.7813 Q1081.181,374.8438 1082.5247,374.8438 Q1083.1497,374.8438 1083.7435,374.5781 Q1084.3372,374.2969 1084.9622,373.7188 L1084.9622,376.4375 Z " fill="#000000"/><text fill="#000000" font-family="Verdana" font-size="12" font-style="italic" lengthAdjust="spacing" textLength="97.6934" x="1099.3118" y="366.8027">&#171;ts: QaWitness&#187;</text><text fill="#000000" font-family="Verdana" font-size="14" lengthAdjust="spacing" textLength="97.3301" x="1099.4935" y="382.6279">qa-witness/v1</text><line style="stroke:#000000;stroke-width:1.0;" x1="1006.2728" x2="1262.5443" y1="390.9297" y2="390.9297"/><text fill="#000000" font-family="Verdana" font-size="14" lengthAdjust="spacing" textLength="246.2715" x="1011.2728" y="407.9248">kind [1] : 'script' | 'agent' | 'human'</text><text fill="#000000" font-family="Verdana" font-size="14" lengthAdjust="spacing" textLength="90.8633" x="1011.2728" y="424.2217">id [1] : string</text><text fill="#000000" font-family="Verdana" font-size="14" lengthAdjust="spacing" textLength="147.1709" x="1011.2728" y="440.5186">version [0..1] : string</text><text fill="#000000" font-family="Verdana" font-size="14" lengthAdjust="spacing" textLength="109.9629" x="1011.2728" y="456.8154">at [0..1] : string</text><text fill="#000000" font-family="Verdana" font-size="14" lengthAdjust="spacing" textLength="120.6406" x="1011.2728" y="473.1123">sha [0..1] : string</text><text fill="#000000" font-family="Verdana" font-size="14" lengthAdjust="spacing" textLength="170.1807" x="1011.2728" y="489.4092">scriptHash [0..1] : string</text><text fill="#000000" font-family="Verdana" font-size="14" lengthAdjust="spacing" textLength="216.2412" x="1011.2728" y="505.7061">scriptCommitSha [0..1] : string</text><text fill="#000000" font-family="Verdana" font-size="14" lengthAdjust="spacing" textLength="164.8486" x="1011.2728" y="522.0029">depsHash [0..1] : string</text><text fill="#000000" font-family="Verdana" font-size="14" lengthAdjust="spacing" textLength="139.4873" x="1011.2728" y="538.2998">model [0..1] : string</text><text fill="#000000" font-family="Verdana" font-size="14" lengthAdjust="spacing" textLength="147.7178" x="1011.2728" y="554.5967">session [0..1] : string</text><text fill="#000000" font-family="Verdana" font-size="14" lengthAdjust="spacing" textLength="122.9648" x="1011.2728" y="570.8936">skill [0..1] : string</text><text fill="#000000" font-family="Verdana" font-size="14" lengthAdjust="spacing" textLength="149.96" x="1011.2728" y="587.1904">method [0..1] : string</text><text fill="#000000" font-family="Verdana" font-size="14" lengthAdjust="spacing" textLength="195.6992" x="1011.2728" y="603.4873">freshness [1] : QaFreshness</text><text fill="#000000" font-family="Verdana" font-size="14" lengthAdjust="spacing" textLength="167.2275" x="1011.2728" y="619.7842">changed [0..1] : string[]</text><text fill="#000000" font-family="Verdana" font-size="14" lengthAdjust="spacing" textLength="202.4463" x="1011.2728" y="636.0811">notCompared [0..1] : string[]</text><text fill="#000000" font-family="Verdana" font-size="14" lengthAdjust="spacing" textLength="134.7295" x="1011.2728" y="652.3779">notes [0..1] : string</text></g><!--class cat_harness_qa_qa_results_v1--><g id="elem_cat_harness_qa_qa_results_v1"><rect codeLine="68" fill="#F4E6E6" height="129.75" id="cat_harness_qa_qa_results_v1" rx="2.5" ry="2.5" style="stroke:#000000;stroke-width:1.0;" width="1179.5781" x="501.5742" y="715.9766"/><ellipse cx="1041.7954" cy="736.1094" fill="#FFFFFF" rx="9" ry="9" style="stroke:#000000;stroke-width:1.0;"/><path d="M1044.7642,741.75 Q1044.186,742.0469 1043.5454,742.1875 Q1042.9048,742.3438 1042.2017,742.3438 Q1039.7017,742.3438 1038.3735,740.7031 Q1037.061,739.0469 1037.061,735.9219 Q1037.061,732.7969 1038.3735,731.1406 Q1039.7017,729.4844 1042.2017,729.4844 Q1042.9048,729.4844 1043.5454,729.6406 Q1044.2017,729.7969 1044.7642,730.0938 L1044.7642,732.8125 Q1044.1392,732.2344 1043.5454,731.9688 Q1042.9517,731.6875 1042.3267,731.6875 Q1040.9829,731.6875 1040.2954,732.7656 Q1039.6079,733.8281 1039.6079,735.9219 Q1039.6079,738.0156 1040.2954,739.0938 Q1040.9829,740.1563 1042.3267,740.1563 Q1042.9517,740.1563 1043.5454,739.8906 Q1044.1392,739.6094 1044.7642,739.0313 L1044.7642,741.75 Z " fill="#000000"/><text fill="#000000" font-family="Verdana" font-size="12" font-style="italic" lengthAdjust="spacing" textLength="87.9141" x="1061.1563" y="732.1152">&#171;ts: QaResult&#187;</text><text fill="#000000" font-family="Verdana" font-size="14" lengthAdjust="spacing" textLength="91.6357" x="1059.2954" y="747.9404">qa-results/v1</text><line style="stroke:#000000;stroke-width:1.0;" x1="502.5742" x2="1680.1523" y1="756.2422" y2="756.2422"/><text fill="#000000" font-family="Verdana" font-size="14" lengthAdjust="spacing" textLength="200.833" x="507.5742" y="773.2373">$schema [1] : 'qa-results/v1'</text><text fill="#000000" font-family="Verdana" font-size="14" lengthAdjust="spacing" textLength="119.0068" x="507.5742" y="789.5342">producer [1] : { /</text><text fill="#000000" font-family="Verdana" font-size="14" font-weight="bold" lengthAdjust="spacing" textLength="394.9463" x="631.4551" y="789.5342">Repo-relative path to the script. */ script: string; /</text><text fill="#000000" font-family="Verdana" font-size="14" lengthAdjust="spacing" textLength="644.3008" x="1030.8516" y="789.5342">12-char SHA-256 prefix of that script's source, as `script-qa` writes. */ script_hash: string; }</text><text fill="#000000" font-family="Verdana" font-size="14" lengthAdjust="spacing" textLength="265.7676" x="507.5742" y="805.8311">subject [1] : { kind: string; id: string }</text><text fill="#000000" font-family="Verdana" font-size="14" lengthAdjust="spacing" textLength="324.2354" x="507.5742" y="822.1279">families [1] : Record&lt;string, QaResultFamily&gt;</text><text fill="#000000" font-family="Verdana" font-size="14" lengthAdjust="spacing" textLength="124.5508" x="507.5742" y="838.4248">total [1] : number</text></g><!--class cat_harness_qa_translation_qa_v1--><g id="elem_cat_harness_qa_translation_qa_v1"><rect codeLine="75" fill="#F4E6E6" height="194.9375" id="cat_harness_qa_translation_qa_v1" rx="2.5" ry="2.5" style="stroke:#000000;stroke-width:1.0;" width="367.4756" x="907.6255" y="902.0234"/><ellipse cx="994.5039" cy="922.1563" fill="#FFFFFF" rx="9" ry="9" style="stroke:#000000;stroke-width:1.0;"/><path d="M997.4727,927.7969 Q996.8945,928.0938 996.2539,928.2344 Q995.6133,928.3906 994.9102,928.3906 Q992.4102,928.3906 991.082,926.75 Q989.7695,925.0938 989.7695,921.9688 Q989.7695,918.8438 991.082,917.1875 Q992.4102,915.5313 994.9102,915.5313 Q995.6133,915.5313 996.2539,915.6875 Q996.9102,915.8438 997.4727,916.1406 L997.4727,918.8594 Q996.8477,918.2813 996.2539,918.0156 Q995.6602,917.7344 995.0352,917.7344 Q993.6914,917.7344 993.0039,918.8125 Q992.3164,919.875 992.3164,921.9688 Q992.3164,924.0625 993.0039,925.1406 Q993.6914,926.2031 995.0352,926.2031 Q995.6602,926.2031 996.2539,925.9375 Q996.8477,925.6563 997.4727,925.0781 L997.4727,927.7969 Z " fill="#000000"/><text fill="#000000" font-family="Verdana" font-size="12" font-style="italic" lengthAdjust="spacing" textLength="190.2188" x="1010.0039" y="918.1621">&#171;ts: TranslationBlockQaReport&#187;</text><text fill="#000000" font-family="Verdana" font-size="14" lengthAdjust="spacing" textLength="119.7041" x="1045.2612" y="933.9873">translation-qa/v1</text><line style="stroke:#000000;stroke-width:1.0;" x1="908.6255" x2="1274.1011" y1="942.2891" y2="942.2891"/><text fill="#000000" font-family="Verdana" font-size="14" lengthAdjust="spacing" textLength="228.9014" x="913.6255" y="959.2842">$schema [1] : 'translation-qa/v1'</text><text fill="#000000" font-family="Verdana" font-size="14" lengthAdjust="spacing" textLength="111.9453" x="913.6255" y="975.5811">label [1] : string</text><text fill="#000000" font-family="Verdana" font-size="14" lengthAdjust="spacing" textLength="133.041" x="913.6255" y="991.8779">block [0..1] : string</text><text fill="#000000" font-family="Verdana" font-size="14" lengthAdjust="spacing" textLength="119.3213" x="913.6255" y="1008.1748">locale [1] : string</text><text fill="#000000" font-family="Verdana" font-size="14" lengthAdjust="spacing" textLength="254.3516" x="913.6255" y="1024.4717">paths [1] : { md: string; ts?: string }</text><text fill="#000000" font-family="Verdana" font-size="14" lengthAdjust="spacing" textLength="95.5391" x="913.6255" y="1040.7686">po [1] : string</text><text fill="#000000" font-family="Verdana" font-size="14" lengthAdjust="spacing" textLength="288.1689" x="913.6255" y="1057.0654">source_hashes [1] : TranslationFieldHash</text><text fill="#000000" font-family="Verdana" font-size="14" lengthAdjust="spacing" textLength="355.4756" x="913.6255" y="1073.3623">criteria [1] : Record&lt;string, TranslationQaEntry[]&gt;</text><text fill="#000000" font-family="Verdana" font-size="14" lengthAdjust="spacing" textLength="157.3701" x="913.6255" y="1089.6592">updated_at [1] : string</text></g><!--class cat_harness_qa_folio_qa_index_v1_folio_qa_index_v1--><g id="elem_cat_harness_qa_folio_qa_index_v1_folio_qa_index_v1"><rect codeLine="86" fill="#F4E6E6" height="129.75" id="cat_harness_qa_folio_qa_index_v1_folio_qa_index_v1" rx="2.5" ry="2.5" style="stroke:#000000;stroke-width:1.0;" width="239.0625" x="1701.1523" y="715.9766"/><ellipse cx="1746.251" cy="736.1094" fill="#FFFFFF" rx="9" ry="9" style="stroke:#000000;stroke-width:1.0;"/><path d="M1749.2197,741.75 Q1748.6416,742.0469 1748.001,742.1875 Q1747.3604,742.3438 1746.6572,742.3438 Q1744.1572,742.3438 1742.8291,740.7031 Q1741.5166,739.0469 1741.5166,735.9219 Q1741.5166,732.7969 1742.8291,731.1406 Q1744.1572,729.4844 1746.6572,729.4844 Q1747.3604,729.4844 1748.001,729.6406 Q1748.6572,729.7969 1749.2197,730.0938 L1749.2197,732.8125 Q1748.5947,732.2344 1748.001,731.9688 Q1747.4072,731.6875 1746.7822,731.6875 Q1745.4385,731.6875 1744.751,732.7656 Q1744.0635,733.8281 1744.0635,735.9219 Q1744.0635,738.0156 1744.751,739.0938 Q1745.4385,740.1563 1746.7822,740.1563 Q1747.4072,740.1563 1748.001,739.8906 Q1748.5947,739.6094 1749.2197,739.0313 L1749.2197,741.75 Z " fill="#000000"/><text fill="#000000" font-family="Verdana" font-size="12" font-style="italic" lengthAdjust="spacing" textLength="145.3652" x="1761.751" y="732.1152">&#171;json: QaIndexSchema&#187;</text><text fill="#000000" font-family="Verdana" font-size="14" lengthAdjust="spacing" textLength="117.8652" x="1775.501" y="747.9404">folio-qa-index/v1</text><line style="stroke:#000000;stroke-width:1.0;" x1="1702.1523" x2="1939.2148" y1="756.2422" y2="756.2422"/><text fill="#000000" font-family="Verdana" font-size="14" lengthAdjust="spacing" textLength="227.0625" x="1707.1523" y="773.2373">$schema [1] : 'folio-qa-index/v1'</text><text fill="#000000" font-family="Verdana" font-size="14" lengthAdjust="spacing" textLength="113.0527" x="1707.1523" y="789.5342">page [1] : string</text><text fill="#000000" font-family="Verdana" font-size="14" lengthAdjust="spacing" textLength="217.6563" x="1707.1523" y="805.8311">corpus [0..1] : present | absent</text><text fill="#000000" font-family="Verdana" font-size="14" lengthAdjust="spacing" textLength="186.751" x="1707.1523" y="822.1279">badges [1] : map&lt;object&gt;</text><text fill="#000000" font-family="Verdana" font-size="14" lengthAdjust="spacing" textLength="164.3906" x="1707.1523" y="838.4248">unswept [0..*] : string[]</text></g><!--class cat_harness_qa_folio_detangle_sidecar_v1--><g id="elem_cat_harness_qa_folio_detangle_sidecar_v1"><rect codeLine="93" fill="#F4E6E6" height="243.8281" id="cat_harness_qa_folio_detangle_sidecar_v1" rx="2.5" ry="2.5" style="stroke:#000000;stroke-width:1.0;" width="295.5957" x="1672.8857" y="902.0234"/><ellipse cx="1729.7344" cy="922.1563" fill="#FFFFFF" rx="9" ry="9" style="stroke:#000000;stroke-width:1.0;"/><path d="M1732.7031,927.7969 Q1732.125,928.0938 1731.4844,928.2344 Q1730.8438,928.3906 1730.1406,928.3906 Q1727.6406,928.3906 1726.3125,926.75 Q1725,925.0938 1725,921.9688 Q1725,918.8438 1726.3125,917.1875 Q1727.6406,915.5313 1730.1406,915.5313 Q1730.8438,915.5313 1731.4844,915.6875 Q1732.1406,915.8438 1732.7031,916.1406 L1732.7031,918.8594 Q1732.0781,918.2813 1731.4844,918.0156 Q1730.8906,917.7344 1730.2656,917.7344 Q1728.9219,917.7344 1728.2344,918.8125 Q1727.5469,919.875 1727.5469,921.9688 Q1727.5469,924.0625 1728.2344,925.1406 Q1728.9219,926.2031 1730.2656,926.2031 Q1730.8906,926.2031 1731.4844,925.9375 Q1732.0781,925.6563 1732.7031,925.0781 L1732.7031,927.7969 Z " fill="#000000"/><text fill="#000000" font-family="Verdana" font-size="12" font-style="italic" lengthAdjust="spacing" textLength="132.9551" x="1767.9561" y="918.1621">&#171;ts: DetangleSidecar&#187;</text><text fill="#000000" font-family="Verdana" font-size="14" lengthAdjust="spacing" textLength="174.3984" x="1747.2344" y="933.9873">folio-detangle-sidecar/v1</text><line style="stroke:#000000;stroke-width:1.0;" x1="1673.8857" x2="1967.4814" y1="942.2891" y2="942.2891"/><text fill="#000000" font-family="Verdana" font-size="14" lengthAdjust="spacing" textLength="283.5957" x="1678.8857" y="959.2842">$schema [1] : 'folio-detangle-sidecar/v1'</text><text fill="#000000" font-family="Verdana" font-size="14" lengthAdjust="spacing" textLength="119.0547" x="1678.8857" y="975.5811">group [1] : string</text><text fill="#000000" font-family="Verdana" font-size="14" lengthAdjust="spacing" textLength="119.6836" x="1678.8857" y="991.8779">size [1] : number</text><text fill="#000000" font-family="Verdana" font-size="14" lengthAdjust="spacing" textLength="146.501" x="1678.8857" y="1008.1748">internal [1] : number</text><text fill="#000000" font-family="Verdana" font-size="14" lengthAdjust="spacing" textLength="149.3857" x="1678.8857" y="1024.4717">inbound [1] : number</text><text fill="#000000" font-family="Verdana" font-size="14" lengthAdjust="spacing" textLength="159.5508" x="1678.8857" y="1040.7686">outbound [1] : number</text><text fill="#000000" font-family="Verdana" font-size="14" lengthAdjust="spacing" textLength="154.9092" x="1678.8857" y="1057.0654">cohesion [1] : number</text><text fill="#000000" font-family="Verdana" font-size="14" lengthAdjust="spacing" textLength="221.8945" x="1678.8857" y="1073.3623">enforcedBoundary [1] : number</text><text fill="#000000" font-family="Verdana" font-size="14" lengthAdjust="spacing" textLength="222.7354" x="1678.8857" y="1089.6592">recordedBoundary [1] : number</text><text fill="#000000" font-family="Verdana" font-size="14" lengthAdjust="spacing" textLength="195.3301" x="1678.8857" y="1105.9561">proseMentions [1] : number</text><text fill="#000000" font-family="Verdana" font-size="14" lengthAdjust="spacing" textLength="199.623" x="1678.8857" y="1122.2529">wrongDirection [1] : number</text><text fill="#000000" font-family="Verdana" font-size="14" lengthAdjust="spacing" textLength="255.0967" x="1678.8857" y="1138.5498">undeterminedDirection [1] : number</text></g><!--class cat_harness_qa_viewer_nav_qa_v1_Page--><g id="elem_cat_harness_qa_viewer_nav_qa_v1_Page"><rect codeLine="107" fill="#F4E6E6" height="137.75" id="cat_harness_qa_viewer_nav_qa_v1_Page" rx="2.5" ry="2.5" style="stroke:#000000;stroke-width:1.0;" width="278.4785" x="1283.5443" y="367.7969"/><ellipse cx="1332.7298" cy="387.9297" fill="#FFFFFF" rx="9" ry="9" style="stroke:#000000;stroke-width:1.0;"/><path d="M1335.6986,393.5703 Q1335.1204,393.8672 1334.4798,394.0078 Q1333.8392,394.1641 1333.1361,394.1641 Q1330.6361,394.1641 1329.3079,392.5234 Q1327.9954,390.8672 1327.9954,387.7422 Q1327.9954,384.6172 1329.3079,382.9609 Q1330.6361,381.3047 1333.1361,381.3047 Q1333.8392,381.3047 1334.4798,381.4609 Q1335.1361,381.6172 1335.6986,381.9141 L1335.6986,384.6328 Q1335.0736,384.0547 1334.4798,383.7891 Q1333.8861,383.5078 1333.2611,383.5078 Q1331.9173,383.5078 1331.2298,384.5859 Q1330.5423,385.6484 1330.5423,387.7422 Q1330.5423,389.8359 1331.2298,390.9141 Q1331.9173,391.9766 1333.2611,391.9766 Q1333.8861,391.9766 1334.4798,391.7109 Q1335.0736,391.4297 1335.6986,390.8516 L1335.6986,393.5703 Z " fill="#000000"/><text fill="#000000" font-family="Verdana" font-size="12" font-style="italic" lengthAdjust="spacing" textLength="176.6074" x="1348.2298" y="383.9355">&#171;json: ViewerNavQaSchema&#187;</text><text fill="#000000" font-family="Verdana" font-size="14" lengthAdjust="spacing" textLength="34.5215" x="1419.2728" y="399.7607">Page</text><line style="stroke:#000000;stroke-width:1.0;" x1="1284.5443" x2="1561.0228" y1="408.0625" y2="408.0625"/><text fill="#000000" font-family="Verdana" font-size="14" lengthAdjust="spacing" textLength="109.915" x="1289.5443" y="425.0576">path [1] : string</text><text fill="#000000" font-family="Verdana" font-size="14" lengthAdjust="spacing" textLength="124.8857" x="1289.5443" y="441.3545">source [1] : string</text><text fill="#000000" font-family="Verdana" font-size="14" lengthAdjust="spacing" textLength="266.4785" x="1289.5443" y="457.6514">verdict [1] : railed | declined | missing</text><text fill="#000000" font-family="Verdana" font-size="14" lengthAdjust="spacing" textLength="143.5752" x="1289.5443" y="473.9482">reason [0..1] : string</text><line style="stroke:#000000;stroke-width:1.0;" x1="1284.5443" x2="1561.0228" y1="481.25" y2="481.25"/><text fill="#000000" font-family="Verdana" font-size="14" lengthAdjust="spacing" textLength="158.1289" x="1289.5443" y="498.2451">flags [0..*] : enum(8)[]</text></g><!--class cat_harness_qa_viewer_nav_qa_v1_viewer_nav_qa_v1--><g id="elem_cat_harness_qa_viewer_nav_qa_v1_viewer_nav_qa_v1"><rect codeLine="114" fill="#F4E6E6" height="113.4531" id="cat_harness_qa_viewer_nav_qa_v1_viewer_nav_qa_v1" rx="2.5" ry="2.5" style="stroke:#000000;stroke-width:1.0;" width="243.0205" x="1301.2733" y="178.0781"/><ellipse cx="1333.3592" cy="198.2109" fill="#FFFFFF" rx="9" ry="9" style="stroke:#000000;stroke-width:1.0;"/><path d="M1336.3279,203.8516 Q1335.7498,204.1484 1335.1092,204.2891 Q1334.4685,204.4453 1333.7654,204.4453 Q1331.2654,204.4453 1329.9373,202.8047 Q1328.6248,201.1484 1328.6248,198.0234 Q1328.6248,194.8984 1329.9373,193.2422 Q1331.2654,191.5859 1333.7654,191.5859 Q1334.4685,191.5859 1335.1092,191.7422 Q1335.7654,191.8984 1336.3279,192.1953 L1336.3279,194.9141 Q1335.7029,194.3359 1335.1092,194.0703 Q1334.5154,193.7891 1333.8904,193.7891 Q1332.5467,193.7891 1331.8592,194.8672 Q1331.1717,195.9297 1331.1717,198.0234 Q1331.1717,200.1172 1331.8592,201.1953 Q1332.5467,202.2578 1333.8904,202.2578 Q1334.5154,202.2578 1335.1092,201.9922 Q1335.7029,201.7109 1336.3279,201.1328 L1336.3279,203.8516 Z " fill="#000000"/><text fill="#000000" font-family="Verdana" font-size="12" font-style="italic" lengthAdjust="spacing" textLength="176.6074" x="1347.6005" y="194.2168">&#171;json: ViewerNavQaSchema&#187;</text><text fill="#000000" font-family="Verdana" font-size="14" lengthAdjust="spacing" textLength="121.8232" x="1374.9926" y="210.042">viewer-nav-qa/v1</text><line style="stroke:#000000;stroke-width:1.0;" x1="1302.2733" x2="1543.2938" y1="218.3438" y2="218.3438"/><text fill="#000000" font-family="Verdana" font-size="14" lengthAdjust="spacing" textLength="231.0205" x="1307.2733" y="235.3389">$schema [1] : 'viewer-nav-qa/v1'</text><text fill="#000000" font-family="Verdana" font-size="14" lengthAdjust="spacing" textLength="106.4629" x="1307.2733" y="251.6357">root [1] : string</text><text fill="#000000" font-family="Verdana" font-size="14" lengthAdjust="spacing" textLength="120.3467" x="1307.2733" y="267.9326">totals [1] : object</text><text fill="#000000" font-family="Verdana" font-size="14" lengthAdjust="spacing" textLength="141.5039" x="1307.2733" y="284.2295">pages [0..*] : Page[]</text></g><line style="stroke:#000000;stroke-width:1.0;" x1="148.7183" x2="148.7183" y1="291.5313" y2="367.7969"/><polygon fill="#000000" points="148.7183,291.5313,144.7183,297.5313,148.7183,303.5313,152.7183,297.5313,148.7183,291.5313" style="stroke:#000000;stroke-width:1.0;"/><text fill="#000000" font-family="Verdana" font-size="13" lengthAdjust="spacing" textLength="36.6577" x="108.0605" y="325.5981">cases</text><text fill="#000000" font-family="Verdana" font-size="13" lengthAdjust="spacing" textLength="23.0356" x="151.7183" y="362.731">0..*</text><line style="stroke:#000000;stroke-width:1.0;" x1="1422.7835" x2="1422.7835" y1="291.5313" y2="367.7969"/><polygon fill="#000000" points="1422.7835,291.5313,1418.7835,297.5313,1422.7835,303.5313,1426.7835,297.5313,1422.7835,291.5313" style="stroke:#000000;stroke-width:1.0;"/><text fill="#000000" font-family="Verdana" font-size="13" lengthAdjust="spacing" textLength="39.2412" x="1379.5423" y="325.5981">pages</text><text fill="#000000" font-family="Verdana" font-size="13" lengthAdjust="spacing" textLength="23.0356" x="1425.7835" y="362.731">0..*</text><!--SRC=[dLTjRzis4FxkNy5c0xm5TT8KMp1aGOQ-B6WnT9ZZOliG1EvPEiki9L8XARjUcl- -8odRj4IvyO0WaE-EFFAvvrxuh5IG5S1oMCdACCpdlMTcXWMoCWSkUdhEHGaA2fRaeFKhOnIVL0RV9rAC-B_8NWGcUWQfN7AHiIda6WDD2SaSCXoPLOvCOM90P3dsPZn5XaLfLgn0CvEfxlLgKtQKW1dCG0dK-lGUZXXeLiwpCOd7jNXy3-poyXwkhjX3Z_aJigDvDhY7qyMPMx5hFQRrz7znjlcWzP-r51ViZsm8DrXAPKO9tT_k-Ttq9pp7SxStOzzh9sUtPtViWlNNNlfEgQl9PxfLhPJkXrV8IYL8Hz2pMga9GKBeAnDLdZkRH763Yg-tBg2yz3jSERMHXj0CbA8g9gYyiWIknc0CQWE6Iq5sBqvEd2c8bJDPI4udKBZWk6of7nku3GeGV4gxxGLmRRH5Cf3iGFgXbXy0QdW4ZovKAJTIDT4DpZx9PJBl3hjJrv4FlZSdVMrbw_X_wv21Bt-y72QOxqJNYOdyQLjQWfdflJp1YBgJ8hTtdWTLcOB1bAZGT1cWz0Oqnk2PofpBiUNGM5N2WcGjD-Xy9CLD9Jf2I2bUhPskAKUbf2aCZk7S3Qox0Rdh25dxJ2t94m_O25_BUvt1Svv7WhYRs862u8Psd4eb4xf0Mq6899AgwZP-18iFNK9O-xmyjZeB_UsTqoYyhxYYOYnCOE0FKPjqnvtP2Yws-HwIpSQc9GyYH4cuvCPLtdXqwAysy74m-e8DuHylQaKWo8I-9YgNfa_rhqzLNlYlMKKvx-F08pcpGAMfjctF7EZ0HCNKYk9ov_wTAyUTwZUoABWPTMoHOgaxDoXaQcj1R6j2fkiIDVbY-xcs65LD5UgPsB9j2DThYUVLZ9eijjRMn17INfEwypuBr17FkpmXbrLkzl2aDWXvSkD4tqhKdStxw_HAgmJNdU21dHuVCrkroJAd_hT0Lr-fPJ8QOkfedh3Zq_fpVOjVtSApbmF2IB7HkrU3bp-Vq-uuvL-OdD9YebNDL5tNvkVsUf-yaAh_9xQqDLa7kxlglNNn62aW3ouNjZPyyrsRJw7WET-qW1jCf4ellSdp3NJNrceLZ0UrkPyCTcDa50YTk-6Wkq46HflMQ6FrSIi_g4UsdExjbAwZHZbE2iXnVnTzO4M0gD6_DI0jPQIiHzfjSDThZdbgSppMV1in2PODuNTXrEgWdkpR4N6TU85VzZP3-d16ssOOI3RDS0ZlhUYGPXXuh_FC3k0jqEZQPHLK1CeNJHMS2ZXCx8UF9QGPwevHjX9wYQM9zh8M9YdwLy90qoiX0RKNcxNnk3RUKlXjhHbvnTCGYVZso6HALcM4J_OfrCX1EneHRqGxEwrc8gjDKmmKD2TqQ199L7KDfAb1CPN4vlIrNGXgrRPGZhBxBAYoQln0GVHlYAPwgQJ8tdBxSeiUWRP5kcl11QQTPa64_oA2nO9ftoYenW8MzRHk3JVK_jjf_uJ543hexQf_HxP7vugKRsgp0fvJC_nA3Jx9xKNei-3Kj6jhXQ0x-lSqXooOq92k_CClFpPfxIyteCjr5-8M04t10M0qcDrqxmcjf8oCZZjlpd2-XIoSLMrqwbi-zdh_Ou8_7WpOaTtjw8blaWi_BlSEXgtRKvnp5_wk_m40]--></g></svg>