<svg xmlns="http://www.w3.org/2000/svg" xmlns:xlink="http://www.w3.org/1999/xlink" contentStyleType="text/css" height="394px" preserveAspectRatio="none" style="width:1123px;height:394px;background:#FFFFFF;" version="1.1" viewBox="0 0 1123 394" width="1123px" zoomAndPan="magnify"><!-- GENERATED from cat-harness/uml/overview/cat-harness/qa.puml by cat-harness/scripts/gen-uml-overview.ts (PlantUML 1.2024.7) --><!-- puml-sha256: 4e9c0790864962680fe3fdb5545b14d16aba0611d96c81f37c83cb47937038e8 --><defs/><g><rect fill="#FFFFFF" height="371.3125" rx="2.5" ry="2.5" style="stroke:#000000;stroke-width:1.0;" width="1100.4287" x="17" y="17"/><text fill="#000000" font-family="Verdana" font-size="14" font-style="italic" lengthAdjust="spacing" textLength="33.4893" x="550.4697" y="32.5625">&#171;qa&#187;</text><text fill="#000000" font-family="Verdana" font-size="14" font-weight="bold" lengthAdjust="spacing" textLength="105.7109" x="514.3589" y="49.502">cat-harness/qa</text><!--class cat_harness_qa_qa_results_v1--><g id="elem_cat_harness_qa_qa_results_v1"><rect codeLine="11" fill="#F4E6E6" height="134.1563" id="cat_harness_qa_qa_results_v1" rx="2.5" ry="2.5" style="stroke:#000000;stroke-width:1.0;" width="1070.4287" x="32" y="65"/><ellipse cx="520.4937" cy="85.7295" fill="#FFFFFF" rx="9" ry="9" style="stroke:#000000;stroke-width:1.0;"/><path d="M523.4624,91.3701 Q522.8843,91.667 522.2437,91.8076 Q521.603,91.9639 520.8999,91.9639 Q518.3999,91.9639 517.0718,90.3232 Q515.7593,88.667 515.7593,85.542 Q515.7593,82.417 517.0718,80.7607 Q518.3999,79.1045 520.8999,79.1045 Q521.603,79.1045 522.2437,79.2607 Q522.8999,79.417 523.4624,79.7139 L523.4624,82.4326 Q522.8374,81.8545 522.2437,81.5889 Q521.6499,81.3076 521.0249,81.3076 Q519.6812,81.3076 518.9937,82.3857 Q518.3062,83.4482 518.3062,85.542 Q518.3062,87.6357 518.9937,88.7139 Q519.6812,89.7764 521.0249,89.7764 Q521.6499,89.7764 522.2437,89.5107 Q522.8374,89.2295 523.4624,88.6514 L523.4624,91.3701 Z " fill="#000000"/><text fill="#000000" font-family="Verdana" font-size="12" font-style="italic" lengthAdjust="spacing" textLength="82.5293" x="539.6997" y="81.625">&#171;ts: QaResult&#187;</text><text fill="#000000" font-family="Verdana" font-size="14" lengthAdjust="spacing" textLength="85.9414" x="537.9937" y="98.082">qa-results/v1</text><line style="stroke:#000000;stroke-width:1.0;" x1="33" x2="1101.4287" y1="106.459" y2="106.459"/><text fill="#000000" font-family="Verdana" font-size="14" lengthAdjust="spacing" textLength="187.0244" x="38" y="124.0215">$schema [1] : 'qa-results/v1'</text><text fill="#000000" font-family="Verdana" font-size="14" lengthAdjust="spacing" textLength="107.2217" x="38" y="140.9609">producer [1] : { /</text><text fill="#000000" font-family="Verdana" font-size="14" font-weight="bold" lengthAdjust="spacing" textLength="338.249" x="148.5371" y="140.9609">Repo-relative path to the script. */ script: string; /</text><text fill="#000000" font-family="Verdana" font-size="14" lengthAdjust="spacing" textLength="605.7051" x="490.7236" y="140.9609">12-char SHA-256 prefix of that script's source, as `script-qa` writes. */ script_hash: string; }</text><text fill="#000000" font-family="Verdana" font-size="14" lengthAdjust="spacing" textLength="238.8955" x="38" y="157.9004">subject [1] : { kind: string; id: string }</text><text fill="#000000" font-family="Verdana" font-size="14" lengthAdjust="spacing" textLength="296.5908" x="38" y="174.8398">families [1] : Record&lt;string, QaResultFamily&gt;</text><text fill="#000000" font-family="Verdana" font-size="14" lengthAdjust="spacing" textLength="111.3779" x="38" y="191.7793">total [1] : number</text></g><!--class cat_harness_qa_folio_qa_index_v1_folio_qa_index_v1--><g id="elem_cat_harness_qa_folio_qa_index_v1_folio_qa_index_v1"><rect codeLine="18" fill="#F4E6E6" height="134.1563" id="cat_harness_qa_folio_qa_index_v1_folio_qa_index_v1" rx="2.5" ry="2.5" style="stroke:#000000;stroke-width:1.0;" width="225.7939" x="275.9126" y="239.1563"/><ellipse cx="317.834" cy="259.8857" fill="#FFFFFF" rx="9" ry="9" style="stroke:#000000;stroke-width:1.0;"/><path d="M320.8027,265.5264 Q320.2246,265.8232 319.584,265.9639 Q318.9434,266.1201 318.2402,266.1201 Q315.7402,266.1201 314.4121,264.4795 Q313.0996,262.8232 313.0996,259.6982 Q313.0996,256.5732 314.4121,254.917 Q315.7402,253.2607 318.2402,253.2607 Q318.9434,253.2607 319.584,253.417 Q320.2402,253.5732 320.8027,253.8701 L320.8027,256.5889 Q320.1777,256.0107 319.584,255.7451 Q318.9902,255.4639 318.3652,255.4639 Q317.0215,255.4639 316.334,256.542 Q315.6465,257.6045 315.6465,259.6982 Q315.6465,261.792 316.334,262.8701 Q317.0215,263.9326 318.3652,263.9326 Q318.9902,263.9326 319.584,263.667 Q320.1777,263.3857 320.8027,262.8076 L320.8027,265.5264 Z " fill="#000000"/><text fill="#000000" font-family="Verdana" font-size="12" font-style="italic" lengthAdjust="spacing" textLength="138.4512" x="333.334" y="255.7813">&#171;json: QaIndexSchema&#187;</text><text fill="#000000" font-family="Verdana" font-size="14" lengthAdjust="spacing" textLength="112.7109" x="346.2041" y="272.2383">folio-qa-index/v1</text><line style="stroke:#000000;stroke-width:1.0;" x1="276.9126" x2="500.7065" y1="280.6152" y2="280.6152"/><text fill="#000000" font-family="Verdana" font-size="14" lengthAdjust="spacing" textLength="213.7939" x="281.9126" y="298.1777">$schema [1] : 'folio-qa-index/v1'</text><text fill="#000000" font-family="Verdana" font-size="14" lengthAdjust="spacing" textLength="102.4229" x="281.9126" y="315.1172">page [1] : string</text><text fill="#000000" font-family="Verdana" font-size="14" lengthAdjust="spacing" textLength="202.3301" x="281.9126" y="332.0566">corpus [0..1] : present | absent</text><text fill="#000000" font-family="Verdana" font-size="14" lengthAdjust="spacing" textLength="169.2168" x="281.9126" y="348.9961">badges [1] : map&lt;object&gt;</text><text fill="#000000" font-family="Verdana" font-size="14" lengthAdjust="spacing" textLength="154.3828" x="281.9126" y="365.9355">unswept [0..*] : string[]</text></g><!--class cat_harness_qa_folio_qa_translation_pages_v1_folio_qa_translation_pages_v1--><g id="elem_cat_harness_qa_folio_qa_translation_pages_v1_folio_qa_translation_pages_v1"><rect codeLine="25" fill="#F4E6E6" height="100.2773" id="cat_harness_qa_folio_qa_translation_pages_v1_folio_qa_translation_pages_v1" rx="2.5" ry="2.5" style="stroke:#000000;stroke-width:1.0;" width="306.0273" x="592.6055" y="239.1563"/><ellipse cx="640.1523" cy="259.8857" fill="#FFFFFF" rx="9" ry="9" style="stroke:#000000;stroke-width:1.0;"/><path d="M643.1211,265.5264 Q642.543,265.8232 641.9023,265.9639 Q641.2617,266.1201 640.5586,266.1201 Q638.0586,266.1201 636.7305,264.4795 Q635.418,262.8232 635.418,259.6982 Q635.418,256.5732 636.7305,254.917 Q638.0586,253.2607 640.5586,253.2607 Q641.2617,253.2607 641.9023,253.417 Q642.5586,253.5732 643.1211,253.8701 L643.1211,256.5889 Q642.4961,256.0107 641.9023,255.7451 Q641.3086,255.4639 640.6836,255.4639 Q639.3398,255.4639 638.6523,256.542 Q637.9648,257.6045 637.9648,259.6982 Q637.9648,261.792 638.6523,262.8701 Q639.3398,263.9326 640.6836,263.9326 Q641.3086,263.9326 641.9023,263.667 Q642.4961,263.3857 643.1211,262.8076 L643.1211,265.5264 Z " fill="#000000"/><text fill="#000000" font-family="Verdana" font-size="12" font-style="italic" lengthAdjust="spacing" textLength="207.4336" x="655.6523" y="255.7813">&#171;json: QaTranslationPagesSchema&#187;</text><text fill="#000000" font-family="Verdana" font-size="14" lengthAdjust="spacing" textLength="192.9443" x="662.897" y="272.2383">folio-qa-translation-pages/v1</text><line style="stroke:#000000;stroke-width:1.0;" x1="593.6055" x2="897.6328" y1="280.6152" y2="280.6152"/><text fill="#000000" font-family="Verdana" font-size="14" lengthAdjust="spacing" textLength="294.0273" x="598.6055" y="298.1777">$schema [1] : 'folio-qa-translation-pages/v1'</text><text fill="#000000" font-family="Verdana" font-size="14" lengthAdjust="spacing" textLength="185.4316" x="598.6055" y="315.1172">corpus [1] : present | absent</text><text fill="#000000" font-family="Verdana" font-size="14" lengthAdjust="spacing" textLength="138.2432" x="598.6055" y="332.0566">pages [0..*] : string[]</text></g><!--SRC=[bP9DRzf048Rl_XKJMWa9nH2YbWD5IBbKpQs5tgA83FROth3UNNRM49hotxjUMtmeGL4b7qOppypElA-lZCMyH92uqvK3agleoXLK4XY9GaMy4igWnH8IYSntpbcnh1pT9rhDnH-2cnE42qprLgWSCfHC9nM3oGfpchkT9B2KE5IvfAWGAG6LnksW95VebAEeHQ6Je8iBj8gO1sli03AOLRxmwKMRNgmH9fCrJgVm6a6p8NJM65lYIZeUR8QXxRob_bfWiHdw0Ox7y0jd8UL7VSg-q8X6OIJ0Pqwy70WFmqSOG_TiU3SGnkgqIiYso2iCUZsOaT6UbEZ4nck9hW2dmIiBd5XXN1zwWpOS0tjHLVujD0vluyJl2lCVT_7jrv6VJfbu0PtvPdHjIvU1TMKJkgxFUsgIyHgVO6k58pwPxW_dulZ4FgpCrVBPct3OsFkK7XbnY5iymr98GTpoCqgqJISDSdsGxdjDxQQXmsc7iiLLLIx9-lJ-w56cfT1-uTW_J2yNV0fG7GJ8U_KsuzrxPgrg_-xhr3oOzP69RrvlZQn_kmPfRWjPVwkf_Eat_NueUKEOb8E_WCiw2D0Iq_oWJubceeF0ZHYLuYqP5qRqZjCV7YzeuYmghlyShU9w9_v8dvE6HMWuq-gzwebklu_bdtNrFoLyRzdkcN2NLGly1LdsqJy0]--></g></svg>