<svg xmlns="http://www.w3.org/2000/svg" width="760" height="440" viewBox="0 0 760 440" font-family="system-ui, -apple-system, Segoe UI, Roboto, sans-serif">
  <rect width="760" height="440" rx="10" fill="#1e1e2e"/>
  <!-- title bar -->
  <rect width="760" height="40" rx="10" fill="#11111b"/>
  <circle cx="22" cy="20" r="6" fill="#f38ba8"/>
  <circle cx="42" cy="20" r="6" fill="#f9e2af"/>
  <circle cx="62" cy="20" r="6" fill="#a6e3a1"/>
  <text x="380" y="25" fill="#cdd6f4" font-size="13" text-anchor="middle">folio-assistant — paper authoring (mock)</text>

  <!-- user bubble -->
  <rect x="300" y="60" width="430" height="64" rx="10" fill="#313244"/>
  <text x="318" y="84" fill="#bac2de" font-size="12" font-weight="600">You</text>
  <text x="318" y="104" fill="#cdd6f4" font-size="12.5">Draft the introduction and the divergence</text>
  <text x="318" y="120" fill="#cdd6f4" font-size="12.5">theorem statement.</text>

  <!-- assistant bubble -->
  <rect x="30" y="140" width="520" height="120" rx="10" fill="#252537"/>
  <text x="48" y="164" fill="#89b4fa" font-size="12" font-weight="600">Assistant</text>
  <text x="48" y="186" fill="#cdd6f4" font-size="12.5">Loaded skill content-author. The theorem reads:</text>
  <rect x="48" y="198" width="484" height="48" rx="6" fill="#11111b"/>
  <text x="60" y="218" fill="#a6e3a1" font-size="12" font-family="monospace">thm:harmonic-diverges</text>
  <text x="60" y="236" fill="#cdd6f4" font-size="11.5" font-family="monospace">"The sequence (Hₙ) is unbounded."</text>

  <!-- tool call chip -->
  <rect x="30" y="272" width="300" height="26" rx="13" fill="#1e1e2e" stroke="#45475a"/>
  <circle cx="48" cy="285" r="5" fill="#f9e2af"/>
  <text x="62" y="289" fill="#bac2de" font-size="11.5" font-family="monospace">→ skill_fetch  content-author</text>

  <rect x="30" y="306" width="300" height="26" rx="13" fill="#1e1e2e" stroke="#45475a"/>
  <circle cx="48" cy="319" r="5" fill="#a6e3a1"/>
  <text x="62" y="323" fill="#bac2de" font-size="11.5" font-family="monospace">← content_list  ok (42ms)</text>

  <!-- input box -->
  <rect x="30" y="376" width="700" height="40" rx="20" fill="#313244"/>
  <text x="50" y="401" fill="#7f849c" font-size="12.5">Message folio-assistant…</text>
  <circle cx="708" cy="396" r="15" fill="#89b4fa"/>
  <path d="M702 396 l12 0 m-5 -5 l5 5 l-5 5" stroke="#11111b" stroke-width="2" fill="none"/>
</svg>
