<svg xmlns="http://www.w3.org/2000/svg" xmlns:xlink="http://www.w3.org/1999/xlink" contentStyleType="text/css" height="469px" preserveAspectRatio="none" style="width:488px;height:469px;background:#FFFFFF;" version="1.1" viewBox="0 0 488 469" width="488px" zoomAndPan="magnify"><!-- GENERATED from cat-harness/uml/overview/folio-assistant.puml by cat-harness/scripts/gen-uml-overview.ts (PlantUML 1.2024.7) --><!-- puml-sha256: 4989db99643d2169124672c2e7fd5d694150d1b51c62507d56e21e6398261510 --><defs/><g><rect fill="#FFFFFF" height="446.6563" rx="2.5" ry="2.5" style="stroke:#000000;stroke-width:1.0;" width="465.1582" x="17" y="17"/><text fill="#000000" font-family="Verdana" font-size="14" font-style="italic" lengthAdjust="spacing" textLength="72.1055" x="213.5264" y="31.9951">&#171;uploads&#187;</text><text fill="#000000" font-family="Verdana" font-size="14" font-weight="bold" lengthAdjust="spacing" textLength="180.0996" x="159.5293" y="48.292">folio-assistant/uploads</text><!--class folio_assistant_uploads_folio_extraction_v1_Asset--><g id="elem_folio_assistant_uploads_folio_extraction_v1_Asset"><rect codeLine="11" fill="#F4F4F1" height="162.3438" id="folio_assistant_uploads_folio_extraction_v1_Asset" rx="2.5" ry="2.5" style="stroke:#000000;stroke-width:1.0;" width="234.5781" x="32" y="286.3125"/><ellipse cx="69.2991" cy="306.4453" fill="#FFFFFF" rx="9" ry="9" style="stroke:#000000;stroke-width:1.0;"/><path d="M72.2679,312.0859 Q71.6897,312.3828 71.0491,312.5234 Q70.4085,312.6797 69.7054,312.6797 Q67.2054,312.6797 65.8772,311.0391 Q64.5647,309.3828 64.5647,306.2578 Q64.5647,303.1328 65.8772,301.4766 Q67.2054,299.8203 69.7054,299.8203 Q70.4085,299.8203 71.0491,299.9766 Q71.7054,300.1328 72.2679,300.4297 L72.2679,303.1484 Q71.6429,302.5703 71.0491,302.3047 Q70.4554,302.0234 69.8304,302.0234 Q68.4866,302.0234 67.7991,303.1016 Q67.1116,304.1641 67.1116,306.2578 Q67.1116,308.3516 67.7991,309.4297 Q68.4866,310.4922 69.8304,310.4922 Q70.4554,310.4922 71.0491,310.2266 Q71.6429,309.9453 72.2679,309.3672 L72.2679,312.0859 Z " fill="#000000"/><text fill="#000000" font-family="Verdana" font-size="12" font-style="italic" lengthAdjust="spacing" textLength="156.5801" x="84.6989" y="302.4512">&#171;json: ExtractionSchema&#187;</text><text fill="#000000" font-family="Verdana" font-size="14" lengthAdjust="spacing" textLength="38.2676" x="143.8552" y="318.2764">Asset</text><line style="stroke:#000000;stroke-width:1.0;" x1="33" x2="265.5781" y1="326.5781" y2="326.5781"/><text fill="#000000" font-family="Verdana" font-size="14" lengthAdjust="spacing" textLength="109.915" x="38" y="343.5732">path [1] : string</text><text fill="#000000" font-family="Verdana" font-size="14" lengthAdjust="spacing" textLength="126.5879" x="38" y="359.8701">bytes [1] : integer</text><text fill="#000000" font-family="Verdana" font-size="14" lengthAdjust="spacing" textLength="173.8379" x="38" y="376.167">mediaType [0..1] : string</text><text fill="#000000" font-family="Verdana" font-size="14" lengthAdjust="spacing" textLength="172.2588" x="38" y="392.4639">modifiedAt [0..1] : string</text><text fill="#000000" font-family="Verdana" font-size="14" lengthAdjust="spacing" textLength="147.3623" x="38" y="408.7607">sha256 [0..1] : string</text><text fill="#000000" font-family="Verdana" font-size="14" lengthAdjust="spacing" textLength="159.8994" x="38" y="425.0576">localPath [0..1] : string</text><text fill="#000000" font-family="Verdana" font-size="14" lengthAdjust="spacing" textLength="222.5781" x="38" y="441.3545">extractedBecause [0..1] : string</text></g><!--class folio_assistant_uploads_folio_extraction_v1_Omitted--><g id="elem_folio_assistant_uploads_folio_extraction_v1_Omitted"><rect codeLine="20" fill="#F4F4F1" height="97.1563" id="folio_assistant_uploads_folio_extraction_v1_Omitted" rx="2.5" ry="2.5" style="stroke:#000000;stroke-width:1.0;" width="180.5801" x="286.5781" y="286.3125"/><ellipse cx="299.5781" cy="306.4453" fill="#FFFFFF" rx="9" ry="9" style="stroke:#000000;stroke-width:1.0;"/><path d="M302.5469,312.0859 Q301.9688,312.3828 301.3281,312.5234 Q300.6875,312.6797 299.9844,312.6797 Q297.4844,312.6797 296.1563,311.0391 Q294.8438,309.3828 294.8438,306.2578 Q294.8438,303.1328 296.1563,301.4766 Q297.4844,299.8203 299.9844,299.8203 Q300.6875,299.8203 301.3281,299.9766 Q301.9844,300.1328 302.5469,300.4297 L302.5469,303.1484 Q301.9219,302.5703 301.3281,302.3047 Q300.7344,302.0234 300.1094,302.0234 Q298.7656,302.0234 298.0781,303.1016 Q297.3906,304.1641 297.3906,306.2578 Q297.3906,308.3516 298.0781,309.4297 Q298.7656,310.4922 300.1094,310.4922 Q300.7344,310.4922 301.3281,310.2266 Q301.9219,309.9453 302.5469,309.3672 L302.5469,312.0859 Z " fill="#000000"/><text fill="#000000" font-family="Verdana" font-size="12" font-style="italic" lengthAdjust="spacing" textLength="156.5801" x="309.5781" y="302.4512">&#171;json: ExtractionSchema&#187;</text><text fill="#000000" font-family="Verdana" font-size="14" lengthAdjust="spacing" textLength="57.0254" x="359.3555" y="318.2764">Omitted</text><line style="stroke:#000000;stroke-width:1.0;" x1="287.5781" x2="466.1582" y1="326.5781" y2="326.5781"/><text fill="#000000" font-family="Verdana" font-size="14" lengthAdjust="spacing" textLength="129.7734" x="292.5781" y="343.5732">pattern [1] : string</text><text fill="#000000" font-family="Verdana" font-size="14" lengthAdjust="spacing" textLength="125.7676" x="292.5781" y="359.8701">reason [1] : string</text><text fill="#000000" font-family="Verdana" font-size="14" lengthAdjust="spacing" textLength="127.5176" x="292.5781" y="376.167">count [1] : integer</text></g><!--class folio_assistant_uploads_folio_extraction_v1_folio_extraction_v1--><g id="elem_folio_assistant_uploads_folio_extraction_v1_folio_extraction_v1"><rect codeLine="25" fill="#F4F4F1" height="146.0469" id="folio_assistant_uploads_folio_extraction_v1_folio_extraction_v1" rx="2.5" ry="2.5" style="stroke:#000000;stroke-width:1.0;" width="343.3379" x="34.8431" y="64"/><ellipse cx="126.472" cy="84.1328" fill="#FFFFFF" rx="9" ry="9" style="stroke:#000000;stroke-width:1.0;"/><path d="M129.4408,89.7734 Q128.8626,90.0703 128.222,90.2109 Q127.5814,90.3672 126.8783,90.3672 Q124.3783,90.3672 123.0501,88.7266 Q121.7376,87.0703 121.7376,83.9453 Q121.7376,80.8203 123.0501,79.1641 Q124.3783,77.5078 126.8783,77.5078 Q127.5814,77.5078 128.222,77.6641 Q128.8783,77.8203 129.4408,78.1172 L129.4408,80.8359 Q128.8158,80.2578 128.222,79.9922 Q127.6283,79.7109 127.0033,79.7109 Q125.6595,79.7109 124.972,80.7891 Q124.2845,81.8516 124.2845,83.9453 Q124.2845,86.0391 124.972,87.1172 Q125.6595,88.1797 127.0033,88.1797 Q127.6283,88.1797 128.222,87.9141 Q128.8158,87.6328 129.4408,87.0547 L129.4408,89.7734 Z " fill="#000000"/><text fill="#000000" font-family="Verdana" font-size="12" font-style="italic" lengthAdjust="spacing" textLength="156.5801" x="141.972" y="80.1387">&#171;json: ExtractionSchema&#187;</text><text fill="#000000" font-family="Verdana" font-size="14" lengthAdjust="spacing" textLength="128.0371" x="156.2435" y="95.9639">folio-extraction/v1</text><line style="stroke:#000000;stroke-width:1.0;" x1="35.8431" x2="377.181" y1="104.2656" y2="104.2656"/><text fill="#000000" font-family="Verdana" font-size="14" lengthAdjust="spacing" textLength="237.2344" x="40.8431" y="121.2607">$schema [1] : 'folio-extraction/v1'</text><text fill="#000000" font-family="Verdana" font-size="14" lengthAdjust="spacing" textLength="144.4229" x="40.8431" y="137.5576">container [1] : string</text><text fill="#000000" font-family="Verdana" font-size="14" lengthAdjust="spacing" textLength="331.3379" x="40.8431" y="153.8545">method [1] : zip | pdf | saved-webpage | tarball</text><text fill="#000000" font-family="Verdana" font-size="14" lengthAdjust="spacing" textLength="173.7422" x="40.8431" y="170.1514">capturedAt [0..1] : string</text><text fill="#000000" font-family="Verdana" font-size="14" lengthAdjust="spacing" textLength="158.9287" x="40.8431" y="186.4482">producer [0..1] : string</text><text fill="#000000" font-family="Verdana" font-size="14" lengthAdjust="spacing" textLength="124.9883" x="40.8431" y="202.7451">readAt [1] : string</text></g><line style="stroke:#000000;stroke-width:1.0;" x1="149.2891" x2="149.2891" y1="210.0469" y2="286.3125"/><polygon fill="#000000" points="149.2891,210.0469,145.2891,216.0469,149.2891,222.0469,153.2891,216.0469,149.2891,210.0469" style="stroke:#000000;stroke-width:1.0;"/><text fill="#000000" font-family="Verdana" font-size="13" lengthAdjust="spacing" textLength="41.3804" x="103.9087" y="244.1138">assets</text><text fill="#000000" font-family="Verdana" font-size="13" lengthAdjust="spacing" textLength="23.0356" x="152.2891" y="281.2466">0..*</text><line style="stroke:#000000;stroke-width:1.0;" x1="263.735" x2="263.735" y1="210.0469" y2="220.0469"/><line style="stroke:#000000;stroke-width:1.0;" x1="263.735" x2="376.8682" y1="220.0469" y2="220.0469"/><line style="stroke:#000000;stroke-width:1.0;" x1="376.8682" x2="376.8682" y1="220.0469" y2="286.3125"/><polygon fill="#000000" points="263.735,210.0469,259.735,216.0469,263.735,222.0469,267.735,216.0469,263.735,210.0469" style="stroke:#000000;stroke-width:1.0;"/><text fill="#000000" font-family="Verdana" font-size="13" lengthAdjust="spacing" textLength="50.6733" x="381.8682" y="244.1138">omitted</text><text fill="#000000" font-family="Verdana" font-size="13" lengthAdjust="spacing" textLength="23.0356" x="379.8682" y="281.2466">0..*</text><!--SRC=[nLF1Qjmm4BtxAoPk8H3O95lQ7fOGs48FFRMmlOLYPgMnhQui2McygTFatwl8Qh9a7UWcXsAmnNkQcJVFCqVEOzCXQ1nipq1wKnnnIns1qwXC4JRAEFJOWT0OmfBPgtNFz4LOir8t1ESxLqABqbuhqq2DEj0Eur1iiA4L3vh0as0qZQQYLPA0EiS3TCIjbQ4eybKeQwkLdSMYAiJhVDOxRL664Z20spHLugi7lieyN5paq-Kb_2vW50xbCWJY5FnCO4v8lzYZO6LDjPrNAIgc_1ciMS3d1subeaaOAxoftyTddYf1x9DRk9h_W0M4w9Hf4heUc4A6bM5go2Uy8wdm- -08hivFJvz6TLQgMf5SyYGTpNxtuUCafQr0_Ir9cM1pWoG_aS0-J1M_UxJjQwSutZtOk1nta7LCtkoxvmbZXdrSsDxmdgixqiS1UfHrjfqVtCO4zkyjlGq9pngF9_GSvquCnsKZlz_ak1OPlr4ERi79Ehu3RadEhcdjxfVb5XZz6hKUyw7ZtZyxESvRsOlxQXDaT3l5FHs8kw9uhMydincKiUH9-O8LNCG_5x_XVwduEyyBiEFf3m00]--></g></svg>