<?xml version="1.0" encoding="utf-8" standalone="no"?>
<!DOCTYPE svg PUBLIC "-//W3C//DTD SVG 1.1//EN"
  "http://www.w3.org/Graphics/SVG/1.1/DTD/svg11.dtd">
<svg xmlns:xlink="http://www.w3.org/1999/xlink" width="172.789191pt" height="173.52pt" viewBox="0 0 172.789191 173.52" xmlns="http://www.w3.org/2000/svg" version="1.1">
 <metadata>
  <rdf:RDF xmlns:dc="http://purl.org/dc/elements/1.1/" xmlns:cc="http://creativecommons.org/ns#" xmlns:rdf="http://www.w3.org/1999/02/22-rdf-syntax-ns#">
   <cc:Work>
    <dc:type rdf:resource="http://purl.org/dc/dcmitype/StillImage"/>
    <dc:format>image/svg+xml</dc:format>
    <dc:creator>
     <cc:Agent>
      <dc:title>Matplotlib v3.10.8, https://matplotlib.org/</dc:title>
     </cc:Agent>
    </dc:creator>
   </cc:Work>
  </rdf:RDF>
 </metadata>
 <defs>
  <style type="text/css">*{stroke-linejoin: round; stroke-linecap: butt}</style>
 </defs>
 <g id="figure_1">
  <g id="patch_1">
   <path d="M 0 173.52 
L 172.789191 173.52 
L 172.789191 -0 
L 0 -0 
L 0 173.52 
z
" style="fill: none"/>
  </g>
  <g id="axes_1">
   <g id="line2d_1">
    <path d="M 154.242607 87.075171 
L 154.888427 85.785265 
L 155.27225 84.496415 
L 155.390016 83.370674 
L 155.302158 82.247871 
L 155.007388 81.129112 
L 154.505124 80.015602 
L 153.677248 78.751164 
L 152.579961 77.497554 
L 151.215943 76.257282 
L 149.367599 74.881449 
L 147.194389 73.530607 
L 144.410597 72.06519 
L 141.254121 70.64472 
L 137.374771 69.144459 
L 133.097892 67.721673 
L 128.018822 66.273952 
L 122.556267 64.953506 
L 116.764072 63.779958 
L 110.700125 62.773281 
L 104.425616 61.953279 
L 98.004231 61.339025 
L 91.501307 60.948274 
L 85.525124 60.800002 
L 79.586842 60.863263 
L 73.736685 61.146329 
L 68.023677 61.655036 
L 62.988891 62.315986 
L 58.140539 63.166274 
L 53.510791 64.204022 
L 49.129769 65.42516 
L 45.422577 66.675828 
L 41.958041 68.06385 
L 38.753047 69.581678 
L 35.822691 71.220387 
L 33.180221 72.969748 
L 31.082273 74.608405 
L 29.227514 76.316693 
L 27.621472 78.085226 
L 26.268487 79.904077 
L 25.17173 81.762866 
L 24.33322 83.650853 
L 23.753859 85.557032 
L 23.43346 87.470232 
L 23.364595 89.141209 
L 23.491613 90.801452 
L 23.874013 92.676201 
L 24.50573 94.516343 
L 25.382026 96.311306 
L 26.497356 98.050926 
L 27.845419 99.725535 
L 29.419214 101.326045 
L 31.211093 102.844019 
L 33.212817 104.271743 
L 35.70463 105.761449 
L 38.437649 107.119551 
L 41.397919 108.338813 
L 44.57085 109.413434 
L 48.327297 110.432583 
L 52.306058 111.263986 
L 56.484951 111.905981 
L 60.841197 112.359016 
L 65.81008 112.642081 
L 70.933674 112.705342 
L 76.179686 112.557071 
L 82.00362 112.16632 
L 87.890844 111.552065 
L 94.289141 110.655033 
L 100.65365 109.540843 
L 107.404496 108.127031 
L 113.978294 106.522241 
L 120.303305 104.757158 
L 126.308234 102.860624 
L 131.922844 100.858925 
L 136.727052 98.926412 
L 141.082894 96.939393 
L 144.662296 95.068691 
L 147.538656 93.33104 
L 150.000725 91.577582 
L 151.85933 89.974006 
L 153.209209 88.525825 
L 154.242607 87.075171 
L 154.515195 86.591422 
L 154.515195 86.591422 
" clip-path="url(#pade5acc48c)" style="fill: none; stroke: #ffffff; stroke-width: 7.8; stroke-linecap: round"/>
   </g>
   <g id="line2d_2">
    <path d="M 43.12503 21.835089 
L 41.416962 23.216914 
L 39.606606 24.986971 
L 37.924904 26.979911 
L 36.382891 29.18967 
L 34.991213 31.609557 
L 33.760019 34.232202 
L 32.698839 37.049499 
L 31.816478 40.052545 
L 31.120894 43.231585 
L 30.619093 46.57595 
L 30.317022 50.074012 
L 30.219468 53.713141 
L 30.329972 57.479666 
L 30.65075 61.358858 
L 31.25474 65.781964 
L 32.118342 70.301438 
L 33.238328 74.892508 
L 34.609175 79.528908 
L 36.223066 84.182988 
L 38.06992 88.825864 
L 40.137462 93.427598 
L 42.411316 97.957417 
L 44.875138 102.383961 
L 47.510769 106.675561 
L 50.298426 110.800541 
L 53.216904 114.727544 
L 56.243812 118.425869 
L 59.355817 121.865823 
L 62.528902 125.019069 
L 65.41671 127.589807 
L 68.316282 129.888717 
L 71.209758 131.899332 
L 74.079501 133.606911 
L 76.596489 134.859918 
L 79.069286 135.855618 
L 81.486502 136.587676 
L 83.837215 137.051164 
L 85.831356 137.233642 
L 87.760031 137.206439 
L 89.617027 136.969066 
L 91.396526 136.52194 
L 93.093131 135.86638 
L 94.701876 135.004606 
L 96.218246 133.93973 
L 97.63818 132.675742 
L 98.95808 131.217483 
L 100.174816 129.570625 
L 101.435645 127.465891 
L 102.555012 125.13415 
L 103.530442 122.58747 
L 104.360208 119.839033 
L 105.118358 116.523595 
L 105.690516 112.992379 
L 106.077335 109.268203 
L 106.291765 104.932949 
L 106.28291 100.422778 
L 106.055489 95.772379 
L 105.61529 91.016893 
L 104.893349 85.706512 
L 103.93211 80.358044 
L 102.742537 75.01698 
L 101.336337 69.727341 
L 99.725788 64.531225 
L 97.923595 59.46841 
L 95.942775 54.576032 
L 93.796573 49.888327 
L 91.498405 45.436436 
L 89.288707 41.617464 
L 86.974935 38.035157 
L 84.56752 34.705942 
L 82.077047 31.644063 
L 79.514294 28.861645 
L 76.890281 26.368789 
L 74.485632 24.379598 
L 72.048996 22.636329 
L 69.589102 21.142614 
L 67.114958 19.901076 
L 64.635867 18.913408 
L 62.161442 18.180461 
L 59.701617 17.702318 
L 57.266643 17.478364 
L 55.131611 17.491691 
L 53.032157 17.703617 
L 50.976048 18.112541 
L 48.971191 18.716543 
L 47.025602 19.513394 
L 45.147379 20.500564 
L 43.344656 21.675226 
L 42.47415 22.331898 
L 42.47415 22.331898 
" clip-path="url(#pade5acc48c)" style="fill: none; stroke: #ffffff; stroke-width: 7.8; stroke-linecap: round"/>
   </g>
   <g id="line2d_3">
    <path d="M 27.234173 150.980234 
L 29.236357 152.27513 
L 31.405255 153.384732 
L 33.733176 154.305941 
L 36.211502 155.035961 
L 38.830712 155.572293 
L 41.580414 155.912742 
L 44.44939 156.055421 
L 47.425644 155.998776 
L 50.886301 155.695305 
L 54.447534 155.1369 
L 58.089337 154.32308 
L 61.790938 153.254093 
L 65.530944 151.930993 
L 69.287512 150.355721 
L 73.038521 148.531186 
L 76.761746 146.461352 
L 80.435042 144.151318 
L 84.036525 141.607401 
L 87.544749 138.837204 
L 90.938886 135.849684 
L 94.198894 132.655202 
L 97.305679 129.265562 
L 100.241246 125.694038 
L 102.693324 122.378546 
L 104.985994 118.942304 
L 107.109301 115.397536 
L 109.054259 111.757338 
L 110.812893 108.035635 
L 112.37828 104.247137 
L 113.744567 100.40728 
L 114.906999 96.532155 
L 115.861922 92.638433 
L 116.606783 88.743276 
L 117.140122 84.864238 
L 117.461556 81.019169 
L 117.57175 77.226095 
L 117.472386 73.503111 
L 117.166123 69.868252 
L 116.656548 66.339376 
L 115.948129 62.934032 
L 115.046157 59.66934 
L 113.956681 56.561861 
L 112.686453 53.627474 
L 111.242857 50.881257 
L 109.633842 48.337374 
L 107.867861 46.008964 
L 106.20084 44.157835 
L 104.426624 42.488182 
L 102.551581 41.006538 
L 100.582234 39.718641 
L 98.525223 38.629403 
L 96.387286 37.742885 
L 94.175226 37.062269 
L 91.895887 36.589851 
L 89.556135 36.327023 
L 87.162832 36.274275 
L 84.722824 36.431193 
L 82.242919 36.796472 
L 79.729877 37.367925 
L 76.825845 38.269526 
L 73.897168 39.430528 
L 70.953601 40.84369 
L 68.004753 42.500472 
L 65.060086 44.391125 
L 61.763916 46.784078 
L 58.497836 49.442203 
L 55.274624 52.347015 
L 52.106828 55.478762 
L 48.667022 59.199303 
L 45.327416 63.14454 
L 42.104272 67.283765 
L 38.71235 72.02359 
L 35.501419 76.918228 
L 32.491779 81.92578 
L 29.703201 87.004943 
L 27.154863 92.115436 
L 24.865253 97.218369 
L 22.852047 102.27656 
L 21.275801 106.806409 
L 19.953566 111.245214 
L 18.896192 115.56959 
L 18.1135 119.757746 
L 17.651101 123.393902 
L 17.423608 126.889738 
L 17.435458 130.232668 
L 17.649691 133.066397 
L 18.057372 135.762615 
L 18.659389 138.314365 
L 19.455837 140.715222 
L 20.445977 142.959259 
L 21.628205 145.041018 
L 23.000015 146.955471 
L 24.557984 148.697998 
L 26.297744 150.264352 
L 27.965006 151.487325 
L 27.965006 151.487325 
" clip-path="url(#pade5acc48c)" style="fill: none; stroke: #ffffff; stroke-width: 7.8; stroke-linecap: round"/>
   </g>
  </g>
 </g>
 <defs>
  <clipPath id="pade5acc48c">
   <rect x="3.6" y="3.6" width="165.589191" height="166.32"/>
  </clipPath>
 </defs>
</svg>
