<?xml version="1.0" encoding="utf-8" standalone="no"?>
<!DOCTYPE svg PUBLIC "-//W3C//DTD SVG 1.1//EN"
  "http://www.w3.org/Graphics/SVG/1.1/DTD/svg11.dtd">
<svg xmlns:xlink="http://www.w3.org/1999/xlink" width="174.6pt" height="166.425907pt" viewBox="0 0 174.6 166.425907" xmlns="http://www.w3.org/2000/svg" version="1.1">
 <metadata>
  <rdf:RDF xmlns:dc="http://purl.org/dc/elements/1.1/" xmlns:cc="http://creativecommons.org/ns#" xmlns:rdf="http://www.w3.org/1999/02/22-rdf-syntax-ns#">
   <cc:Work>
    <dc:type rdf:resource="http://purl.org/dc/dcmitype/StillImage"/>
    <dc:format>image/svg+xml</dc:format>
    <dc:creator>
     <cc:Agent>
      <dc:title>Matplotlib v3.10.8, https://matplotlib.org/</dc:title>
     </cc:Agent>
    </dc:creator>
   </cc:Work>
  </rdf:RDF>
 </metadata>
 <defs>
  <style type="text/css">*{stroke-linejoin: round; stroke-linecap: butt}</style>
 </defs>
 <g id="figure_1">
  <g id="patch_1">
   <path d="M 0 166.425907 
L 174.6 166.425907 
L 174.6 0 
L 0 0 
L 0 166.425907 
z
" style="fill: none"/>
  </g>
  <g id="axes_1">
   <g id="line2d_1">
    <path d="M 118.540685 68.112267 
L 118.687631 67.754684 
L 118.835951 67.395107 
L 118.985548 67.033527 
L 119.136321 66.669933 
L 119.28817 66.304317 
L 119.440992 65.936672 
L 119.594685 65.566994 
L 119.749144 65.19528 
L 119.904265 64.821528 
L 120.059941 64.44574 
L 120.216066 64.067918 
L 120.372533 63.688066 
L 120.529232 63.306189 
L 120.686056 62.922297 
L 120.842895 62.536398 
L 120.999639 62.148504 
L 121.156178 61.758628 
L 121.3124 61.366786 
L 121.468194 60.972994 
L 121.623449 60.577272 
L 121.778052 60.17964 
L 121.931891 59.780121 
L 122.084855 59.378739 
L 122.23683 58.97552 
L 122.387703 58.570494 
L 122.537363 58.163688 
L 122.685697 57.755137 
L 122.832592 57.344873 
L 122.977936 56.932931 
L 123.121616 56.51935 
L 123.263522 56.104168 
L 123.403541 55.687426 
L 123.541563 55.269167 
L 123.677476 54.849437 
L 123.81117 54.42828 
L 123.942536 54.005745 
" clip-path="url(#pf257d0f688)" style="fill: none; stroke: #ffffff; stroke-width: 7.8; stroke-linecap: round"/>
   </g>
   <g id="line2d_2">
    <path d="M 120.059941 64.44574 
L 120.216066 64.067918 
L 120.372533 63.688066 
L 120.529232 63.306189 
L 120.686056 62.922297 
L 120.842895 62.536398 
L 120.999639 62.148504 
L 121.156178 61.758628 
L 121.3124 61.366786 
L 121.468194 60.972994 
L 121.623449 60.577272 
L 121.778052 60.17964 
L 121.931891 59.780121 
L 122.084855 59.378739 
L 122.23683 58.97552 
L 122.387703 58.570494 
L 122.537363 58.163688 
L 122.685697 57.755137 
L 122.832592 57.344873 
L 122.977936 56.932931 
L 123.121616 56.51935 
L 123.263522 56.104168 
L 123.403541 55.687426 
L 123.541563 55.269167 
L 123.677476 54.849437 
L 123.81117 54.42828 
L 123.942536 54.005745 
L 124.071464 53.581882 
L 124.197846 53.156743 
L 124.321574 52.73038 
L 124.442541 52.30285 
L 124.560641 51.874208 
L 124.675768 51.444513 
L 124.787817 51.013825 
L 124.896686 50.582206 
L 125.002271 50.149719 
L 125.104472 49.716428 
" clip-path="url(#pf257d0f688)" style="fill: none; stroke: #ffffff; stroke-width: 7.8; stroke-linecap: round"/>
   </g>
   <g id="line2d_3">
    <path d="M 117.167653 71.582207 
L 117.295708 71.24356 
L 117.426051 70.903123 
L 117.558598 70.56087 
L 117.693261 70.216775 
L 117.829954 69.870814 
L 117.968587 69.522963 
L 118.10907 69.173202 
L 118.251309 68.821511 
L 118.395213 68.467871 
L 118.540685 68.112267 
L 118.687631 67.754684 
L 118.835951 67.395107 
L 118.985548 67.033527 
L 119.136321 66.669933 
L 119.28817 66.304317 
L 119.440992 65.936672 
L 119.594685 65.566994 
L 119.749144 65.19528 
L 119.904265 64.821528 
L 120.059941 64.44574 
L 120.216066 64.067918 
L 120.372533 63.688066 
L 120.529232 63.306189 
L 120.686056 62.922297 
L 120.842895 62.536398 
L 120.999639 62.148504 
L 121.156178 61.758628 
L 121.3124 61.366786 
L 121.468194 60.972994 
L 121.623449 60.577272 
L 121.778052 60.17964 
L 121.931891 59.780121 
L 122.084855 59.378739 
L 122.23683 58.97552 
L 122.387703 58.570494 
L 122.537363 58.163688 
" clip-path="url(#pf257d0f688)" style="fill: none; stroke: #ffffff; stroke-width: 7.8; stroke-linecap: round"/>
   </g>
   <g id="line2d_4">
    <path d="M 118.540685 68.112267 
L 118.687631 67.754684 
L 118.835951 67.395107 
L 118.985548 67.033527 
L 119.136321 66.669933 
L 119.28817 66.304317 
L 119.440992 65.936672 
L 119.594685 65.566994 
L 119.749144 65.19528 
L 119.904265 64.821528 
L 120.059941 64.44574 
L 120.216066 64.067918 
L 120.372533 63.688066 
L 120.529232 63.306189 
L 120.686056 62.922297 
L 120.842895 62.536398 
L 120.999639 62.148504 
L 121.156178 61.758628 
L 121.3124 61.366786 
L 121.468194 60.972994 
L 121.623449 60.577272 
L 121.778052 60.17964 
L 121.931891 59.780121 
L 122.084855 59.378739 
L 122.23683 58.97552 
L 122.387703 58.570494 
L 122.537363 58.163688 
L 122.685697 57.755137 
L 122.832592 57.344873 
L 122.977936 56.932931 
L 123.121616 56.51935 
L 123.263522 56.104168 
L 123.403541 55.687426 
L 123.541563 55.269167 
L 123.677476 54.849437 
L 123.81117 54.42828 
L 123.942536 54.005745 
" clip-path="url(#pf257d0f688)" style="fill: none; stroke: #ffffff; stroke-width: 7.8; stroke-linecap: round"/>
   </g>
   <g id="line2d_5">
    <path d="M 120.059941 64.44574 
L 120.216066 64.067918 
L 120.372533 63.688066 
L 120.529232 63.306189 
L 120.686056 62.922297 
L 120.842895 62.536398 
L 120.999639 62.148504 
L 121.156178 61.758628 
L 121.3124 61.366786 
L 121.468194 60.972994 
L 121.623449 60.577272 
L 121.778052 60.17964 
L 121.931891 59.780121 
L 122.084855 59.378739 
L 122.23683 58.97552 
L 122.387703 58.570494 
L 122.537363 58.163688 
L 122.685697 57.755137 
L 122.832592 57.344873 
L 122.977936 56.932931 
L 123.121616 56.51935 
L 123.263522 56.104168 
L 123.403541 55.687426 
L 123.541563 55.269167 
L 123.677476 54.849437 
L 123.81117 54.42828 
L 123.942536 54.005745 
L 124.071464 53.581882 
L 124.197846 53.156743 
L 124.321574 52.73038 
L 124.442541 52.30285 
L 124.560641 51.874208 
L 124.675768 51.444513 
L 124.787817 51.013825 
L 124.896686 50.582206 
L 125.002271 50.149719 
L 125.104472 49.716428 
" clip-path="url(#pf257d0f688)" style="fill: none; stroke: #ffffff; stroke-width: 7.8; stroke-linecap: round"/>
   </g>
   <g id="line2d_6">
    <path d="M 117.829954 69.870814 
L 117.968587 69.522963 
L 118.10907 69.173202 
L 118.251309 68.821511 
L 118.395213 68.467871 
L 118.540685 68.112267 
L 118.687631 67.754684 
L 118.835951 67.395107 
L 118.985548 67.033527 
L 119.136321 66.669933 
L 119.28817 66.304317 
L 119.440992 65.936672 
L 119.594685 65.566994 
L 119.749144 65.19528 
L 119.904265 64.821528 
L 120.059941 64.44574 
L 120.216066 64.067918 
L 120.372533 63.688066 
L 120.529232 63.306189 
L 120.686056 62.922297 
L 120.842895 62.536398 
L 120.999639 62.148504 
L 121.156178 61.758628 
L 121.3124 61.366786 
L 121.468194 60.972994 
L 121.623449 60.577272 
L 121.778052 60.17964 
L 121.931891 59.780121 
L 122.084855 59.378739 
L 122.23683 58.97552 
L 122.387703 58.570494 
L 122.537363 58.163688 
L 122.685697 57.755137 
L 122.832592 57.344873 
L 122.977936 56.932931 
L 123.121616 56.51935 
L 123.263522 56.104168 
" clip-path="url(#pf257d0f688)" style="fill: none; stroke: #ffffff; stroke-width: 7.8; stroke-linecap: round"/>
   </g>
   <g id="line2d_7">
    <path d="M 119.28817 66.304317 
L 119.440992 65.936672 
L 119.594685 65.566994 
L 119.749144 65.19528 
L 119.904265 64.821528 
L 120.059941 64.44574 
L 120.216066 64.067918 
L 120.372533 63.688066 
L 120.529232 63.306189 
L 120.686056 62.922297 
L 120.842895 62.536398 
L 120.999639 62.148504 
L 121.156178 61.758628 
L 121.3124 61.366786 
L 121.468194 60.972994 
L 121.623449 60.577272 
L 121.778052 60.17964 
L 121.931891 59.780121 
L 122.084855 59.378739 
L 122.23683 58.97552 
L 122.387703 58.570494 
L 122.537363 58.163688 
L 122.685697 57.755137 
L 122.832592 57.344873 
L 122.977936 56.932931 
L 123.121616 56.51935 
L 123.263522 56.104168 
L 123.403541 55.687426 
L 123.541563 55.269167 
L 123.677476 54.849437 
L 123.81117 54.42828 
L 123.942536 54.005745 
L 124.071464 53.581882 
L 124.197846 53.156743 
L 124.321574 52.73038 
L 124.442541 52.30285 
L 124.560641 51.874208 
" clip-path="url(#pf257d0f688)" style="fill: none; stroke: #ffffff; stroke-width: 7.8; stroke-linecap: round"/>
   </g>
   <g id="line2d_8">
    <path d="M 82.339907 41.747733 
L 82.093416 41.444016 
L 81.843792 41.139811 
L 81.590981 40.835221 
L 81.33493 40.530354 
L 81.07559 40.225317 
L 80.81291 39.920217 
L 80.546846 39.615165 
L 80.277352 39.31027 
L 80.004385 39.005644 
L 79.727905 38.701399 
L 79.447874 38.397648 
L 79.164254 38.094505 
L 78.877012 37.792083 
L 78.586115 37.490498 
L 78.291533 37.189866 
L 77.993239 36.890303 
L 77.691205 36.591925 
L 77.38541 36.29485 
L 77.075831 35.999195 
L 76.76245 35.705078 
L 76.44525 35.412618 
L 76.124216 35.121934 
L 75.799336 34.833143 
L 75.470601 34.546365 
L 75.138003 34.261719 
L 74.801536 33.979324 
L 74.461197 33.699299 
L 74.116987 33.421763 
L 73.768907 33.146835 
L 73.416962 32.874633 
L 73.061158 32.605277 
L 72.701503 32.338883 
L 72.33801 32.075571 
L 71.970692 31.815457 
L 71.599566 31.558659 
L 71.224649 31.305293 
" clip-path="url(#pf257d0f688)" style="fill: none; stroke: #ffffff; stroke-width: 7.8; stroke-linecap: round"/>
   </g>
   <g id="line2d_9">
    <path d="M 81.07559 40.225317 
L 80.81291 39.920217 
L 80.546846 39.615165 
L 80.277352 39.31027 
L 80.004385 39.005644 
L 79.727905 38.701399 
L 79.447874 38.397648 
L 79.164254 38.094505 
L 78.877012 37.792083 
L 78.586115 37.490498 
L 78.291533 37.189866 
L 77.993239 36.890303 
L 77.691205 36.591925 
L 77.38541 36.29485 
L 77.075831 35.999195 
L 76.76245 35.705078 
L 76.44525 35.412618 
L 76.124216 35.121934 
L 75.799336 34.833143 
L 75.470601 34.546365 
L 75.138003 34.261719 
L 74.801536 33.979324 
L 74.461197 33.699299 
L 74.116987 33.421763 
L 73.768907 33.146835 
L 73.416962 32.874633 
L 73.061158 32.605277 
L 72.701503 32.338883 
L 72.33801 32.075571 
L 71.970692 31.815457 
L 71.599566 31.558659 
L 71.224649 31.305293 
L 70.845964 31.055476 
L 70.463532 30.809322 
L 70.07738 30.566946 
L 69.687536 30.328464 
L 69.294031 30.093987 
" clip-path="url(#pf257d0f688)" style="fill: none; stroke: #ffffff; stroke-width: 7.8; stroke-linecap: round"/>
   </g>
   <g id="line2d_10">
    <path d="M 79.727905 38.701399 
L 79.447874 38.397648 
L 79.164254 38.094505 
L 78.877012 37.792083 
L 78.586115 37.490498 
L 78.291533 37.189866 
L 77.993239 36.890303 
L 77.691205 36.591925 
L 77.38541 36.29485 
L 77.075831 35.999195 
L 76.76245 35.705078 
L 76.44525 35.412618 
L 76.124216 35.121934 
L 75.799336 34.833143 
L 75.470601 34.546365 
L 75.138003 34.261719 
L 74.801536 33.979324 
L 74.461197 33.699299 
L 74.116987 33.421763 
L 73.768907 33.146835 
L 73.416962 32.874633 
L 73.061158 32.605277 
L 72.701503 32.338883 
L 72.33801 32.075571 
L 71.970692 31.815457 
L 71.599566 31.558659 
L 71.224649 31.305293 
L 70.845964 31.055476 
L 70.463532 30.809322 
L 70.07738 30.566946 
L 69.687536 30.328464 
L 69.294031 30.093987 
L 68.896896 29.863629 
L 68.496168 29.637501 
L 68.091883 29.415714 
L 67.684082 29.198377 
L 67.272807 28.9856 
" clip-path="url(#pf257d0f688)" style="fill: none; stroke: #ffffff; stroke-width: 7.8; stroke-linecap: round"/>
   </g>
   <g id="line2d_11">
    <path d="M 78.291533 37.189866 
L 77.993239 36.890303 
L 77.691205 36.591925 
L 77.38541 36.29485 
L 77.075831 35.999195 
L 76.76245 35.705078 
L 76.44525 35.412618 
L 76.124216 35.121934 
L 75.799336 34.833143 
L 75.470601 34.546365 
L 75.138003 34.261719 
L 74.801536 33.979324 
L 74.461197 33.699299 
L 74.116987 33.421763 
L 73.768907 33.146835 
L 73.416962 32.874633 
L 73.061158 32.605277 
L 72.701503 32.338883 
L 72.33801 32.075571 
L 71.970692 31.815457 
L 71.599566 31.558659 
L 71.224649 31.305293 
L 70.845964 31.055476 
L 70.463532 30.809322 
L 70.07738 30.566946 
L 69.687536 30.328464 
L 69.294031 30.093987 
L 68.896896 29.863629 
L 68.496168 29.637501 
L 68.091883 29.415714 
L 67.684082 29.198377 
L 67.272807 28.9856 
L 66.858101 28.777491 
L 66.440013 28.574155 
L 66.01859 28.375698 
L 65.593884 28.182226 
L 65.165948 27.993839 
" clip-path="url(#pf257d0f688)" style="fill: none; stroke: #ffffff; stroke-width: 7.8; stroke-linecap: round"/>
   </g>
   <g id="line2d_12">
    <path d="M 78.291533 37.189866 
L 77.993239 36.890303 
L 77.691205 36.591925 
L 77.38541 36.29485 
L 77.075831 35.999195 
L 76.76245 35.705078 
L 76.44525 35.412618 
L 76.124216 35.121934 
L 75.799336 34.833143 
L 75.470601 34.546365 
L 75.138003 34.261719 
L 74.801536 33.979324 
L 74.461197 33.699299 
L 74.116987 33.421763 
L 73.768907 33.146835 
L 73.416962 32.874633 
L 73.061158 32.605277 
L 72.701503 32.338883 
L 72.33801 32.075571 
L 71.970692 31.815457 
L 71.599566 31.558659 
L 71.224649 31.305293 
L 70.845964 31.055476 
L 70.463532 30.809322 
L 70.07738 30.566946 
L 69.687536 30.328464 
L 69.294031 30.093987 
L 68.896896 29.863629 
L 68.496168 29.637501 
L 68.091883 29.415714 
L 67.684082 29.198377 
L 67.272807 28.9856 
L 66.858101 28.777491 
L 66.440013 28.574155 
L 66.01859 28.375698 
L 65.593884 28.182226 
L 65.165948 27.993839 
" clip-path="url(#pf257d0f688)" style="fill: none; stroke: #ffffff; stroke-width: 7.8; stroke-linecap: round"/>
   </g>
   <g id="line2d_13">
    <path d="M 32.526554 73.621352 
L 32.181154 73.891174 
L 31.836996 74.166743 
L 31.494203 74.448065 
L 31.152894 74.735141 
L 30.813192 75.027971 
L 30.475218 75.326552 
L 30.139093 75.63088 
L 29.80494 75.940945 
L 29.47288 76.256736 
L 29.143035 76.57824 
L 28.815526 76.905441 
L 28.490474 77.238319 
L 28.168001 77.576852 
L 27.848227 77.921016 
L 27.531272 78.270785 
L 27.217257 78.626127 
L 26.9063 78.987012 
L 26.598522 79.353402 
L 26.294039 79.725262 
L 25.992971 80.10255 
L 25.695434 80.485224 
L 25.401544 80.873237 
L 25.111416 81.266542 
L 24.825167 81.665088 
L 24.542908 82.068822 
L 24.264754 82.477688 
L 23.990816 82.891627 
L 23.721204 83.310579 
L 23.456029 83.734481 
L 23.195399 84.163266 
L 22.939421 84.596866 
L 22.688202 85.035212 
L 22.441845 85.47823 
L 22.200455 85.925845 
L 21.964134 86.377979 
L 21.732981 86.834553 
" clip-path="url(#pf257d0f688)" style="fill: none; stroke: #ffffff; stroke-width: 7.8; stroke-linecap: round"/>
   </g>
   <g id="line2d_14">
    <path d="M 29.143035 76.57824 
L 28.815526 76.905441 
L 28.490474 77.238319 
L 28.168001 77.576852 
L 27.848227 77.921016 
L 27.531272 78.270785 
L 27.217257 78.626127 
L 26.9063 78.987012 
L 26.598522 79.353402 
L 26.294039 79.725262 
L 25.992971 80.10255 
L 25.695434 80.485224 
L 25.401544 80.873237 
L 25.111416 81.266542 
L 24.825167 81.665088 
L 24.542908 82.068822 
L 24.264754 82.477688 
L 23.990816 82.891627 
L 23.721204 83.310579 
L 23.456029 83.734481 
L 23.195399 84.163266 
L 22.939421 84.596866 
L 22.688202 85.035212 
L 22.441845 85.47823 
L 22.200455 85.925845 
L 21.964134 86.377979 
L 21.732981 86.834553 
L 21.507097 87.295484 
L 21.286579 87.760689 
L 21.071522 88.23008 
L 20.862022 88.70357 
L 20.65817 89.181067 
L 20.460058 89.662479 
L 20.267774 90.14771 
L 20.081407 90.636665 
L 19.901042 91.129244 
L 19.726763 91.625347 
" clip-path="url(#pf257d0f688)" style="fill: none; stroke: #ffffff; stroke-width: 7.8; stroke-linecap: round"/>
   </g>
   <g id="line2d_15">
    <path d="M 32.526554 73.621352 
L 32.181154 73.891174 
L 31.836996 74.166743 
L 31.494203 74.448065 
L 31.152894 74.735141 
L 30.813192 75.027971 
L 30.475218 75.326552 
L 30.139093 75.63088 
L 29.80494 75.940945 
L 29.47288 76.256736 
L 29.143035 76.57824 
L 28.815526 76.905441 
L 28.490474 77.238319 
L 28.168001 77.576852 
L 27.848227 77.921016 
L 27.531272 78.270785 
L 27.217257 78.626127 
L 26.9063 78.987012 
L 26.598522 79.353402 
L 26.294039 79.725262 
L 25.992971 80.10255 
L 25.695434 80.485224 
L 25.401544 80.873237 
L 25.111416 81.266542 
L 24.825167 81.665088 
L 24.542908 82.068822 
L 24.264754 82.477688 
L 23.990816 82.891627 
L 23.721204 83.310579 
L 23.456029 83.734481 
L 23.195399 84.163266 
L 22.939421 84.596866 
L 22.688202 85.035212 
L 22.441845 85.47823 
L 22.200455 85.925845 
L 21.964134 86.377979 
L 21.732981 86.834553 
" clip-path="url(#pf257d0f688)" style="fill: none; stroke: #ffffff; stroke-width: 7.8; stroke-linecap: round"/>
   </g>
   <g id="line2d_16">
    <path d="M 29.143035 76.57824 
L 28.815526 76.905441 
L 28.490474 77.238319 
L 28.168001 77.576852 
L 27.848227 77.921016 
L 27.531272 78.270785 
L 27.217257 78.626127 
L 26.9063 78.987012 
L 26.598522 79.353402 
L 26.294039 79.725262 
L 25.992971 80.10255 
L 25.695434 80.485224 
L 25.401544 80.873237 
L 25.111416 81.266542 
L 24.825167 81.665088 
L 24.542908 82.068822 
L 24.264754 82.477688 
L 23.990816 82.891627 
L 23.721204 83.310579 
L 23.456029 83.734481 
L 23.195399 84.163266 
L 22.939421 84.596866 
L 22.688202 85.035212 
L 22.441845 85.47823 
L 22.200455 85.925845 
L 21.964134 86.377979 
L 21.732981 86.834553 
L 21.507097 87.295484 
L 21.286579 87.760689 
L 21.071522 88.23008 
L 20.862022 88.70357 
L 20.65817 89.181067 
L 20.460058 89.662479 
L 20.267774 90.14771 
L 20.081407 90.636665 
L 19.901042 91.129244 
L 19.726763 91.625347 
" clip-path="url(#pf257d0f688)" style="fill: none; stroke: #ffffff; stroke-width: 7.8; stroke-linecap: round"/>
   </g>
   <g id="line2d_17">
    <path d="M 25.992971 80.10255 
L 25.695434 80.485224 
L 25.401544 80.873237 
L 25.111416 81.266542 
L 24.825167 81.665088 
L 24.542908 82.068822 
L 24.264754 82.477688 
L 23.990816 82.891627 
L 23.721204 83.310579 
L 23.456029 83.734481 
L 23.195399 84.163266 
L 22.939421 84.596866 
L 22.688202 85.035212 
L 22.441845 85.47823 
L 22.200455 85.925845 
L 21.964134 86.377979 
L 21.732981 86.834553 
L 21.507097 87.295484 
L 21.286579 87.760689 
L 21.071522 88.23008 
L 20.862022 88.70357 
L 20.65817 89.181067 
L 20.460058 89.662479 
L 20.267774 90.14771 
L 20.081407 90.636665 
L 19.901042 91.129244 
L 19.726763 91.625347 
L 19.558651 92.12487 
L 19.396786 92.627711 
L 19.241247 93.133761 
L 19.092108 93.642915 
L 18.949445 94.155061 
L 18.813328 94.670088 
L 18.683827 95.187884 
L 18.561009 95.708334 
L 18.44494 96.231323 
L 18.335683 96.756731 
" clip-path="url(#pf257d0f688)" style="fill: none; stroke: #ffffff; stroke-width: 7.8; stroke-linecap: round"/>
   </g>
   <g id="line2d_18">
    <path d="M 29.143035 76.57824 
L 28.815526 76.905441 
L 28.490474 77.238319 
L 28.168001 77.576852 
L 27.848227 77.921016 
L 27.531272 78.270785 
L 27.217257 78.626127 
L 26.9063 78.987012 
L 26.598522 79.353402 
L 26.294039 79.725262 
L 25.992971 80.10255 
L 25.695434 80.485224 
L 25.401544 80.873237 
L 25.111416 81.266542 
L 24.825167 81.665088 
L 24.542908 82.068822 
L 24.264754 82.477688 
L 23.990816 82.891627 
L 23.721204 83.310579 
L 23.456029 83.734481 
L 23.195399 84.163266 
L 22.939421 84.596866 
L 22.688202 85.035212 
L 22.441845 85.47823 
L 22.200455 85.925845 
L 21.964134 86.377979 
L 21.732981 86.834553 
L 21.507097 87.295484 
L 21.286579 87.760689 
L 21.071522 88.23008 
L 20.862022 88.70357 
L 20.65817 89.181067 
L 20.460058 89.662479 
L 20.267774 90.14771 
L 20.081407 90.636665 
L 19.901042 91.129244 
L 19.726763 91.625347 
" clip-path="url(#pf257d0f688)" style="fill: none; stroke: #ffffff; stroke-width: 7.8; stroke-linecap: round"/>
   </g>
   <g id="line2d_19">
    <path d="M 25.992971 80.10255 
L 25.695434 80.485224 
L 25.401544 80.873237 
L 25.111416 81.266542 
L 24.825167 81.665088 
L 24.542908 82.068822 
L 24.264754 82.477688 
L 23.990816 82.891627 
L 23.721204 83.310579 
L 23.456029 83.734481 
L 23.195399 84.163266 
L 22.939421 84.596866 
L 22.688202 85.035212 
L 22.441845 85.47823 
L 22.200455 85.925845 
L 21.964134 86.377979 
L 21.732981 86.834553 
L 21.507097 87.295484 
L 21.286579 87.760689 
L 21.071522 88.23008 
L 20.862022 88.70357 
L 20.65817 89.181067 
L 20.460058 89.662479 
L 20.267774 90.14771 
L 20.081407 90.636665 
L 19.901042 91.129244 
L 19.726763 91.625347 
L 19.558651 92.12487 
L 19.396786 92.627711 
L 19.241247 93.133761 
L 19.092108 93.642915 
L 18.949445 94.155061 
L 18.813328 94.670088 
L 18.683827 95.187884 
L 18.561009 95.708334 
L 18.44494 96.231323 
L 18.335683 96.756731 
" clip-path="url(#pf257d0f688)" style="fill: none; stroke: #ffffff; stroke-width: 7.8; stroke-linecap: round"/>
   </g>
   <g id="line2d_20">
    <path d="M 65.819077 122.13042 
L 66.021473 122.521533 
L 66.228442 122.914008 
L 66.440013 123.307735 
L 66.656211 123.702601 
L 66.877062 124.098493 
L 67.102586 124.495298 
L 67.332803 124.8929 
L 67.567729 125.291184 
L 67.80738 125.690032 
L 68.051767 126.089328 
L 68.3009 126.488952 
L 68.554787 126.888786 
L 68.813432 127.288709 
L 69.076839 127.688603 
L 69.345007 128.088345 
L 69.617934 128.487815 
L 69.895616 128.886891 
L 70.178045 129.28545 
L 70.465213 129.683369 
L 70.757106 130.080527 
L 71.053711 130.4768 
L 71.355011 130.872065 
L 71.660988 131.266199 
L 71.971618 131.659077 
L 72.286878 132.050577 
L 72.606743 132.440576 
L 72.931183 132.828949 
L 73.260166 133.215575 
L 73.593661 133.600329 
L 73.93163 133.983089 
L 74.274035 134.363733 
L 74.620837 134.742139 
L 74.971991 135.118185 
L 75.327454 135.49175 
L 75.687177 135.862714 
L 76.051112 136.230956 
" clip-path="url(#pf257d0f688)" style="fill: none; stroke: #ffffff; stroke-width: 7.8; stroke-linecap: round"/>
   </g>
   <g id="line2d_21">
    <path d="M 66.877062 124.098493 
L 67.102586 124.495298 
L 67.332803 124.8929 
L 67.567729 125.291184 
L 67.80738 125.690032 
L 68.051767 126.089328 
L 68.3009 126.488952 
L 68.554787 126.888786 
L 68.813432 127.288709 
L 69.076839 127.688603 
L 69.345007 128.088345 
L 69.617934 128.487815 
L 69.895616 128.886891 
L 70.178045 129.28545 
L 70.465213 129.683369 
L 70.757106 130.080527 
L 71.053711 130.4768 
L 71.355011 130.872065 
L 71.660988 131.266199 
L 71.971618 131.659077 
L 72.286878 132.050577 
L 72.606743 132.440576 
L 72.931183 132.828949 
L 73.260166 133.215575 
L 73.593661 133.600329 
L 73.93163 133.983089 
L 74.274035 134.363733 
L 74.620837 134.742139 
L 74.971991 135.118185 
L 75.327454 135.49175 
L 75.687177 135.862714 
L 76.051112 136.230956 
L 76.419205 136.596356 
L 76.791403 136.958797 
L 77.167651 137.318159 
L 77.547888 137.674326 
L 77.932055 138.027182 
" clip-path="url(#pf257d0f688)" style="fill: none; stroke: #ffffff; stroke-width: 7.8; stroke-linecap: round"/>
   </g>
   <g id="line2d_22">
    <path d="M 68.051767 126.089328 
L 68.3009 126.488952 
L 68.554787 126.888786 
L 68.813432 127.288709 
L 69.076839 127.688603 
L 69.345007 128.088345 
L 69.617934 128.487815 
L 69.895616 128.886891 
L 70.178045 129.28545 
L 70.465213 129.683369 
L 70.757106 130.080527 
L 71.053711 130.4768 
L 71.355011 130.872065 
L 71.660988 131.266199 
L 71.971618 131.659077 
L 72.286878 132.050577 
L 72.606743 132.440576 
L 72.931183 132.828949 
L 73.260166 133.215575 
L 73.593661 133.600329 
L 73.93163 133.983089 
L 74.274035 134.363733 
L 74.620837 134.742139 
L 74.971991 135.118185 
L 75.327454 135.49175 
L 75.687177 135.862714 
L 76.051112 136.230956 
L 76.419205 136.596356 
L 76.791403 136.958797 
L 77.167651 137.318159 
L 77.547888 137.674326 
L 77.932055 138.027182 
L 78.32009 138.37661 
L 78.711926 138.722496 
L 79.107498 139.064726 
L 79.506736 139.403188 
L 79.909569 139.737769 
" clip-path="url(#pf257d0f688)" style="fill: none; stroke: #ffffff; stroke-width: 7.8; stroke-linecap: round"/>
   </g>
   <g id="line2d_23">
    <path d="M 69.345007 128.088345 
L 69.617934 128.487815 
L 69.895616 128.886891 
L 70.178045 129.28545 
L 70.465213 129.683369 
L 70.757106 130.080527 
L 71.053711 130.4768 
L 71.355011 130.872065 
L 71.660988 131.266199 
L 71.971618 131.659077 
L 72.286878 132.050577 
L 72.606743 132.440576 
L 72.931183 132.828949 
L 73.260166 133.215575 
L 73.593661 133.600329 
L 73.93163 133.983089 
L 74.274035 134.363733 
L 74.620837 134.742139 
L 74.971991 135.118185 
L 75.327454 135.49175 
L 75.687177 135.862714 
L 76.051112 136.230956 
L 76.419205 136.596356 
L 76.791403 136.958797 
L 77.167651 137.318159 
L 77.547888 137.674326 
L 77.932055 138.027182 
L 78.32009 138.37661 
L 78.711926 138.722496 
L 79.107498 139.064726 
L 79.506736 139.403188 
L 79.909569 139.737769 
L 80.315925 140.06836 
L 80.725729 140.394851 
L 81.138904 140.717134 
L 81.555372 141.035102 
L 81.975051 141.348649 
" clip-path="url(#pf257d0f688)" style="fill: none; stroke: #ffffff; stroke-width: 7.8; stroke-linecap: round"/>
   </g>
   <g id="line2d_24">
    <path d="M 69.345007 128.088345 
L 69.617934 128.487815 
L 69.895616 128.886891 
L 70.178045 129.28545 
L 70.465213 129.683369 
L 70.757106 130.080527 
L 71.053711 130.4768 
L 71.355011 130.872065 
L 71.660988 131.266199 
L 71.971618 131.659077 
L 72.286878 132.050577 
L 72.606743 132.440576 
L 72.931183 132.828949 
L 73.260166 133.215575 
L 73.593661 133.600329 
L 73.93163 133.983089 
L 74.274035 134.363733 
L 74.620837 134.742139 
L 74.971991 135.118185 
L 75.327454 135.49175 
L 75.687177 135.862714 
L 76.051112 136.230956 
L 76.419205 136.596356 
L 76.791403 136.958797 
L 77.167651 137.318159 
L 77.547888 137.674326 
L 77.932055 138.027182 
L 78.32009 138.37661 
L 78.711926 138.722496 
L 79.107498 139.064726 
L 79.506736 139.403188 
L 79.909569 139.737769 
L 80.315925 140.06836 
L 80.725729 140.394851 
L 81.138904 140.717134 
L 81.555372 141.035102 
L 81.975051 141.348649 
" clip-path="url(#pf257d0f688)" style="fill: none; stroke: #ffffff; stroke-width: 7.8; stroke-linecap: round"/>
   </g>
   <g id="line2d_25">
    <path d="M 111.335451 106.516961 
L 111.729296 106.493642 
L 112.126407 106.470143 
L 112.526739 106.446382 
L 112.930243 106.422275 
L 113.336869 106.397739 
L 113.746565 106.37269 
L 114.159274 106.347047 
L 114.57494 106.320727 
L 114.993502 106.293649 
L 115.4149 106.265731 
L 115.83907 106.236892 
L 116.265945 106.207052 
L 116.695457 106.176131 
L 117.127535 106.144051 
L 117.562108 106.110733 
L 117.999101 106.0761 
L 118.438438 106.040075 
L 118.880039 106.002581 
L 119.323825 105.963544 
L 119.769713 105.922889 
L 120.21762 105.880543 
L 120.667458 105.836433 
L 121.11914 105.790489 
L 121.572576 105.74264 
L 122.027675 105.692816 
L 122.484344 105.64095 
L 122.942488 105.586975 
L 123.40201 105.530824 
L 123.862811 105.472434 
L 124.324794 105.411741 
L 124.787856 105.348683 
L 125.251894 105.283199 
L 125.716805 105.215231 
L 126.182483 105.14472 
L 126.648822 105.07161 
L 127.115712 104.995846 
" clip-path="url(#pf257d0f688)" style="fill: none; stroke: #ffffff; stroke-width: 7.8; stroke-linecap: round"/>
   </g>
   <g id="line2d_26">
    <path d="M 115.4149 106.265731 
L 115.83907 106.236892 
L 116.265945 106.207052 
L 116.695457 106.176131 
L 117.127535 106.144051 
L 117.562108 106.110733 
L 117.999101 106.0761 
L 118.438438 106.040075 
L 118.880039 106.002581 
L 119.323825 105.963544 
L 119.769713 105.922889 
L 120.21762 105.880543 
L 120.667458 105.836433 
L 121.11914 105.790489 
L 121.572576 105.74264 
L 122.027675 105.692816 
L 122.484344 105.64095 
L 122.942488 105.586975 
L 123.40201 105.530824 
L 123.862811 105.472434 
L 124.324794 105.411741 
L 124.787856 105.348683 
L 125.251894 105.283199 
L 125.716805 105.215231 
L 126.182483 105.14472 
L 126.648822 105.07161 
L 127.115712 104.995846 
L 127.583046 104.917374 
L 128.050712 104.836142 
L 128.518598 104.752101 
L 128.986592 104.6652 
L 129.45458 104.575393 
L 129.922447 104.482634 
L 130.390077 104.386879 
L 130.857354 104.288086 
L 131.324159 104.186213 
L 131.790375 104.081222 
" clip-path="url(#pf257d0f688)" style="fill: none; stroke: #ffffff; stroke-width: 7.8; stroke-linecap: round"/>
   </g>
   <g id="line2d_27">
    <path d="M 109.416671 106.633808 
L 109.793575 106.610126 
L 110.173941 106.586684 
L 110.557734 106.563398 
L 110.944917 106.540186 
L 111.335451 106.516961 
L 111.729296 106.493642 
L 112.126407 106.470143 
L 112.526739 106.446382 
L 112.930243 106.422275 
L 113.336869 106.397739 
L 113.746565 106.37269 
L 114.159274 106.347047 
L 114.57494 106.320727 
L 114.993502 106.293649 
L 115.4149 106.265731 
L 115.83907 106.236892 
L 116.265945 106.207052 
L 116.695457 106.176131 
L 117.127535 106.144051 
L 117.562108 106.110733 
L 117.999101 106.0761 
L 118.438438 106.040075 
L 118.880039 106.002581 
L 119.323825 105.963544 
L 119.769713 105.922889 
L 120.21762 105.880543 
L 120.667458 105.836433 
L 121.11914 105.790489 
L 121.572576 105.74264 
L 122.027675 105.692816 
L 122.484344 105.64095 
L 122.942488 105.586975 
L 123.40201 105.530824 
L 123.862811 105.472434 
L 124.324794 105.411741 
L 124.787856 105.348683 
" clip-path="url(#pf257d0f688)" style="fill: none; stroke: #ffffff; stroke-width: 7.8; stroke-linecap: round"/>
   </g>
   <g id="line2d_28">
    <path d="M 113.336869 106.397739 
L 113.746565 106.37269 
L 114.159274 106.347047 
L 114.57494 106.320727 
L 114.993502 106.293649 
L 115.4149 106.265731 
L 115.83907 106.236892 
L 116.265945 106.207052 
L 116.695457 106.176131 
L 117.127535 106.144051 
L 117.562108 106.110733 
L 117.999101 106.0761 
L 118.438438 106.040075 
L 118.880039 106.002581 
L 119.323825 105.963544 
L 119.769713 105.922889 
L 120.21762 105.880543 
L 120.667458 105.836433 
L 121.11914 105.790489 
L 121.572576 105.74264 
L 122.027675 105.692816 
L 122.484344 105.64095 
L 122.942488 105.586975 
L 123.40201 105.530824 
L 123.862811 105.472434 
L 124.324794 105.411741 
L 124.787856 105.348683 
L 125.251894 105.283199 
L 125.716805 105.215231 
L 126.182483 105.14472 
L 126.648822 105.07161 
L 127.115712 104.995846 
L 127.583046 104.917374 
L 128.050712 104.836142 
L 128.518598 104.752101 
L 128.986592 104.6652 
L 129.45458 104.575393 
" clip-path="url(#pf257d0f688)" style="fill: none; stroke: #ffffff; stroke-width: 7.8; stroke-linecap: round"/>
   </g>
   <g id="line2d_29">
    <path d="M 117.562108 106.110733 
L 117.999101 106.0761 
L 118.438438 106.040075 
L 118.880039 106.002581 
L 119.323825 105.963544 
L 119.769713 105.922889 
L 120.21762 105.880543 
L 120.667458 105.836433 
L 121.11914 105.790489 
L 121.572576 105.74264 
L 122.027675 105.692816 
L 122.484344 105.64095 
L 122.942488 105.586975 
L 123.40201 105.530824 
L 123.862811 105.472434 
L 124.324794 105.411741 
L 124.787856 105.348683 
L 125.251894 105.283199 
L 125.716805 105.215231 
L 126.182483 105.14472 
L 126.648822 105.07161 
L 127.115712 104.995846 
L 127.583046 104.917374 
L 128.050712 104.836142 
L 128.518598 104.752101 
L 128.986592 104.6652 
L 129.45458 104.575393 
L 129.922447 104.482634 
L 130.390077 104.386879 
L 130.857354 104.288086 
L 131.324159 104.186213 
L 131.790375 104.081222 
L 132.255882 103.973075 
L 132.72056 103.861738 
L 133.184289 103.747175 
L 133.646947 103.629356 
L 134.108414 103.508249 
" clip-path="url(#pf257d0f688)" style="fill: none; stroke: #ffffff; stroke-width: 7.8; stroke-linecap: round"/>
   </g>
   <g id="line2d_30">
    <path d="M 111.335451 106.516961 
L 111.729296 106.493642 
L 112.126407 106.470143 
L 112.526739 106.446382 
L 112.930243 106.422275 
L 113.336869 106.397739 
L 113.746565 106.37269 
L 114.159274 106.347047 
L 114.57494 106.320727 
L 114.993502 106.293649 
L 115.4149 106.265731 
L 115.83907 106.236892 
L 116.265945 106.207052 
L 116.695457 106.176131 
L 117.127535 106.144051 
L 117.562108 106.110733 
L 117.999101 106.0761 
L 118.438438 106.040075 
L 118.880039 106.002581 
L 119.323825 105.963544 
L 119.769713 105.922889 
L 120.21762 105.880543 
L 120.667458 105.836433 
L 121.11914 105.790489 
L 121.572576 105.74264 
L 122.027675 105.692816 
L 122.484344 105.64095 
L 122.942488 105.586975 
L 123.40201 105.530824 
L 123.862811 105.472434 
L 124.324794 105.411741 
L 124.787856 105.348683 
L 125.251894 105.283199 
L 125.716805 105.215231 
L 126.182483 105.14472 
L 126.648822 105.07161 
L 127.115712 104.995846 
" clip-path="url(#pf257d0f688)" style="fill: none; stroke: #ffffff; stroke-width: 7.8; stroke-linecap: round"/>
   </g>
   <g id="line2d_31">
    <path d="M 133.184289 103.747175 
L 136.845307 102.711121 
L 139.942964 101.624348 
L 142.897455 100.365731 
L 145.666977 98.936551 
L 147.863074 97.580081 
L 149.869741 96.108745 
L 151.66476 94.531017 
L 153.22799 92.857441 
L 154.541701 91.100423 
L 155.590855 89.273989 
L 156.254241 87.70999 
L 156.720118 86.117905 
L 156.984724 84.507577 
L 157.045919 82.889093 
L 156.903207 81.272651 
L 156.557745 79.66842 
L 156.012324 78.086407 
L 155.271341 76.536318 
L 154.132508 74.731375 
L 152.733815 73.000688 
L 151.091226 71.35777 
L 149.22331 69.814432 
L 147.150939 68.380551 
L 144.896944 67.06387 
L 142.070383 65.683025 
L 139.070675 64.473576 
L 135.939908 63.435494 
L 132.255882 62.452832 
L 128.050712 61.589765 
L 123.862811 60.953473 
L 118.880039 60.423326 
L 112.126407 59.955764 
L 104.843066 59.424577 
L 101.745912 58.992599 
L 99.262473 58.425263 
L 97.276964 57.740378 
L 95.690207 56.980476 
L 94.22123 56.057395 
L 92.653937 54.792879 
L 91.165033 53.301732 
L 89.344912 51.128393 
L 86.709867 47.569468 
L 82.823715 42.353285 
L 82.093416 41.444016 
L 82.093416 41.444016 
" clip-path="url(#pf257d0f688)" style="fill: none; stroke: #2255aa; stroke-width: 2.8; stroke-linecap: round"/>
   </g>
   <g id="line2d_32">
    <path d="M 66.01859 28.375698 
L 63.423054 27.293173 
L 60.722277 26.411397 
L 57.931687 25.749848 
L 55.069216 25.325667 
L 52.155022 25.15336 
L 49.702901 25.210638 
L 47.243806 25.456012 
L 44.791989 25.892975 
L 42.362159 26.523395 
L 39.969317 27.347475 
L 37.628593 28.36374 
L 35.355071 29.569035 
L 33.163622 30.958553 
L 31.068731 32.525864 
L 29.084337 34.262983 
L 27.223668 36.160436 
L 25.499095 38.20736 
L 23.921985 40.391602 
L 22.502573 42.699848 
L 21.249843 45.117754 
L 20.171423 47.630098 
L 19.273498 50.22093 
L 18.560738 52.873744 
L 18.036243 55.571646 
L 17.701505 58.297532 
L 17.556393 61.034265 
L 17.599154 63.764857 
L 17.893621 67.010034 
L 18.44494 70.194584 
L 19.241247 73.292146 
L 20.267774 76.278197 
L 21.507097 79.130422 
L 22.939421 81.829041 
L 24.542908 84.357085 
L 26.294039 86.700645 
L 28.168001 88.849055 
L 30.139093 90.795027 
L 32.181154 92.534733 
L 34.61832 94.303421 
L 37.075569 95.796392 
L 39.513659 97.025187 
L 42.229581 98.128579 
L 44.823046 98.944228 
L 47.541637 99.570952 
L 50.511907 100.018519 
L 54.938058 100.402265 
L 56.720697 100.673952 
L 57.73688 101.046497 
L 58.444794 101.562143 
L 58.943017 102.190119 
L 59.411869 103.140367 
L 59.91594 104.713174 
L 62.78852 115.095775 
L 64.038772 118.317704 
L 65.621223 121.740779 
L 66.021473 122.521533 
L 66.021473 122.521533 
" clip-path="url(#pf257d0f688)" style="fill: none; stroke: #2255aa; stroke-width: 2.8; stroke-linecap: round"/>
   </g>
   <g id="line2d_33">
    <path d="M 81.138904 140.717134 
L 83.684217 142.556568 
L 86.329562 144.218767 
L 89.05455 145.683704 
L 91.83703 146.933646 
L 94.653458 147.953408 
L 97.479275 148.73056 
L 100.289318 149.255593 
L 103.058233 149.522023 
L 105.760899 149.52646 
L 107.944827 149.329718 
L 110.052116 148.952232 
L 112.069813 148.396895 
L 113.985784 147.667989 
L 115.788855 146.771112 
L 117.468937 145.713103 
L 119.017145 144.501941 
L 120.425902 143.146637 
L 121.689022 141.65712 
L 122.801782 140.044106 
L 123.760973 138.318962 
L 124.707069 136.117527 
L 125.429834 133.792939 
L 125.932616 131.366777 
L 126.221928 128.860642 
L 126.307331 126.295795 
L 126.16599 123.256662 
L 125.788411 120.196453 
L 125.203186 117.143507 
L 124.321574 113.695527 
L 123.121616 109.906557 
L 121.468194 105.452913 
L 115.93244 91.22752 
L 115.201046 88.392939 
L 114.795367 85.937744 
L 114.636968 83.51495 
L 114.70643 81.398983 
L 115.020756 78.959239 
L 115.573358 76.469828 
L 116.451874 73.578214 
L 117.295708 71.24356 
L 117.295708 71.24356 
" clip-path="url(#pf257d0f688)" style="fill: none; stroke: #2255aa; stroke-width: 2.8; stroke-linecap: round"/>
   </g>
   <g id="line2d_34">
    <path d="M 124.896686 50.582206 
L 125.641045 47.103632 
L 126.081041 44.042732 
L 126.292556 40.994526 
L 126.272495 38.414724 
L 126.052361 35.886683 
L 125.621613 33.431472 
L 124.972706 31.07062 
L 124.101227 28.825753 
L 123.005981 26.718233 
L 121.923727 25.081865 
L 120.69035 23.566769 
L 119.310271 22.183801 
L 117.78939 20.943058 
L 116.135013 19.853745 
L 114.35577 18.924057 
L 112.461517 18.161068 
L 110.463224 17.570632 
L 108.372841 17.157299 
L 106.20317 16.924245 
L 103.967709 16.873216 
L 101.218109 17.052539 
L 98.418961 17.491939 
L 95.595588 18.185961 
L 92.773263 19.126093 
L 89.976793 20.300863 
L 87.230103 21.695984 
L 84.555851 23.294547 
L 81.975051 25.077258 
L 79.506736 27.022719 
L 76.791403 29.46711 
L 74.274035 32.062174 
L 71.971618 34.76683 
L 69.895616 37.539016 
L 68.051767 40.336579 
L 66.228442 43.511899 
L 64.698857 46.607504 
L 63.305768 49.927307 
L 62.117893 53.33472 
L 61.024452 57.204431 
L 59.357669 63.418778 
L 58.810493 64.433597 
L 58.198549 65.080499 
L 57.532649 65.47911 
L 56.591638 65.78255 
L 55.10673 66.006988 
L 47.541637 66.854955 
L 44.823046 67.481679 
L 42.229581 68.297328 
L 39.513659 69.40072 
L 37.075569 70.629515 
L 34.61832 72.122486 
L 32.181154 73.891174 
L 32.181154 73.891174 
" clip-path="url(#pf257d0f688)" style="fill: none; stroke: #2255aa; stroke-width: 2.8; stroke-linecap: round"/>
   </g>
   <g id="line2d_35">
    <path d="M 18.561009 95.708334 
L 17.967953 98.880173 
L 17.629983 102.117142 
L 17.55 104.844493 
L 17.657345 107.58135 
L 17.954095 110.310774 
L 18.440707 113.015644 
L 19.116011 115.678836 
L 19.977227 118.2834 
L 21.019995 120.812738 
L 22.238428 123.250775 
L 23.62518 125.582131 
L 25.171531 127.792274 
L 26.867486 129.867673 
L 28.701896 131.795932 
L 30.662578 133.565922 
L 32.736464 135.167882 
L 34.909745 136.593523 
L 37.168032 137.8361 
L 39.496518 138.890477 
L 41.880148 139.753165 
L 44.303787 140.422355 
L 46.752396 140.897913 
L 49.211192 141.181377 
L 51.665821 141.275918 
L 54.586534 141.1468 
L 57.459082 140.763666 
L 60.262961 140.140555 
L 62.979849 139.29419 
L 65.593884 138.243681 
L 68.091883 137.010193 
L 70.463532 135.616585 
L 73.061158 133.82063 
L 75.470601 131.879542 
L 77.993239 129.535604 
L 80.277352 127.115637 
L 82.823715 124.072622 
L 85.703324 120.248556 
L 90.072597 114.388282 
L 91.902466 112.350403 
L 93.425054 110.972451 
L 95.04763 109.82049 
L 96.581012 108.991919 
L 98.24514 108.319934 
L 100.331964 107.724258 
L 102.941021 107.23908 
L 106.184736 106.871514 
L 109.793575 106.610126 
L 109.793575 106.610126 
" clip-path="url(#pf257d0f688)" style="fill: none; stroke: #2255aa; stroke-width: 2.8; stroke-linecap: round"/>
   </g>
   <g id="line2d_36">
    <path d="M 133.184289 62.678732 
L 132.72056 62.564169 
L 132.255882 62.452832 
L 131.790375 62.344685 
L 131.324159 62.239694 
L 130.857354 62.137821 
L 130.390077 62.039028 
L 129.922447 61.943273 
L 129.45458 61.850514 
L 128.986592 61.760707 
L 128.518598 61.673806 
L 128.050712 61.589765 
L 127.583046 61.508533 
L 127.115712 61.430061 
L 126.648822 61.354297 
L 126.182483 61.281187 
L 125.716805 61.210676 
L 125.251894 61.142708 
L 124.787856 61.077224 
L 124.324794 61.014166 
L 123.862811 60.953473 
L 123.40201 60.895083 
L 122.942488 60.838932 
L 122.484344 60.784957 
L 122.027675 60.733091 
L 121.572576 60.683267 
L 121.11914 60.635418 
L 120.667458 60.589474 
L 120.21762 60.545364 
L 119.769713 60.503018 
L 119.323825 60.462363 
L 118.880039 60.423326 
" clip-path="url(#pf257d0f688)" style="fill: none; stroke: #2255aa; stroke-width: 2.8; stroke-linecap: round"/>
   </g>
   <g id="line2d_37">
    <path d="M 133.184289 62.678732 
L 132.72056 62.564169 
L 132.255882 62.452832 
L 131.790375 62.344685 
L 131.324159 62.239694 
L 130.857354 62.137821 
L 130.390077 62.039028 
L 129.922447 61.943273 
L 129.45458 61.850514 
L 128.986592 61.760707 
L 128.518598 61.673806 
L 128.050712 61.589765 
L 127.583046 61.508533 
L 127.115712 61.430061 
L 126.648822 61.354297 
L 126.182483 61.281187 
L 125.716805 61.210676 
L 125.251894 61.142708 
L 124.787856 61.077224 
L 124.324794 61.014166 
L 123.862811 60.953473 
L 123.40201 60.895083 
L 122.942488 60.838932 
L 122.484344 60.784957 
L 122.027675 60.733091 
L 121.572576 60.683267 
L 121.11914 60.635418 
L 120.667458 60.589474 
L 120.21762 60.545364 
L 119.769713 60.503018 
L 119.323825 60.462363 
L 118.880039 60.423326 
" clip-path="url(#pf257d0f688)" style="fill: none; stroke: #2255aa; stroke-width: 2.8; stroke-linecap: round"/>
   </g>
   <g id="line2d_38">
    <path d="M 128.518598 61.673806 
L 128.050712 61.589765 
L 127.583046 61.508533 
L 127.115712 61.430061 
L 126.648822 61.354297 
L 126.182483 61.281187 
L 125.716805 61.210676 
L 125.251894 61.142708 
L 124.787856 61.077224 
L 124.324794 61.014166 
L 123.862811 60.953473 
L 123.40201 60.895083 
L 122.942488 60.838932 
L 122.484344 60.784957 
L 122.027675 60.733091 
L 121.572576 60.683267 
L 121.11914 60.635418 
L 120.667458 60.589474 
L 120.21762 60.545364 
L 119.769713 60.503018 
L 119.323825 60.462363 
L 118.880039 60.423326 
L 118.438438 60.385832 
L 117.999101 60.349807 
L 117.562108 60.315174 
L 117.127535 60.281856 
L 116.695457 60.249776 
L 116.265945 60.218855 
L 115.83907 60.189015 
L 115.4149 60.160176 
L 114.993502 60.132258 
L 114.57494 60.10518 
" clip-path="url(#pf257d0f688)" style="fill: none; stroke: #2255aa; stroke-width: 2.8; stroke-linecap: round"/>
   </g>
   <g id="line2d_39">
    <path d="M 128.518598 61.673806 
L 128.050712 61.589765 
L 127.583046 61.508533 
L 127.115712 61.430061 
L 126.648822 61.354297 
L 126.182483 61.281187 
L 125.716805 61.210676 
L 125.251894 61.142708 
L 124.787856 61.077224 
L 124.324794 61.014166 
L 123.862811 60.953473 
L 123.40201 60.895083 
L 122.942488 60.838932 
L 122.484344 60.784957 
L 122.027675 60.733091 
L 121.572576 60.683267 
L 121.11914 60.635418 
L 120.667458 60.589474 
L 120.21762 60.545364 
L 119.769713 60.503018 
L 119.323825 60.462363 
L 118.880039 60.423326 
L 118.438438 60.385832 
L 117.999101 60.349807 
L 117.562108 60.315174 
L 117.127535 60.281856 
L 116.695457 60.249776 
L 116.265945 60.218855 
L 115.83907 60.189015 
L 115.4149 60.160176 
L 114.993502 60.132258 
L 114.57494 60.10518 
" clip-path="url(#pf257d0f688)" style="fill: none; stroke: #2255aa; stroke-width: 2.8; stroke-linecap: round"/>
   </g>
   <g id="line2d_40">
    <path d="M 128.518598 61.673806 
L 128.050712 61.589765 
L 127.583046 61.508533 
L 127.115712 61.430061 
L 126.648822 61.354297 
L 126.182483 61.281187 
L 125.716805 61.210676 
L 125.251894 61.142708 
L 124.787856 61.077224 
L 124.324794 61.014166 
L 123.862811 60.953473 
L 123.40201 60.895083 
L 122.942488 60.838932 
L 122.484344 60.784957 
L 122.027675 60.733091 
L 121.572576 60.683267 
L 121.11914 60.635418 
L 120.667458 60.589474 
L 120.21762 60.545364 
L 119.769713 60.503018 
L 119.323825 60.462363 
L 118.880039 60.423326 
L 118.438438 60.385832 
L 117.999101 60.349807 
L 117.562108 60.315174 
L 117.127535 60.281856 
L 116.695457 60.249776 
L 116.265945 60.218855 
L 115.83907 60.189015 
L 115.4149 60.160176 
L 114.993502 60.132258 
L 114.57494 60.10518 
" clip-path="url(#pf257d0f688)" style="fill: none; stroke: #2255aa; stroke-width: 2.8; stroke-linecap: round"/>
   </g>
   <g id="line2d_41">
    <path d="M 123.862811 60.953473 
L 123.40201 60.895083 
L 122.942488 60.838932 
L 122.484344 60.784957 
L 122.027675 60.733091 
L 121.572576 60.683267 
L 121.11914 60.635418 
L 120.667458 60.589474 
L 120.21762 60.545364 
L 119.769713 60.503018 
L 119.323825 60.462363 
L 118.880039 60.423326 
L 118.438438 60.385832 
L 117.999101 60.349807 
L 117.562108 60.315174 
L 117.127535 60.281856 
L 116.695457 60.249776 
L 116.265945 60.218855 
L 115.83907 60.189015 
L 115.4149 60.160176 
L 114.993502 60.132258 
L 114.57494 60.10518 
L 114.159274 60.07886 
L 113.746565 60.053217 
L 113.336869 60.028168 
L 112.930243 60.003632 
L 112.526739 59.979525 
L 112.126407 59.955764 
L 111.729296 59.932265 
L 111.335451 59.908946 
L 110.944917 59.885721 
L 110.557734 59.862508 
" clip-path="url(#pf257d0f688)" style="fill: none; stroke: #2255aa; stroke-width: 2.8; stroke-linecap: round"/>
   </g>
   <g id="line2d_42">
    <path d="M 123.862811 60.953473 
L 123.40201 60.895083 
L 122.942488 60.838932 
L 122.484344 60.784957 
L 122.027675 60.733091 
L 121.572576 60.683267 
L 121.11914 60.635418 
L 120.667458 60.589474 
L 120.21762 60.545364 
L 119.769713 60.503018 
L 119.323825 60.462363 
L 118.880039 60.423326 
L 118.438438 60.385832 
L 117.999101 60.349807 
L 117.562108 60.315174 
L 117.127535 60.281856 
L 116.695457 60.249776 
L 116.265945 60.218855 
L 115.83907 60.189015 
L 115.4149 60.160176 
L 114.993502 60.132258 
L 114.57494 60.10518 
L 114.159274 60.07886 
L 113.746565 60.053217 
L 113.336869 60.028168 
L 112.930243 60.003632 
L 112.526739 59.979525 
L 112.126407 59.955764 
L 111.729296 59.932265 
L 111.335451 59.908946 
L 110.944917 59.885721 
L 110.557734 59.862508 
" clip-path="url(#pf257d0f688)" style="fill: none; stroke: #2255aa; stroke-width: 2.8; stroke-linecap: round"/>
   </g>
   <g id="line2d_43">
    <path d="M 81.138904 25.708773 
L 80.725729 26.031056 
L 80.315925 26.357547 
L 79.909569 26.688138 
L 79.506736 27.022719 
L 79.107498 27.361181 
L 78.711926 27.703411 
L 78.32009 28.049297 
L 77.932055 28.398725 
L 77.547888 28.751581 
L 77.167651 29.107748 
L 76.791403 29.46711 
L 76.419205 29.829551 
L 76.051112 30.194951 
L 75.687177 30.563193 
L 75.327454 30.934157 
L 74.971991 31.307722 
L 74.620837 31.683768 
L 74.274035 32.062174 
L 73.93163 32.442818 
L 73.593661 32.825578 
L 73.260166 33.210332 
L 72.931183 33.596958 
L 72.606743 33.985331 
L 72.286878 34.37533 
L 71.971618 34.76683 
L 71.660988 35.159708 
L 71.355011 35.553842 
L 71.053711 35.949107 
L 70.757106 36.34538 
L 70.465213 36.742538 
L 70.178045 37.140457 
" clip-path="url(#pf257d0f688)" style="fill: none; stroke: #2255aa; stroke-width: 2.8; stroke-linecap: round"/>
   </g>
   <g id="line2d_44">
    <path d="M 77.167651 29.107748 
L 76.791403 29.46711 
L 76.419205 29.829551 
L 76.051112 30.194951 
L 75.687177 30.563193 
L 75.327454 30.934157 
L 74.971991 31.307722 
L 74.620837 31.683768 
L 74.274035 32.062174 
L 73.93163 32.442818 
L 73.593661 32.825578 
L 73.260166 33.210332 
L 72.931183 33.596958 
L 72.606743 33.985331 
L 72.286878 34.37533 
L 71.971618 34.76683 
L 71.660988 35.159708 
L 71.355011 35.553842 
L 71.053711 35.949107 
L 70.757106 36.34538 
L 70.465213 36.742538 
L 70.178045 37.140457 
L 69.895616 37.539016 
L 69.617934 37.938092 
L 69.345007 38.337562 
L 69.076839 38.737304 
L 68.813432 39.137197 
L 68.554787 39.537121 
L 68.3009 39.936955 
L 68.051767 40.336579 
L 67.80738 40.735875 
L 67.567729 41.134723 
" clip-path="url(#pf257d0f688)" style="fill: none; stroke: #2255aa; stroke-width: 2.8; stroke-linecap: round"/>
   </g>
   <g id="line2d_45">
    <path d="M 83.25253 24.164175 
L 82.823715 24.463841 
L 82.39786 24.768235 
L 81.975051 25.077258 
L 81.555372 25.390805 
L 81.138904 25.708773 
L 80.725729 26.031056 
L 80.315925 26.357547 
L 79.909569 26.688138 
L 79.506736 27.022719 
L 79.107498 27.361181 
L 78.711926 27.703411 
L 78.32009 28.049297 
L 77.932055 28.398725 
L 77.547888 28.751581 
L 77.167651 29.107748 
L 76.791403 29.46711 
L 76.419205 29.829551 
L 76.051112 30.194951 
L 75.687177 30.563193 
L 75.327454 30.934157 
L 74.971991 31.307722 
L 74.620837 31.683768 
L 74.274035 32.062174 
L 73.93163 32.442818 
L 73.593661 32.825578 
L 73.260166 33.210332 
L 72.931183 33.596958 
L 72.606743 33.985331 
L 72.286878 34.37533 
L 71.971618 34.76683 
L 71.660988 35.159708 
" clip-path="url(#pf257d0f688)" style="fill: none; stroke: #2255aa; stroke-width: 2.8; stroke-linecap: round"/>
   </g>
   <g id="line2d_46">
    <path d="M 79.107498 27.361181 
L 78.711926 27.703411 
L 78.32009 28.049297 
L 77.932055 28.398725 
L 77.547888 28.751581 
L 77.167651 29.107748 
L 76.791403 29.46711 
L 76.419205 29.829551 
L 76.051112 30.194951 
L 75.687177 30.563193 
L 75.327454 30.934157 
L 74.971991 31.307722 
L 74.620837 31.683768 
L 74.274035 32.062174 
L 73.93163 32.442818 
L 73.593661 32.825578 
L 73.260166 33.210332 
L 72.931183 33.596958 
L 72.606743 33.985331 
L 72.286878 34.37533 
L 71.971618 34.76683 
L 71.660988 35.159708 
L 71.355011 35.553842 
L 71.053711 35.949107 
L 70.757106 36.34538 
L 70.465213 36.742538 
L 70.178045 37.140457 
L 69.895616 37.539016 
L 69.617934 37.938092 
L 69.345007 38.337562 
L 69.076839 38.737304 
L 68.813432 39.137197 
" clip-path="url(#pf257d0f688)" style="fill: none; stroke: #2255aa; stroke-width: 2.8; stroke-linecap: round"/>
   </g>
   <g id="line2d_47">
    <path d="M 75.327454 30.934157 
L 74.971991 31.307722 
L 74.620837 31.683768 
L 74.274035 32.062174 
L 73.93163 32.442818 
L 73.593661 32.825578 
L 73.260166 33.210332 
L 72.931183 33.596958 
L 72.606743 33.985331 
L 72.286878 34.37533 
L 71.971618 34.76683 
L 71.660988 35.159708 
L 71.355011 35.553842 
L 71.053711 35.949107 
L 70.757106 36.34538 
L 70.465213 36.742538 
L 70.178045 37.140457 
L 69.895616 37.539016 
L 69.617934 37.938092 
L 69.345007 38.337562 
L 69.076839 38.737304 
L 68.813432 39.137197 
L 68.554787 39.537121 
L 68.3009 39.936955 
L 68.051767 40.336579 
L 67.80738 40.735875 
L 67.567729 41.134723 
L 67.332803 41.533007 
L 67.102586 41.930609 
L 66.877062 42.327414 
L 66.656211 42.723306 
L 66.440013 43.118172 
" clip-path="url(#pf257d0f688)" style="fill: none; stroke: #2255aa; stroke-width: 2.8; stroke-linecap: round"/>
   </g>
   <g id="line2d_48">
    <path d="M 18.561009 70.717573 
L 18.683827 71.238023 
L 18.813328 71.755819 
L 18.949445 72.270846 
L 19.092108 72.782992 
L 19.241247 73.292146 
L 19.396786 73.798196 
L 19.558651 74.301037 
L 19.726763 74.80056 
L 19.901042 75.296663 
L 20.081407 75.789242 
L 20.267774 76.278197 
L 20.460058 76.763428 
L 20.65817 77.24484 
L 20.862022 77.722337 
L 21.071522 78.195827 
L 21.286579 78.665218 
L 21.507097 79.130422 
L 21.732981 79.591354 
L 21.964134 80.047928 
L 22.200455 80.500062 
L 22.441845 80.947677 
L 22.688202 81.390695 
L 22.939421 81.829041 
L 23.195399 82.262641 
L 23.456029 82.691426 
L 23.721204 83.115328 
L 23.990816 83.53428 
L 24.264754 83.948219 
L 24.542908 84.357085 
L 24.825167 84.760819 
L 25.111416 85.159365 
" clip-path="url(#pf257d0f688)" style="fill: none; stroke: #2255aa; stroke-width: 2.8; stroke-linecap: round"/>
   </g>
   <g id="line2d_49">
    <path d="M 18.561009 70.717573 
L 18.683827 71.238023 
L 18.813328 71.755819 
L 18.949445 72.270846 
L 19.092108 72.782992 
L 19.241247 73.292146 
L 19.396786 73.798196 
L 19.558651 74.301037 
L 19.726763 74.80056 
L 19.901042 75.296663 
L 20.081407 75.789242 
L 20.267774 76.278197 
L 20.460058 76.763428 
L 20.65817 77.24484 
L 20.862022 77.722337 
L 21.071522 78.195827 
L 21.286579 78.665218 
L 21.507097 79.130422 
L 21.732981 79.591354 
L 21.964134 80.047928 
L 22.200455 80.500062 
L 22.441845 80.947677 
L 22.688202 81.390695 
L 22.939421 81.829041 
L 23.195399 82.262641 
L 23.456029 82.691426 
L 23.721204 83.115328 
L 23.990816 83.53428 
L 24.264754 83.948219 
L 24.542908 84.357085 
L 24.825167 84.760819 
L 25.111416 85.159365 
" clip-path="url(#pf257d0f688)" style="fill: none; stroke: #2255aa; stroke-width: 2.8; stroke-linecap: round"/>
   </g>
   <g id="line2d_50">
    <path d="M 20.081407 75.789242 
L 20.267774 76.278197 
L 20.460058 76.763428 
L 20.65817 77.24484 
L 20.862022 77.722337 
L 21.071522 78.195827 
L 21.286579 78.665218 
L 21.507097 79.130422 
L 21.732981 79.591354 
L 21.964134 80.047928 
L 22.200455 80.500062 
L 22.441845 80.947677 
L 22.688202 81.390695 
L 22.939421 81.829041 
L 23.195399 82.262641 
L 23.456029 82.691426 
L 23.721204 83.115328 
L 23.990816 83.53428 
L 24.264754 83.948219 
L 24.542908 84.357085 
L 24.825167 84.760819 
L 25.111416 85.159365 
L 25.401544 85.55267 
L 25.695434 85.940683 
L 25.992971 86.323357 
L 26.294039 86.700645 
L 26.598522 87.072505 
L 26.9063 87.438895 
L 27.217257 87.79978 
L 27.531272 88.155122 
L 27.848227 88.50489 
L 28.168001 88.849055 
" clip-path="url(#pf257d0f688)" style="fill: none; stroke: #2255aa; stroke-width: 2.8; stroke-linecap: round"/>
   </g>
   <g id="line2d_51">
    <path d="M 20.081407 75.789242 
L 20.267774 76.278197 
L 20.460058 76.763428 
L 20.65817 77.24484 
L 20.862022 77.722337 
L 21.071522 78.195827 
L 21.286579 78.665218 
L 21.507097 79.130422 
L 21.732981 79.591354 
L 21.964134 80.047928 
L 22.200455 80.500062 
L 22.441845 80.947677 
L 22.688202 81.390695 
L 22.939421 81.829041 
L 23.195399 82.262641 
L 23.456029 82.691426 
L 23.721204 83.115328 
L 23.990816 83.53428 
L 24.264754 83.948219 
L 24.542908 84.357085 
L 24.825167 84.760819 
L 25.111416 85.159365 
L 25.401544 85.55267 
L 25.695434 85.940683 
L 25.992971 86.323357 
L 26.294039 86.700645 
L 26.598522 87.072505 
L 26.9063 87.438895 
L 27.217257 87.79978 
L 27.531272 88.155122 
L 27.848227 88.50489 
L 28.168001 88.849055 
" clip-path="url(#pf257d0f688)" style="fill: none; stroke: #2255aa; stroke-width: 2.8; stroke-linecap: round"/>
   </g>
   <g id="line2d_52">
    <path d="M 20.081407 75.789242 
L 20.267774 76.278197 
L 20.460058 76.763428 
L 20.65817 77.24484 
L 20.862022 77.722337 
L 21.071522 78.195827 
L 21.286579 78.665218 
L 21.507097 79.130422 
L 21.732981 79.591354 
L 21.964134 80.047928 
L 22.200455 80.500062 
L 22.441845 80.947677 
L 22.688202 81.390695 
L 22.939421 81.829041 
L 23.195399 82.262641 
L 23.456029 82.691426 
L 23.721204 83.115328 
L 23.990816 83.53428 
L 24.264754 83.948219 
L 24.542908 84.357085 
L 24.825167 84.760819 
L 25.111416 85.159365 
L 25.401544 85.55267 
L 25.695434 85.940683 
L 25.992971 86.323357 
L 26.294039 86.700645 
L 26.598522 87.072505 
L 26.9063 87.438895 
L 27.217257 87.79978 
L 27.531272 88.155122 
L 27.848227 88.50489 
L 28.168001 88.849055 
" clip-path="url(#pf257d0f688)" style="fill: none; stroke: #2255aa; stroke-width: 2.8; stroke-linecap: round"/>
   </g>
   <g id="line2d_53">
    <path d="M 22.200455 80.500062 
L 22.441845 80.947677 
L 22.688202 81.390695 
L 22.939421 81.829041 
L 23.195399 82.262641 
L 23.456029 82.691426 
L 23.721204 83.115328 
L 23.990816 83.53428 
L 24.264754 83.948219 
L 24.542908 84.357085 
L 24.825167 84.760819 
L 25.111416 85.159365 
L 25.401544 85.55267 
L 25.695434 85.940683 
L 25.992971 86.323357 
L 26.294039 86.700645 
L 26.598522 87.072505 
L 26.9063 87.438895 
L 27.217257 87.79978 
L 27.531272 88.155122 
L 27.848227 88.50489 
L 28.168001 88.849055 
L 28.490474 89.187588 
L 28.815526 89.520466 
L 29.143035 89.847667 
L 29.47288 90.169171 
L 29.80494 90.484962 
L 30.139093 90.795027 
L 30.475218 91.099355 
L 30.813192 91.397936 
L 31.152894 91.690766 
L 31.494203 91.977842 
" clip-path="url(#pf257d0f688)" style="fill: none; stroke: #2255aa; stroke-width: 2.8; stroke-linecap: round"/>
   </g>
   <g id="line2d_54">
    <path d="M 22.200455 80.500062 
L 22.441845 80.947677 
L 22.688202 81.390695 
L 22.939421 81.829041 
L 23.195399 82.262641 
L 23.456029 82.691426 
L 23.721204 83.115328 
L 23.990816 83.53428 
L 24.264754 83.948219 
L 24.542908 84.357085 
L 24.825167 84.760819 
L 25.111416 85.159365 
L 25.401544 85.55267 
L 25.695434 85.940683 
L 25.992971 86.323357 
L 26.294039 86.700645 
L 26.598522 87.072505 
L 26.9063 87.438895 
L 27.217257 87.79978 
L 27.531272 88.155122 
L 27.848227 88.50489 
L 28.168001 88.849055 
L 28.490474 89.187588 
L 28.815526 89.520466 
L 29.143035 89.847667 
L 29.47288 90.169171 
L 29.80494 90.484962 
L 30.139093 90.795027 
L 30.475218 91.099355 
L 30.813192 91.397936 
L 31.152894 91.690766 
L 31.494203 91.977842 
" clip-path="url(#pf257d0f688)" style="fill: none; stroke: #2255aa; stroke-width: 2.8; stroke-linecap: round"/>
   </g>
   <g id="line2d_55">
    <path d="M 66.01859 138.050209 
L 66.440013 137.851752 
L 66.858101 137.648416 
L 67.272807 137.440307 
L 67.684082 137.22753 
L 68.091883 137.010193 
L 68.496168 136.788406 
L 68.896896 136.562278 
L 69.294031 136.33192 
L 69.687536 136.097443 
L 70.07738 135.858961 
L 70.463532 135.616585 
L 70.845964 135.370431 
L 71.224649 135.120614 
L 71.599566 134.867248 
L 71.970692 134.61045 
L 72.33801 134.350336 
L 72.701503 134.087024 
L 73.061158 133.82063 
L 73.416962 133.551274 
L 73.768907 133.279072 
L 74.116987 133.004144 
L 74.461197 132.726608 
L 74.801536 132.446583 
L 75.138003 132.164188 
L 75.470601 131.879542 
L 75.799336 131.592764 
L 76.124216 131.303973 
L 76.44525 131.013289 
L 76.76245 130.720829 
L 77.075831 130.426712 
L 77.38541 130.131057 
" clip-path="url(#pf257d0f688)" style="fill: none; stroke: #2255aa; stroke-width: 2.8; stroke-linecap: round"/>
   </g>
   <g id="line2d_56">
    <path d="M 70.07738 135.858961 
L 70.463532 135.616585 
L 70.845964 135.370431 
L 71.224649 135.120614 
L 71.599566 134.867248 
L 71.970692 134.61045 
L 72.33801 134.350336 
L 72.701503 134.087024 
L 73.061158 133.82063 
L 73.416962 133.551274 
L 73.768907 133.279072 
L 74.116987 133.004144 
L 74.461197 132.726608 
L 74.801536 132.446583 
L 75.138003 132.164188 
L 75.470601 131.879542 
L 75.799336 131.592764 
L 76.124216 131.303973 
L 76.44525 131.013289 
L 76.76245 130.720829 
L 77.075831 130.426712 
L 77.38541 130.131057 
L 77.691205 129.833982 
L 77.993239 129.535604 
L 78.291533 129.236041 
L 78.586115 128.935409 
L 78.877012 128.633824 
L 79.164254 128.331402 
L 79.447874 128.028259 
L 79.727905 127.724507 
L 80.004385 127.420263 
L 80.277352 127.115637 
" clip-path="url(#pf257d0f688)" style="fill: none; stroke: #2255aa; stroke-width: 2.8; stroke-linecap: round"/>
   </g>
   <g id="line2d_57">
    <path d="M 63.86333 138.965697 
L 64.300612 138.793175 
L 64.734838 138.615266 
L 65.165948 138.432068 
L 65.593884 138.243681 
L 66.01859 138.050209 
L 66.440013 137.851752 
L 66.858101 137.648416 
L 67.272807 137.440307 
L 67.684082 137.22753 
L 68.091883 137.010193 
L 68.496168 136.788406 
L 68.896896 136.562278 
L 69.294031 136.33192 
L 69.687536 136.097443 
L 70.07738 135.858961 
L 70.463532 135.616585 
L 70.845964 135.370431 
L 71.224649 135.120614 
L 71.599566 134.867248 
L 71.970692 134.61045 
L 72.33801 134.350336 
L 72.701503 134.087024 
L 73.061158 133.82063 
L 73.416962 133.551274 
L 73.768907 133.279072 
L 74.116987 133.004144 
L 74.461197 132.726608 
L 74.801536 132.446583 
L 75.138003 132.164188 
L 75.470601 131.879542 
L 75.799336 131.592764 
" clip-path="url(#pf257d0f688)" style="fill: none; stroke: #2255aa; stroke-width: 2.8; stroke-linecap: round"/>
   </g>
   <g id="line2d_58">
    <path d="M 68.091883 137.010193 
L 68.496168 136.788406 
L 68.896896 136.562278 
L 69.294031 136.33192 
L 69.687536 136.097443 
L 70.07738 135.858961 
L 70.463532 135.616585 
L 70.845964 135.370431 
L 71.224649 135.120614 
L 71.599566 134.867248 
L 71.970692 134.61045 
L 72.33801 134.350336 
L 72.701503 134.087024 
L 73.061158 133.82063 
L 73.416962 133.551274 
L 73.768907 133.279072 
L 74.116987 133.004144 
L 74.461197 132.726608 
L 74.801536 132.446583 
L 75.138003 132.164188 
L 75.470601 131.879542 
L 75.799336 131.592764 
L 76.124216 131.303973 
L 76.44525 131.013289 
L 76.76245 130.720829 
L 77.075831 130.426712 
L 77.38541 130.131057 
L 77.691205 129.833982 
L 77.993239 129.535604 
L 78.291533 129.236041 
L 78.586115 128.935409 
L 78.877012 128.633824 
" clip-path="url(#pf257d0f688)" style="fill: none; stroke: #2255aa; stroke-width: 2.8; stroke-linecap: round"/>
   </g>
   <g id="line2d_59">
    <path d="M 71.970692 134.61045 
L 72.33801 134.350336 
L 72.701503 134.087024 
L 73.061158 133.82063 
L 73.416962 133.551274 
L 73.768907 133.279072 
L 74.116987 133.004144 
L 74.461197 132.726608 
L 74.801536 132.446583 
L 75.138003 132.164188 
L 75.470601 131.879542 
L 75.799336 131.592764 
L 76.124216 131.303973 
L 76.44525 131.013289 
L 76.76245 130.720829 
L 77.075831 130.426712 
L 77.38541 130.131057 
L 77.691205 129.833982 
L 77.993239 129.535604 
L 78.291533 129.236041 
L 78.586115 128.935409 
L 78.877012 128.633824 
L 79.164254 128.331402 
L 79.447874 128.028259 
L 79.727905 127.724507 
L 80.004385 127.420263 
L 80.277352 127.115637 
L 80.546846 126.810742 
L 80.81291 126.50569 
L 81.07559 126.20059 
L 81.33493 125.895553 
L 81.590981 125.590686 
" clip-path="url(#pf257d0f688)" style="fill: none; stroke: #2255aa; stroke-width: 2.8; stroke-linecap: round"/>
   </g>
   <g id="line2d_60">
    <path d="M 124.896686 115.843701 
L 124.787817 115.412082 
L 124.675768 114.981394 
L 124.560641 114.551699 
L 124.442541 114.123057 
L 124.321574 113.695527 
L 124.197846 113.269164 
L 124.071464 112.844025 
L 123.942536 112.420162 
L 123.81117 111.997627 
L 123.677476 111.57647 
L 123.541563 111.156739 
L 123.403541 110.738481 
L 123.263522 110.321739 
L 123.121616 109.906557 
L 122.977936 109.492976 
L 122.832592 109.081034 
L 122.685697 108.67077 
L 122.537363 108.262219 
L 122.387703 107.855413 
L 122.23683 107.450387 
L 122.084855 107.047168 
L 121.931891 106.645786 
L 121.778052 106.246267 
L 121.623449 105.848635 
L 121.468194 105.452913 
L 121.3124 105.059121 
L 121.156178 104.667279 
L 120.999639 104.277403 
L 120.842895 103.889509 
L 120.686056 103.50361 
L 120.529232 103.119718 
" clip-path="url(#pf257d0f688)" style="fill: none; stroke: #2255aa; stroke-width: 2.8; stroke-linecap: round"/>
   </g>
   <g id="line2d_61">
    <path d="M 124.896686 115.843701 
L 124.787817 115.412082 
L 124.675768 114.981394 
L 124.560641 114.551699 
L 124.442541 114.123057 
L 124.321574 113.695527 
L 124.197846 113.269164 
L 124.071464 112.844025 
L 123.942536 112.420162 
L 123.81117 111.997627 
L 123.677476 111.57647 
L 123.541563 111.156739 
L 123.403541 110.738481 
L 123.263522 110.321739 
L 123.121616 109.906557 
L 122.977936 109.492976 
L 122.832592 109.081034 
L 122.685697 108.67077 
L 122.537363 108.262219 
L 122.387703 107.855413 
L 122.23683 107.450387 
L 122.084855 107.047168 
L 121.931891 106.645786 
L 121.778052 106.246267 
L 121.623449 105.848635 
L 121.468194 105.452913 
L 121.3124 105.059121 
L 121.156178 104.667279 
L 120.999639 104.277403 
L 120.842895 103.889509 
L 120.686056 103.50361 
L 120.529232 103.119718 
" clip-path="url(#pf257d0f688)" style="fill: none; stroke: #2255aa; stroke-width: 2.8; stroke-linecap: round"/>
   </g>
   <g id="line2d_62">
    <path d="M 123.677476 111.57647 
L 123.541563 111.156739 
L 123.403541 110.738481 
L 123.263522 110.321739 
L 123.121616 109.906557 
L 122.977936 109.492976 
L 122.832592 109.081034 
L 122.685697 108.67077 
L 122.537363 108.262219 
L 122.387703 107.855413 
L 122.23683 107.450387 
L 122.084855 107.047168 
L 121.931891 106.645786 
L 121.778052 106.246267 
L 121.623449 105.848635 
L 121.468194 105.452913 
L 121.3124 105.059121 
L 121.156178 104.667279 
L 120.999639 104.277403 
L 120.842895 103.889509 
L 120.686056 103.50361 
L 120.529232 103.119718 
L 120.372533 102.737841 
L 120.216066 102.357989 
L 120.059941 101.980167 
L 119.904265 101.604379 
L 119.749144 101.230627 
L 119.594685 100.858913 
L 119.440992 100.489235 
L 119.28817 100.12159 
L 119.136321 99.755974 
L 118.985548 99.39238 
" clip-path="url(#pf257d0f688)" style="fill: none; stroke: #2255aa; stroke-width: 2.8; stroke-linecap: round"/>
   </g>
   <g id="line2d_63">
    <path d="M 123.677476 111.57647 
L 123.541563 111.156739 
L 123.403541 110.738481 
L 123.263522 110.321739 
L 123.121616 109.906557 
L 122.977936 109.492976 
L 122.832592 109.081034 
L 122.685697 108.67077 
L 122.537363 108.262219 
L 122.387703 107.855413 
L 122.23683 107.450387 
L 122.084855 107.047168 
L 121.931891 106.645786 
L 121.778052 106.246267 
L 121.623449 105.848635 
L 121.468194 105.452913 
L 121.3124 105.059121 
L 121.156178 104.667279 
L 120.999639 104.277403 
L 120.842895 103.889509 
L 120.686056 103.50361 
L 120.529232 103.119718 
L 120.372533 102.737841 
L 120.216066 102.357989 
L 120.059941 101.980167 
L 119.904265 101.604379 
L 119.749144 101.230627 
L 119.594685 100.858913 
L 119.440992 100.489235 
L 119.28817 100.12159 
L 119.136321 99.755974 
L 118.985548 99.39238 
" clip-path="url(#pf257d0f688)" style="fill: none; stroke: #2255aa; stroke-width: 2.8; stroke-linecap: round"/>
   </g>
   <g id="line2d_64">
    <path d="M 123.677476 111.57647 
L 123.541563 111.156739 
L 123.403541 110.738481 
L 123.263522 110.321739 
L 123.121616 109.906557 
L 122.977936 109.492976 
L 122.832592 109.081034 
L 122.685697 108.67077 
L 122.537363 108.262219 
L 122.387703 107.855413 
L 122.23683 107.450387 
L 122.084855 107.047168 
L 121.931891 106.645786 
L 121.778052 106.246267 
L 121.623449 105.848635 
L 121.468194 105.452913 
L 121.3124 105.059121 
L 121.156178 104.667279 
L 120.999639 104.277403 
L 120.842895 103.889509 
L 120.686056 103.50361 
L 120.529232 103.119718 
L 120.372533 102.737841 
L 120.216066 102.357989 
L 120.059941 101.980167 
L 119.904265 101.604379 
L 119.749144 101.230627 
L 119.594685 100.858913 
L 119.440992 100.489235 
L 119.28817 100.12159 
L 119.136321 99.755974 
L 118.985548 99.39238 
" clip-path="url(#pf257d0f688)" style="fill: none; stroke: #2255aa; stroke-width: 2.8; stroke-linecap: round"/>
   </g>
   <g id="line2d_65">
    <path d="M 122.23683 107.450387 
L 122.084855 107.047168 
L 121.931891 106.645786 
L 121.778052 106.246267 
L 121.623449 105.848635 
L 121.468194 105.452913 
L 121.3124 105.059121 
L 121.156178 104.667279 
L 120.999639 104.277403 
L 120.842895 103.889509 
L 120.686056 103.50361 
L 120.529232 103.119718 
L 120.372533 102.737841 
L 120.216066 102.357989 
L 120.059941 101.980167 
L 119.904265 101.604379 
L 119.749144 101.230627 
L 119.594685 100.858913 
L 119.440992 100.489235 
L 119.28817 100.12159 
L 119.136321 99.755974 
L 118.985548 99.39238 
L 118.835951 99.0308 
L 118.687631 98.671223 
L 118.540685 98.31364 
L 118.395213 97.958036 
L 118.251309 97.604396 
L 118.10907 97.252705 
L 117.968587 96.902944 
L 117.829954 96.555093 
L 117.693261 96.209132 
L 117.558598 95.865036 
" clip-path="url(#pf257d0f688)" style="fill: none; stroke: #2255aa; stroke-width: 2.8; stroke-linecap: round"/>
   </g>
  </g>
 </g>
 <defs>
  <clipPath id="pf257d0f688">
   <rect x="3.6" y="3.6" width="167.4" height="159.225907"/>
  </clipPath>
 </defs>
</svg>
