<?xml version="1.0" encoding="utf-8" standalone="no"?>
<!DOCTYPE svg PUBLIC "-//W3C//DTD SVG 1.1//EN"
  "http://www.w3.org/Graphics/SVG/1.1/DTD/svg11.dtd">
<svg xmlns:xlink="http://www.w3.org/1999/xlink" width="174.6pt" height="157.88428pt" viewBox="0 0 174.6 157.88428" xmlns="http://www.w3.org/2000/svg" version="1.1">
 <metadata>
  <rdf:RDF xmlns:dc="http://purl.org/dc/elements/1.1/" xmlns:cc="http://creativecommons.org/ns#" xmlns:rdf="http://www.w3.org/1999/02/22-rdf-syntax-ns#">
   <cc:Work>
    <dc:type rdf:resource="http://purl.org/dc/dcmitype/StillImage"/>
    <dc:format>image/svg+xml</dc:format>
    <dc:creator>
     <cc:Agent>
      <dc:title>Matplotlib v3.10.8, https://matplotlib.org/</dc:title>
     </cc:Agent>
    </dc:creator>
   </cc:Work>
  </rdf:RDF>
 </metadata>
 <defs>
  <style type="text/css">*{stroke-linejoin: round; stroke-linecap: butt}</style>
 </defs>
 <g id="figure_1">
  <g id="patch_1">
   <path d="M 0 157.88428 
L 174.6 157.88428 
L 174.6 -0 
L 0 -0 
L 0 157.88428 
z
" style="fill: none"/>
  </g>
  <g id="axes_1">
   <g id="line2d_1">
    <path d="M 115.964337 39.039664 
L 115.67263 38.603809 
L 115.37611 38.170143 
L 115.074787 37.738735 
L 114.768672 37.309655 
L 114.457779 36.882971 
L 114.142121 36.458755 
L 113.82171 36.037073 
L 113.496563 35.617997 
L 113.166696 35.201595 
L 112.832124 34.787937 
L 112.492865 34.377091 
L 112.148938 33.969126 
L 111.800361 33.564111 
L 111.447156 33.162115 
L 111.089341 32.763207 
L 110.72694 32.367454 
L 110.359975 31.974925 
L 109.988468 31.585689 
L 109.612445 31.199812 
L 109.231931 30.817363 
L 108.846951 30.438409 
L 108.457532 30.063016 
L 108.063702 29.691253 
L 107.665489 29.323186 
L 107.262923 28.958881 
L 106.856034 28.598403 
L 106.444852 28.24182 
L 106.02941 27.889196 
L 105.60974 27.540597 
L 105.185877 27.196087 
L 104.757853 26.855731 
L 104.325705 26.519592 
L 103.889468 26.187736 
L 103.449179 25.860223 
L 103.004876 25.537119 
L 102.556597 25.218484 
" clip-path="url(#p8e99c89541)" style="fill: none; stroke: #ffffff; stroke-width: 7.8; stroke-linecap: round"/>
   </g>
   <g id="line2d_2">
    <path d="M 112.832124 34.787937 
L 112.492865 34.377091 
L 112.148938 33.969126 
L 111.800361 33.564111 
L 111.447156 33.162115 
L 111.089341 32.763207 
L 110.72694 32.367454 
L 110.359975 31.974925 
L 109.988468 31.585689 
L 109.612445 31.199812 
L 109.231931 30.817363 
L 108.846951 30.438409 
L 108.457532 30.063016 
L 108.063702 29.691253 
L 107.665489 29.323186 
L 107.262923 28.958881 
L 106.856034 28.598403 
L 106.444852 28.24182 
L 106.02941 27.889196 
L 105.60974 27.540597 
L 105.185877 27.196087 
L 104.757853 26.855731 
L 104.325705 26.519592 
L 103.889468 26.187736 
L 103.449179 25.860223 
L 103.004876 25.537119 
L 102.556597 25.218484 
L 102.104382 24.904382 
L 101.64827 24.594873 
L 101.188303 24.290019 
L 100.724522 23.989881 
L 100.25697 23.694518 
L 99.78569 23.40399 
L 99.310726 23.118356 
L 98.832123 22.837675 
L 98.349926 22.562005 
L 97.864182 22.291404 
" clip-path="url(#p8e99c89541)" style="fill: none; stroke: #ffffff; stroke-width: 7.8; stroke-linecap: round"/>
   </g>
   <g id="line2d_3">
    <path d="M 114.457779 36.882971 
L 114.142121 36.458755 
L 113.82171 36.037073 
L 113.496563 35.617997 
L 113.166696 35.201595 
L 112.832124 34.787937 
L 112.492865 34.377091 
L 112.148938 33.969126 
L 111.800361 33.564111 
L 111.447156 33.162115 
L 111.089341 32.763207 
L 110.72694 32.367454 
L 110.359975 31.974925 
L 109.988468 31.585689 
L 109.612445 31.199812 
L 109.231931 30.817363 
L 108.846951 30.438409 
L 108.457532 30.063016 
L 108.063702 29.691253 
L 107.665489 29.323186 
L 107.262923 28.958881 
L 106.856034 28.598403 
L 106.444852 28.24182 
L 106.02941 27.889196 
L 105.60974 27.540597 
L 105.185877 27.196087 
L 104.757853 26.855731 
L 104.325705 26.519592 
L 103.889468 26.187736 
L 103.449179 25.860223 
L 103.004876 25.537119 
L 102.556597 25.218484 
L 102.104382 24.904382 
L 101.64827 24.594873 
L 101.188303 24.290019 
L 100.724522 23.989881 
L 100.25697 23.694518 
" clip-path="url(#p8e99c89541)" style="fill: none; stroke: #ffffff; stroke-width: 7.8; stroke-linecap: round"/>
   </g>
   <g id="line2d_4">
    <path d="M 111.089341 32.763207 
L 110.72694 32.367454 
L 110.359975 31.974925 
L 109.988468 31.585689 
L 109.612445 31.199812 
L 109.231931 30.817363 
L 108.846951 30.438409 
L 108.457532 30.063016 
L 108.063702 29.691253 
L 107.665489 29.323186 
L 107.262923 28.958881 
L 106.856034 28.598403 
L 106.444852 28.24182 
L 106.02941 27.889196 
L 105.60974 27.540597 
L 105.185877 27.196087 
L 104.757853 26.855731 
L 104.325705 26.519592 
L 103.889468 26.187736 
L 103.449179 25.860223 
L 103.004876 25.537119 
L 102.556597 25.218484 
L 102.104382 24.904382 
L 101.64827 24.594873 
L 101.188303 24.290019 
L 100.724522 23.989881 
L 100.25697 23.694518 
L 99.78569 23.40399 
L 99.310726 23.118356 
L 98.832123 22.837675 
L 98.349926 22.562005 
L 97.864182 22.291404 
L 97.374939 22.025927 
L 96.882243 21.765633 
L 96.386144 21.510576 
L 95.886691 21.260811 
L 95.383935 21.016394 
" clip-path="url(#p8e99c89541)" style="fill: none; stroke: #ffffff; stroke-width: 7.8; stroke-linecap: round"/>
   </g>
   <g id="line2d_5">
    <path d="M 107.262923 28.958881 
L 106.856034 28.598403 
L 106.444852 28.24182 
L 106.02941 27.889196 
L 105.60974 27.540597 
L 105.185877 27.196087 
L 104.757853 26.855731 
L 104.325705 26.519592 
L 103.889468 26.187736 
L 103.449179 25.860223 
L 103.004876 25.537119 
L 102.556597 25.218484 
L 102.104382 24.904382 
L 101.64827 24.594873 
L 101.188303 24.290019 
L 100.724522 23.989881 
L 100.25697 23.694518 
L 99.78569 23.40399 
L 99.310726 23.118356 
L 98.832123 22.837675 
L 98.349926 22.562005 
L 97.864182 22.291404 
L 97.374939 22.025927 
L 96.882243 21.765633 
L 96.386144 21.510576 
L 95.886691 21.260811 
L 95.383935 21.016394 
L 94.877926 20.777378 
L 94.368715 20.543817 
L 93.856356 20.315762 
L 93.340902 20.093267 
L 92.822405 19.876382 
L 92.300921 19.665158 
L 91.776506 19.459645 
L 91.249214 19.259892 
L 90.719102 19.065948 
L 90.186228 18.877861 
" clip-path="url(#p8e99c89541)" style="fill: none; stroke: #ffffff; stroke-width: 7.8; stroke-linecap: round"/>
   </g>
   <g id="line2d_6">
    <path d="M 111.089341 32.763207 
L 110.72694 32.367454 
L 110.359975 31.974925 
L 109.988468 31.585689 
L 109.612445 31.199812 
L 109.231931 30.817363 
L 108.846951 30.438409 
L 108.457532 30.063016 
L 108.063702 29.691253 
L 107.665489 29.323186 
L 107.262923 28.958881 
L 106.856034 28.598403 
L 106.444852 28.24182 
L 106.02941 27.889196 
L 105.60974 27.540597 
L 105.185877 27.196087 
L 104.757853 26.855731 
L 104.325705 26.519592 
L 103.889468 26.187736 
L 103.449179 25.860223 
L 103.004876 25.537119 
L 102.556597 25.218484 
L 102.104382 24.904382 
L 101.64827 24.594873 
L 101.188303 24.290019 
L 100.724522 23.989881 
L 100.25697 23.694518 
L 99.78569 23.40399 
L 99.310726 23.118356 
L 98.832123 22.837675 
L 98.349926 22.562005 
L 97.864182 22.291404 
L 97.374939 22.025927 
L 96.882243 21.765633 
L 96.386144 21.510576 
L 95.886691 21.260811 
L 95.383935 21.016394 
" clip-path="url(#p8e99c89541)" style="fill: none; stroke: #ffffff; stroke-width: 7.8; stroke-linecap: round"/>
   </g>
   <g id="line2d_7">
    <path d="M 107.262923 28.958881 
L 106.856034 28.598403 
L 106.444852 28.24182 
L 106.02941 27.889196 
L 105.60974 27.540597 
L 105.185877 27.196087 
L 104.757853 26.855731 
L 104.325705 26.519592 
L 103.889468 26.187736 
L 103.449179 25.860223 
L 103.004876 25.537119 
L 102.556597 25.218484 
L 102.104382 24.904382 
L 101.64827 24.594873 
L 101.188303 24.290019 
L 100.724522 23.989881 
L 100.25697 23.694518 
L 99.78569 23.40399 
L 99.310726 23.118356 
L 98.832123 22.837675 
L 98.349926 22.562005 
L 97.864182 22.291404 
L 97.374939 22.025927 
L 96.882243 21.765633 
L 96.386144 21.510576 
L 95.886691 21.260811 
L 95.383935 21.016394 
L 94.877926 20.777378 
L 94.368715 20.543817 
L 93.856356 20.315762 
L 93.340902 20.093267 
L 92.822405 19.876382 
L 92.300921 19.665158 
L 91.776506 19.459645 
L 91.249214 19.259892 
L 90.719102 19.065948 
L 90.186228 18.877861 
" clip-path="url(#p8e99c89541)" style="fill: none; stroke: #ffffff; stroke-width: 7.8; stroke-linecap: round"/>
   </g>
   <g id="line2d_8">
    <path d="M 103.004876 25.537119 
L 102.556597 25.218484 
L 102.104382 24.904382 
L 101.64827 24.594873 
L 101.188303 24.290019 
L 100.724522 23.989881 
L 100.25697 23.694518 
L 99.78569 23.40399 
L 99.310726 23.118356 
L 98.832123 22.837675 
L 98.349926 22.562005 
L 97.864182 22.291404 
L 97.374939 22.025927 
L 96.882243 21.765633 
L 96.386144 21.510576 
L 95.886691 21.260811 
L 95.383935 21.016394 
L 94.877926 20.777378 
L 94.368715 20.543817 
L 93.856356 20.315762 
L 93.340902 20.093267 
L 92.822405 19.876382 
L 92.300921 19.665158 
L 91.776506 19.459645 
L 91.249214 19.259892 
L 90.719102 19.065948 
L 90.186228 18.877861 
L 89.650649 18.695677 
L 89.112425 18.519442 
L 88.571614 18.349204 
L 88.028276 18.185005 
L 87.482472 18.026891 
L 86.934263 17.874904 
L 86.38371 17.729086 
L 85.830877 17.58948 
L 85.275825 17.456126 
L 84.718618 17.329064 
" clip-path="url(#p8e99c89541)" style="fill: none; stroke: #ffffff; stroke-width: 7.8; stroke-linecap: round"/>
   </g>
   <g id="line2d_9">
    <path d="M 50.388727 68.323416 
L 50.451957 68.648834 
L 50.518596 68.972884 
L 50.588609 69.295542 
L 50.661958 69.616789 
L 50.738606 69.936604 
L 50.818517 70.254966 
L 50.901652 70.571857 
L 50.987975 70.887256 
L 51.077449 71.201147 
L 51.170034 71.51351 
L 51.265694 71.824329 
L 51.36439 72.133587 
L 51.466085 72.441266 
L 51.570739 72.747353 
L 51.678316 73.05183 
L 51.788775 73.354684 
L 51.90208 73.655899 
L 52.018191 73.955463 
L 52.13707 74.253363 
L 52.258678 74.549584 
L 52.382976 74.844116 
L 52.509926 75.136946 
L 52.639489 75.428063 
L 52.771627 75.717456 
L 52.9063 76.005116 
L 53.043471 76.291032 
L 53.183099 76.575195 
L 53.325147 76.857597 
L 53.469576 77.138228 
L 53.616348 77.417082 
L 53.765424 77.694151 
L 53.916765 77.969428 
L 54.070333 78.242907 
L 54.226091 78.514581 
L 54.383999 78.784446 
L 54.54402 79.052496 
" clip-path="url(#p8e99c89541)" style="fill: none; stroke: #ffffff; stroke-width: 7.8; stroke-linecap: round"/>
   </g>
   <g id="line2d_10">
    <path d="M 50.388727 68.323416 
L 50.451957 68.648834 
L 50.518596 68.972884 
L 50.588609 69.295542 
L 50.661958 69.616789 
L 50.738606 69.936604 
L 50.818517 70.254966 
L 50.901652 70.571857 
L 50.987975 70.887256 
L 51.077449 71.201147 
L 51.170034 71.51351 
L 51.265694 71.824329 
L 51.36439 72.133587 
L 51.466085 72.441266 
L 51.570739 72.747353 
L 51.678316 73.05183 
L 51.788775 73.354684 
L 51.90208 73.655899 
L 52.018191 73.955463 
L 52.13707 74.253363 
L 52.258678 74.549584 
L 52.382976 74.844116 
L 52.509926 75.136946 
L 52.639489 75.428063 
L 52.771627 75.717456 
L 52.9063 76.005116 
L 53.043471 76.291032 
L 53.183099 76.575195 
L 53.325147 76.857597 
L 53.469576 77.138228 
L 53.616348 77.417082 
L 53.765424 77.694151 
L 53.916765 77.969428 
L 54.070333 78.242907 
L 54.226091 78.514581 
L 54.383999 78.784446 
L 54.54402 79.052496 
" clip-path="url(#p8e99c89541)" style="fill: none; stroke: #ffffff; stroke-width: 7.8; stroke-linecap: round"/>
   </g>
   <g id="line2d_11">
    <path d="M 50.738606 69.936604 
L 50.818517 70.254966 
L 50.901652 70.571857 
L 50.987975 70.887256 
L 51.077449 71.201147 
L 51.170034 71.51351 
L 51.265694 71.824329 
L 51.36439 72.133587 
L 51.466085 72.441266 
L 51.570739 72.747353 
L 51.678316 73.05183 
L 51.788775 73.354684 
L 51.90208 73.655899 
L 52.018191 73.955463 
L 52.13707 74.253363 
L 52.258678 74.549584 
L 52.382976 74.844116 
L 52.509926 75.136946 
L 52.639489 75.428063 
L 52.771627 75.717456 
L 52.9063 76.005116 
L 53.043471 76.291032 
L 53.183099 76.575195 
L 53.325147 76.857597 
L 53.469576 77.138228 
L 53.616348 77.417082 
L 53.765424 77.694151 
L 53.916765 77.969428 
L 54.070333 78.242907 
L 54.226091 78.514581 
L 54.383999 78.784446 
L 54.54402 79.052496 
L 54.706115 79.318727 
L 54.870248 79.583134 
L 55.03638 79.845714 
L 55.204474 80.106464 
L 55.374492 80.36538 
" clip-path="url(#p8e99c89541)" style="fill: none; stroke: #ffffff; stroke-width: 7.8; stroke-linecap: round"/>
   </g>
   <g id="line2d_12">
    <path d="M 51.170034 71.51351 
L 51.265694 71.824329 
L 51.36439 72.133587 
L 51.466085 72.441266 
L 51.570739 72.747353 
L 51.678316 73.05183 
L 51.788775 73.354684 
L 51.90208 73.655899 
L 52.018191 73.955463 
L 52.13707 74.253363 
L 52.258678 74.549584 
L 52.382976 74.844116 
L 52.509926 75.136946 
L 52.639489 75.428063 
L 52.771627 75.717456 
L 52.9063 76.005116 
L 53.043471 76.291032 
L 53.183099 76.575195 
L 53.325147 76.857597 
L 53.469576 77.138228 
L 53.616348 77.417082 
L 53.765424 77.694151 
L 53.916765 77.969428 
L 54.070333 78.242907 
L 54.226091 78.514581 
L 54.383999 78.784446 
L 54.54402 79.052496 
L 54.706115 79.318727 
L 54.870248 79.583134 
L 55.03638 79.845714 
L 55.204474 80.106464 
L 55.374492 80.36538 
L 55.546397 80.622461 
L 55.720152 80.877705 
L 55.895719 81.131109 
L 56.073064 81.382673 
L 56.252148 81.632396 
" clip-path="url(#p8e99c89541)" style="fill: none; stroke: #ffffff; stroke-width: 7.8; stroke-linecap: round"/>
   </g>
   <g id="line2d_13">
    <path d="M 51.170034 71.51351 
L 51.265694 71.824329 
L 51.36439 72.133587 
L 51.466085 72.441266 
L 51.570739 72.747353 
L 51.678316 73.05183 
L 51.788775 73.354684 
L 51.90208 73.655899 
L 52.018191 73.955463 
L 52.13707 74.253363 
L 52.258678 74.549584 
L 52.382976 74.844116 
L 52.509926 75.136946 
L 52.639489 75.428063 
L 52.771627 75.717456 
L 52.9063 76.005116 
L 53.043471 76.291032 
L 53.183099 76.575195 
L 53.325147 76.857597 
L 53.469576 77.138228 
L 53.616348 77.417082 
L 53.765424 77.694151 
L 53.916765 77.969428 
L 54.070333 78.242907 
L 54.226091 78.514581 
L 54.383999 78.784446 
L 54.54402 79.052496 
L 54.706115 79.318727 
L 54.870248 79.583134 
L 55.03638 79.845714 
L 55.204474 80.106464 
L 55.374492 80.36538 
L 55.546397 80.622461 
L 55.720152 80.877705 
L 55.895719 81.131109 
L 56.073064 81.382673 
L 56.252148 81.632396 
" clip-path="url(#p8e99c89541)" style="fill: none; stroke: #ffffff; stroke-width: 7.8; stroke-linecap: round"/>
   </g>
   <g id="line2d_14">
    <path d="M 51.678316 73.05183 
L 51.788775 73.354684 
L 51.90208 73.655899 
L 52.018191 73.955463 
L 52.13707 74.253363 
L 52.258678 74.549584 
L 52.382976 74.844116 
L 52.509926 75.136946 
L 52.639489 75.428063 
L 52.771627 75.717456 
L 52.9063 76.005116 
L 53.043471 76.291032 
L 53.183099 76.575195 
L 53.325147 76.857597 
L 53.469576 77.138228 
L 53.616348 77.417082 
L 53.765424 77.694151 
L 53.916765 77.969428 
L 54.070333 78.242907 
L 54.226091 78.514581 
L 54.383999 78.784446 
L 54.54402 79.052496 
L 54.706115 79.318727 
L 54.870248 79.583134 
L 55.03638 79.845714 
L 55.204474 80.106464 
L 55.374492 80.36538 
L 55.546397 80.622461 
L 55.720152 80.877705 
L 55.895719 81.131109 
L 56.073064 81.382673 
L 56.252148 81.632396 
L 56.432935 81.880278 
L 56.61539 82.126319 
L 56.799476 82.370518 
L 56.985157 82.612878 
L 57.172399 82.853399 
" clip-path="url(#p8e99c89541)" style="fill: none; stroke: #ffffff; stroke-width: 7.8; stroke-linecap: round"/>
   </g>
   <g id="line2d_15">
    <path d="M 51.678316 73.05183 
L 51.788775 73.354684 
L 51.90208 73.655899 
L 52.018191 73.955463 
L 52.13707 74.253363 
L 52.258678 74.549584 
L 52.382976 74.844116 
L 52.509926 75.136946 
L 52.639489 75.428063 
L 52.771627 75.717456 
L 52.9063 76.005116 
L 53.043471 76.291032 
L 53.183099 76.575195 
L 53.325147 76.857597 
L 53.469576 77.138228 
L 53.616348 77.417082 
L 53.765424 77.694151 
L 53.916765 77.969428 
L 54.070333 78.242907 
L 54.226091 78.514581 
L 54.383999 78.784446 
L 54.54402 79.052496 
L 54.706115 79.318727 
L 54.870248 79.583134 
L 55.03638 79.845714 
L 55.204474 80.106464 
L 55.374492 80.36538 
L 55.546397 80.622461 
L 55.720152 80.877705 
L 55.895719 81.131109 
L 56.073064 81.382673 
L 56.252148 81.632396 
L 56.432935 81.880278 
L 56.61539 82.126319 
L 56.799476 82.370518 
L 56.985157 82.612878 
L 57.172399 82.853399 
" clip-path="url(#p8e99c89541)" style="fill: none; stroke: #ffffff; stroke-width: 7.8; stroke-linecap: round"/>
   </g>
   <g id="line2d_16">
    <path d="M 52.258678 74.549584 
L 52.382976 74.844116 
L 52.509926 75.136946 
L 52.639489 75.428063 
L 52.771627 75.717456 
L 52.9063 76.005116 
L 53.043471 76.291032 
L 53.183099 76.575195 
L 53.325147 76.857597 
L 53.469576 77.138228 
L 53.616348 77.417082 
L 53.765424 77.694151 
L 53.916765 77.969428 
L 54.070333 78.242907 
L 54.226091 78.514581 
L 54.383999 78.784446 
L 54.54402 79.052496 
L 54.706115 79.318727 
L 54.870248 79.583134 
L 55.03638 79.845714 
L 55.204474 80.106464 
L 55.374492 80.36538 
L 55.546397 80.622461 
L 55.720152 80.877705 
L 55.895719 81.131109 
L 56.073064 81.382673 
L 56.252148 81.632396 
L 56.432935 81.880278 
L 56.61539 82.126319 
L 56.799476 82.370518 
L 56.985157 82.612878 
L 57.172399 82.853399 
L 57.361165 83.092083 
L 57.551421 83.328931 
L 57.743132 83.563946 
L 57.936264 83.797132 
L 58.130781 84.028489 
" clip-path="url(#p8e99c89541)" style="fill: none; stroke: #ffffff; stroke-width: 7.8; stroke-linecap: round"/>
   </g>
   <g id="line2d_17">
    <path d="M 52.9063 76.005116 
L 53.043471 76.291032 
L 53.183099 76.575195 
L 53.325147 76.857597 
L 53.469576 77.138228 
L 53.616348 77.417082 
L 53.765424 77.694151 
L 53.916765 77.969428 
L 54.070333 78.242907 
L 54.226091 78.514581 
L 54.383999 78.784446 
L 54.54402 79.052496 
L 54.706115 79.318727 
L 54.870248 79.583134 
L 55.03638 79.845714 
L 55.204474 80.106464 
L 55.374492 80.36538 
L 55.546397 80.622461 
L 55.720152 80.877705 
L 55.895719 81.131109 
L 56.073064 81.382673 
L 56.252148 81.632396 
L 56.432935 81.880278 
L 56.61539 82.126319 
L 56.799476 82.370518 
L 56.985157 82.612878 
L 57.172399 82.853399 
L 57.361165 83.092083 
L 57.551421 83.328931 
L 57.743132 83.563946 
L 57.936264 83.797132 
L 58.130781 84.028489 
L 58.326651 84.258023 
L 58.523839 84.485737 
L 58.722313 84.711634 
L 58.922038 84.93572 
L 59.122981 85.157998 
" clip-path="url(#p8e99c89541)" style="fill: none; stroke: #ffffff; stroke-width: 7.8; stroke-linecap: round"/>
   </g>
   <g id="line2d_18">
    <path d="M 52.9063 76.005116 
L 53.043471 76.291032 
L 53.183099 76.575195 
L 53.325147 76.857597 
L 53.469576 77.138228 
L 53.616348 77.417082 
L 53.765424 77.694151 
L 53.916765 77.969428 
L 54.070333 78.242907 
L 54.226091 78.514581 
L 54.383999 78.784446 
L 54.54402 79.052496 
L 54.706115 79.318727 
L 54.870248 79.583134 
L 55.03638 79.845714 
L 55.204474 80.106464 
L 55.374492 80.36538 
L 55.546397 80.622461 
L 55.720152 80.877705 
L 55.895719 81.131109 
L 56.073064 81.382673 
L 56.252148 81.632396 
L 56.432935 81.880278 
L 56.61539 82.126319 
L 56.799476 82.370518 
L 56.985157 82.612878 
L 57.172399 82.853399 
L 57.361165 83.092083 
L 57.551421 83.328931 
L 57.743132 83.563946 
L 57.936264 83.797132 
L 58.130781 84.028489 
L 58.326651 84.258023 
L 58.523839 84.485737 
L 58.722313 84.711634 
L 58.922038 84.93572 
L 59.122981 85.157998 
" clip-path="url(#p8e99c89541)" style="fill: none; stroke: #ffffff; stroke-width: 7.8; stroke-linecap: round"/>
   </g>
   <g id="line2d_19">
    <path d="M 52.9063 76.005116 
L 53.043471 76.291032 
L 53.183099 76.575195 
L 53.325147 76.857597 
L 53.469576 77.138228 
L 53.616348 77.417082 
L 53.765424 77.694151 
L 53.916765 77.969428 
L 54.070333 78.242907 
L 54.226091 78.514581 
L 54.383999 78.784446 
L 54.54402 79.052496 
L 54.706115 79.318727 
L 54.870248 79.583134 
L 55.03638 79.845714 
L 55.204474 80.106464 
L 55.374492 80.36538 
L 55.546397 80.622461 
L 55.720152 80.877705 
L 55.895719 81.131109 
L 56.073064 81.382673 
L 56.252148 81.632396 
L 56.432935 81.880278 
L 56.61539 82.126319 
L 56.799476 82.370518 
L 56.985157 82.612878 
L 57.172399 82.853399 
L 57.361165 83.092083 
L 57.551421 83.328931 
L 57.743132 83.563946 
L 57.936264 83.797132 
L 58.130781 84.028489 
L 58.326651 84.258023 
L 58.523839 84.485737 
L 58.722313 84.711634 
L 58.922038 84.93572 
L 59.122981 85.157998 
" clip-path="url(#p8e99c89541)" style="fill: none; stroke: #ffffff; stroke-width: 7.8; stroke-linecap: round"/>
   </g>
   <g id="line2d_20">
    <path d="M 54.383999 78.784446 
L 54.54402 79.052496 
L 54.706115 79.318727 
L 54.870248 79.583134 
L 55.03638 79.845714 
L 55.204474 80.106464 
L 55.374492 80.36538 
L 55.546397 80.622461 
L 55.720152 80.877705 
L 55.895719 81.131109 
L 56.073064 81.382673 
L 56.252148 81.632396 
L 56.432935 81.880278 
L 56.61539 82.126319 
L 56.799476 82.370518 
L 56.985157 82.612878 
L 57.172399 82.853399 
L 57.361165 83.092083 
L 57.551421 83.328931 
L 57.743132 83.563946 
L 57.936264 83.797132 
L 58.130781 84.028489 
L 58.326651 84.258023 
L 58.523839 84.485737 
L 58.722313 84.711634 
L 58.922038 84.93572 
L 59.122981 85.157998 
L 59.325112 85.378473 
L 59.528396 85.597152 
L 59.732803 85.814038 
L 59.9383 86.02914 
L 60.144856 86.242461 
L 60.35244 86.454009 
L 60.561022 86.66379 
L 60.770571 86.871812 
L 60.981057 87.078081 
L 61.192451 87.282605 
" clip-path="url(#p8e99c89541)" style="fill: none; stroke: #ffffff; stroke-width: 7.8; stroke-linecap: round"/>
   </g>
   <g id="line2d_21">
    <path d="M 54.383999 78.784446 
L 54.54402 79.052496 
L 54.706115 79.318727 
L 54.870248 79.583134 
L 55.03638 79.845714 
L 55.204474 80.106464 
L 55.374492 80.36538 
L 55.546397 80.622461 
L 55.720152 80.877705 
L 55.895719 81.131109 
L 56.073064 81.382673 
L 56.252148 81.632396 
L 56.432935 81.880278 
L 56.61539 82.126319 
L 56.799476 82.370518 
L 56.985157 82.612878 
L 57.172399 82.853399 
L 57.361165 83.092083 
L 57.551421 83.328931 
L 57.743132 83.563946 
L 57.936264 83.797132 
L 58.130781 84.028489 
L 58.326651 84.258023 
L 58.523839 84.485737 
L 58.722313 84.711634 
L 58.922038 84.93572 
L 59.122981 85.157998 
L 59.325112 85.378473 
L 59.528396 85.597152 
L 59.732803 85.814038 
L 59.9383 86.02914 
L 60.144856 86.242461 
L 60.35244 86.454009 
L 60.561022 86.66379 
L 60.770571 86.871812 
L 60.981057 87.078081 
L 61.192451 87.282605 
" clip-path="url(#p8e99c89541)" style="fill: none; stroke: #ffffff; stroke-width: 7.8; stroke-linecap: round"/>
   </g>
   <g id="line2d_22">
    <path d="M 124.013671 98.532134 
L 124.090429 98.067203 
L 124.162707 97.603066 
L 124.230529 97.139778 
L 124.293919 96.677395 
L 124.352899 96.215972 
L 124.407496 95.755565 
L 124.457734 95.296226 
L 124.503639 94.83801 
L 124.545236 94.380969 
L 124.582554 93.925156 
L 124.615617 93.470622 
L 124.644456 93.017419 
L 124.669096 92.565598 
L 124.689568 92.115208 
L 124.705899 91.666298 
L 124.71812 91.218918 
L 124.72626 90.773117 
L 124.730349 90.32894 
L 124.730419 89.886436 
L 124.726499 89.445651 
L 124.718623 89.006631 
L 124.70682 88.56942 
L 124.691124 88.134063 
L 124.671568 87.700604 
L 124.648183 87.269087 
L 124.621004 86.839553 
L 124.590064 86.412044 
L 124.555397 85.986603 
L 124.517037 85.563268 
L 124.475018 85.142081 
L 124.429375 84.72308 
L 124.380144 84.306303 
L 124.32736 83.891789 
L 124.271057 83.479575 
L 124.211273 83.069697 
L 124.148043 82.662192 
" clip-path="url(#p8e99c89541)" style="fill: none; stroke: #ffffff; stroke-width: 7.8; stroke-linecap: round"/>
   </g>
   <g id="line2d_23">
    <path d="M 124.582554 93.925156 
L 124.615617 93.470622 
L 124.644456 93.017419 
L 124.669096 92.565598 
L 124.689568 92.115208 
L 124.705899 91.666298 
L 124.71812 91.218918 
L 124.72626 90.773117 
L 124.730349 90.32894 
L 124.730419 89.886436 
L 124.726499 89.445651 
L 124.718623 89.006631 
L 124.70682 88.56942 
L 124.691124 88.134063 
L 124.671568 87.700604 
L 124.648183 87.269087 
L 124.621004 86.839553 
L 124.590064 86.412044 
L 124.555397 85.986603 
L 124.517037 85.563268 
L 124.475018 85.142081 
L 124.429375 84.72308 
L 124.380144 84.306303 
L 124.32736 83.891789 
L 124.271057 83.479575 
L 124.211273 83.069697 
L 124.148043 82.662192 
L 124.081404 82.257093 
L 124.011391 81.854436 
L 123.938042 81.454254 
L 123.861394 81.05658 
L 123.781483 80.661447 
L 123.698348 80.268885 
L 123.612025 79.878927 
L 123.522551 79.491602 
L 123.429966 79.10694 
L 123.334306 78.72497 
" clip-path="url(#p8e99c89541)" style="fill: none; stroke: #ffffff; stroke-width: 7.8; stroke-linecap: round"/>
   </g>
   <g id="line2d_24">
    <path d="M 124.352899 96.215972 
L 124.407496 95.755565 
L 124.457734 95.296226 
L 124.503639 94.83801 
L 124.545236 94.380969 
L 124.582554 93.925156 
L 124.615617 93.470622 
L 124.644456 93.017419 
L 124.669096 92.565598 
L 124.689568 92.115208 
L 124.705899 91.666298 
L 124.71812 91.218918 
L 124.72626 90.773117 
L 124.730349 90.32894 
L 124.730419 89.886436 
L 124.726499 89.445651 
L 124.718623 89.006631 
L 124.70682 88.56942 
L 124.691124 88.134063 
L 124.671568 87.700604 
L 124.648183 87.269087 
L 124.621004 86.839553 
L 124.590064 86.412044 
L 124.555397 85.986603 
L 124.517037 85.563268 
L 124.475018 85.142081 
L 124.429375 84.72308 
L 124.380144 84.306303 
L 124.32736 83.891789 
L 124.271057 83.479575 
L 124.211273 83.069697 
L 124.148043 82.662192 
L 124.081404 82.257093 
L 124.011391 81.854436 
L 123.938042 81.454254 
L 123.861394 81.05658 
L 123.781483 80.661447 
" clip-path="url(#p8e99c89541)" style="fill: none; stroke: #ffffff; stroke-width: 7.8; stroke-linecap: round"/>
   </g>
   <g id="line2d_25">
    <path d="M 124.705899 91.666298 
L 124.71812 91.218918 
L 124.72626 90.773117 
L 124.730349 90.32894 
L 124.730419 89.886436 
L 124.726499 89.445651 
L 124.718623 89.006631 
L 124.70682 88.56942 
L 124.691124 88.134063 
L 124.671568 87.700604 
L 124.648183 87.269087 
L 124.621004 86.839553 
L 124.590064 86.412044 
L 124.555397 85.986603 
L 124.517037 85.563268 
L 124.475018 85.142081 
L 124.429375 84.72308 
L 124.380144 84.306303 
L 124.32736 83.891789 
L 124.271057 83.479575 
L 124.211273 83.069697 
L 124.148043 82.662192 
L 124.081404 82.257093 
L 124.011391 81.854436 
L 123.938042 81.454254 
L 123.861394 81.05658 
L 123.781483 80.661447 
L 123.698348 80.268885 
L 123.612025 79.878927 
L 123.522551 79.491602 
L 123.429966 79.10694 
L 123.334306 78.72497 
L 123.23561 78.345719 
L 123.133915 77.969215 
L 123.029261 77.595485 
L 122.921684 77.224554 
L 122.811225 76.856449 
" clip-path="url(#p8e99c89541)" style="fill: none; stroke: #ffffff; stroke-width: 7.8; stroke-linecap: round"/>
   </g>
   <g id="line2d_26">
    <path d="M 124.648183 87.269087 
L 124.621004 86.839553 
L 124.590064 86.412044 
L 124.555397 85.986603 
L 124.517037 85.563268 
L 124.475018 85.142081 
L 124.429375 84.72308 
L 124.380144 84.306303 
L 124.32736 83.891789 
L 124.271057 83.479575 
L 124.211273 83.069697 
L 124.148043 82.662192 
L 124.081404 82.257093 
L 124.011391 81.854436 
L 123.938042 81.454254 
L 123.861394 81.05658 
L 123.781483 80.661447 
L 123.698348 80.268885 
L 123.612025 79.878927 
L 123.522551 79.491602 
L 123.429966 79.10694 
L 123.334306 78.72497 
L 123.23561 78.345719 
L 123.133915 77.969215 
L 123.029261 77.595485 
L 122.921684 77.224554 
L 122.811225 76.856449 
L 122.69792 76.491193 
L 122.581809 76.128811 
L 122.46293 75.769325 
L 122.341322 75.412759 
L 122.217024 75.059133 
L 122.090074 74.70847 
L 121.960511 74.360788 
L 121.828373 74.016109 
L 121.6937 73.67445 
L 121.556529 73.335831 
" clip-path="url(#p8e99c89541)" style="fill: none; stroke: #ffffff; stroke-width: 7.8; stroke-linecap: round"/>
   </g>
   <g id="line2d_27">
    <path d="M 124.582554 93.925156 
L 124.615617 93.470622 
L 124.644456 93.017419 
L 124.669096 92.565598 
L 124.689568 92.115208 
L 124.705899 91.666298 
L 124.71812 91.218918 
L 124.72626 90.773117 
L 124.730349 90.32894 
L 124.730419 89.886436 
L 124.726499 89.445651 
L 124.718623 89.006631 
L 124.70682 88.56942 
L 124.691124 88.134063 
L 124.671568 87.700604 
L 124.648183 87.269087 
L 124.621004 86.839553 
L 124.590064 86.412044 
L 124.555397 85.986603 
L 124.517037 85.563268 
L 124.475018 85.142081 
L 124.429375 84.72308 
L 124.380144 84.306303 
L 124.32736 83.891789 
L 124.271057 83.479575 
L 124.211273 83.069697 
L 124.148043 82.662192 
L 124.081404 82.257093 
L 124.011391 81.854436 
L 123.938042 81.454254 
L 123.861394 81.05658 
L 123.781483 80.661447 
L 123.698348 80.268885 
L 123.612025 79.878927 
L 123.522551 79.491602 
L 123.429966 79.10694 
L 123.334306 78.72497 
" clip-path="url(#p8e99c89541)" style="fill: none; stroke: #ffffff; stroke-width: 7.8; stroke-linecap: round"/>
   </g>
   <g id="line2d_28">
    <path d="M 124.726499 89.445651 
L 124.718623 89.006631 
L 124.70682 88.56942 
L 124.691124 88.134063 
L 124.671568 87.700604 
L 124.648183 87.269087 
L 124.621004 86.839553 
L 124.590064 86.412044 
L 124.555397 85.986603 
L 124.517037 85.563268 
L 124.475018 85.142081 
L 124.429375 84.72308 
L 124.380144 84.306303 
L 124.32736 83.891789 
L 124.271057 83.479575 
L 124.211273 83.069697 
L 124.148043 82.662192 
L 124.081404 82.257093 
L 124.011391 81.854436 
L 123.938042 81.454254 
L 123.861394 81.05658 
L 123.781483 80.661447 
L 123.698348 80.268885 
L 123.612025 79.878927 
L 123.522551 79.491602 
L 123.429966 79.10694 
L 123.334306 78.72497 
L 123.23561 78.345719 
L 123.133915 77.969215 
L 123.029261 77.595485 
L 122.921684 77.224554 
L 122.811225 76.856449 
L 122.69792 76.491193 
L 122.581809 76.128811 
L 122.46293 75.769325 
L 122.341322 75.412759 
L 122.217024 75.059133 
" clip-path="url(#p8e99c89541)" style="fill: none; stroke: #ffffff; stroke-width: 7.8; stroke-linecap: round"/>
   </g>
   <g id="line2d_29">
    <path d="M 124.475018 85.142081 
L 124.429375 84.72308 
L 124.380144 84.306303 
L 124.32736 83.891789 
L 124.271057 83.479575 
L 124.211273 83.069697 
L 124.148043 82.662192 
L 124.081404 82.257093 
L 124.011391 81.854436 
L 123.938042 81.454254 
L 123.861394 81.05658 
L 123.781483 80.661447 
L 123.698348 80.268885 
L 123.612025 79.878927 
L 123.522551 79.491602 
L 123.429966 79.10694 
L 123.334306 78.72497 
L 123.23561 78.345719 
L 123.133915 77.969215 
L 123.029261 77.595485 
L 122.921684 77.224554 
L 122.811225 76.856449 
L 122.69792 76.491193 
L 122.581809 76.128811 
L 122.46293 75.769325 
L 122.341322 75.412759 
L 122.217024 75.059133 
L 122.090074 74.70847 
L 121.960511 74.360788 
L 121.828373 74.016109 
L 121.6937 73.67445 
L 121.556529 73.335831 
L 121.416901 73.000268 
L 121.274853 72.667779 
L 121.130424 72.33838 
L 120.983652 72.012087 
L 120.834576 71.688913 
" clip-path="url(#p8e99c89541)" style="fill: none; stroke: #ffffff; stroke-width: 7.8; stroke-linecap: round"/>
   </g>
   <g id="line2d_30">
    <path d="M 123.861394 81.05658 
L 123.781483 80.661447 
L 123.698348 80.268885 
L 123.612025 79.878927 
L 123.522551 79.491602 
L 123.429966 79.10694 
L 123.334306 78.72497 
L 123.23561 78.345719 
L 123.133915 77.969215 
L 123.029261 77.595485 
L 122.921684 77.224554 
L 122.811225 76.856449 
L 122.69792 76.491193 
L 122.581809 76.128811 
L 122.46293 75.769325 
L 122.341322 75.412759 
L 122.217024 75.059133 
L 122.090074 74.70847 
L 121.960511 74.360788 
L 121.828373 74.016109 
L 121.6937 73.67445 
L 121.556529 73.335831 
L 121.416901 73.000268 
L 121.274853 72.667779 
L 121.130424 72.33838 
L 120.983652 72.012087 
L 120.834576 71.688913 
L 120.683235 71.368874 
L 120.529667 71.051983 
L 120.373909 70.738253 
L 120.216001 70.427695 
L 120.05598 70.120321 
L 119.893885 69.816142 
L 119.729752 69.515169 
L 119.56362 69.217409 
L 119.395526 68.922874 
L 119.225508 68.631569 
" clip-path="url(#p8e99c89541)" style="fill: none; stroke: #ffffff; stroke-width: 7.8; stroke-linecap: round"/>
   </g>
   <g id="line2d_31">
    <path d="M 124.648183 87.269087 
L 124.621004 86.839553 
L 124.590064 86.412044 
L 124.555397 85.986603 
L 124.517037 85.563268 
L 124.475018 85.142081 
L 124.429375 84.72308 
L 124.380144 84.306303 
L 124.32736 83.891789 
L 124.271057 83.479575 
L 124.211273 83.069697 
L 124.148043 82.662192 
L 124.081404 82.257093 
L 124.011391 81.854436 
L 123.938042 81.454254 
L 123.861394 81.05658 
L 123.781483 80.661447 
L 123.698348 80.268885 
L 123.612025 79.878927 
L 123.522551 79.491602 
L 123.429966 79.10694 
L 123.334306 78.72497 
L 123.23561 78.345719 
L 123.133915 77.969215 
L 123.029261 77.595485 
L 122.921684 77.224554 
L 122.811225 76.856449 
L 122.69792 76.491193 
L 122.581809 76.128811 
L 122.46293 75.769325 
L 122.341322 75.412759 
L 122.217024 75.059133 
L 122.090074 74.70847 
L 121.960511 74.360788 
L 121.828373 74.016109 
L 121.6937 73.67445 
L 121.556529 73.335831 
" clip-path="url(#p8e99c89541)" style="fill: none; stroke: #ffffff; stroke-width: 7.8; stroke-linecap: round"/>
   </g>
   <g id="line2d_32">
    <path d="M 124.211273 83.069697 
L 124.148043 82.662192 
L 124.081404 82.257093 
L 124.011391 81.854436 
L 123.938042 81.454254 
L 123.861394 81.05658 
L 123.781483 80.661447 
L 123.698348 80.268885 
L 123.612025 79.878927 
L 123.522551 79.491602 
L 123.429966 79.10694 
L 123.334306 78.72497 
L 123.23561 78.345719 
L 123.133915 77.969215 
L 123.029261 77.595485 
L 122.921684 77.224554 
L 122.811225 76.856449 
L 122.69792 76.491193 
L 122.581809 76.128811 
L 122.46293 75.769325 
L 122.341322 75.412759 
L 122.217024 75.059133 
L 122.090074 74.70847 
L 121.960511 74.360788 
L 121.828373 74.016109 
L 121.6937 73.67445 
L 121.556529 73.335831 
L 121.416901 73.000268 
L 121.274853 72.667779 
L 121.130424 72.33838 
L 120.983652 72.012087 
L 120.834576 71.688913 
L 120.683235 71.368874 
L 120.529667 71.051983 
L 120.373909 70.738253 
L 120.216001 70.427695 
L 120.05598 70.120321 
" clip-path="url(#p8e99c89541)" style="fill: none; stroke: #ffffff; stroke-width: 7.8; stroke-linecap: round"/>
   </g>
   <g id="line2d_33">
    <path d="M 123.429966 79.10694 
L 123.334306 78.72497 
L 123.23561 78.345719 
L 123.133915 77.969215 
L 123.029261 77.595485 
L 122.921684 77.224554 
L 122.811225 76.856449 
L 122.69792 76.491193 
L 122.581809 76.128811 
L 122.46293 75.769325 
L 122.341322 75.412759 
L 122.217024 75.059133 
L 122.090074 74.70847 
L 121.960511 74.360788 
L 121.828373 74.016109 
L 121.6937 73.67445 
L 121.556529 73.335831 
L 121.416901 73.000268 
L 121.274853 72.667779 
L 121.130424 72.33838 
L 120.983652 72.012087 
L 120.834576 71.688913 
L 120.683235 71.368874 
L 120.529667 71.051983 
L 120.373909 70.738253 
L 120.216001 70.427695 
L 120.05598 70.120321 
L 119.893885 69.816142 
L 119.729752 69.515169 
L 119.56362 69.217409 
L 119.395526 68.922874 
L 119.225508 68.631569 
L 119.053603 68.343504 
L 118.879848 68.058684 
L 118.704281 67.777117 
L 118.526936 67.498807 
L 118.347852 67.22376 
" clip-path="url(#p8e99c89541)" style="fill: none; stroke: #ffffff; stroke-width: 7.8; stroke-linecap: round"/>
   </g>
   <g id="line2d_34">
    <path d="M 122.341322 75.412759 
L 122.217024 75.059133 
L 122.090074 74.70847 
L 121.960511 74.360788 
L 121.828373 74.016109 
L 121.6937 73.67445 
L 121.556529 73.335831 
L 121.416901 73.000268 
L 121.274853 72.667779 
L 121.130424 72.33838 
L 120.983652 72.012087 
L 120.834576 71.688913 
L 120.683235 71.368874 
L 120.529667 71.051983 
L 120.373909 70.738253 
L 120.216001 70.427695 
L 120.05598 70.120321 
L 119.893885 69.816142 
L 119.729752 69.515169 
L 119.56362 69.217409 
L 119.395526 68.922874 
L 119.225508 68.631569 
L 119.053603 68.343504 
L 118.879848 68.058684 
L 118.704281 67.777117 
L 118.526936 67.498807 
L 118.347852 67.22376 
L 118.167065 66.95198 
L 117.98461 66.683471 
L 117.800524 66.418235 
L 117.614843 66.156276 
L 117.427601 65.897594 
L 117.238835 65.642193 
L 117.048579 65.390071 
L 116.856868 65.14123 
L 116.663736 64.895668 
L 116.469219 64.653385 
" clip-path="url(#p8e99c89541)" style="fill: none; stroke: #ffffff; stroke-width: 7.8; stroke-linecap: round"/>
   </g>
   <g id="line2d_35">
    <path d="M 123.861394 81.05658 
L 123.781483 80.661447 
L 123.698348 80.268885 
L 123.612025 79.878927 
L 123.522551 79.491602 
L 123.429966 79.10694 
L 123.334306 78.72497 
L 123.23561 78.345719 
L 123.133915 77.969215 
L 123.029261 77.595485 
L 122.921684 77.224554 
L 122.811225 76.856449 
L 122.69792 76.491193 
L 122.581809 76.128811 
L 122.46293 75.769325 
L 122.341322 75.412759 
L 122.217024 75.059133 
L 122.090074 74.70847 
L 121.960511 74.360788 
L 121.828373 74.016109 
L 121.6937 73.67445 
L 121.556529 73.335831 
L 121.416901 73.000268 
L 121.274853 72.667779 
L 121.130424 72.33838 
L 120.983652 72.012087 
L 120.834576 71.688913 
L 120.683235 71.368874 
L 120.529667 71.051983 
L 120.373909 70.738253 
L 120.216001 70.427695 
L 120.05598 70.120321 
L 119.893885 69.816142 
L 119.729752 69.515169 
L 119.56362 69.217409 
L 119.395526 68.922874 
L 119.225508 68.631569 
" clip-path="url(#p8e99c89541)" style="fill: none; stroke: #ffffff; stroke-width: 7.8; stroke-linecap: round"/>
   </g>
   <g id="line2d_36">
    <path d="M 122.921684 77.224554 
L 122.811225 76.856449 
L 122.69792 76.491193 
L 122.581809 76.128811 
L 122.46293 75.769325 
L 122.341322 75.412759 
L 122.217024 75.059133 
L 122.090074 74.70847 
L 121.960511 74.360788 
L 121.828373 74.016109 
L 121.6937 73.67445 
L 121.556529 73.335831 
L 121.416901 73.000268 
L 121.274853 72.667779 
L 121.130424 72.33838 
L 120.983652 72.012087 
L 120.834576 71.688913 
L 120.683235 71.368874 
L 120.529667 71.051983 
L 120.373909 70.738253 
L 120.216001 70.427695 
L 120.05598 70.120321 
L 119.893885 69.816142 
L 119.729752 69.515169 
L 119.56362 69.217409 
L 119.395526 68.922874 
L 119.225508 68.631569 
L 119.053603 68.343504 
L 118.879848 68.058684 
L 118.704281 67.777117 
L 118.526936 67.498807 
L 118.347852 67.22376 
L 118.167065 66.95198 
L 117.98461 66.683471 
L 117.800524 66.418235 
L 117.614843 66.156276 
L 117.427601 65.897594 
" clip-path="url(#p8e99c89541)" style="fill: none; stroke: #ffffff; stroke-width: 7.8; stroke-linecap: round"/>
   </g>
   <g id="line2d_37">
    <path d="M 83.880898 131.210436 
L 84.413772 131.333272 
L 84.949351 131.451416 
L 85.487575 131.564832 
L 86.028386 131.673484 
L 86.571724 131.777338 
L 87.117528 131.876358 
L 87.665737 131.970512 
L 88.21629 132.059765 
L 88.769123 132.144085 
L 89.324175 132.22344 
L 89.881382 132.297799 
L 90.440679 132.367131 
L 91.002002 132.431406 
L 91.565285 132.490594 
L 92.130464 132.544667 
L 92.69747 132.593596 
L 93.266239 132.637354 
L 93.836702 132.675915 
L 94.408791 132.709252 
L 94.982438 132.73734 
L 95.557574 132.760154 
L 96.134131 132.777671 
L 96.712037 132.789866 
L 97.291223 132.796718 
L 97.871619 132.798206 
L 98.453152 132.794307 
L 99.035752 132.785002 
L 99.619346 132.770271 
L 100.203863 132.750095 
L 100.789229 132.724457 
L 101.375371 132.693339 
L 101.962216 132.656726 
L 102.549691 132.6146 
L 103.13772 132.566948 
L 103.72623 132.513756 
L 104.315145 132.455009 
" clip-path="url(#p8e99c89541)" style="fill: none; stroke: #ffffff; stroke-width: 7.8; stroke-linecap: round"/>
   </g>
   <g id="line2d_38">
    <path d="M 89.324175 132.22344 
L 89.881382 132.297799 
L 90.440679 132.367131 
L 91.002002 132.431406 
L 91.565285 132.490594 
L 92.130464 132.544667 
L 92.69747 132.593596 
L 93.266239 132.637354 
L 93.836702 132.675915 
L 94.408791 132.709252 
L 94.982438 132.73734 
L 95.557574 132.760154 
L 96.134131 132.777671 
L 96.712037 132.789866 
L 97.291223 132.796718 
L 97.871619 132.798206 
L 98.453152 132.794307 
L 99.035752 132.785002 
L 99.619346 132.770271 
L 100.203863 132.750095 
L 100.789229 132.724457 
L 101.375371 132.693339 
L 101.962216 132.656726 
L 102.549691 132.6146 
L 103.13772 132.566948 
L 103.72623 132.513756 
L 104.315145 132.455009 
L 104.904391 132.390697 
L 105.493892 132.320806 
L 106.083573 132.245328 
L 106.673358 132.16425 
L 107.26317 132.077565 
L 107.852933 131.985263 
L 108.442571 131.887339 
L 109.032007 131.783784 
L 109.621163 131.674593 
L 110.209963 131.559761 
" clip-path="url(#p8e99c89541)" style="fill: none; stroke: #ffffff; stroke-width: 7.8; stroke-linecap: round"/>
   </g>
   <g id="line2d_39">
    <path d="M 86.571724 131.777338 
L 87.117528 131.876358 
L 87.665737 131.970512 
L 88.21629 132.059765 
L 88.769123 132.144085 
L 89.324175 132.22344 
L 89.881382 132.297799 
L 90.440679 132.367131 
L 91.002002 132.431406 
L 91.565285 132.490594 
L 92.130464 132.544667 
L 92.69747 132.593596 
L 93.266239 132.637354 
L 93.836702 132.675915 
L 94.408791 132.709252 
L 94.982438 132.73734 
L 95.557574 132.760154 
L 96.134131 132.777671 
L 96.712037 132.789866 
L 97.291223 132.796718 
L 97.871619 132.798206 
L 98.453152 132.794307 
L 99.035752 132.785002 
L 99.619346 132.770271 
L 100.203863 132.750095 
L 100.789229 132.724457 
L 101.375371 132.693339 
L 101.962216 132.656726 
L 102.549691 132.6146 
L 103.13772 132.566948 
L 103.72623 132.513756 
L 104.315145 132.455009 
L 104.904391 132.390697 
L 105.493892 132.320806 
L 106.083573 132.245328 
L 106.673358 132.16425 
L 107.26317 132.077565 
" clip-path="url(#p8e99c89541)" style="fill: none; stroke: #ffffff; stroke-width: 7.8; stroke-linecap: round"/>
   </g>
   <g id="line2d_40">
    <path d="M 92.130464 132.544667 
L 92.69747 132.593596 
L 93.266239 132.637354 
L 93.836702 132.675915 
L 94.408791 132.709252 
L 94.982438 132.73734 
L 95.557574 132.760154 
L 96.134131 132.777671 
L 96.712037 132.789866 
L 97.291223 132.796718 
L 97.871619 132.798206 
L 98.453152 132.794307 
L 99.035752 132.785002 
L 99.619346 132.770271 
L 100.203863 132.750095 
L 100.789229 132.724457 
L 101.375371 132.693339 
L 101.962216 132.656726 
L 102.549691 132.6146 
L 103.13772 132.566948 
L 103.72623 132.513756 
L 104.315145 132.455009 
L 104.904391 132.390697 
L 105.493892 132.320806 
L 106.083573 132.245328 
L 106.673358 132.16425 
L 107.26317 132.077565 
L 107.852933 131.985263 
L 108.442571 131.887339 
L 109.032007 131.783784 
L 109.621163 131.674593 
L 110.209963 131.559761 
L 110.798329 131.439284 
L 111.386184 131.313159 
L 111.97345 131.181383 
L 112.560049 131.043955 
L 113.145904 130.900874 
" clip-path="url(#p8e99c89541)" style="fill: none; stroke: #ffffff; stroke-width: 7.8; stroke-linecap: round"/>
   </g>
   <g id="line2d_41">
    <path d="M 97.871619 132.798206 
L 98.453152 132.794307 
L 99.035752 132.785002 
L 99.619346 132.770271 
L 100.203863 132.750095 
L 100.789229 132.724457 
L 101.375371 132.693339 
L 101.962216 132.656726 
L 102.549691 132.6146 
L 103.13772 132.566948 
L 103.72623 132.513756 
L 104.315145 132.455009 
L 104.904391 132.390697 
L 105.493892 132.320806 
L 106.083573 132.245328 
L 106.673358 132.16425 
L 107.26317 132.077565 
L 107.852933 131.985263 
L 108.442571 131.887339 
L 109.032007 131.783784 
L 109.621163 131.674593 
L 110.209963 131.559761 
L 110.798329 131.439284 
L 111.386184 131.313159 
L 111.97345 131.181383 
L 112.560049 131.043955 
L 113.145904 130.900874 
L 113.730935 130.75214 
L 114.315066 130.597754 
L 114.898218 130.437719 
L 115.480313 130.272037 
L 116.061272 130.100711 
L 116.641018 129.923747 
L 117.219471 129.741149 
L 117.796554 129.552925 
L 118.372188 129.35908 
L 118.946295 129.159623 
" clip-path="url(#p8e99c89541)" style="fill: none; stroke: #ffffff; stroke-width: 7.8; stroke-linecap: round"/>
   </g>
   <g id="line2d_42">
    <path d="M 92.130464 132.544667 
L 92.69747 132.593596 
L 93.266239 132.637354 
L 93.836702 132.675915 
L 94.408791 132.709252 
L 94.982438 132.73734 
L 95.557574 132.760154 
L 96.134131 132.777671 
L 96.712037 132.789866 
L 97.291223 132.796718 
L 97.871619 132.798206 
L 98.453152 132.794307 
L 99.035752 132.785002 
L 99.619346 132.770271 
L 100.203863 132.750095 
L 100.789229 132.724457 
L 101.375371 132.693339 
L 101.962216 132.656726 
L 102.549691 132.6146 
L 103.13772 132.566948 
L 103.72623 132.513756 
L 104.315145 132.455009 
L 104.904391 132.390697 
L 105.493892 132.320806 
L 106.083573 132.245328 
L 106.673358 132.16425 
L 107.26317 132.077565 
L 107.852933 131.985263 
L 108.442571 131.887339 
L 109.032007 131.783784 
L 109.621163 131.674593 
L 110.209963 131.559761 
L 110.798329 131.439284 
L 111.386184 131.313159 
L 111.97345 131.181383 
L 112.560049 131.043955 
L 113.145904 130.900874 
" clip-path="url(#p8e99c89541)" style="fill: none; stroke: #ffffff; stroke-width: 7.8; stroke-linecap: round"/>
   </g>
   <g id="line2d_43">
    <path d="M 97.871619 132.798206 
L 98.453152 132.794307 
L 99.035752 132.785002 
L 99.619346 132.770271 
L 100.203863 132.750095 
L 100.789229 132.724457 
L 101.375371 132.693339 
L 101.962216 132.656726 
L 102.549691 132.6146 
L 103.13772 132.566948 
L 103.72623 132.513756 
L 104.315145 132.455009 
L 104.904391 132.390697 
L 105.493892 132.320806 
L 106.083573 132.245328 
L 106.673358 132.16425 
L 107.26317 132.077565 
L 107.852933 131.985263 
L 108.442571 131.887339 
L 109.032007 131.783784 
L 109.621163 131.674593 
L 110.209963 131.559761 
L 110.798329 131.439284 
L 111.386184 131.313159 
L 111.97345 131.181383 
L 112.560049 131.043955 
L 113.145904 130.900874 
L 113.730935 130.75214 
L 114.315066 130.597754 
L 114.898218 130.437719 
L 115.480313 130.272037 
L 116.061272 130.100711 
L 116.641018 129.923747 
L 117.219471 129.741149 
L 117.796554 129.552925 
L 118.372188 129.35908 
L 118.946295 129.159623 
" clip-path="url(#p8e99c89541)" style="fill: none; stroke: #ffffff; stroke-width: 7.8; stroke-linecap: round"/>
   </g>
   <g id="line2d_44">
    <path d="M 117.796554 129.552925 
L 121.225886 128.30587 
L 124.586186 126.858805 
L 127.860712 125.215083 
L 131.032966 123.379198 
L 134.086805 121.356763 
L 137.006542 119.154496 
L 139.777056 116.780185 
L 142.383888 114.242649 
L 144.813341 111.5517 
L 147.052573 108.718078 
L 149.089681 105.753403 
L 150.913786 102.670096 
L 152.515104 99.481318 
L 153.885015 96.200878 
L 155.016123 92.843162 
L 155.902306 89.423036 
L 156.538755 85.955755 
L 156.922015 82.456873 
L 157.05 78.94214 
L 156.922015 75.427408 
L 156.538755 71.928525 
L 155.902306 68.461245 
L 155.016123 65.041118 
L 153.885015 61.683402 
L 152.515104 58.402963 
L 150.913786 55.214184 
L 149.089681 52.130878 
L 147.052573 49.166202 
L 144.813341 46.332581 
L 142.383888 43.641631 
L 139.777056 41.104096 
L 137.006542 38.729784 
L 134.086805 36.527517 
L 131.032966 34.505083 
L 127.860712 32.669197 
L 124.586186 31.025476 
L 121.225886 29.57841 
L 117.796554 28.331356 
L 114.315066 27.286526 
L 110.798329 26.444997 
L 107.26317 25.806716 
L 103.72623 25.370525 
L 100.203863 25.134185 
L 96.712037 25.094414 
L 93.266239 25.246926 
L 89.324175 25.66084 
L 85.487575 26.319448 
L 81.777595 27.211363 
L 78.213856 28.323813 
L 74.81431 29.642798 
L 71.595124 31.153254 
L 68.57059 32.839231 
L 65.753049 34.684064 
L 63.152844 36.670561 
L 60.77829 38.78118 
L 58.635663 40.998211 
L 56.729222 43.303954 
L 55.061238 45.680888 
L 53.632049 48.111839 
L 52.440139 50.580131 
L 51.482226 53.069734 
L 50.753371 55.565394 
L 50.247101 58.05275 
L 49.955544 60.51844 
L 49.869581 62.950186 
L 50.009936 65.673545 
L 50.388727 68.323416 
L 50.451957 68.648834 
L 50.451957 68.648834 
" clip-path="url(#p8e99c89541)" style="fill: none; stroke: #2255aa; stroke-width: 2.8; stroke-linecap: round"/>
   </g>
   <g id="line2d_45">
    <path d="M 60.770571 86.871812 
L 63.131117 89.046118 
L 65.792757 91.189769 
L 68.732985 93.263231 
L 71.921407 95.233939 
L 75.325599 97.075842 
L 78.918878 98.765451 
L 82.46804 100.192535 
L 85.765748 101.295315 
L 88.834252 102.106895 
L 91.690969 102.650286 
L 94.345342 102.946301 
L 97.023283 103.015061 
L 99.500433 102.849708 
L 101.7684 102.485384 
L 104.045432 101.8946 
L 106.321548 101.055582 
L 108.357689 100.071025 
L 110.368489 98.854686 
L 112.337981 97.394449 
L 114.24756 95.680465 
L 116.076161 93.705631 
L 117.614843 91.728005 
L 119.053603 89.540777 
L 120.373909 87.146028 
L 121.556529 84.54845 
L 122.581809 81.755469 
L 123.429966 78.77734 
L 124.081404 75.627188 
L 124.517037 72.321012 
L 124.718623 68.87765 
L 124.689568 65.769073 
L 124.457734 62.588054 
L 124.013671 59.352146 
L 123.349136 56.080235 
L 122.457241 52.792416 
L 121.332597 49.509847 
L 119.971437 46.254587 
L 118.371728 43.049419 
L 116.533271 39.917662 
L 115.67263 38.603809 
L 115.67263 38.603809 
" clip-path="url(#p8e99c89541)" style="fill: none; stroke: #2255aa; stroke-width: 2.8; stroke-linecap: round"/>
   </g>
   <g id="line2d_46">
    <path d="M 85.830877 17.58948 
L 82.469536 16.884502 
L 79.042426 16.412663 
L 75.564248 16.180964 
L 72.050309 16.195189 
L 68.516427 16.459849 
L 64.978837 16.978128 
L 61.454096 17.751847 
L 57.958982 18.781429 
L 54.510386 20.065878 
L 51.125206 21.602766 
L 47.820241 23.38823 
L 44.612083 25.416982 
L 41.517005 27.682321 
L 38.550857 30.176167 
L 35.728961 32.889091 
L 33.066007 35.810368 
L 30.575956 38.928029 
L 28.271947 42.228926 
L 26.166203 45.698809 
L 24.269955 49.322404 
L 22.593358 53.083502 
L 21.145428 56.965056 
L 19.933974 60.949285 
L 18.96555 65.017775 
L 18.245405 69.151596 
L 17.777449 73.331418 
L 17.564226 77.537624 
L 17.606897 81.750438 
L 17.905228 85.950041 
L 18.457598 90.116697 
L 19.261004 94.230872 
L 20.311086 98.273355 
L 21.602157 102.225376 
L 23.127237 106.06872 
L 24.878111 109.785838 
L 26.845374 113.359952 
L 29.018504 116.775155 
L 31.385933 120.016504 
L 33.93512 123.070108 
L 36.652644 125.923203 
L 39.52429 128.56423 
L 42.535145 130.982889 
L 45.669701 133.170196 
L 48.911954 135.118527 
L 52.245513 136.821651 
L 55.653705 138.27475 
L 59.119687 139.474443 
L 62.62655 140.418777 
L 66.157429 141.107233 
L 69.695609 141.540702 
L 73.224629 141.721463 
L 76.728381 141.653149 
L 80.191209 141.340699 
L 83.597998 140.79031 
L 86.934263 140.009377 
L 90.186228 139.00642 
L 93.340902 137.791014 
L 96.386144 136.373705 
L 99.310726 134.765925 
L 102.104382 132.979898 
L 104.757853 131.02855 
L 107.262923 128.9254 
L 109.612445 126.684469 
L 111.800361 124.32017 
L 113.82171 121.847207 
L 115.964337 118.844617 
L 117.870778 115.73817 
L 119.538762 112.551579 
L 120.967951 109.308279 
L 122.159861 106.031226 
L 123.117774 102.742706 
L 123.846629 99.46415 
L 124.090429 98.067203 
L 124.090429 98.067203 
" clip-path="url(#p8e99c89541)" style="fill: none; stroke: #2255aa; stroke-width: 2.8; stroke-linecap: round"/>
   </g>
   <g id="line2d_47">
    <path d="M 116.856868 65.14123 
L 115.071604 63.049005 
L 113.195278 61.219785 
L 111.249965 59.647835 
L 109.255393 58.324469 
L 107.228718 57.238517 
L 105.184388 56.376829 
L 102.906312 55.664607 
L 100.632816 55.189803 
L 98.146684 54.915538 
L 95.681122 54.873174 
L 93.015529 55.059527 
L 90.150991 55.499777 
L 87.080873 56.214198 
L 83.78962 57.222909 
L 80.254658 58.553538 
L 76.678349 60.143028 
L 73.286167 61.881874 
L 69.871076 63.887497 
L 66.918919 65.867641 
L 64.231511 67.916926 
L 61.617844 70.197832 
L 59.325112 72.505807 
L 57.361165 74.792198 
L 55.546397 77.261819 
L 54.070333 79.641374 
L 52.771627 82.166824 
L 51.788775 84.529597 
L 50.987975 86.997024 
L 50.388727 89.560865 
L 50.009936 92.210735 
L 49.869581 94.934095 
L 49.955544 97.365841 
L 50.247101 99.831531 
L 50.753371 102.318887 
L 51.482226 104.814547 
L 52.440139 107.30415 
L 53.632049 109.772442 
L 55.061238 112.203392 
L 56.729222 114.580326 
L 58.635663 116.886069 
L 60.77829 119.1031 
L 63.152844 121.213719 
L 65.753049 123.200216 
L 68.57059 125.04505 
L 71.595124 126.731026 
L 74.81431 128.241483 
L 78.213856 129.560467 
L 81.777595 130.672917 
L 84.413772 131.333272 
L 84.413772 131.333272 
" clip-path="url(#p8e99c89541)" style="fill: none; stroke: #2255aa; stroke-width: 2.8; stroke-linecap: round"/>
   </g>
   <g id="line2d_48">
    <path d="M 120.65867 29.356604 
L 120.089614 29.140369 
L 119.518796 28.929717 
L 118.946295 28.724657 
L 118.372188 28.5252 
L 117.796554 28.331356 
L 117.219471 28.143131 
L 116.641018 27.960533 
L 116.061272 27.783569 
L 115.480313 27.612244 
L 114.898218 27.446561 
L 114.315066 27.286526 
L 113.730935 27.132141 
L 113.145904 26.983407 
L 112.560049 26.840326 
L 111.97345 26.702898 
L 111.386184 26.571122 
L 110.798329 26.444997 
L 110.209963 26.32452 
L 109.621163 26.209688 
L 109.032007 26.100497 
L 108.442571 25.996942 
L 107.852933 25.899017 
L 107.26317 25.806716 
L 106.673358 25.72003 
L 106.083573 25.638953 
L 105.493892 25.563474 
L 104.904391 25.493584 
L 104.315145 25.429271 
L 103.72623 25.370525 
L 103.13772 25.317332 
L 102.549691 25.26968 
" clip-path="url(#p8e99c89541)" style="fill: none; stroke: #2255aa; stroke-width: 2.8; stroke-linecap: round"/>
   </g>
   <g id="line2d_49">
    <path d="M 120.65867 29.356604 
L 120.089614 29.140369 
L 119.518796 28.929717 
L 118.946295 28.724657 
L 118.372188 28.5252 
L 117.796554 28.331356 
L 117.219471 28.143131 
L 116.641018 27.960533 
L 116.061272 27.783569 
L 115.480313 27.612244 
L 114.898218 27.446561 
L 114.315066 27.286526 
L 113.730935 27.132141 
L 113.145904 26.983407 
L 112.560049 26.840326 
L 111.97345 26.702898 
L 111.386184 26.571122 
L 110.798329 26.444997 
L 110.209963 26.32452 
L 109.621163 26.209688 
L 109.032007 26.100497 
L 108.442571 25.996942 
L 107.852933 25.899017 
L 107.26317 25.806716 
L 106.673358 25.72003 
L 106.083573 25.638953 
L 105.493892 25.563474 
L 104.904391 25.493584 
L 104.315145 25.429271 
L 103.72623 25.370525 
L 103.13772 25.317332 
L 102.549691 25.26968 
" clip-path="url(#p8e99c89541)" style="fill: none; stroke: #2255aa; stroke-width: 2.8; stroke-linecap: round"/>
   </g>
   <g id="line2d_50">
    <path d="M 114.898218 27.446561 
L 114.315066 27.286526 
L 113.730935 27.132141 
L 113.145904 26.983407 
L 112.560049 26.840326 
L 111.97345 26.702898 
L 111.386184 26.571122 
L 110.798329 26.444997 
L 110.209963 26.32452 
L 109.621163 26.209688 
L 109.032007 26.100497 
L 108.442571 25.996942 
L 107.852933 25.899017 
L 107.26317 25.806716 
L 106.673358 25.72003 
L 106.083573 25.638953 
L 105.493892 25.563474 
L 104.904391 25.493584 
L 104.315145 25.429271 
L 103.72623 25.370525 
L 103.13772 25.317332 
L 102.549691 25.26968 
L 101.962216 25.227555 
L 101.375371 25.190941 
L 100.789229 25.159823 
L 100.203863 25.134185 
L 99.619346 25.11401 
L 99.035752 25.099279 
L 98.453152 25.089974 
L 97.871619 25.086075 
L 97.291223 25.087562 
L 96.712037 25.094414 
" clip-path="url(#p8e99c89541)" style="fill: none; stroke: #2255aa; stroke-width: 2.8; stroke-linecap: round"/>
   </g>
   <g id="line2d_51">
    <path d="M 114.898218 27.446561 
L 114.315066 27.286526 
L 113.730935 27.132141 
L 113.145904 26.983407 
L 112.560049 26.840326 
L 111.97345 26.702898 
L 111.386184 26.571122 
L 110.798329 26.444997 
L 110.209963 26.32452 
L 109.621163 26.209688 
L 109.032007 26.100497 
L 108.442571 25.996942 
L 107.852933 25.899017 
L 107.26317 25.806716 
L 106.673358 25.72003 
L 106.083573 25.638953 
L 105.493892 25.563474 
L 104.904391 25.493584 
L 104.315145 25.429271 
L 103.72623 25.370525 
L 103.13772 25.317332 
L 102.549691 25.26968 
L 101.962216 25.227555 
L 101.375371 25.190941 
L 100.789229 25.159823 
L 100.203863 25.134185 
L 99.619346 25.11401 
L 99.035752 25.099279 
L 98.453152 25.089974 
L 97.871619 25.086075 
L 97.291223 25.087562 
L 96.712037 25.094414 
" clip-path="url(#p8e99c89541)" style="fill: none; stroke: #2255aa; stroke-width: 2.8; stroke-linecap: round"/>
   </g>
   <g id="line2d_52">
    <path d="M 111.97345 26.702898 
L 111.386184 26.571122 
L 110.798329 26.444997 
L 110.209963 26.32452 
L 109.621163 26.209688 
L 109.032007 26.100497 
L 108.442571 25.996942 
L 107.852933 25.899017 
L 107.26317 25.806716 
L 106.673358 25.72003 
L 106.083573 25.638953 
L 105.493892 25.563474 
L 104.904391 25.493584 
L 104.315145 25.429271 
L 103.72623 25.370525 
L 103.13772 25.317332 
L 102.549691 25.26968 
L 101.962216 25.227555 
L 101.375371 25.190941 
L 100.789229 25.159823 
L 100.203863 25.134185 
L 99.619346 25.11401 
L 99.035752 25.099279 
L 98.453152 25.089974 
L 97.871619 25.086075 
L 97.291223 25.087562 
L 96.712037 25.094414 
L 96.134131 25.10661 
L 95.557574 25.124126 
L 94.982438 25.146941 
L 94.408791 25.175028 
L 93.836702 25.208365 
" clip-path="url(#p8e99c89541)" style="fill: none; stroke: #2255aa; stroke-width: 2.8; stroke-linecap: round"/>
   </g>
   <g id="line2d_53">
    <path d="M 109.032007 26.100497 
L 108.442571 25.996942 
L 107.852933 25.899017 
L 107.26317 25.806716 
L 106.673358 25.72003 
L 106.083573 25.638953 
L 105.493892 25.563474 
L 104.904391 25.493584 
L 104.315145 25.429271 
L 103.72623 25.370525 
L 103.13772 25.317332 
L 102.549691 25.26968 
L 101.962216 25.227555 
L 101.375371 25.190941 
L 100.789229 25.159823 
L 100.203863 25.134185 
L 99.619346 25.11401 
L 99.035752 25.099279 
L 98.453152 25.089974 
L 97.871619 25.086075 
L 97.291223 25.087562 
L 96.712037 25.094414 
L 96.134131 25.10661 
L 95.557574 25.124126 
L 94.982438 25.146941 
L 94.408791 25.175028 
L 93.836702 25.208365 
L 93.266239 25.246926 
L 92.69747 25.290684 
L 92.130464 25.339614 
L 91.565285 25.393686 
L 91.002002 25.452875 
" clip-path="url(#p8e99c89541)" style="fill: none; stroke: #2255aa; stroke-width: 2.8; stroke-linecap: round"/>
   </g>
   <g id="line2d_54">
    <path d="M 106.083573 25.638953 
L 105.493892 25.563474 
L 104.904391 25.493584 
L 104.315145 25.429271 
L 103.72623 25.370525 
L 103.13772 25.317332 
L 102.549691 25.26968 
L 101.962216 25.227555 
L 101.375371 25.190941 
L 100.789229 25.159823 
L 100.203863 25.134185 
L 99.619346 25.11401 
L 99.035752 25.099279 
L 98.453152 25.089974 
L 97.871619 25.086075 
L 97.291223 25.087562 
L 96.712037 25.094414 
L 96.134131 25.10661 
L 95.557574 25.124126 
L 94.982438 25.146941 
L 94.408791 25.175028 
L 93.836702 25.208365 
L 93.266239 25.246926 
L 92.69747 25.290684 
L 92.130464 25.339614 
L 91.565285 25.393686 
L 91.002002 25.452875 
L 90.440679 25.517149 
L 89.881382 25.586481 
L 89.324175 25.66084 
L 88.769123 25.740196 
L 88.21629 25.824516 
" clip-path="url(#p8e99c89541)" style="fill: none; stroke: #2255aa; stroke-width: 2.8; stroke-linecap: round"/>
   </g>
   <g id="line2d_55">
    <path d="M 106.083573 25.638953 
L 105.493892 25.563474 
L 104.904391 25.493584 
L 104.315145 25.429271 
L 103.72623 25.370525 
L 103.13772 25.317332 
L 102.549691 25.26968 
L 101.962216 25.227555 
L 101.375371 25.190941 
L 100.789229 25.159823 
L 100.203863 25.134185 
L 99.619346 25.11401 
L 99.035752 25.099279 
L 98.453152 25.089974 
L 97.871619 25.086075 
L 97.291223 25.087562 
L 96.712037 25.094414 
L 96.134131 25.10661 
L 95.557574 25.124126 
L 94.982438 25.146941 
L 94.408791 25.175028 
L 93.836702 25.208365 
L 93.266239 25.246926 
L 92.69747 25.290684 
L 92.130464 25.339614 
L 91.565285 25.393686 
L 91.002002 25.452875 
L 90.440679 25.517149 
L 89.881382 25.586481 
L 89.324175 25.66084 
L 88.769123 25.740196 
L 88.21629 25.824516 
" clip-path="url(#p8e99c89541)" style="fill: none; stroke: #2255aa; stroke-width: 2.8; stroke-linecap: round"/>
   </g>
   <g id="line2d_56">
    <path d="M 60.770571 71.012468 
L 60.561022 71.22049 
L 60.35244 71.430271 
L 60.144856 71.64182 
L 59.9383 71.855141 
L 59.732803 72.070242 
L 59.528396 72.287129 
L 59.325112 72.505807 
L 59.122981 72.726283 
L 58.922038 72.948561 
L 58.722313 73.172646 
L 58.523839 73.398544 
L 58.326651 73.626257 
L 58.130781 73.855791 
L 57.936264 74.087149 
L 57.743132 74.320334 
L 57.551421 74.555349 
L 57.361165 74.792198 
L 57.172399 75.030882 
L 56.985157 75.271403 
L 56.799476 75.513762 
L 56.61539 75.757962 
L 56.432935 76.004002 
L 56.252148 76.251884 
L 56.073064 76.501607 
L 55.895719 76.753171 
L 55.720152 77.006576 
L 55.546397 77.261819 
L 55.374492 77.5189 
L 55.204474 77.777817 
L 55.03638 78.038566 
L 54.870248 78.301146 
" clip-path="url(#p8e99c89541)" style="fill: none; stroke: #2255aa; stroke-width: 2.8; stroke-linecap: round"/>
   </g>
   <g id="line2d_57">
    <path d="M 58.722313 73.172646 
L 58.523839 73.398544 
L 58.326651 73.626257 
L 58.130781 73.855791 
L 57.936264 74.087149 
L 57.743132 74.320334 
L 57.551421 74.555349 
L 57.361165 74.792198 
L 57.172399 75.030882 
L 56.985157 75.271403 
L 56.799476 75.513762 
L 56.61539 75.757962 
L 56.432935 76.004002 
L 56.252148 76.251884 
L 56.073064 76.501607 
L 55.895719 76.753171 
L 55.720152 77.006576 
L 55.546397 77.261819 
L 55.374492 77.5189 
L 55.204474 77.777817 
L 55.03638 78.038566 
L 54.870248 78.301146 
L 54.706115 78.565554 
L 54.54402 78.831784 
L 54.383999 79.099834 
L 54.226091 79.369699 
L 54.070333 79.641374 
L 53.916765 79.914852 
L 53.765424 80.190129 
L 53.616348 80.467198 
L 53.469576 80.746052 
L 53.325147 81.026684 
" clip-path="url(#p8e99c89541)" style="fill: none; stroke: #2255aa; stroke-width: 2.8; stroke-linecap: round"/>
   </g>
   <g id="line2d_58">
    <path d="M 56.799476 75.513762 
L 56.61539 75.757962 
L 56.432935 76.004002 
L 56.252148 76.251884 
L 56.073064 76.501607 
L 55.895719 76.753171 
L 55.720152 77.006576 
L 55.546397 77.261819 
L 55.374492 77.5189 
L 55.204474 77.777817 
L 55.03638 78.038566 
L 54.870248 78.301146 
L 54.706115 78.565554 
L 54.54402 78.831784 
L 54.383999 79.099834 
L 54.226091 79.369699 
L 54.070333 79.641374 
L 53.916765 79.914852 
L 53.765424 80.190129 
L 53.616348 80.467198 
L 53.469576 80.746052 
L 53.325147 81.026684 
L 53.183099 81.309085 
L 53.043471 81.593249 
L 52.9063 81.879165 
L 52.771627 82.166824 
L 52.639489 82.456218 
L 52.509926 82.747335 
L 52.382976 83.040165 
L 52.258678 83.334696 
L 52.13707 83.630918 
L 52.018191 83.928817 
" clip-path="url(#p8e99c89541)" style="fill: none; stroke: #2255aa; stroke-width: 2.8; stroke-linecap: round"/>
   </g>
   <g id="line2d_59">
    <path d="M 60.770571 71.012468 
L 60.561022 71.22049 
L 60.35244 71.430271 
L 60.144856 71.64182 
L 59.9383 71.855141 
L 59.732803 72.070242 
L 59.528396 72.287129 
L 59.325112 72.505807 
L 59.122981 72.726283 
L 58.922038 72.948561 
L 58.722313 73.172646 
L 58.523839 73.398544 
L 58.326651 73.626257 
L 58.130781 73.855791 
L 57.936264 74.087149 
L 57.743132 74.320334 
L 57.551421 74.555349 
L 57.361165 74.792198 
L 57.172399 75.030882 
L 56.985157 75.271403 
L 56.799476 75.513762 
L 56.61539 75.757962 
L 56.432935 76.004002 
L 56.252148 76.251884 
L 56.073064 76.501607 
L 55.895719 76.753171 
L 55.720152 77.006576 
L 55.546397 77.261819 
L 55.374492 77.5189 
L 55.204474 77.777817 
L 55.03638 78.038566 
L 54.870248 78.301146 
" clip-path="url(#p8e99c89541)" style="fill: none; stroke: #2255aa; stroke-width: 2.8; stroke-linecap: round"/>
   </g>
   <g id="line2d_60">
    <path d="M 58.722313 73.172646 
L 58.523839 73.398544 
L 58.326651 73.626257 
L 58.130781 73.855791 
L 57.936264 74.087149 
L 57.743132 74.320334 
L 57.551421 74.555349 
L 57.361165 74.792198 
L 57.172399 75.030882 
L 56.985157 75.271403 
L 56.799476 75.513762 
L 56.61539 75.757962 
L 56.432935 76.004002 
L 56.252148 76.251884 
L 56.073064 76.501607 
L 55.895719 76.753171 
L 55.720152 77.006576 
L 55.546397 77.261819 
L 55.374492 77.5189 
L 55.204474 77.777817 
L 55.03638 78.038566 
L 54.870248 78.301146 
L 54.706115 78.565554 
L 54.54402 78.831784 
L 54.383999 79.099834 
L 54.226091 79.369699 
L 54.070333 79.641374 
L 53.916765 79.914852 
L 53.765424 80.190129 
L 53.616348 80.467198 
L 53.469576 80.746052 
L 53.325147 81.026684 
" clip-path="url(#p8e99c89541)" style="fill: none; stroke: #2255aa; stroke-width: 2.8; stroke-linecap: round"/>
   </g>
   <g id="line2d_61">
    <path d="M 56.799476 75.513762 
L 56.61539 75.757962 
L 56.432935 76.004002 
L 56.252148 76.251884 
L 56.073064 76.501607 
L 55.895719 76.753171 
L 55.720152 77.006576 
L 55.546397 77.261819 
L 55.374492 77.5189 
L 55.204474 77.777817 
L 55.03638 78.038566 
L 54.870248 78.301146 
L 54.706115 78.565554 
L 54.54402 78.831784 
L 54.383999 79.099834 
L 54.226091 79.369699 
L 54.070333 79.641374 
L 53.916765 79.914852 
L 53.765424 80.190129 
L 53.616348 80.467198 
L 53.469576 80.746052 
L 53.325147 81.026684 
L 53.183099 81.309085 
L 53.043471 81.593249 
L 52.9063 81.879165 
L 52.771627 82.166824 
L 52.639489 82.456218 
L 52.509926 82.747335 
L 52.382976 83.040165 
L 52.258678 83.334696 
L 52.13707 83.630918 
L 52.018191 83.928817 
" clip-path="url(#p8e99c89541)" style="fill: none; stroke: #2255aa; stroke-width: 2.8; stroke-linecap: round"/>
   </g>
   <g id="line2d_62">
    <path d="M 55.03638 78.038566 
L 54.870248 78.301146 
L 54.706115 78.565554 
L 54.54402 78.831784 
L 54.383999 79.099834 
L 54.226091 79.369699 
L 54.070333 79.641374 
L 53.916765 79.914852 
L 53.765424 80.190129 
L 53.616348 80.467198 
L 53.469576 80.746052 
L 53.325147 81.026684 
L 53.183099 81.309085 
L 53.043471 81.593249 
L 52.9063 81.879165 
L 52.771627 82.166824 
L 52.639489 82.456218 
L 52.509926 82.747335 
L 52.382976 83.040165 
L 52.258678 83.334696 
L 52.13707 83.630918 
L 52.018191 83.928817 
L 51.90208 84.228381 
L 51.788775 84.529597 
L 51.678316 84.832451 
L 51.570739 85.136928 
L 51.466085 85.443014 
L 51.36439 85.750694 
L 51.265694 86.059951 
L 51.170034 86.37077 
L 51.077449 86.683134 
L 50.987975 86.997024 
" clip-path="url(#p8e99c89541)" style="fill: none; stroke: #2255aa; stroke-width: 2.8; stroke-linecap: round"/>
   </g>
   <g id="line2d_63">
    <path d="M 59.732803 72.070242 
L 59.528396 72.287129 
L 59.325112 72.505807 
L 59.122981 72.726283 
L 58.922038 72.948561 
L 58.722313 73.172646 
L 58.523839 73.398544 
L 58.326651 73.626257 
L 58.130781 73.855791 
L 57.936264 74.087149 
L 57.743132 74.320334 
L 57.551421 74.555349 
L 57.361165 74.792198 
L 57.172399 75.030882 
L 56.985157 75.271403 
L 56.799476 75.513762 
L 56.61539 75.757962 
L 56.432935 76.004002 
L 56.252148 76.251884 
L 56.073064 76.501607 
L 55.895719 76.753171 
L 55.720152 77.006576 
L 55.546397 77.261819 
L 55.374492 77.5189 
L 55.204474 77.777817 
L 55.03638 78.038566 
L 54.870248 78.301146 
L 54.706115 78.565554 
L 54.54402 78.831784 
L 54.383999 79.099834 
L 54.226091 79.369699 
L 54.070333 79.641374 
" clip-path="url(#p8e99c89541)" style="fill: none; stroke: #2255aa; stroke-width: 2.8; stroke-linecap: round"/>
   </g>
   <g id="line2d_64">
    <path d="M 57.743132 74.320334 
L 57.551421 74.555349 
L 57.361165 74.792198 
L 57.172399 75.030882 
L 56.985157 75.271403 
L 56.799476 75.513762 
L 56.61539 75.757962 
L 56.432935 76.004002 
L 56.252148 76.251884 
L 56.073064 76.501607 
L 55.895719 76.753171 
L 55.720152 77.006576 
L 55.546397 77.261819 
L 55.374492 77.5189 
L 55.204474 77.777817 
L 55.03638 78.038566 
L 54.870248 78.301146 
L 54.706115 78.565554 
L 54.54402 78.831784 
L 54.383999 79.099834 
L 54.226091 79.369699 
L 54.070333 79.641374 
L 53.916765 79.914852 
L 53.765424 80.190129 
L 53.616348 80.467198 
L 53.469576 80.746052 
L 53.325147 81.026684 
L 53.183099 81.309085 
L 53.043471 81.593249 
L 52.9063 81.879165 
L 52.771627 82.166824 
L 52.639489 82.456218 
" clip-path="url(#p8e99c89541)" style="fill: none; stroke: #2255aa; stroke-width: 2.8; stroke-linecap: round"/>
   </g>
   <g id="line2d_65">
    <path d="M 55.895719 76.753171 
L 55.720152 77.006576 
L 55.546397 77.261819 
L 55.374492 77.5189 
L 55.204474 77.777817 
L 55.03638 78.038566 
L 54.870248 78.301146 
L 54.706115 78.565554 
L 54.54402 78.831784 
L 54.383999 79.099834 
L 54.226091 79.369699 
L 54.070333 79.641374 
L 53.916765 79.914852 
L 53.765424 80.190129 
L 53.616348 80.467198 
L 53.469576 80.746052 
L 53.325147 81.026684 
L 53.183099 81.309085 
L 53.043471 81.593249 
L 52.9063 81.879165 
L 52.771627 82.166824 
L 52.639489 82.456218 
L 52.509926 82.747335 
L 52.382976 83.040165 
L 52.258678 83.334696 
L 52.13707 83.630918 
L 52.018191 83.928817 
L 51.90208 84.228381 
L 51.788775 84.529597 
L 51.678316 84.832451 
L 51.570739 85.136928 
L 51.466085 85.443014 
" clip-path="url(#p8e99c89541)" style="fill: none; stroke: #2255aa; stroke-width: 2.8; stroke-linecap: round"/>
   </g>
   <g id="line2d_66">
    <path d="M 54.226091 79.369699 
L 54.070333 79.641374 
L 53.916765 79.914852 
L 53.765424 80.190129 
L 53.616348 80.467198 
L 53.469576 80.746052 
L 53.325147 81.026684 
L 53.183099 81.309085 
L 53.043471 81.593249 
L 52.9063 81.879165 
L 52.771627 82.166824 
L 52.639489 82.456218 
L 52.509926 82.747335 
L 52.382976 83.040165 
L 52.258678 83.334696 
L 52.13707 83.630918 
L 52.018191 83.928817 
L 51.90208 84.228381 
L 51.788775 84.529597 
L 51.678316 84.832451 
L 51.570739 85.136928 
L 51.466085 85.443014 
L 51.36439 85.750694 
L 51.265694 86.059951 
L 51.170034 86.37077 
L 51.077449 86.683134 
L 50.987975 86.997024 
L 50.901652 87.312424 
L 50.818517 87.629314 
L 50.738606 87.947677 
L 50.661958 88.267491 
L 50.588609 88.588738 
" clip-path="url(#p8e99c89541)" style="fill: none; stroke: #2255aa; stroke-width: 2.8; stroke-linecap: round"/>
   </g>
   <g id="line2d_67">
    <path d="M 56.799476 75.513762 
L 56.61539 75.757962 
L 56.432935 76.004002 
L 56.252148 76.251884 
L 56.073064 76.501607 
L 55.895719 76.753171 
L 55.720152 77.006576 
L 55.546397 77.261819 
L 55.374492 77.5189 
L 55.204474 77.777817 
L 55.03638 78.038566 
L 54.870248 78.301146 
L 54.706115 78.565554 
L 54.54402 78.831784 
L 54.383999 79.099834 
L 54.226091 79.369699 
L 54.070333 79.641374 
L 53.916765 79.914852 
L 53.765424 80.190129 
L 53.616348 80.467198 
L 53.469576 80.746052 
L 53.325147 81.026684 
L 53.183099 81.309085 
L 53.043471 81.593249 
L 52.9063 81.879165 
L 52.771627 82.166824 
L 52.639489 82.456218 
L 52.509926 82.747335 
L 52.382976 83.040165 
L 52.258678 83.334696 
L 52.13707 83.630918 
L 52.018191 83.928817 
" clip-path="url(#p8e99c89541)" style="fill: none; stroke: #2255aa; stroke-width: 2.8; stroke-linecap: round"/>
   </g>
   <g id="line2d_68">
    <path d="M 55.03638 78.038566 
L 54.870248 78.301146 
L 54.706115 78.565554 
L 54.54402 78.831784 
L 54.383999 79.099834 
L 54.226091 79.369699 
L 54.070333 79.641374 
L 53.916765 79.914852 
L 53.765424 80.190129 
L 53.616348 80.467198 
L 53.469576 80.746052 
L 53.325147 81.026684 
L 53.183099 81.309085 
L 53.043471 81.593249 
L 52.9063 81.879165 
L 52.771627 82.166824 
L 52.639489 82.456218 
L 52.509926 82.747335 
L 52.382976 83.040165 
L 52.258678 83.334696 
L 52.13707 83.630918 
L 52.018191 83.928817 
L 51.90208 84.228381 
L 51.788775 84.529597 
L 51.678316 84.832451 
L 51.570739 85.136928 
L 51.466085 85.443014 
L 51.36439 85.750694 
L 51.265694 86.059951 
L 51.170034 86.37077 
L 51.077449 86.683134 
L 50.987975 86.997024 
" clip-path="url(#p8e99c89541)" style="fill: none; stroke: #2255aa; stroke-width: 2.8; stroke-linecap: round"/>
   </g>
   <g id="line2d_69">
    <path d="M 116.856868 92.743051 
L 117.048579 92.494209 
L 117.238835 92.242088 
L 117.427601 91.986686 
L 117.614843 91.728005 
L 117.800524 91.466046 
L 117.98461 91.20081 
L 118.167065 90.9323 
L 118.347852 90.66052 
L 118.526936 90.385473 
L 118.704281 90.107163 
L 118.879848 89.825596 
L 119.053603 89.540777 
L 119.225508 89.252711 
L 119.395526 88.961407 
L 119.56362 88.666871 
L 119.729752 88.369112 
L 119.893885 88.068138 
L 120.05598 87.763959 
L 120.216001 87.456586 
L 120.373909 87.146028 
L 120.529667 86.832297 
L 120.683235 86.515406 
L 120.834576 86.195367 
L 120.983652 85.872194 
L 121.130424 85.5459 
L 121.274853 85.216501 
L 121.416901 84.884012 
L 121.556529 84.54845 
L 121.6937 84.20983 
L 121.828373 83.868172 
L 121.960511 83.523492 
" clip-path="url(#p8e99c89541)" style="fill: none; stroke: #2255aa; stroke-width: 2.8; stroke-linecap: round"/>
   </g>
   <g id="line2d_70">
    <path d="M 116.856868 92.743051 
L 117.048579 92.494209 
L 117.238835 92.242088 
L 117.427601 91.986686 
L 117.614843 91.728005 
L 117.800524 91.466046 
L 117.98461 91.20081 
L 118.167065 90.9323 
L 118.347852 90.66052 
L 118.526936 90.385473 
L 118.704281 90.107163 
L 118.879848 89.825596 
L 119.053603 89.540777 
L 119.225508 89.252711 
L 119.395526 88.961407 
L 119.56362 88.666871 
L 119.729752 88.369112 
L 119.893885 88.068138 
L 120.05598 87.763959 
L 120.216001 87.456586 
L 120.373909 87.146028 
L 120.529667 86.832297 
L 120.683235 86.515406 
L 120.834576 86.195367 
L 120.983652 85.872194 
L 121.130424 85.5459 
L 121.274853 85.216501 
L 121.416901 84.884012 
L 121.556529 84.54845 
L 121.6937 84.20983 
L 121.828373 83.868172 
L 121.960511 83.523492 
" clip-path="url(#p8e99c89541)" style="fill: none; stroke: #2255aa; stroke-width: 2.8; stroke-linecap: round"/>
   </g>
   <g id="line2d_71">
    <path d="M 118.704281 90.107163 
L 118.879848 89.825596 
L 119.053603 89.540777 
L 119.225508 89.252711 
L 119.395526 88.961407 
L 119.56362 88.666871 
L 119.729752 88.369112 
L 119.893885 88.068138 
L 120.05598 87.763959 
L 120.216001 87.456586 
L 120.373909 87.146028 
L 120.529667 86.832297 
L 120.683235 86.515406 
L 120.834576 86.195367 
L 120.983652 85.872194 
L 121.130424 85.5459 
L 121.274853 85.216501 
L 121.416901 84.884012 
L 121.556529 84.54845 
L 121.6937 84.20983 
L 121.828373 83.868172 
L 121.960511 83.523492 
L 122.090074 83.175811 
L 122.217024 82.825147 
L 122.341322 82.471522 
L 122.46293 82.114955 
L 122.581809 81.755469 
L 122.69792 81.393087 
L 122.811225 81.027831 
L 122.921684 80.659726 
L 123.029261 80.288796 
L 123.133915 79.915066 
" clip-path="url(#p8e99c89541)" style="fill: none; stroke: #2255aa; stroke-width: 2.8; stroke-linecap: round"/>
   </g>
   <g id="line2d_72">
    <path d="M 118.704281 90.107163 
L 118.879848 89.825596 
L 119.053603 89.540777 
L 119.225508 89.252711 
L 119.395526 88.961407 
L 119.56362 88.666871 
L 119.729752 88.369112 
L 119.893885 88.068138 
L 120.05598 87.763959 
L 120.216001 87.456586 
L 120.373909 87.146028 
L 120.529667 86.832297 
L 120.683235 86.515406 
L 120.834576 86.195367 
L 120.983652 85.872194 
L 121.130424 85.5459 
L 121.274853 85.216501 
L 121.416901 84.884012 
L 121.556529 84.54845 
L 121.6937 84.20983 
L 121.828373 83.868172 
L 121.960511 83.523492 
L 122.090074 83.175811 
L 122.217024 82.825147 
L 122.341322 82.471522 
L 122.46293 82.114955 
L 122.581809 81.755469 
L 122.69792 81.393087 
L 122.811225 81.027831 
L 122.921684 80.659726 
L 123.029261 80.288796 
L 123.133915 79.915066 
" clip-path="url(#p8e99c89541)" style="fill: none; stroke: #2255aa; stroke-width: 2.8; stroke-linecap: round"/>
   </g>
   <g id="line2d_73">
    <path d="M 119.56362 88.666871 
L 119.729752 88.369112 
L 119.893885 88.068138 
L 120.05598 87.763959 
L 120.216001 87.456586 
L 120.373909 87.146028 
L 120.529667 86.832297 
L 120.683235 86.515406 
L 120.834576 86.195367 
L 120.983652 85.872194 
L 121.130424 85.5459 
L 121.274853 85.216501 
L 121.416901 84.884012 
L 121.556529 84.54845 
L 121.6937 84.20983 
L 121.828373 83.868172 
L 121.960511 83.523492 
L 122.090074 83.175811 
L 122.217024 82.825147 
L 122.341322 82.471522 
L 122.46293 82.114955 
L 122.581809 81.755469 
L 122.69792 81.393087 
L 122.811225 81.027831 
L 122.921684 80.659726 
L 123.029261 80.288796 
L 123.133915 79.915066 
L 123.23561 79.538562 
L 123.334306 79.159311 
L 123.429966 78.77734 
L 123.522551 78.392678 
L 123.612025 78.005353 
" clip-path="url(#p8e99c89541)" style="fill: none; stroke: #2255aa; stroke-width: 2.8; stroke-linecap: round"/>
   </g>
   <g id="line2d_74">
    <path d="M 120.373909 87.146028 
L 120.529667 86.832297 
L 120.683235 86.515406 
L 120.834576 86.195367 
L 120.983652 85.872194 
L 121.130424 85.5459 
L 121.274853 85.216501 
L 121.416901 84.884012 
L 121.556529 84.54845 
L 121.6937 84.20983 
L 121.828373 83.868172 
L 121.960511 83.523492 
L 122.090074 83.175811 
L 122.217024 82.825147 
L 122.341322 82.471522 
L 122.46293 82.114955 
L 122.581809 81.755469 
L 122.69792 81.393087 
L 122.811225 81.027831 
L 122.921684 80.659726 
L 123.029261 80.288796 
L 123.133915 79.915066 
L 123.23561 79.538562 
L 123.334306 79.159311 
L 123.429966 78.77734 
L 123.522551 78.392678 
L 123.612025 78.005353 
L 123.698348 77.615395 
L 123.781483 77.222834 
L 123.861394 76.827701 
L 123.938042 76.430027 
L 124.011391 76.029845 
" clip-path="url(#p8e99c89541)" style="fill: none; stroke: #2255aa; stroke-width: 2.8; stroke-linecap: round"/>
   </g>
   <g id="line2d_75">
    <path d="M 121.130424 85.5459 
L 121.274853 85.216501 
L 121.416901 84.884012 
L 121.556529 84.54845 
L 121.6937 84.20983 
L 121.828373 83.868172 
L 121.960511 83.523492 
L 122.090074 83.175811 
L 122.217024 82.825147 
L 122.341322 82.471522 
L 122.46293 82.114955 
L 122.581809 81.755469 
L 122.69792 81.393087 
L 122.811225 81.027831 
L 122.921684 80.659726 
L 123.029261 80.288796 
L 123.133915 79.915066 
L 123.23561 79.538562 
L 123.334306 79.159311 
L 123.429966 78.77734 
L 123.522551 78.392678 
L 123.612025 78.005353 
L 123.698348 77.615395 
L 123.781483 77.222834 
L 123.861394 76.827701 
L 123.938042 76.430027 
L 124.011391 76.029845 
L 124.081404 75.627188 
L 124.148043 75.222089 
L 124.211273 74.814583 
L 124.271057 74.404705 
L 124.32736 73.992491 
" clip-path="url(#p8e99c89541)" style="fill: none; stroke: #2255aa; stroke-width: 2.8; stroke-linecap: round"/>
   </g>
   <g id="line2d_76">
    <path d="M 121.130424 85.5459 
L 121.274853 85.216501 
L 121.416901 84.884012 
L 121.556529 84.54845 
L 121.6937 84.20983 
L 121.828373 83.868172 
L 121.960511 83.523492 
L 122.090074 83.175811 
L 122.217024 82.825147 
L 122.341322 82.471522 
L 122.46293 82.114955 
L 122.581809 81.755469 
L 122.69792 81.393087 
L 122.811225 81.027831 
L 122.921684 80.659726 
L 123.029261 80.288796 
L 123.133915 79.915066 
L 123.23561 79.538562 
L 123.334306 79.159311 
L 123.429966 78.77734 
L 123.522551 78.392678 
L 123.612025 78.005353 
L 123.698348 77.615395 
L 123.781483 77.222834 
L 123.861394 76.827701 
L 123.938042 76.430027 
L 124.011391 76.029845 
L 124.081404 75.627188 
L 124.148043 75.222089 
L 124.211273 74.814583 
L 124.271057 74.404705 
L 124.32736 73.992491 
" clip-path="url(#p8e99c89541)" style="fill: none; stroke: #2255aa; stroke-width: 2.8; stroke-linecap: round"/>
   </g>
   <g id="line2d_77">
    <path d="M 121.828373 83.868172 
L 121.960511 83.523492 
L 122.090074 83.175811 
L 122.217024 82.825147 
L 122.341322 82.471522 
L 122.46293 82.114955 
L 122.581809 81.755469 
L 122.69792 81.393087 
L 122.811225 81.027831 
L 122.921684 80.659726 
L 123.029261 80.288796 
L 123.133915 79.915066 
L 123.23561 79.538562 
L 123.334306 79.159311 
L 123.429966 78.77734 
L 123.522551 78.392678 
L 123.612025 78.005353 
L 123.698348 77.615395 
L 123.781483 77.222834 
L 123.861394 76.827701 
L 123.938042 76.430027 
L 124.011391 76.029845 
L 124.081404 75.627188 
L 124.148043 75.222089 
L 124.211273 74.814583 
L 124.271057 74.404705 
L 124.32736 73.992491 
L 124.380144 73.577977 
L 124.429375 73.161201 
L 124.475018 72.7422 
L 124.517037 72.321012 
L 124.555397 71.897678 
" clip-path="url(#p8e99c89541)" style="fill: none; stroke: #2255aa; stroke-width: 2.8; stroke-linecap: round"/>
   </g>
   <g id="line2d_78">
    <path d="M 122.46293 82.114955 
L 122.581809 81.755469 
L 122.69792 81.393087 
L 122.811225 81.027831 
L 122.921684 80.659726 
L 123.029261 80.288796 
L 123.133915 79.915066 
L 123.23561 79.538562 
L 123.334306 79.159311 
L 123.429966 78.77734 
L 123.522551 78.392678 
L 123.612025 78.005353 
L 123.698348 77.615395 
L 123.781483 77.222834 
L 123.861394 76.827701 
L 123.938042 76.430027 
L 124.011391 76.029845 
L 124.081404 75.627188 
L 124.148043 75.222089 
L 124.211273 74.814583 
L 124.271057 74.404705 
L 124.32736 73.992491 
L 124.380144 73.577977 
L 124.429375 73.161201 
L 124.475018 72.7422 
L 124.517037 72.321012 
L 124.555397 71.897678 
L 124.590064 71.472236 
L 124.621004 71.044728 
L 124.648183 70.615194 
L 124.671568 70.183676 
L 124.691124 69.750217 
" clip-path="url(#p8e99c89541)" style="fill: none; stroke: #2255aa; stroke-width: 2.8; stroke-linecap: round"/>
   </g>
   <g id="line2d_79">
    <path d="M 123.029261 80.288796 
L 123.133915 79.915066 
L 123.23561 79.538562 
L 123.334306 79.159311 
L 123.429966 78.77734 
L 123.522551 78.392678 
L 123.612025 78.005353 
L 123.698348 77.615395 
L 123.781483 77.222834 
L 123.861394 76.827701 
L 123.938042 76.430027 
L 124.011391 76.029845 
L 124.081404 75.627188 
L 124.148043 75.222089 
L 124.211273 74.814583 
L 124.271057 74.404705 
L 124.32736 73.992491 
L 124.380144 73.577977 
L 124.429375 73.161201 
L 124.475018 72.7422 
L 124.517037 72.321012 
L 124.555397 71.897678 
L 124.590064 71.472236 
L 124.621004 71.044728 
L 124.648183 70.615194 
L 124.671568 70.183676 
L 124.691124 69.750217 
L 124.70682 69.314861 
L 124.718623 68.87765 
L 124.726499 68.438629 
L 124.730419 67.997844 
L 124.730349 67.55534 
" clip-path="url(#p8e99c89541)" style="fill: none; stroke: #2255aa; stroke-width: 2.8; stroke-linecap: round"/>
   </g>
   <g id="line2d_80">
    <path d="M 123.029261 80.288796 
L 123.133915 79.915066 
L 123.23561 79.538562 
L 123.334306 79.159311 
L 123.429966 78.77734 
L 123.522551 78.392678 
L 123.612025 78.005353 
L 123.698348 77.615395 
L 123.781483 77.222834 
L 123.861394 76.827701 
L 123.938042 76.430027 
L 124.011391 76.029845 
L 124.081404 75.627188 
L 124.148043 75.222089 
L 124.211273 74.814583 
L 124.271057 74.404705 
L 124.32736 73.992491 
L 124.380144 73.577977 
L 124.429375 73.161201 
L 124.475018 72.7422 
L 124.517037 72.321012 
L 124.555397 71.897678 
L 124.590064 71.472236 
L 124.621004 71.044728 
L 124.648183 70.615194 
L 124.671568 70.183676 
L 124.691124 69.750217 
L 124.70682 69.314861 
L 124.718623 68.87765 
L 124.726499 68.438629 
L 124.730419 67.997844 
L 124.730349 67.55534 
" clip-path="url(#p8e99c89541)" style="fill: none; stroke: #2255aa; stroke-width: 2.8; stroke-linecap: round"/>
   </g>
   <g id="line2d_81">
    <path d="M 123.522551 78.392678 
L 123.612025 78.005353 
L 123.698348 77.615395 
L 123.781483 77.222834 
L 123.861394 76.827701 
L 123.938042 76.430027 
L 124.011391 76.029845 
L 124.081404 75.627188 
L 124.148043 75.222089 
L 124.211273 74.814583 
L 124.271057 74.404705 
L 124.32736 73.992491 
L 124.380144 73.577977 
L 124.429375 73.161201 
L 124.475018 72.7422 
L 124.517037 72.321012 
L 124.555397 71.897678 
L 124.590064 71.472236 
L 124.621004 71.044728 
L 124.648183 70.615194 
L 124.671568 70.183676 
L 124.691124 69.750217 
L 124.70682 69.314861 
L 124.718623 68.87765 
L 124.726499 68.438629 
L 124.730419 67.997844 
L 124.730349 67.55534 
L 124.72626 67.111164 
L 124.71812 66.665362 
L 124.705899 66.217982 
L 124.689568 65.769073 
L 124.669096 65.318683 
" clip-path="url(#p8e99c89541)" style="fill: none; stroke: #2255aa; stroke-width: 2.8; stroke-linecap: round"/>
   </g>
   <g id="line2d_82">
    <path d="M 123.938042 76.430027 
L 124.011391 76.029845 
L 124.081404 75.627188 
L 124.148043 75.222089 
L 124.211273 74.814583 
L 124.271057 74.404705 
L 124.32736 73.992491 
L 124.380144 73.577977 
L 124.429375 73.161201 
L 124.475018 72.7422 
L 124.517037 72.321012 
L 124.555397 71.897678 
L 124.590064 71.472236 
L 124.621004 71.044728 
L 124.648183 70.615194 
L 124.671568 70.183676 
L 124.691124 69.750217 
L 124.70682 69.314861 
L 124.718623 68.87765 
L 124.726499 68.438629 
L 124.730419 67.997844 
L 124.730349 67.55534 
L 124.72626 67.111164 
L 124.71812 66.665362 
L 124.705899 66.217982 
L 124.689568 65.769073 
L 124.669096 65.318683 
L 124.644456 64.866861 
L 124.615617 64.413658 
L 124.582554 63.959125 
L 124.545236 63.503311 
L 124.503639 63.046271 
" clip-path="url(#p8e99c89541)" style="fill: none; stroke: #2255aa; stroke-width: 2.8; stroke-linecap: round"/>
   </g>
   <g id="line2d_83">
    <path d="M 124.271057 74.404705 
L 124.32736 73.992491 
L 124.380144 73.577977 
L 124.429375 73.161201 
L 124.475018 72.7422 
L 124.517037 72.321012 
L 124.555397 71.897678 
L 124.590064 71.472236 
L 124.621004 71.044728 
L 124.648183 70.615194 
L 124.671568 70.183676 
L 124.691124 69.750217 
L 124.70682 69.314861 
L 124.718623 68.87765 
L 124.726499 68.438629 
L 124.730419 67.997844 
L 124.730349 67.55534 
L 124.72626 67.111164 
L 124.71812 66.665362 
L 124.705899 66.217982 
L 124.689568 65.769073 
L 124.669096 65.318683 
L 124.644456 64.866861 
L 124.615617 64.413658 
L 124.582554 63.959125 
L 124.545236 63.503311 
L 124.503639 63.046271 
L 124.457734 62.588054 
L 124.407496 62.128716 
L 124.352899 61.668308 
L 124.293919 61.206886 
L 124.230529 60.744503 
" clip-path="url(#p8e99c89541)" style="fill: none; stroke: #2255aa; stroke-width: 2.8; stroke-linecap: round"/>
   </g>
   <g id="line2d_84">
    <path d="M 85.830877 140.294801 
L 86.38371 140.155194 
L 86.934263 140.009377 
L 87.482472 139.85739 
L 88.028276 139.699275 
L 88.571614 139.535077 
L 89.112425 139.364838 
L 89.650649 139.188604 
L 90.186228 139.00642 
L 90.719102 138.818332 
L 91.249214 138.624388 
L 91.776506 138.424636 
L 92.300921 138.219123 
L 92.822405 138.007899 
L 93.340902 137.791014 
L 93.856356 137.568518 
L 94.368715 137.340464 
L 94.877926 137.106902 
L 95.383935 136.867886 
L 95.886691 136.623469 
L 96.386144 136.373705 
L 96.882243 136.118648 
L 97.374939 135.858353 
L 97.864182 135.592877 
L 98.349926 135.322275 
L 98.832123 135.046605 
L 99.310726 134.765925 
L 99.78569 134.480291 
L 100.25697 134.189763 
L 100.724522 133.8944 
L 101.188303 133.594261 
L 101.64827 133.289407 
" clip-path="url(#p8e99c89541)" style="fill: none; stroke: #2255aa; stroke-width: 2.8; stroke-linecap: round"/>
   </g>
   <g id="line2d_85">
    <path d="M 88.571614 139.535077 
L 89.112425 139.364838 
L 89.650649 139.188604 
L 90.186228 139.00642 
L 90.719102 138.818332 
L 91.249214 138.624388 
L 91.776506 138.424636 
L 92.300921 138.219123 
L 92.822405 138.007899 
L 93.340902 137.791014 
L 93.856356 137.568518 
L 94.368715 137.340464 
L 94.877926 137.106902 
L 95.383935 136.867886 
L 95.886691 136.623469 
L 96.386144 136.373705 
L 96.882243 136.118648 
L 97.374939 135.858353 
L 97.864182 135.592877 
L 98.349926 135.322275 
L 98.832123 135.046605 
L 99.310726 134.765925 
L 99.78569 134.480291 
L 100.25697 134.189763 
L 100.724522 133.8944 
L 101.188303 133.594261 
L 101.64827 133.289407 
L 102.104382 132.979898 
L 102.556597 132.665796 
L 103.004876 132.347162 
L 103.449179 132.024057 
L 103.889468 131.696545 
" clip-path="url(#p8e99c89541)" style="fill: none; stroke: #2255aa; stroke-width: 2.8; stroke-linecap: round"/>
   </g>
   <g id="line2d_86">
    <path d="M 93.856356 137.568518 
L 94.368715 137.340464 
L 94.877926 137.106902 
L 95.383935 136.867886 
L 95.886691 136.623469 
L 96.386144 136.373705 
L 96.882243 136.118648 
L 97.374939 135.858353 
L 97.864182 135.592877 
L 98.349926 135.322275 
L 98.832123 135.046605 
L 99.310726 134.765925 
L 99.78569 134.480291 
L 100.25697 134.189763 
L 100.724522 133.8944 
L 101.188303 133.594261 
L 101.64827 133.289407 
L 102.104382 132.979898 
L 102.556597 132.665796 
L 103.004876 132.347162 
L 103.449179 132.024057 
L 103.889468 131.696545 
L 104.325705 131.364688 
L 104.757853 131.02855 
L 105.185877 130.688193 
L 105.60974 130.343683 
L 106.02941 129.995084 
L 106.444852 129.64246 
L 106.856034 129.285877 
L 107.262923 128.9254 
L 107.665489 128.561094 
L 108.063702 128.193027 
" clip-path="url(#p8e99c89541)" style="fill: none; stroke: #2255aa; stroke-width: 2.8; stroke-linecap: round"/>
   </g>
   <g id="line2d_87">
    <path d="M 93.856356 137.568518 
L 94.368715 137.340464 
L 94.877926 137.106902 
L 95.383935 136.867886 
L 95.886691 136.623469 
L 96.386144 136.373705 
L 96.882243 136.118648 
L 97.374939 135.858353 
L 97.864182 135.592877 
L 98.349926 135.322275 
L 98.832123 135.046605 
L 99.310726 134.765925 
L 99.78569 134.480291 
L 100.25697 134.189763 
L 100.724522 133.8944 
L 101.188303 133.594261 
L 101.64827 133.289407 
L 102.104382 132.979898 
L 102.556597 132.665796 
L 103.004876 132.347162 
L 103.449179 132.024057 
L 103.889468 131.696545 
L 104.325705 131.364688 
L 104.757853 131.02855 
L 105.185877 130.688193 
L 105.60974 130.343683 
L 106.02941 129.995084 
L 106.444852 129.64246 
L 106.856034 129.285877 
L 107.262923 128.9254 
L 107.665489 128.561094 
L 108.063702 128.193027 
" clip-path="url(#p8e99c89541)" style="fill: none; stroke: #2255aa; stroke-width: 2.8; stroke-linecap: round"/>
   </g>
   <g id="line2d_88">
    <path d="M 96.386144 136.373705 
L 96.882243 136.118648 
L 97.374939 135.858353 
L 97.864182 135.592877 
L 98.349926 135.322275 
L 98.832123 135.046605 
L 99.310726 134.765925 
L 99.78569 134.480291 
L 100.25697 134.189763 
L 100.724522 133.8944 
L 101.188303 133.594261 
L 101.64827 133.289407 
L 102.104382 132.979898 
L 102.556597 132.665796 
L 103.004876 132.347162 
L 103.449179 132.024057 
L 103.889468 131.696545 
L 104.325705 131.364688 
L 104.757853 131.02855 
L 105.185877 130.688193 
L 105.60974 130.343683 
L 106.02941 129.995084 
L 106.444852 129.64246 
L 106.856034 129.285877 
L 107.262923 128.9254 
L 107.665489 128.561094 
L 108.063702 128.193027 
L 108.457532 127.821264 
L 108.846951 127.445872 
L 109.231931 127.066918 
L 109.612445 126.684469 
L 109.988468 126.298592 
" clip-path="url(#p8e99c89541)" style="fill: none; stroke: #2255aa; stroke-width: 2.8; stroke-linecap: round"/>
   </g>
   <g id="line2d_89">
    <path d="M 98.832123 135.046605 
L 99.310726 134.765925 
L 99.78569 134.480291 
L 100.25697 134.189763 
L 100.724522 133.8944 
L 101.188303 133.594261 
L 101.64827 133.289407 
L 102.104382 132.979898 
L 102.556597 132.665796 
L 103.004876 132.347162 
L 103.449179 132.024057 
L 103.889468 131.696545 
L 104.325705 131.364688 
L 104.757853 131.02855 
L 105.185877 130.688193 
L 105.60974 130.343683 
L 106.02941 129.995084 
L 106.444852 129.64246 
L 106.856034 129.285877 
L 107.262923 128.9254 
L 107.665489 128.561094 
L 108.063702 128.193027 
L 108.457532 127.821264 
L 108.846951 127.445872 
L 109.231931 127.066918 
L 109.612445 126.684469 
L 109.988468 126.298592 
L 110.359975 125.909355 
L 110.72694 125.516827 
L 111.089341 125.121074 
L 111.447156 124.722165 
L 111.800361 124.32017 
" clip-path="url(#p8e99c89541)" style="fill: none; stroke: #2255aa; stroke-width: 2.8; stroke-linecap: round"/>
   </g>
   <g id="line2d_90">
    <path d="M 101.188303 133.594261 
L 101.64827 133.289407 
L 102.104382 132.979898 
L 102.556597 132.665796 
L 103.004876 132.347162 
L 103.449179 132.024057 
L 103.889468 131.696545 
L 104.325705 131.364688 
L 104.757853 131.02855 
L 105.185877 130.688193 
L 105.60974 130.343683 
L 106.02941 129.995084 
L 106.444852 129.64246 
L 106.856034 129.285877 
L 107.262923 128.9254 
L 107.665489 128.561094 
L 108.063702 128.193027 
L 108.457532 127.821264 
L 108.846951 127.445872 
L 109.231931 127.066918 
L 109.612445 126.684469 
L 109.988468 126.298592 
L 110.359975 125.909355 
L 110.72694 125.516827 
L 111.089341 125.121074 
L 111.447156 124.722165 
L 111.800361 124.32017 
L 112.148938 123.915155 
L 112.492865 123.50719 
L 112.832124 123.096344 
L 113.166696 122.682685 
L 113.496563 122.266283 
" clip-path="url(#p8e99c89541)" style="fill: none; stroke: #2255aa; stroke-width: 2.8; stroke-linecap: round"/>
   </g>
  </g>
 </g>
 <defs>
  <clipPath id="p8e99c89541">
   <rect x="3.6" y="3.6" width="167.4" height="150.68428"/>
  </clipPath>
 </defs>
</svg>
