<?xml version="1.0" encoding="utf-8" standalone="no"?>
<!DOCTYPE svg PUBLIC "-//W3C//DTD SVG 1.1//EN"
  "http://www.w3.org/Graphics/SVG/1.1/DTD/svg11.dtd">
<svg xmlns:xlink="http://www.w3.org/1999/xlink" width="174.6pt" height="138.056154pt" viewBox="0 0 174.6 138.056154" xmlns="http://www.w3.org/2000/svg" version="1.1">
 <metadata>
  <rdf:RDF xmlns:dc="http://purl.org/dc/elements/1.1/" xmlns:cc="http://creativecommons.org/ns#" xmlns:rdf="http://www.w3.org/1999/02/22-rdf-syntax-ns#">
   <cc:Work>
    <dc:type rdf:resource="http://purl.org/dc/dcmitype/StillImage"/>
    <dc:format>image/svg+xml</dc:format>
    <dc:creator>
     <cc:Agent>
      <dc:title>Matplotlib v3.10.8, https://matplotlib.org/</dc:title>
     </cc:Agent>
    </dc:creator>
   </cc:Work>
  </rdf:RDF>
 </metadata>
 <defs>
  <style type="text/css">*{stroke-linejoin: round; stroke-linecap: butt}</style>
 </defs>
 <g id="figure_1">
  <g id="patch_1">
   <path d="M 0 138.056154 
L 174.6 138.056154 
L 174.6 0 
L 0 0 
L 0 138.056154 
z
" style="fill: none"/>
  </g>
  <g id="axes_1">
   <g id="line2d_1">
    <path d="M 157.041395 69.371711 
L 156.996225 68.169177 
L 156.740447 66.969239 
L 156.274833 65.775522 
L 155.487596 64.423518 
L 154.431253 63.089686 
L 153.109973 61.77929 
L 151.313385 60.339543 
L 149.197088 58.94319 
L 146.771651 57.597205 
L 143.728935 56.168907 
L 140.338316 54.81989 
L 136.231817 53.437452 
L 131.760323 52.171307 
L 126.957189 51.030902 
L 121.381332 49.940197 
L 115.502966 49.018918 
L 109.374268 48.275241 
L 102.515491 47.677628 
L 95.498233 47.302394 
L 88.395585 47.15345 
L 81.281526 47.232345 
L 74.230153 47.538258 
L 67.314912 48.068004 
L 60.607831 48.816063 
L 54.661895 49.693648 
L 49.005658 50.742847 
L 43.689325 51.954346 
L 38.760082 53.317394 
L 34.619094 54.689674 
L 30.871065 56.168907 
L 27.828349 57.597205 
L 25.152295 59.095979 
L 23.071028 60.497502 
L 21.310546 61.94163 
L 20.02212 63.25524 
L 18.999209 64.591633 
L 18.24585 65.945535 
L 17.810141 67.140362 
L 17.584417 68.340893 
L 17.56936 69.543502 
L 17.765016 70.744552 
L 18.170793 71.940416 
L 18.785464 73.127479 
L 19.741325 74.468747 
L 20.963808 75.788542 
L 22.44809 77.081658 
L 24.423506 78.498172 
L 26.712952 79.867388 
L 29.61113 81.324958 
L 32.864979 82.706714 
L 36.831008 84.128928 
L 41.173497 85.438501 
L 45.860056 86.625665 
L 51.323934 87.770765 
L 57.107137 88.749504 
L 63.158335 89.553195 
L 69.423816 90.174703 
L 76.388696 90.636057 
L 83.467225 90.872349 
L 90.585675 90.881116 
L 97.669902 90.662269 
L 104.64612 90.218087 
L 111.441665 89.553195 
L 117.492863 88.749504 
L 123.276066 87.770765 
L 128.739944 86.625665 
L 133.835998 85.324367 
L 138.145562 84.004137 
L 142.075856 82.572197 
L 145.295005 81.182468 
L 148.156596 79.717803 
L 150.642986 78.187233 
L 152.547221 76.761161 
L 154.125585 75.296468 
L 155.248594 73.968005 
L 156.103441 72.620046 
L 156.686752 71.257911 
L 156.972569 70.05864 
L 157.047849 68.856255 
L 157.047849 68.856255 
" clip-path="url(#p7f7d40076c)" style="fill: none; stroke: #ffffff; stroke-width: 7.8; stroke-linecap: round"/>
   </g>
   <g id="line2d_2">
    <path d="M 86.788727 14.511406 
L 88.833315 14.565207 
L 90.871852 14.833949 
L 92.896292 15.31657 
L 94.898647 16.011165 
L 96.871013 16.914995 
L 98.805606 18.02449 
L 100.927374 19.513026 
L 102.981082 21.24886 
L 104.956472 23.223322 
L 106.843678 25.426552 
L 108.633276 27.847546 
L 110.316326 30.474213 
L 112.051214 33.617963 
L 113.633503 36.980028 
L 115.053437 40.53968 
L 116.302262 44.274972 
L 117.372279 48.162876 
L 118.25689 52.179421 
L 118.950641 56.299843 
L 119.449255 60.498738 
L 119.749659 64.75022 
L 119.848996 69.456298 
L 119.705542 74.159182 
L 119.320367 78.823791 
L 118.762833 83.001844 
L 118.011321 87.093744 
L 117.070463 91.074263 
L 115.94606 94.918861 
L 114.645045 98.603832 
L 113.175439 102.10646 
L 111.546302 105.405148 
L 109.767678 108.47956 
L 108.048151 111.039077 
L 106.224999 113.388774 
L 104.307328 115.516915 
L 102.304716 117.412873 
L 100.227164 119.067177 
L 98.085048 120.471566 
L 95.889068 121.619024 
L 93.900726 122.418631 
L 91.886335 123.00753 
L 89.853844 123.383397 
L 87.811273 123.544748 
L 85.766685 123.490947 
L 83.728148 123.222205 
L 81.703708 122.739584 
L 79.701353 122.044989 
L 77.728987 121.141159 
L 75.794394 120.031664 
L 73.672626 118.543128 
L 71.618918 116.807294 
L 69.643528 114.832832 
L 67.756322 112.629601 
L 65.966724 110.208607 
L 64.283674 107.581941 
L 62.548786 104.438191 
L 60.966497 101.076126 
L 59.546563 97.516474 
L 58.297738 93.781181 
L 57.227721 89.893278 
L 56.34311 85.876733 
L 55.649359 81.756311 
L 55.150745 77.557415 
L 54.850341 73.305933 
L 54.751004 68.599856 
L 54.894458 63.896972 
L 55.279633 59.232363 
L 55.837167 55.05431 
L 56.588679 50.96241 
L 57.529537 46.98189 
L 58.65394 43.137293 
L 59.954955 39.452321 
L 61.424561 35.949694 
L 63.053698 32.651006 
L 64.832322 29.576594 
L 66.551849 27.017077 
L 68.375001 24.66738 
L 70.292672 22.539238 
L 72.295284 20.643281 
L 74.372836 18.988977 
L 76.514952 17.584588 
L 78.710932 16.437129 
L 80.699274 15.637522 
L 82.713665 15.048624 
L 84.746156 14.672757 
L 86.788727 14.511406 
L 87.555644 14.506361 
L 87.555644 14.506361 
" clip-path="url(#p7f7d40076c)" style="fill: none; stroke: #ffffff; stroke-width: 7.8; stroke-linecap: round"/>
   </g>
  </g>
 </g>
 <defs>
  <clipPath id="p7f7d40076c">
   <rect x="3.6" y="3.6" width="167.4" height="130.856154"/>
  </clipPath>
 </defs>
</svg>
