<?xml version="1.0" encoding="utf-8" standalone="no"?>
<!DOCTYPE svg PUBLIC "-//W3C//DTD SVG 1.1//EN"
  "http://www.w3.org/Graphics/SVG/1.1/DTD/svg11.dtd">
<svg xmlns:xlink="http://www.w3.org/1999/xlink" width="174.6pt" height="162.707043pt" viewBox="0 0 174.6 162.707043" xmlns="http://www.w3.org/2000/svg" version="1.1">
 <metadata>
  <rdf:RDF xmlns:dc="http://purl.org/dc/elements/1.1/" xmlns:cc="http://creativecommons.org/ns#" xmlns:rdf="http://www.w3.org/1999/02/22-rdf-syntax-ns#">
   <cc:Work>
    <dc:type rdf:resource="http://purl.org/dc/dcmitype/StillImage"/>
    <dc:format>image/svg+xml</dc:format>
    <dc:creator>
     <cc:Agent>
      <dc:title>Matplotlib v3.10.8, https://matplotlib.org/</dc:title>
     </cc:Agent>
    </dc:creator>
   </cc:Work>
  </rdf:RDF>
 </metadata>
 <defs>
  <style type="text/css">*{stroke-linejoin: round; stroke-linecap: butt}</style>
 </defs>
 <g id="figure_1">
  <g id="patch_1">
   <path d="M 0 162.707043 
L 174.6 162.707043 
L 174.6 0 
L 0 0 
L 0 162.707043 
z
" style="fill: none"/>
  </g>
  <g id="axes_1">
   <g id="line2d_1">
    <path d="M 131.480456 64.702073 
L 131.576091 64.398384 
L 131.669818 64.093696 
L 131.76161 63.788022 
L 131.851438 63.481375 
L 131.939273 63.173767 
L 132.025087 62.865212 
L 132.108852 62.555725 
L 132.19054 62.245319 
L 132.270122 61.934009 
L 132.347571 61.62181 
L 132.422859 61.308738 
L 132.495958 60.994808 
L 132.56684 60.680036 
L 132.635478 60.36444 
L 132.701846 60.048034 
L 132.765915 59.730838 
L 132.827659 59.412868 
L 132.887052 59.094141 
L 132.944066 58.774678 
L 132.998676 58.454495 
L 133.050855 58.133612 
L 133.100577 57.812049 
L 133.147817 57.489824 
L 133.192549 57.166958 
L 133.234748 56.843471 
L 133.274389 56.519384 
L 133.311446 56.194717 
L 133.345895 55.869492 
L 133.377713 55.543731 
L 133.406874 55.217455 
L 133.433355 54.890687 
L 133.457132 54.56345 
L 133.478182 54.235765 
L 133.496482 53.907657 
L 133.512009 53.579149 
L 133.524741 53.250264 
L 133.534656 52.921028 
L 133.541731 52.591463 
L 133.545945 52.261596 
L 133.547276 51.931451 
L 133.545705 51.601053 
L 133.541209 51.270428 
L 133.533769 50.939602 
L 133.523365 50.608601 
L 133.509978 50.277451 
L 133.493586 49.94618 
L 133.474173 49.614813 
L 133.451719 49.283378 
L 133.426206 48.951904 
L 133.397616 48.620416 
L 133.365932 48.288944 
L 133.331136 47.957516 
L 133.293211 47.62616 
L 133.252142 47.294904 
" clip-path="url(#p4029389801)" style="fill: none; stroke: #ffffff; stroke-width: 7.8; stroke-linecap: round"/>
   </g>
   <g id="line2d_2">
    <path d="M 133.050855 58.133612 
L 133.100577 57.812049 
L 133.147817 57.489824 
L 133.192549 57.166958 
L 133.234748 56.843471 
L 133.274389 56.519384 
L 133.311446 56.194717 
L 133.345895 55.869492 
L 133.377713 55.543731 
L 133.406874 55.217455 
L 133.433355 54.890687 
L 133.457132 54.56345 
L 133.478182 54.235765 
L 133.496482 53.907657 
L 133.512009 53.579149 
L 133.524741 53.250264 
L 133.534656 52.921028 
L 133.541731 52.591463 
L 133.545945 52.261596 
L 133.547276 51.931451 
L 133.545705 51.601053 
L 133.541209 51.270428 
L 133.533769 50.939602 
L 133.523365 50.608601 
L 133.509978 50.277451 
L 133.493586 49.94618 
L 133.474173 49.614813 
L 133.451719 49.283378 
L 133.426206 48.951904 
L 133.397616 48.620416 
L 133.365932 48.288944 
L 133.331136 47.957516 
L 133.293211 47.62616 
L 133.252142 47.294904 
L 133.207912 46.963778 
L 133.160506 46.632812 
L 133.109907 46.302033 
L 133.056102 45.971472 
L 132.999077 45.641158 
L 132.938816 45.311123 
L 132.875307 44.981395 
L 132.808535 44.652005 
L 132.73849 44.322984 
L 132.665157 43.994362 
L 132.588525 43.666171 
L 132.508583 43.338442 
L 132.42532 43.011206 
L 132.338724 42.684494 
L 132.248787 42.358338 
L 132.155497 42.03277 
L 132.058846 41.707822 
L 131.958825 41.383526 
L 131.855426 41.059913 
L 131.74864 40.737018 
L 131.638461 40.414871 
" clip-path="url(#p4029389801)" style="fill: none; stroke: #ffffff; stroke-width: 7.8; stroke-linecap: round"/>
   </g>
   <g id="line2d_3">
    <path d="M 132.635478 60.36444 
L 132.701846 60.048034 
L 132.765915 59.730838 
L 132.827659 59.412868 
L 132.887052 59.094141 
L 132.944066 58.774678 
L 132.998676 58.454495 
L 133.050855 58.133612 
L 133.100577 57.812049 
L 133.147817 57.489824 
L 133.192549 57.166958 
L 133.234748 56.843471 
L 133.274389 56.519384 
L 133.311446 56.194717 
L 133.345895 55.869492 
L 133.377713 55.543731 
L 133.406874 55.217455 
L 133.433355 54.890687 
L 133.457132 54.56345 
L 133.478182 54.235765 
L 133.496482 53.907657 
L 133.512009 53.579149 
L 133.524741 53.250264 
L 133.534656 52.921028 
L 133.541731 52.591463 
L 133.545945 52.261596 
L 133.547276 51.931451 
L 133.545705 51.601053 
L 133.541209 51.270428 
L 133.533769 50.939602 
L 133.523365 50.608601 
L 133.509978 50.277451 
L 133.493586 49.94618 
L 133.474173 49.614813 
L 133.451719 49.283378 
L 133.426206 48.951904 
L 133.397616 48.620416 
L 133.365932 48.288944 
L 133.331136 47.957516 
L 133.293211 47.62616 
L 133.252142 47.294904 
L 133.207912 46.963778 
L 133.160506 46.632812 
L 133.109907 46.302033 
L 133.056102 45.971472 
L 132.999077 45.641158 
L 132.938816 45.311123 
L 132.875307 44.981395 
L 132.808535 44.652005 
L 132.73849 44.322984 
L 132.665157 43.994362 
L 132.588525 43.666171 
L 132.508583 43.338442 
L 132.42532 43.011206 
L 132.338724 42.684494 
" clip-path="url(#p4029389801)" style="fill: none; stroke: #ffffff; stroke-width: 7.8; stroke-linecap: round"/>
   </g>
   <g id="line2d_4">
    <path d="M 104.724046 56.561723 
L 104.589284 56.368221 
L 104.454194 56.17447 
L 104.318757 55.980469 
L 104.182953 55.786222 
L 104.046763 55.591728 
L 103.910168 55.39699 
L 103.773147 55.20201 
L 103.635682 55.006791 
L 103.497752 54.811336 
L 103.359337 54.615648 
L 103.220418 54.41973 
L 103.080974 54.223587 
L 102.940986 54.027222 
L 102.800434 53.830641 
L 102.659296 53.633848 
L 102.517554 53.436849 
L 102.375186 53.239649 
L 102.232173 53.042255 
L 102.088494 52.844672 
L 101.944129 52.646908 
L 101.799058 52.448969 
L 101.65326 52.250862 
L 101.506716 52.052596 
L 101.359404 51.854179 
L 101.211305 51.655618 
L 101.062398 51.456923 
L 100.912663 51.258103 
L 100.762081 51.059167 
L 100.61063 50.860125 
L 100.45829 50.660988 
L 100.305043 50.461764 
L 100.150867 50.262466 
L 99.995743 50.063105 
L 99.839651 49.863691 
L 99.682572 49.664237 
L 99.524485 49.464755 
L 99.365371 49.265258 
L 99.205211 49.065758 
L 99.043985 48.866268 
L 98.881673 48.666802 
L 98.718258 48.467373 
L 98.55372 48.267996 
L 98.38804 48.068686 
L 98.221198 47.869457 
L 98.053178 47.670323 
L 97.88396 47.471302 
L 97.713525 47.272407 
L 97.541857 47.073656 
L 97.368936 46.875065 
L 97.194745 46.67665 
L 97.019266 46.478429 
L 96.842483 46.280418 
L 96.664377 46.082635 
L 96.484932 45.885099 
" clip-path="url(#p4029389801)" style="fill: none; stroke: #ffffff; stroke-width: 7.8; stroke-linecap: round"/>
   </g>
   <g id="line2d_5">
    <path d="M 101.799058 52.448969 
L 101.65326 52.250862 
L 101.506716 52.052596 
L 101.359404 51.854179 
L 101.211305 51.655618 
L 101.062398 51.456923 
L 100.912663 51.258103 
L 100.762081 51.059167 
L 100.61063 50.860125 
L 100.45829 50.660988 
L 100.305043 50.461764 
L 100.150867 50.262466 
L 99.995743 50.063105 
L 99.839651 49.863691 
L 99.682572 49.664237 
L 99.524485 49.464755 
L 99.365371 49.265258 
L 99.205211 49.065758 
L 99.043985 48.866268 
L 98.881673 48.666802 
L 98.718258 48.467373 
L 98.55372 48.267996 
L 98.38804 48.068686 
L 98.221198 47.869457 
L 98.053178 47.670323 
L 97.88396 47.471302 
L 97.713525 47.272407 
L 97.541857 47.073656 
L 97.368936 46.875065 
L 97.194745 46.67665 
L 97.019266 46.478429 
L 96.842483 46.280418 
L 96.664377 46.082635 
L 96.484932 45.885099 
L 96.30413 45.687827 
L 96.121956 45.490838 
L 95.938392 45.294151 
L 95.753423 45.097784 
L 95.567032 44.901757 
L 95.379204 44.70609 
L 95.189924 44.510803 
L 94.999175 44.315916 
L 94.806943 44.121449 
L 94.613213 43.927422 
L 94.417971 43.733858 
L 94.221202 43.540777 
L 94.022893 43.348201 
L 93.823029 43.156152 
L 93.621597 42.964651 
L 93.418584 42.773721 
L 93.213977 42.583384 
L 93.007764 42.393664 
L 92.799931 42.204583 
L 92.590468 42.016164 
L 92.379363 41.828431 
" clip-path="url(#p4029389801)" style="fill: none; stroke: #ffffff; stroke-width: 7.8; stroke-linecap: round"/>
   </g>
   <g id="line2d_6">
    <path d="M 104.724046 56.561723 
L 104.589284 56.368221 
L 104.454194 56.17447 
L 104.318757 55.980469 
L 104.182953 55.786222 
L 104.046763 55.591728 
L 103.910168 55.39699 
L 103.773147 55.20201 
L 103.635682 55.006791 
L 103.497752 54.811336 
L 103.359337 54.615648 
L 103.220418 54.41973 
L 103.080974 54.223587 
L 102.940986 54.027222 
L 102.800434 53.830641 
L 102.659296 53.633848 
L 102.517554 53.436849 
L 102.375186 53.239649 
L 102.232173 53.042255 
L 102.088494 52.844672 
L 101.944129 52.646908 
L 101.799058 52.448969 
L 101.65326 52.250862 
L 101.506716 52.052596 
L 101.359404 51.854179 
L 101.211305 51.655618 
L 101.062398 51.456923 
L 100.912663 51.258103 
L 100.762081 51.059167 
L 100.61063 50.860125 
L 100.45829 50.660988 
L 100.305043 50.461764 
L 100.150867 50.262466 
L 99.995743 50.063105 
L 99.839651 49.863691 
L 99.682572 49.664237 
L 99.524485 49.464755 
L 99.365371 49.265258 
L 99.205211 49.065758 
L 99.043985 48.866268 
L 98.881673 48.666802 
L 98.718258 48.467373 
L 98.55372 48.267996 
L 98.38804 48.068686 
L 98.221198 47.869457 
L 98.053178 47.670323 
L 97.88396 47.471302 
L 97.713525 47.272407 
L 97.541857 47.073656 
L 97.368936 46.875065 
L 97.194745 46.67665 
L 97.019266 46.478429 
L 96.842483 46.280418 
L 96.664377 46.082635 
L 96.484932 45.885099 
" clip-path="url(#p4029389801)" style="fill: none; stroke: #ffffff; stroke-width: 7.8; stroke-linecap: round"/>
   </g>
   <g id="line2d_7">
    <path d="M 101.799058 52.448969 
L 101.65326 52.250862 
L 101.506716 52.052596 
L 101.359404 51.854179 
L 101.211305 51.655618 
L 101.062398 51.456923 
L 100.912663 51.258103 
L 100.762081 51.059167 
L 100.61063 50.860125 
L 100.45829 50.660988 
L 100.305043 50.461764 
L 100.150867 50.262466 
L 99.995743 50.063105 
L 99.839651 49.863691 
L 99.682572 49.664237 
L 99.524485 49.464755 
L 99.365371 49.265258 
L 99.205211 49.065758 
L 99.043985 48.866268 
L 98.881673 48.666802 
L 98.718258 48.467373 
L 98.55372 48.267996 
L 98.38804 48.068686 
L 98.221198 47.869457 
L 98.053178 47.670323 
L 97.88396 47.471302 
L 97.713525 47.272407 
L 97.541857 47.073656 
L 97.368936 46.875065 
L 97.194745 46.67665 
L 97.019266 46.478429 
L 96.842483 46.280418 
L 96.664377 46.082635 
L 96.484932 45.885099 
L 96.30413 45.687827 
L 96.121956 45.490838 
L 95.938392 45.294151 
L 95.753423 45.097784 
L 95.567032 44.901757 
L 95.379204 44.70609 
L 95.189924 44.510803 
L 94.999175 44.315916 
L 94.806943 44.121449 
L 94.613213 43.927422 
L 94.417971 43.733858 
L 94.221202 43.540777 
L 94.022893 43.348201 
L 93.823029 43.156152 
L 93.621597 42.964651 
L 93.418584 42.773721 
L 93.213977 42.583384 
L 93.007764 42.393664 
L 92.799931 42.204583 
L 92.590468 42.016164 
L 92.379363 41.828431 
" clip-path="url(#p4029389801)" style="fill: none; stroke: #ffffff; stroke-width: 7.8; stroke-linecap: round"/>
   </g>
   <g id="line2d_8">
    <path d="M 50.946326 70.627271 
L 50.788626 70.77923 
L 50.631247 70.933127 
L 50.474211 71.088974 
L 50.317543 71.246783 
L 50.161264 71.406569 
L 50.005399 71.568342 
L 49.849971 71.732114 
L 49.695004 71.897898 
L 49.540523 72.065703 
L 49.386552 72.235542 
L 49.233115 72.407424 
L 49.080238 72.581359 
L 48.927946 72.757358 
L 48.776263 72.935429 
L 48.625217 73.115581 
L 48.474831 73.297824 
L 48.325133 73.482165 
L 48.176149 73.668612 
L 48.027904 73.857172 
L 47.880426 74.047854 
L 47.733741 74.240663 
L 47.587875 74.435605 
L 47.442857 74.632687 
L 47.298713 74.831914 
L 47.15547 75.033292 
L 47.013157 75.236825 
L 46.8718 75.442516 
L 46.731428 75.650371 
L 46.592067 75.860393 
L 46.453748 76.072584 
L 46.316496 76.286948 
L 46.180342 76.503487 
L 46.045312 76.722202 
L 45.911436 76.943095 
L 45.778742 77.166166 
L 45.647259 77.391417 
L 45.517015 77.618848 
L 45.388039 77.848458 
L 45.260361 78.080246 
L 45.134008 78.314212 
L 45.00901 78.550353 
L 44.885397 78.788668 
L 44.763196 79.029154 
L 44.642437 79.271809 
L 44.523149 79.516628 
L 44.405362 79.763609 
L 44.289104 80.012746 
L 44.174405 80.264035 
L 44.061293 80.517472 
L 43.949799 80.77305 
L 43.83995 81.030763 
L 43.731777 81.290606 
L 43.625308 81.55257 
L 43.520572 81.81665 
" clip-path="url(#p4029389801)" style="fill: none; stroke: #ffffff; stroke-width: 7.8; stroke-linecap: round"/>
   </g>
   <g id="line2d_9">
    <path d="M 49.849971 71.732114 
L 49.695004 71.897898 
L 49.540523 72.065703 
L 49.386552 72.235542 
L 49.233115 72.407424 
L 49.080238 72.581359 
L 48.927946 72.757358 
L 48.776263 72.935429 
L 48.625217 73.115581 
L 48.474831 73.297824 
L 48.325133 73.482165 
L 48.176149 73.668612 
L 48.027904 73.857172 
L 47.880426 74.047854 
L 47.733741 74.240663 
L 47.587875 74.435605 
L 47.442857 74.632687 
L 47.298713 74.831914 
L 47.15547 75.033292 
L 47.013157 75.236825 
L 46.8718 75.442516 
L 46.731428 75.650371 
L 46.592067 75.860393 
L 46.453748 76.072584 
L 46.316496 76.286948 
L 46.180342 76.503487 
L 46.045312 76.722202 
L 45.911436 76.943095 
L 45.778742 77.166166 
L 45.647259 77.391417 
L 45.517015 77.618848 
L 45.388039 77.848458 
L 45.260361 78.080246 
L 45.134008 78.314212 
L 45.00901 78.550353 
L 44.885397 78.788668 
L 44.763196 79.029154 
L 44.642437 79.271809 
L 44.523149 79.516628 
L 44.405362 79.763609 
L 44.289104 80.012746 
L 44.174405 80.264035 
L 44.061293 80.517472 
L 43.949799 80.77305 
L 43.83995 81.030763 
L 43.731777 81.290606 
L 43.625308 81.55257 
L 43.520572 81.81665 
L 43.417599 82.082836 
L 43.316417 82.351121 
L 43.217056 82.621496 
L 43.119544 82.893952 
L 43.023909 83.16848 
L 42.930182 83.445068 
L 42.83839 83.723708 
" clip-path="url(#p4029389801)" style="fill: none; stroke: #ffffff; stroke-width: 7.8; stroke-linecap: round"/>
   </g>
   <g id="line2d_10">
    <path d="M 46.731428 75.650371 
L 46.592067 75.860393 
L 46.453748 76.072584 
L 46.316496 76.286948 
L 46.180342 76.503487 
L 46.045312 76.722202 
L 45.911436 76.943095 
L 45.778742 77.166166 
L 45.647259 77.391417 
L 45.517015 77.618848 
L 45.388039 77.848458 
L 45.260361 78.080246 
L 45.134008 78.314212 
L 45.00901 78.550353 
L 44.885397 78.788668 
L 44.763196 79.029154 
L 44.642437 79.271809 
L 44.523149 79.516628 
L 44.405362 79.763609 
L 44.289104 80.012746 
L 44.174405 80.264035 
L 44.061293 80.517472 
L 43.949799 80.77305 
L 43.83995 81.030763 
L 43.731777 81.290606 
L 43.625308 81.55257 
L 43.520572 81.81665 
L 43.417599 82.082836 
L 43.316417 82.351121 
L 43.217056 82.621496 
L 43.119544 82.893952 
L 43.023909 83.16848 
L 42.930182 83.445068 
L 42.83839 83.723708 
L 42.748562 84.004387 
L 42.660727 84.287096 
L 42.574913 84.57182 
L 42.491148 84.85855 
L 42.40946 85.147271 
L 42.329878 85.437971 
L 42.252429 85.730636 
L 42.177141 86.025252 
L 42.104042 86.321805 
L 42.03316 86.62028 
L 41.964522 86.920661 
L 41.898154 87.222933 
L 41.834085 87.527079 
L 41.772341 87.833084 
L 41.712948 88.14093 
L 41.655934 88.450599 
L 41.601324 88.762073 
L 41.549145 89.075335 
L 41.499423 89.390365 
L 41.452183 89.707145 
L 41.407451 90.025654 
" clip-path="url(#p4029389801)" style="fill: none; stroke: #ffffff; stroke-width: 7.8; stroke-linecap: round"/>
   </g>
   <g id="line2d_11">
    <path d="M 46.731428 75.650371 
L 46.592067 75.860393 
L 46.453748 76.072584 
L 46.316496 76.286948 
L 46.180342 76.503487 
L 46.045312 76.722202 
L 45.911436 76.943095 
L 45.778742 77.166166 
L 45.647259 77.391417 
L 45.517015 77.618848 
L 45.388039 77.848458 
L 45.260361 78.080246 
L 45.134008 78.314212 
L 45.00901 78.550353 
L 44.885397 78.788668 
L 44.763196 79.029154 
L 44.642437 79.271809 
L 44.523149 79.516628 
L 44.405362 79.763609 
L 44.289104 80.012746 
L 44.174405 80.264035 
L 44.061293 80.517472 
L 43.949799 80.77305 
L 43.83995 81.030763 
L 43.731777 81.290606 
L 43.625308 81.55257 
L 43.520572 81.81665 
L 43.417599 82.082836 
L 43.316417 82.351121 
L 43.217056 82.621496 
L 43.119544 82.893952 
L 43.023909 83.16848 
L 42.930182 83.445068 
L 42.83839 83.723708 
L 42.748562 84.004387 
L 42.660727 84.287096 
L 42.574913 84.57182 
L 42.491148 84.85855 
L 42.40946 85.147271 
L 42.329878 85.437971 
L 42.252429 85.730636 
L 42.177141 86.025252 
L 42.104042 86.321805 
L 42.03316 86.62028 
L 41.964522 86.920661 
L 41.898154 87.222933 
L 41.834085 87.527079 
L 41.772341 87.833084 
L 41.712948 88.14093 
L 41.655934 88.450599 
L 41.601324 88.762073 
L 41.549145 89.075335 
L 41.499423 89.390365 
L 41.452183 89.707145 
L 41.407451 90.025654 
" clip-path="url(#p4029389801)" style="fill: none; stroke: #ffffff; stroke-width: 7.8; stroke-linecap: round"/>
   </g>
   <g id="line2d_12">
    <path d="M 45.778742 77.166166 
L 45.647259 77.391417 
L 45.517015 77.618848 
L 45.388039 77.848458 
L 45.260361 78.080246 
L 45.134008 78.314212 
L 45.00901 78.550353 
L 44.885397 78.788668 
L 44.763196 79.029154 
L 44.642437 79.271809 
L 44.523149 79.516628 
L 44.405362 79.763609 
L 44.289104 80.012746 
L 44.174405 80.264035 
L 44.061293 80.517472 
L 43.949799 80.77305 
L 43.83995 81.030763 
L 43.731777 81.290606 
L 43.625308 81.55257 
L 43.520572 81.81665 
L 43.417599 82.082836 
L 43.316417 82.351121 
L 43.217056 82.621496 
L 43.119544 82.893952 
L 43.023909 83.16848 
L 42.930182 83.445068 
L 42.83839 83.723708 
L 42.748562 84.004387 
L 42.660727 84.287096 
L 42.574913 84.57182 
L 42.491148 84.85855 
L 42.40946 85.147271 
L 42.329878 85.437971 
L 42.252429 85.730636 
L 42.177141 86.025252 
L 42.104042 86.321805 
L 42.03316 86.62028 
L 41.964522 86.920661 
L 41.898154 87.222933 
L 41.834085 87.527079 
L 41.772341 87.833084 
L 41.712948 88.14093 
L 41.655934 88.450599 
L 41.601324 88.762073 
L 41.549145 89.075335 
L 41.499423 89.390365 
L 41.452183 89.707145 
L 41.407451 90.025654 
L 41.365252 90.345874 
L 41.325611 90.667782 
L 41.288554 90.99136 
L 41.254105 91.316585 
L 41.222287 91.643435 
L 41.193126 91.97189 
L 41.166645 92.301925 
" clip-path="url(#p4029389801)" style="fill: none; stroke: #ffffff; stroke-width: 7.8; stroke-linecap: round"/>
   </g>
   <g id="line2d_13">
    <path d="M 46.067438 115.790938 
L 46.253201 116.159257 
L 46.442395 116.526968 
L 46.635018 116.894032 
L 46.831064 117.260412 
L 47.030527 117.626068 
L 47.233402 117.99096 
L 47.439683 118.355051 
L 47.649363 118.718301 
L 47.862434 119.080672 
L 48.078889 119.442123 
L 48.298719 119.802618 
L 48.521915 120.162115 
L 48.748468 120.520578 
L 48.978368 120.877966 
L 49.211604 121.234241 
L 49.448166 121.589365 
L 49.688043 121.943298 
L 49.931222 122.296001 
L 50.17769 122.647437 
L 50.427436 122.997566 
L 50.680445 123.346351 
L 50.936703 123.693752 
L 51.196197 124.039731 
L 51.458911 124.384251 
L 51.72483 124.727273 
L 51.993937 125.068758 
L 52.266217 125.40867 
L 52.541652 125.74697 
L 52.820225 126.083621 
L 53.101918 126.418585 
L 53.386713 126.751825 
L 53.674591 127.083303 
L 53.965532 127.412982 
L 54.259517 127.740827 
L 54.556525 128.066799 
L 54.856536 128.390862 
L 55.159528 128.71298 
L 55.465479 129.033116 
L 55.774367 129.351235 
L 56.08617 129.667301 
L 56.400865 129.981277 
L 56.718427 130.29313 
L 57.038833 130.602823 
L 57.362059 130.910321 
L 57.688079 131.21559 
L 58.016867 131.518595 
L 58.348399 131.819302 
L 58.682648 132.117677 
L 59.019587 132.413685 
L 59.359188 132.707295 
L 59.701425 132.998472 
L 60.04627 133.287183 
L 60.393694 133.573395 
L 60.743667 133.857077 
" clip-path="url(#p4029389801)" style="fill: none; stroke: #ffffff; stroke-width: 7.8; stroke-linecap: round"/>
   </g>
   <g id="line2d_14">
    <path d="M 47.439683 118.355051 
L 47.649363 118.718301 
L 47.862434 119.080672 
L 48.078889 119.442123 
L 48.298719 119.802618 
L 48.521915 120.162115 
L 48.748468 120.520578 
L 48.978368 120.877966 
L 49.211604 121.234241 
L 49.448166 121.589365 
L 49.688043 121.943298 
L 49.931222 122.296001 
L 50.17769 122.647437 
L 50.427436 122.997566 
L 50.680445 123.346351 
L 50.936703 123.693752 
L 51.196197 124.039731 
L 51.458911 124.384251 
L 51.72483 124.727273 
L 51.993937 125.068758 
L 52.266217 125.40867 
L 52.541652 125.74697 
L 52.820225 126.083621 
L 53.101918 126.418585 
L 53.386713 126.751825 
L 53.674591 127.083303 
L 53.965532 127.412982 
L 54.259517 127.740827 
L 54.556525 128.066799 
L 54.856536 128.390862 
L 55.159528 128.71298 
L 55.465479 129.033116 
L 55.774367 129.351235 
L 56.08617 129.667301 
L 56.400865 129.981277 
L 56.718427 130.29313 
L 57.038833 130.602823 
L 57.362059 130.910321 
L 57.688079 131.21559 
L 58.016867 131.518595 
L 58.348399 131.819302 
L 58.682648 132.117677 
L 59.019587 132.413685 
L 59.359188 132.707295 
L 59.701425 132.998472 
L 60.04627 133.287183 
L 60.393694 133.573395 
L 60.743667 133.857077 
L 61.096162 134.138195 
L 61.451148 134.416719 
L 61.808595 134.692616 
L 62.168473 134.965856 
L 62.530751 135.236407 
L 62.895398 135.504238 
L 63.262382 135.76932 
" clip-path="url(#p4029389801)" style="fill: none; stroke: #ffffff; stroke-width: 7.8; stroke-linecap: round"/>
   </g>
   <g id="line2d_15">
    <path d="M 52.541652 125.74697 
L 52.820225 126.083621 
L 53.101918 126.418585 
L 53.386713 126.751825 
L 53.674591 127.083303 
L 53.965532 127.412982 
L 54.259517 127.740827 
L 54.556525 128.066799 
L 54.856536 128.390862 
L 55.159528 128.71298 
L 55.465479 129.033116 
L 55.774367 129.351235 
L 56.08617 129.667301 
L 56.400865 129.981277 
L 56.718427 130.29313 
L 57.038833 130.602823 
L 57.362059 130.910321 
L 57.688079 131.21559 
L 58.016867 131.518595 
L 58.348399 131.819302 
L 58.682648 132.117677 
L 59.019587 132.413685 
L 59.359188 132.707295 
L 59.701425 132.998472 
L 60.04627 133.287183 
L 60.393694 133.573395 
L 60.743667 133.857077 
L 61.096162 134.138195 
L 61.451148 134.416719 
L 61.808595 134.692616 
L 62.168473 134.965856 
L 62.530751 135.236407 
L 62.895398 135.504238 
L 63.262382 135.76932 
L 63.631671 136.031622 
L 64.003232 136.291115 
L 64.377034 136.54777 
L 64.753043 136.801556 
L 65.131226 137.052447 
L 65.511548 137.300412 
L 65.893976 137.545426 
L 66.278475 137.787459 
L 66.66501 138.026484 
L 67.053546 138.262476 
L 67.444048 138.495407 
L 67.83648 138.725251 
L 68.230806 138.951982 
L 68.626988 139.175575 
L 69.024992 139.396006 
L 69.424779 139.613249 
L 69.826311 139.827281 
L 70.229553 140.038077 
L 70.634465 140.245614 
L 71.04101 140.44987 
L 71.449149 140.650822 
" clip-path="url(#p4029389801)" style="fill: none; stroke: #ffffff; stroke-width: 7.8; stroke-linecap: round"/>
   </g>
   <g id="line2d_16">
    <path d="M 52.541652 125.74697 
L 52.820225 126.083621 
L 53.101918 126.418585 
L 53.386713 126.751825 
L 53.674591 127.083303 
L 53.965532 127.412982 
L 54.259517 127.740827 
L 54.556525 128.066799 
L 54.856536 128.390862 
L 55.159528 128.71298 
L 55.465479 129.033116 
L 55.774367 129.351235 
L 56.08617 129.667301 
L 56.400865 129.981277 
L 56.718427 130.29313 
L 57.038833 130.602823 
L 57.362059 130.910321 
L 57.688079 131.21559 
L 58.016867 131.518595 
L 58.348399 131.819302 
L 58.682648 132.117677 
L 59.019587 132.413685 
L 59.359188 132.707295 
L 59.701425 132.998472 
L 60.04627 133.287183 
L 60.393694 133.573395 
L 60.743667 133.857077 
L 61.096162 134.138195 
L 61.451148 134.416719 
L 61.808595 134.692616 
L 62.168473 134.965856 
L 62.530751 135.236407 
L 62.895398 135.504238 
L 63.262382 135.76932 
L 63.631671 136.031622 
L 64.003232 136.291115 
L 64.377034 136.54777 
L 64.753043 136.801556 
L 65.131226 137.052447 
L 65.511548 137.300412 
L 65.893976 137.545426 
L 66.278475 137.787459 
L 66.66501 138.026484 
L 67.053546 138.262476 
L 67.444048 138.495407 
L 67.83648 138.725251 
L 68.230806 138.951982 
L 68.626988 139.175575 
L 69.024992 139.396006 
L 69.424779 139.613249 
L 69.826311 139.827281 
L 70.229553 140.038077 
L 70.634465 140.245614 
L 71.04101 140.44987 
L 71.449149 140.650822 
" clip-path="url(#p4029389801)" style="fill: none; stroke: #ffffff; stroke-width: 7.8; stroke-linecap: round"/>
   </g>
   <g id="line2d_17">
    <path d="M 121.715692 115.457864 
L 122.09349 115.394346 
L 122.471169 115.328242 
L 122.848693 115.259542 
L 123.226025 115.188239 
L 123.603128 115.114321 
L 123.979965 115.037782 
L 124.356498 114.958613 
L 124.732691 114.876805 
L 125.108505 114.792352 
L 125.483903 114.705247 
L 125.858847 114.615482 
L 126.233299 114.523052 
L 126.607221 114.427952 
L 126.980574 114.330175 
L 127.35332 114.229716 
L 127.725421 114.126572 
L 128.096837 114.020738 
L 128.46753 113.91221 
L 128.837462 113.800985 
L 129.206593 113.687061 
L 129.574884 113.570434 
L 129.942297 113.451103 
L 130.308791 113.329066 
L 130.674329 113.204322 
L 131.038871 113.07687 
L 131.402377 112.94671 
L 131.764808 112.813842 
L 132.126125 112.678267 
L 132.486289 112.539986 
L 132.845259 112.398999 
L 133.202998 112.25531 
L 133.559465 112.10892 
L 133.91462 111.959832 
L 134.268426 111.808049 
L 134.620841 111.653575 
L 134.971828 111.496414 
L 135.321346 111.33657 
L 135.669357 111.174049 
L 136.01582 111.008855 
L 136.360698 110.840995 
L 136.703951 110.670475 
L 137.045539 110.497301 
L 137.385425 110.321481 
L 137.723569 110.143022 
L 138.059932 109.961932 
L 138.394476 109.77822 
L 138.727162 109.591894 
L 139.057952 109.402964 
L 139.386807 109.21144 
L 139.713689 109.017331 
L 140.038561 108.820649 
L 140.361383 108.621404 
L 140.682119 108.419608 
L 141.000731 108.215273 
" clip-path="url(#p4029389801)" style="fill: none; stroke: #ffffff; stroke-width: 7.8; stroke-linecap: round"/>
   </g>
   <g id="line2d_18">
    <path d="M 119.070816 115.831001 
L 119.448437 115.785276 
L 119.82619 115.737044 
L 120.20404 115.686293 
L 120.58195 115.633011 
L 120.959886 115.577186 
L 121.337812 115.518808 
L 121.715692 115.457864 
L 122.09349 115.394346 
L 122.471169 115.328242 
L 122.848693 115.259542 
L 123.226025 115.188239 
L 123.603128 115.114321 
L 123.979965 115.037782 
L 124.356498 114.958613 
L 124.732691 114.876805 
L 125.108505 114.792352 
L 125.483903 114.705247 
L 125.858847 114.615482 
L 126.233299 114.523052 
L 126.607221 114.427952 
L 126.980574 114.330175 
L 127.35332 114.229716 
L 127.725421 114.126572 
L 128.096837 114.020738 
L 128.46753 113.91221 
L 128.837462 113.800985 
L 129.206593 113.687061 
L 129.574884 113.570434 
L 129.942297 113.451103 
L 130.308791 113.329066 
L 130.674329 113.204322 
L 131.038871 113.07687 
L 131.402377 112.94671 
L 131.764808 112.813842 
L 132.126125 112.678267 
L 132.486289 112.539986 
L 132.845259 112.398999 
L 133.202998 112.25531 
L 133.559465 112.10892 
L 133.91462 111.959832 
L 134.268426 111.808049 
L 134.620841 111.653575 
L 134.971828 111.496414 
L 135.321346 111.33657 
L 135.669357 111.174049 
L 136.01582 111.008855 
L 136.360698 110.840995 
L 136.703951 110.670475 
L 137.045539 110.497301 
L 137.385425 110.321481 
L 137.723569 110.143022 
L 138.059932 109.961932 
L 138.394476 109.77822 
L 138.727162 109.591894 
" clip-path="url(#p4029389801)" style="fill: none; stroke: #ffffff; stroke-width: 7.8; stroke-linecap: round"/>
   </g>
   <g id="line2d_19">
    <path d="M 126.980574 114.330175 
L 127.35332 114.229716 
L 127.725421 114.126572 
L 128.096837 114.020738 
L 128.46753 113.91221 
L 128.837462 113.800985 
L 129.206593 113.687061 
L 129.574884 113.570434 
L 129.942297 113.451103 
L 130.308791 113.329066 
L 130.674329 113.204322 
L 131.038871 113.07687 
L 131.402377 112.94671 
L 131.764808 112.813842 
L 132.126125 112.678267 
L 132.486289 112.539986 
L 132.845259 112.398999 
L 133.202998 112.25531 
L 133.559465 112.10892 
L 133.91462 111.959832 
L 134.268426 111.808049 
L 134.620841 111.653575 
L 134.971828 111.496414 
L 135.321346 111.33657 
L 135.669357 111.174049 
L 136.01582 111.008855 
L 136.360698 110.840995 
L 136.703951 110.670475 
L 137.045539 110.497301 
L 137.385425 110.321481 
L 137.723569 110.143022 
L 138.059932 109.961932 
L 138.394476 109.77822 
L 138.727162 109.591894 
L 139.057952 109.402964 
L 139.386807 109.21144 
L 139.713689 109.017331 
L 140.038561 108.820649 
L 140.361383 108.621404 
L 140.682119 108.419608 
L 141.000731 108.215273 
L 141.317181 108.008411 
L 141.631431 107.799034 
L 141.943446 107.587157 
L 142.253187 107.372793 
L 142.560619 107.155955 
L 142.865703 106.936658 
L 143.168405 106.714918 
L 143.468688 106.490748 
L 143.766516 106.264166 
L 144.061853 106.035186 
L 144.354664 105.803826 
L 144.644913 105.570103 
L 144.932565 105.334034 
L 145.217587 105.095636 
" clip-path="url(#p4029389801)" style="fill: none; stroke: #ffffff; stroke-width: 7.8; stroke-linecap: round"/>
   </g>
   <g id="line2d_20">
    <path d="M 117.306418 89.051216 
L 117.461836 88.850232 
L 117.617583 88.648594 
L 117.773648 88.446289 
L 117.930023 88.243302 
L 118.086697 88.03962 
L 118.24366 87.835228 
L 118.400902 87.630113 
L 118.55841 87.424261 
L 118.716173 87.217658 
L 118.87418 87.010292 
L 119.032417 86.802148 
L 119.190874 86.593214 
L 119.349535 86.383476 
L 119.508389 86.172921 
L 119.66742 85.961537 
L 119.826616 85.749311 
L 119.985961 85.53623 
L 120.145441 85.322281 
L 120.30504 85.107453 
L 120.464744 84.891733 
L 120.624535 84.675109 
L 120.784398 84.45757 
L 120.944316 84.239104 
L 121.104272 84.019698 
L 121.264249 83.799343 
L 121.42423 83.578027 
L 121.584195 83.355739 
L 121.744128 83.132468 
L 121.90401 82.908205 
L 122.063821 82.682937 
L 122.223542 82.456656 
L 122.383154 82.229352 
L 122.542637 82.001014 
L 122.701971 81.771634 
L 122.861135 81.541202 
L 123.020109 81.309709 
L 123.178871 81.077147 
L 123.337401 80.843507 
L 123.495676 80.60878 
L 123.653674 80.372959 
L 123.811374 80.136036 
L 123.968753 79.898004 
L 124.125789 79.658855 
L 124.282457 79.418582 
L 124.438736 79.177179 
L 124.594601 78.934638 
L 124.750029 78.690955 
L 124.904996 78.446123 
L 125.059477 78.200137 
L 125.213448 77.95299 
L 125.366885 77.704679 
L 125.519762 77.455199 
L 125.672054 77.204544 
L 125.823737 76.952712 
" clip-path="url(#p4029389801)" style="fill: none; stroke: #ffffff; stroke-width: 7.8; stroke-linecap: round"/>
   </g>
   <g id="line2d_21">
    <path d="M 120.624535 84.675109 
L 120.784398 84.45757 
L 120.944316 84.239104 
L 121.104272 84.019698 
L 121.264249 83.799343 
L 121.42423 83.578027 
L 121.584195 83.355739 
L 121.744128 83.132468 
L 121.90401 82.908205 
L 122.063821 82.682937 
L 122.223542 82.456656 
L 122.383154 82.229352 
L 122.542637 82.001014 
L 122.701971 81.771634 
L 122.861135 81.541202 
L 123.020109 81.309709 
L 123.178871 81.077147 
L 123.337401 80.843507 
L 123.495676 80.60878 
L 123.653674 80.372959 
L 123.811374 80.136036 
L 123.968753 79.898004 
L 124.125789 79.658855 
L 124.282457 79.418582 
L 124.438736 79.177179 
L 124.594601 78.934638 
L 124.750029 78.690955 
L 124.904996 78.446123 
L 125.059477 78.200137 
L 125.213448 77.95299 
L 125.366885 77.704679 
L 125.519762 77.455199 
L 125.672054 77.204544 
L 125.823737 76.952712 
L 125.974783 76.699698 
L 126.125169 76.445498 
L 126.274867 76.190111 
L 126.423851 75.933531 
L 126.572096 75.675758 
L 126.719574 75.416789 
L 126.866259 75.156622 
L 127.012125 74.895255 
L 127.157143 74.632687 
L 127.301287 74.368918 
L 127.44453 74.103946 
L 127.586843 73.837771 
L 127.7282 73.570395 
L 127.868572 73.301815 
L 128.007933 73.032035 
L 128.146252 72.761055 
L 128.283504 72.488875 
L 128.419658 72.215499 
L 128.554688 71.940928 
L 128.688564 71.665165 
L 128.821258 71.388213 
" clip-path="url(#p4029389801)" style="fill: none; stroke: #ffffff; stroke-width: 7.8; stroke-linecap: round"/>
   </g>
   <g id="line2d_22">
    <path d="M 116.228382 90.441001 
L 116.381275 90.244192 
L 116.53455 90.04683 
L 116.6882 89.848901 
L 116.84222 89.650389 
L 116.996602 89.45128 
L 117.151337 89.251561 
L 117.306418 89.051216 
L 117.461836 88.850232 
L 117.617583 88.648594 
L 117.773648 88.446289 
L 117.930023 88.243302 
L 118.086697 88.03962 
L 118.24366 87.835228 
L 118.400902 87.630113 
L 118.55841 87.424261 
L 118.716173 87.217658 
L 118.87418 87.010292 
L 119.032417 86.802148 
L 119.190874 86.593214 
L 119.349535 86.383476 
L 119.508389 86.172921 
L 119.66742 85.961537 
L 119.826616 85.749311 
L 119.985961 85.53623 
L 120.145441 85.322281 
L 120.30504 85.107453 
L 120.464744 84.891733 
L 120.624535 84.675109 
L 120.784398 84.45757 
L 120.944316 84.239104 
L 121.104272 84.019698 
L 121.264249 83.799343 
L 121.42423 83.578027 
L 121.584195 83.355739 
L 121.744128 83.132468 
L 121.90401 82.908205 
L 122.063821 82.682937 
L 122.223542 82.456656 
L 122.383154 82.229352 
L 122.542637 82.001014 
L 122.701971 81.771634 
L 122.861135 81.541202 
L 123.020109 81.309709 
L 123.178871 81.077147 
L 123.337401 80.843507 
L 123.495676 80.60878 
L 123.653674 80.372959 
L 123.811374 80.136036 
L 123.968753 79.898004 
L 124.125789 79.658855 
L 124.282457 79.418582 
L 124.438736 79.177179 
L 124.594601 78.934638 
L 124.750029 78.690955 
" clip-path="url(#p4029389801)" style="fill: none; stroke: #ffffff; stroke-width: 7.8; stroke-linecap: round"/>
   </g>
   <g id="line2d_23">
    <path d="M 119.508389 86.172921 
L 119.66742 85.961537 
L 119.826616 85.749311 
L 119.985961 85.53623 
L 120.145441 85.322281 
L 120.30504 85.107453 
L 120.464744 84.891733 
L 120.624535 84.675109 
L 120.784398 84.45757 
L 120.944316 84.239104 
L 121.104272 84.019698 
L 121.264249 83.799343 
L 121.42423 83.578027 
L 121.584195 83.355739 
L 121.744128 83.132468 
L 121.90401 82.908205 
L 122.063821 82.682937 
L 122.223542 82.456656 
L 122.383154 82.229352 
L 122.542637 82.001014 
L 122.701971 81.771634 
L 122.861135 81.541202 
L 123.020109 81.309709 
L 123.178871 81.077147 
L 123.337401 80.843507 
L 123.495676 80.60878 
L 123.653674 80.372959 
L 123.811374 80.136036 
L 123.968753 79.898004 
L 124.125789 79.658855 
L 124.282457 79.418582 
L 124.438736 79.177179 
L 124.594601 78.934638 
L 124.750029 78.690955 
L 124.904996 78.446123 
L 125.059477 78.200137 
L 125.213448 77.95299 
L 125.366885 77.704679 
L 125.519762 77.455199 
L 125.672054 77.204544 
L 125.823737 76.952712 
L 125.974783 76.699698 
L 126.125169 76.445498 
L 126.274867 76.190111 
L 126.423851 75.933531 
L 126.572096 75.675758 
L 126.719574 75.416789 
L 126.866259 75.156622 
L 127.012125 74.895255 
L 127.157143 74.632687 
L 127.301287 74.368918 
L 127.44453 74.103946 
L 127.586843 73.837771 
L 127.7282 73.570395 
L 127.868572 73.301815 
" clip-path="url(#p4029389801)" style="fill: none; stroke: #ffffff; stroke-width: 7.8; stroke-linecap: round"/>
   </g>
   <g id="line2d_24">
    <path d="M 76.159037 32.70829 
L 75.838583 32.614938 
L 75.51652 32.523983 
L 75.192862 32.435451 
L 74.867625 32.349369 
L 74.540822 32.265764 
L 74.212471 32.184662 
L 73.882586 32.10609 
L 73.551184 32.030073 
L 73.218282 31.956638 
L 72.883896 31.88581 
L 72.548046 31.817614 
L 72.210749 31.752078 
L 71.872023 31.689225 
L 71.531887 31.62908 
L 71.190361 31.571669 
L 70.847464 31.517016 
L 70.503217 31.465146 
L 70.157641 31.416082 
L 69.810756 31.369848 
L 69.462584 31.326469 
L 69.113147 31.285968 
L 68.762466 31.248367 
L 68.410565 31.21369 
L 68.057468 31.18196 
L 67.703196 31.153199 
L 67.347774 31.12743 
L 66.991227 31.104673 
L 66.633578 31.084951 
L 66.274854 31.068285 
L 65.915079 31.054696 
L 65.554279 31.044205 
L 65.192481 31.036832 
L 64.82971 31.032598 
L 64.465994 31.031521 
L 64.10136 31.033623 
L 63.735836 31.038921 
L 63.369449 31.047436 
L 63.002228 31.059184 
L 62.634202 31.074185 
L 62.2654 31.092456 
L 61.89585 31.114015 
L 61.525583 31.138879 
L 61.154628 31.167065 
L 60.783017 31.198589 
L 60.410779 31.233467 
L 60.037946 31.271715 
L 59.664548 31.313348 
L 59.290618 31.358381 
L 58.916187 31.406829 
L 58.541288 31.458706 
L 58.165953 31.514026 
L 57.790215 31.572801 
L 57.414106 31.635045 
L 57.03766 31.700771 
" clip-path="url(#p4029389801)" style="fill: none; stroke: #ffffff; stroke-width: 7.8; stroke-linecap: round"/>
   </g>
   <g id="line2d_25">
    <path d="M 69.113147 31.285968 
L 68.762466 31.248367 
L 68.410565 31.21369 
L 68.057468 31.18196 
L 67.703196 31.153199 
L 67.347774 31.12743 
L 66.991227 31.104673 
L 66.633578 31.084951 
L 66.274854 31.068285 
L 65.915079 31.054696 
L 65.554279 31.044205 
L 65.192481 31.036832 
L 64.82971 31.032598 
L 64.465994 31.031521 
L 64.10136 31.033623 
L 63.735836 31.038921 
L 63.369449 31.047436 
L 63.002228 31.059184 
L 62.634202 31.074185 
L 62.2654 31.092456 
L 61.89585 31.114015 
L 61.525583 31.138879 
L 61.154628 31.167065 
L 60.783017 31.198589 
L 60.410779 31.233467 
L 60.037946 31.271715 
L 59.664548 31.313348 
L 59.290618 31.358381 
L 58.916187 31.406829 
L 58.541288 31.458706 
L 58.165953 31.514026 
L 57.790215 31.572801 
L 57.414106 31.635045 
L 57.03766 31.700771 
L 56.660911 31.769991 
L 56.283893 31.842716 
L 55.906639 31.918958 
L 55.529184 31.998727 
L 55.151563 32.082035 
L 54.77381 32.168891 
L 54.39596 32.259305 
L 54.01805 32.353286 
L 53.640114 32.450842 
L 53.262188 32.551983 
L 52.884308 32.656716 
L 52.50651 32.765048 
L 52.128831 32.876987 
L 51.751307 32.992538 
L 51.373975 33.111709 
L 50.996872 33.234504 
L 50.620035 33.360929 
L 50.243502 33.490988 
L 49.867309 33.624686 
L 49.491495 33.762027 
L 49.116097 33.903013 
" clip-path="url(#p4029389801)" style="fill: none; stroke: #ffffff; stroke-width: 7.8; stroke-linecap: round"/>
   </g>
   <g id="line2d_26">
    <path d="M 66.633578 31.084951 
L 66.274854 31.068285 
L 65.915079 31.054696 
L 65.554279 31.044205 
L 65.192481 31.036832 
L 64.82971 31.032598 
L 64.465994 31.031521 
L 64.10136 31.033623 
L 63.735836 31.038921 
L 63.369449 31.047436 
L 63.002228 31.059184 
L 62.634202 31.074185 
L 62.2654 31.092456 
L 61.89585 31.114015 
L 61.525583 31.138879 
L 61.154628 31.167065 
L 60.783017 31.198589 
L 60.410779 31.233467 
L 60.037946 31.271715 
L 59.664548 31.313348 
L 59.290618 31.358381 
L 58.916187 31.406829 
L 58.541288 31.458706 
L 58.165953 31.514026 
L 57.790215 31.572801 
L 57.414106 31.635045 
L 57.03766 31.700771 
L 56.660911 31.769991 
L 56.283893 31.842716 
L 55.906639 31.918958 
L 55.529184 31.998727 
L 55.151563 32.082035 
L 54.77381 32.168891 
L 54.39596 32.259305 
L 54.01805 32.353286 
L 53.640114 32.450842 
L 53.262188 32.551983 
L 52.884308 32.656716 
L 52.50651 32.765048 
L 52.128831 32.876987 
L 51.751307 32.992538 
L 51.373975 33.111709 
L 50.996872 33.234504 
L 50.620035 33.360929 
L 50.243502 33.490988 
L 49.867309 33.624686 
L 49.491495 33.762027 
L 49.116097 33.903013 
L 48.741153 34.047648 
L 48.366701 34.195933 
L 47.992779 34.347872 
L 47.619426 34.503464 
L 47.24668 34.662712 
L 46.874579 34.825615 
L 46.503163 34.992173 
" clip-path="url(#p4029389801)" style="fill: none; stroke: #ffffff; stroke-width: 7.8; stroke-linecap: round"/>
   </g>
   <g id="line2d_27">
    <path d="M 58.916187 31.406829 
L 58.541288 31.458706 
L 58.165953 31.514026 
L 57.790215 31.572801 
L 57.414106 31.635045 
L 57.03766 31.700771 
L 56.660911 31.769991 
L 56.283893 31.842716 
L 55.906639 31.918958 
L 55.529184 31.998727 
L 55.151563 32.082035 
L 54.77381 32.168891 
L 54.39596 32.259305 
L 54.01805 32.353286 
L 53.640114 32.450842 
L 53.262188 32.551983 
L 52.884308 32.656716 
L 52.50651 32.765048 
L 52.128831 32.876987 
L 51.751307 32.992538 
L 51.373975 33.111709 
L 50.996872 33.234504 
L 50.620035 33.360929 
L 50.243502 33.490988 
L 49.867309 33.624686 
L 49.491495 33.762027 
L 49.116097 33.903013 
L 48.741153 34.047648 
L 48.366701 34.195933 
L 47.992779 34.347872 
L 47.619426 34.503464 
L 47.24668 34.662712 
L 46.874579 34.825615 
L 46.503163 34.992173 
L 46.13247 35.162386 
L 45.762538 35.336252 
L 45.393407 35.513771 
L 45.025116 35.694941 
L 44.657703 35.879757 
L 44.291209 36.068219 
L 43.925671 36.260321 
L 43.561129 36.456061 
L 43.197623 36.655433 
L 42.835192 36.858433 
L 42.473875 37.065055 
L 42.113711 37.275294 
L 41.754741 37.489142 
L 41.397002 37.706592 
L 41.040535 37.927638 
L 40.68538 38.152271 
L 40.331574 38.380483 
L 39.979159 38.612265 
L 39.628172 38.847607 
L 39.278654 39.086499 
L 38.930643 39.328931 
" clip-path="url(#p4029389801)" style="fill: none; stroke: #ffffff; stroke-width: 7.8; stroke-linecap: round"/>
   </g>
   <g id="line2d_28">
    <path d="M 87.050478 111.242719 
L 87.3 111.343547 
L 87.551339 111.444041 
L 87.804498 111.544179 
L 88.059479 111.643938 
L 88.316285 111.743293 
L 88.574919 111.842223 
L 88.83538 111.940703 
L 89.097671 112.038709 
L 89.361792 112.136218 
L 89.627744 112.233206 
L 89.895525 112.329649 
L 90.165136 112.425522 
L 90.436575 112.5208 
L 90.709841 112.615461 
L 90.984933 112.709478 
L 91.261847 112.802828 
L 91.540581 112.895484 
L 91.821132 112.987424 
L 92.103496 113.078621 
L 92.38767 113.169051 
L 92.673648 113.258688 
L 92.961426 113.347508 
L 93.250999 113.435484 
L 93.54236 113.522592 
L 93.835504 113.608807 
L 94.130423 113.694103 
L 94.427111 113.778454 
L 94.725561 113.861835 
L 95.025763 113.944221 
L 95.32771 114.025586 
L 95.631393 114.105905 
L 95.936802 114.185151 
L 96.243928 114.2633 
L 96.552761 114.340327 
L 96.863289 114.416204 
L 97.175502 114.490908 
L 97.489388 114.564412 
L 97.804935 114.636691 
L 98.122131 114.70772 
L 98.440963 114.777472 
L 98.761417 114.845924 
L 99.08348 114.91305 
L 99.407138 114.978823 
L 99.732375 115.04322 
L 100.059178 115.106216 
L 100.387529 115.167784 
L 100.717414 115.2279 
L 101.048816 115.28654 
L 101.381718 115.343678 
L 101.716104 115.399291 
L 102.051954 115.453353 
L 102.389251 115.505839 
L 102.727977 115.556727 
L 103.068113 115.605991 
" clip-path="url(#p4029389801)" style="fill: none; stroke: #ffffff; stroke-width: 7.8; stroke-linecap: round"/>
   </g>
   <g id="line2d_29">
    <path d="M 92.673648 113.258688 
L 92.961426 113.347508 
L 93.250999 113.435484 
L 93.54236 113.522592 
L 93.835504 113.608807 
L 94.130423 113.694103 
L 94.427111 113.778454 
L 94.725561 113.861835 
L 95.025763 113.944221 
L 95.32771 114.025586 
L 95.631393 114.105905 
L 95.936802 114.185151 
L 96.243928 114.2633 
L 96.552761 114.340327 
L 96.863289 114.416204 
L 97.175502 114.490908 
L 97.489388 114.564412 
L 97.804935 114.636691 
L 98.122131 114.70772 
L 98.440963 114.777472 
L 98.761417 114.845924 
L 99.08348 114.91305 
L 99.407138 114.978823 
L 99.732375 115.04322 
L 100.059178 115.106216 
L 100.387529 115.167784 
L 100.717414 115.2279 
L 101.048816 115.28654 
L 101.381718 115.343678 
L 101.716104 115.399291 
L 102.051954 115.453353 
L 102.389251 115.505839 
L 102.727977 115.556727 
L 103.068113 115.605991 
L 103.409639 115.653607 
L 103.752536 115.699552 
L 104.096783 115.743802 
L 104.442359 115.786332 
L 104.789244 115.827121 
L 105.137416 115.866144 
L 105.486853 115.903377 
L 105.837534 115.938799 
L 106.189435 115.972387 
L 106.542532 116.004117 
L 106.896804 116.033967 
L 107.252226 116.061915 
L 107.608773 116.08794 
L 107.966422 116.112018 
L 108.325146 116.134129 
L 108.684921 116.154251 
L 109.045721 116.172363 
L 109.407519 116.188444 
L 109.77029 116.202473 
L 110.134006 116.21443 
L 110.49864 116.224294 
" clip-path="url(#p4029389801)" style="fill: none; stroke: #ffffff; stroke-width: 7.8; stroke-linecap: round"/>
   </g>
   <g id="line2d_30">
    <path d="M 87.050478 111.242719 
L 87.3 111.343547 
L 87.551339 111.444041 
L 87.804498 111.544179 
L 88.059479 111.643938 
L 88.316285 111.743293 
L 88.574919 111.842223 
L 88.83538 111.940703 
L 89.097671 112.038709 
L 89.361792 112.136218 
L 89.627744 112.233206 
L 89.895525 112.329649 
L 90.165136 112.425522 
L 90.436575 112.5208 
L 90.709841 112.615461 
L 90.984933 112.709478 
L 91.261847 112.802828 
L 91.540581 112.895484 
L 91.821132 112.987424 
L 92.103496 113.078621 
L 92.38767 113.169051 
L 92.673648 113.258688 
L 92.961426 113.347508 
L 93.250999 113.435484 
L 93.54236 113.522592 
L 93.835504 113.608807 
L 94.130423 113.694103 
L 94.427111 113.778454 
L 94.725561 113.861835 
L 95.025763 113.944221 
L 95.32771 114.025586 
L 95.631393 114.105905 
L 95.936802 114.185151 
L 96.243928 114.2633 
L 96.552761 114.340327 
L 96.863289 114.416204 
L 97.175502 114.490908 
L 97.489388 114.564412 
L 97.804935 114.636691 
L 98.122131 114.70772 
L 98.440963 114.777472 
L 98.761417 114.845924 
L 99.08348 114.91305 
L 99.407138 114.978823 
L 99.732375 115.04322 
L 100.059178 115.106216 
L 100.387529 115.167784 
L 100.717414 115.2279 
L 101.048816 115.28654 
L 101.381718 115.343678 
L 101.716104 115.399291 
L 102.051954 115.453353 
L 102.389251 115.505839 
L 102.727977 115.556727 
L 103.068113 115.605991 
" clip-path="url(#p4029389801)" style="fill: none; stroke: #ffffff; stroke-width: 7.8; stroke-linecap: round"/>
   </g>
   <g id="line2d_31">
    <path d="M 92.673648 113.258688 
L 92.961426 113.347508 
L 93.250999 113.435484 
L 93.54236 113.522592 
L 93.835504 113.608807 
L 94.130423 113.694103 
L 94.427111 113.778454 
L 94.725561 113.861835 
L 95.025763 113.944221 
L 95.32771 114.025586 
L 95.631393 114.105905 
L 95.936802 114.185151 
L 96.243928 114.2633 
L 96.552761 114.340327 
L 96.863289 114.416204 
L 97.175502 114.490908 
L 97.489388 114.564412 
L 97.804935 114.636691 
L 98.122131 114.70772 
L 98.440963 114.777472 
L 98.761417 114.845924 
L 99.08348 114.91305 
L 99.407138 114.978823 
L 99.732375 115.04322 
L 100.059178 115.106216 
L 100.387529 115.167784 
L 100.717414 115.2279 
L 101.048816 115.28654 
L 101.381718 115.343678 
L 101.716104 115.399291 
L 102.051954 115.453353 
L 102.389251 115.505839 
L 102.727977 115.556727 
L 103.068113 115.605991 
L 103.409639 115.653607 
L 103.752536 115.699552 
L 104.096783 115.743802 
L 104.442359 115.786332 
L 104.789244 115.827121 
L 105.137416 115.866144 
L 105.486853 115.903377 
L 105.837534 115.938799 
L 106.189435 115.972387 
L 106.542532 116.004117 
L 106.896804 116.033967 
L 107.252226 116.061915 
L 107.608773 116.08794 
L 107.966422 116.112018 
L 108.325146 116.134129 
L 108.684921 116.154251 
L 109.045721 116.172363 
L 109.407519 116.188444 
L 109.77029 116.202473 
L 110.134006 116.21443 
L 110.49864 116.224294 
" clip-path="url(#p4029389801)" style="fill: none; stroke: #ffffff; stroke-width: 7.8; stroke-linecap: round"/>
   </g>
   <g id="line2d_32">
    <path d="M 144.644913 105.570103 
L 146.870539 103.617392 
L 148.912746 101.524431 
L 150.755429 99.302539 
L 152.383887 96.964465 
L 153.785002 94.524258 
L 154.947392 91.997114 
L 155.761136 89.727241 
L 156.379679 87.414526 
L 156.799115 85.070686 
L 157.016787 82.707711 
L 157.031317 80.337755 
L 156.84261 77.973036 
L 156.451864 75.625723 
L 155.861555 73.307837 
L 155.075411 71.03114 
L 154.098384 68.807037 
L 152.755954 66.34363 
L 151.183168 63.978659 
L 149.392722 61.726472 
L 147.398938 59.600159 
L 145.217587 57.611408 
L 142.865703 55.770385 
L 140.361383 54.085639 
L 137.723569 52.564022 
L 134.971828 51.210629 
L 131.764808 49.893201 
L 128.46753 48.794833 
L 125.108505 47.914691 
L 121.715692 47.249179 
L 118.316107 46.792061 
L 114.562054 46.517896 
L 110.864164 46.474998 
L 107.252226 46.645128 
L 103.409639 47.053436 
L 99.732375 47.663823 
L 95.936802 48.521892 
L 92.103496 49.628422 
L 88.316285 50.96375 
L 84.654225 52.486032 
L 80.776971 54.336142 
L 76.04628 56.857243 
L 69.339807 60.432945 
L 65.62994 62.11294 
L 58.979245 65.052487 
L 56.35634 66.500372 
L 54.135256 67.971969 
L 52.057363 69.616626 
L 50.788626 70.77923 
L 50.788626 70.77923 
" clip-path="url(#p4029389801)" style="fill: none; stroke: #2255aa; stroke-width: 2.8; stroke-linecap: round"/>
   </g>
   <g id="line2d_33">
    <path d="M 41.222287 91.643435 
L 41.193126 91.97189 
L 41.166645 92.301925 
L 41.142868 92.633519 
L 41.121818 92.966649 
L 41.103518 93.30129 
L 41.087991 93.63742 
L 41.075259 93.975012 
L 41.065344 94.314043 
L 41.058269 94.654488 
L 41.054055 94.996321 
L 41.052724 95.339516 
L 41.054295 95.684047 
L 41.058791 96.029888 
L 41.066231 96.377011 
L 41.076635 96.725389 
L 41.090022 97.074995 
L 41.106414 97.4258 
L 41.125827 97.777777 
L 41.148281 98.130896 
L 41.173794 98.485129 
L 41.202384 98.840446 
L 41.234068 99.196818 
L 41.268864 99.554214 
L 41.306789 99.912605 
L 41.347858 100.271959 
L 41.392088 100.632247 
L 41.439494 100.993436 
L 41.490093 101.355496 
L 41.543898 101.718393 
L 41.600923 102.082098 
L 41.661184 102.446576 
L 41.724693 102.811795 
L 41.791465 103.177724 
L 41.86151 103.544327 
L 41.934843 103.911573 
L 42.011475 104.279426 
L 42.091417 104.647854 
L 42.17468 105.016823 
L 42.261276 105.386297 
L 42.351213 105.756242 
L 42.444503 106.126623 
L 42.541154 106.497406 
L 42.641175 106.868555 
L 42.744574 107.240034 
L 42.85136 107.611808 
L 42.961539 107.98384 
L 43.07512 108.356096 
L 43.192107 108.728537 
L 43.312508 109.101129 
L 43.436329 109.473834 
L 43.563573 109.846615 
L 43.694246 110.219436 
L 43.828351 110.59226 
L 43.965893 110.965049 
L 44.106875 111.337765 
L 44.2513 111.710371 
L 44.399168 112.08283 
L 44.550483 112.455104 
L 44.705246 112.827155 
L 44.863457 113.198944 
L 45.025116 113.570434 
L 45.190223 113.941586 
L 45.358778 114.312362 
L 45.530779 114.682724 
L 45.706224 115.052633 
L 45.885112 115.422051 
L 46.067438 115.790938 
L 46.253201 116.159257 
" clip-path="url(#p4029389801)" style="fill: none; stroke: #2255aa; stroke-width: 2.8; stroke-linecap: round"/>
   </g>
   <g id="line2d_34">
    <path d="M 70.634465 140.245614 
L 73.929272 141.785935 
L 77.30836 143.105604 
L 80.750734 144.195658 
L 84.23473 145.049034 
L 87.738245 145.660628 
L 91.238968 146.027346 
L 94.714618 146.148123 
L 98.143179 146.023913 
L 101.503134 145.657666 
L 104.773689 145.05427 
L 107.93499 144.220478 
L 110.968329 143.164809 
L 113.856333 141.897427 
L 116.583133 140.430007 
L 119.134521 138.775578 
L 121.498082 136.948352 
L 123.663297 134.963544 
L 125.621632 132.837181 
L 127.366598 130.5859 
L 128.893776 128.226746 
L 130.200832 125.776963 
L 131.287492 123.253793 
L 132.155497 120.674273 
L 132.808535 118.055039 
L 133.252142 115.412139 
L 133.509978 112.429592 
L 133.524741 109.456779 
L 133.311446 106.512326 
L 132.887052 103.612902 
L 132.19054 100.461725 
L 131.283583 97.400636 
L 130.076851 94.152881 
L 128.688564 91.041878 
L 127.012125 87.811789 
L 124.904996 84.26092 
L 122.383154 80.477692 
L 119.190874 76.113829 
L 107.246707 60.191938 
L 104.589284 56.368221 
L 104.589284 56.368221 
" clip-path="url(#p4029389801)" style="fill: none; stroke: #2255aa; stroke-width: 2.8; stroke-linecap: round"/>
   </g>
   <g id="line2d_35">
    <path d="M 92.799931 42.204583 
L 92.590468 42.016164 
L 92.379363 41.828431 
L 92.166603 41.641407 
L 91.952179 41.455117 
L 91.736079 41.269584 
L 91.518293 41.084833 
L 91.298811 40.900888 
L 91.077622 40.717774 
L 90.854719 40.535516 
L 90.630091 40.354139 
L 90.403729 40.173668 
L 90.175627 39.994129 
L 89.945775 39.815547 
L 89.714165 39.637949 
L 89.480791 39.461359 
L 89.245646 39.285805 
L 89.008722 39.111313 
L 88.770014 38.937908 
L 88.529517 38.765618 
L 88.287223 38.59447 
L 88.043129 38.424489 
L 87.79723 38.255704 
L 87.549522 38.088141 
L 87.3 37.921828 
L 87.048661 37.756791 
L 86.795502 37.593059 
L 86.540521 37.430658 
L 86.283715 37.269617 
L 86.025081 37.109964 
L 85.76462 36.951725 
L 85.502329 36.79493 
L 85.238208 36.639605 
L 84.972256 36.48578 
L 84.704475 36.333481 
L 84.434864 36.182738 
L 84.163425 36.033578 
L 83.890159 35.886031 
L 83.615067 35.740123 
L 83.338153 35.595883 
L 83.059419 35.453341 
L 82.778868 35.312523 
L 82.496504 35.173459 
L 82.21233 35.036177 
L 81.926352 34.900705 
L 81.638574 34.767072 
L 81.349001 34.635307 
L 81.05764 34.505436 
L 80.764496 34.37749 
L 80.469577 34.251495 
L 80.172889 34.127481 
L 79.874439 34.005476 
L 79.574237 33.885507 
L 79.27229 33.767604 
L 78.968607 33.651794 
L 78.663198 33.538105 
L 78.356072 33.426565 
L 78.047239 33.317202 
L 77.736711 33.210043 
L 77.424498 33.105118 
L 77.110612 33.002452 
L 76.795065 32.902074 
L 76.477869 32.804011 
L 76.159037 32.70829 
L 75.838583 32.614938 
" clip-path="url(#p4029389801)" style="fill: none; stroke: #2255aa; stroke-width: 2.8; stroke-linecap: round"/>
   </g>
   <g id="line2d_36">
    <path d="M 39.628172 38.847607 
L 36.876431 40.857209 
L 34.238617 43.087601 
L 31.734297 45.530502 
L 29.382413 48.175659 
L 27.463812 50.646571 
L 25.687254 53.253765 
L 24.063478 55.986954 
L 22.602398 58.834914 
L 21.313013 61.785568 
L 20.203323 64.826068 
L 19.280259 67.942886 
L 18.549616 71.121919 
L 18.015998 74.348593 
L 17.682781 77.607968 
L 17.552076 80.884858 
L 17.624712 84.16394 
L 17.900228 87.429877 
L 18.376878 90.667431 
L 19.051645 93.861582 
L 19.920272 96.997637 
L 20.977298 100.061349 
L 22.216113 103.039016 
L 23.629014 105.917585 
L 25.207278 108.68475 
L 26.941245 111.329035 
L 29.100058 114.187104 
L 31.431595 116.856726 
L 33.917881 119.32551 
L 36.540068 121.58296 
L 39.278654 123.620544 
L 42.113711 125.43175 
L 45.025116 127.012103 
L 47.992779 128.359172 
L 50.996872 129.47254 
L 54.01805 130.353758 
L 57.03766 131.006272 
L 60.037946 131.435329 
L 63.002228 131.647859 
L 65.915079 131.652348 
L 69.113147 131.421076 
L 72.210749 130.954966 
L 75.192862 130.271592 
L 78.047239 129.389842 
L 80.764496 128.329554 
L 83.615067 126.966921 
L 86.283715 125.437426 
L 88.770014 123.769135 
L 91.298811 121.806156 
L 93.823029 119.550892 
L 96.30413 117.019216 
L 98.718258 114.23967 
L 101.359404 110.852865 
L 104.724046 106.14532 
L 111.278882 96.905723 
L 116.075878 90.63727 
L 116.381275 90.244192 
L 116.381275 90.244192 
" clip-path="url(#p4029389801)" style="fill: none; stroke: #2255aa; stroke-width: 2.8; stroke-linecap: round"/>
   </g>
   <g id="line2d_37">
    <path d="M 128.554688 71.940928 
L 128.688564 71.665165 
L 128.821258 71.388213 
L 128.952741 71.110074 
L 129.082985 70.830753 
L 129.211961 70.550253 
L 129.339639 70.268579 
L 129.465992 69.985735 
L 129.59099 69.701727 
L 129.714603 69.41656 
L 129.836804 69.130239 
L 129.957563 68.842771 
L 130.076851 68.554162 
L 130.194638 68.26442 
L 130.310896 67.973551 
L 130.425595 67.681562 
L 130.538707 67.388463 
L 130.650201 67.094261 
L 130.76005 66.798965 
L 130.868223 66.502584 
L 130.974692 66.205128 
L 131.079428 65.906606 
L 131.182401 65.607029 
L 131.283583 65.306407 
L 131.382944 65.004751 
L 131.480456 64.702073 
L 131.576091 64.398384 
" clip-path="url(#p4029389801)" style="fill: none; stroke: #2255aa; stroke-width: 2.8; stroke-linecap: round"/>
   </g>
   <g id="line2d_38">
    <path d="M 131.855426 41.059913 
L 130.905754 38.49955 
L 129.736543 36.001888 
L 128.346799 33.584066 
L 126.737566 31.263349 
L 124.911957 29.056933 
L 122.87517 26.981732 
L 120.634468 25.054178 
L 118.199135 23.290018 
L 115.580413 21.704111 
L 112.791405 20.310248 
L 109.846957 19.120968 
L 106.76352 18.147398 
L 103.55899 17.399098 
L 100.252529 16.88394 
L 96.864366 16.607986 
L 93.415593 16.575407 
L 89.927942 16.788408 
L 86.423554 17.247189 
L 82.92475 17.949922 
L 79.45379 18.892757 
L 76.032641 20.069848 
L 72.682741 21.473411 
L 69.424779 23.093794 
L 66.278475 24.919585 
L 63.262382 26.937723 
L 60.393694 29.133648 
L 57.688079 31.491454 
L 55.159528 33.994064 
L 52.820225 36.623422 
L 50.680445 39.360693 
L 48.748468 42.186466 
L 47.030527 45.080976 
L 45.530779 48.024319 
L 44.2513 50.996672 
L 43.192107 53.978506 
L 42.351213 56.950801 
L 41.724693 59.895248 
L 41.268864 63.152829 
L 41.066231 66.330033 
L 41.103518 69.405753 
L 41.365252 72.36117 
L 41.834085 75.179964 
L 42.491148 77.848494 
L 43.417599 80.624207 
L 44.523149 83.190415 
L 45.778742 85.540877 
L 47.15547 87.673751 
L 48.776263 89.771614 
L 50.474211 91.61807 
L 52.376458 93.362558 
L 54.454559 94.96318 
L 56.669977 96.394591 
L 59.280622 97.805035 
L 62.482878 99.266435 
L 70.010716 102.604959 
L 74.14171 104.797638 
L 81.592236 108.778952 
L 85.591278 110.63201 
L 87.3 111.343547 
L 87.3 111.343547 
" clip-path="url(#p4029389801)" style="fill: none; stroke: #2255aa; stroke-width: 2.8; stroke-linecap: round"/>
   </g>
   <g id="line2d_39">
    <path d="M 109.77029 116.202473 
L 110.134006 116.21443 
L 110.49864 116.224294 
L 110.864164 116.232046 
L 111.230551 116.237665 
L 111.597772 116.241132 
L 111.965798 116.242428 
L 112.3346 116.241534 
L 112.70415 116.238431 
L 113.074417 116.233101 
L 113.445372 116.225525 
L 113.816983 116.215686 
L 114.189221 116.203566 
L 114.562054 116.189148 
L 114.935452 116.172414 
L 115.309382 116.153349 
L 115.683813 116.131935 
L 116.058712 116.108158 
L 116.434047 116.082 
L 116.809785 116.053447 
L 117.185894 116.022483 
L 117.56234 115.989094 
L 117.939089 115.953265 
L 118.316107 115.914982 
L 118.693361 115.874232 
L 119.070816 115.831001 
L 119.448437 115.785276 
" clip-path="url(#p4029389801)" style="fill: none; stroke: #2255aa; stroke-width: 2.8; stroke-linecap: round"/>
   </g>
   <g id="line2d_40">
    <path d="M 144.644913 57.13694 
L 144.354664 56.903217 
L 144.061853 56.671857 
L 143.766516 56.442878 
L 143.468688 56.216295 
L 143.168405 55.992126 
L 142.865703 55.770385 
L 142.560619 55.551088 
L 142.253187 55.334251 
L 141.943446 55.119886 
L 141.631431 54.908009 
L 141.317181 54.698633 
L 141.000731 54.491771 
L 140.682119 54.287435 
L 140.361383 54.085639 
L 140.038561 53.886395 
L 139.713689 53.689712 
L 139.386807 53.495604 
L 139.057952 53.304079 
L 138.727162 53.115149 
L 138.394476 52.928824 
L 138.059932 52.745111 
L 137.723569 52.564022 
L 137.385425 52.385562 
L 137.045539 52.209742 
L 136.703951 52.036568 
L 136.360698 51.866048 
L 136.01582 51.698188 
L 135.669357 51.532994 
L 135.321346 51.370473 
L 134.971828 51.210629 
L 134.620841 51.053468 
L 134.268426 50.898994 
L 133.91462 50.747212 
L 133.559465 50.598124 
L 133.202998 50.451733 
L 132.845259 50.308044 
L 132.486289 50.167058 
L 132.126125 50.028776 
L 131.764808 49.893201 
L 131.402377 49.760333 
L 131.038871 49.630174 
L 130.674329 49.502722 
L 130.308791 49.377978 
L 129.942297 49.255941 
L 129.574884 49.13661 
L 129.206593 49.019983 
L 128.837462 48.906058 
L 128.46753 48.794833 
L 128.096837 48.686305 
" clip-path="url(#p4029389801)" style="fill: none; stroke: #2255aa; stroke-width: 2.8; stroke-linecap: round"/>
   </g>
   <g id="line2d_41">
    <path d="M 144.644913 57.13694 
L 144.354664 56.903217 
L 144.061853 56.671857 
L 143.766516 56.442878 
L 143.468688 56.216295 
L 143.168405 55.992126 
L 142.865703 55.770385 
L 142.560619 55.551088 
L 142.253187 55.334251 
L 141.943446 55.119886 
L 141.631431 54.908009 
L 141.317181 54.698633 
L 141.000731 54.491771 
L 140.682119 54.287435 
L 140.361383 54.085639 
L 140.038561 53.886395 
L 139.713689 53.689712 
L 139.386807 53.495604 
L 139.057952 53.304079 
L 138.727162 53.115149 
L 138.394476 52.928824 
L 138.059932 52.745111 
L 137.723569 52.564022 
L 137.385425 52.385562 
L 137.045539 52.209742 
L 136.703951 52.036568 
L 136.360698 51.866048 
L 136.01582 51.698188 
L 135.669357 51.532994 
L 135.321346 51.370473 
L 134.971828 51.210629 
L 134.620841 51.053468 
L 134.268426 50.898994 
L 133.91462 50.747212 
L 133.559465 50.598124 
L 133.202998 50.451733 
L 132.845259 50.308044 
L 132.486289 50.167058 
L 132.126125 50.028776 
L 131.764808 49.893201 
L 131.402377 49.760333 
L 131.038871 49.630174 
L 130.674329 49.502722 
L 130.308791 49.377978 
L 129.942297 49.255941 
L 129.574884 49.13661 
L 129.206593 49.019983 
L 128.837462 48.906058 
L 128.46753 48.794833 
L 128.096837 48.686305 
" clip-path="url(#p4029389801)" style="fill: none; stroke: #2255aa; stroke-width: 2.8; stroke-linecap: round"/>
   </g>
   <g id="line2d_42">
    <path d="M 138.059932 52.745111 
L 137.723569 52.564022 
L 137.385425 52.385562 
L 137.045539 52.209742 
L 136.703951 52.036568 
L 136.360698 51.866048 
L 136.01582 51.698188 
L 135.669357 51.532994 
L 135.321346 51.370473 
L 134.971828 51.210629 
L 134.620841 51.053468 
L 134.268426 50.898994 
L 133.91462 50.747212 
L 133.559465 50.598124 
L 133.202998 50.451733 
L 132.845259 50.308044 
L 132.486289 50.167058 
L 132.126125 50.028776 
L 131.764808 49.893201 
L 131.402377 49.760333 
L 131.038871 49.630174 
L 130.674329 49.502722 
L 130.308791 49.377978 
L 129.942297 49.255941 
L 129.574884 49.13661 
L 129.206593 49.019983 
L 128.837462 48.906058 
L 128.46753 48.794833 
L 128.096837 48.686305 
L 127.725421 48.580471 
L 127.35332 48.477327 
L 126.980574 48.376869 
L 126.607221 48.279092 
L 126.233299 48.183991 
L 125.858847 48.091561 
L 125.483903 48.001797 
L 125.108505 47.914691 
L 124.732691 47.830238 
L 124.356498 47.748431 
L 123.979965 47.669261 
L 123.603128 47.592722 
L 123.226025 47.518805 
L 122.848693 47.447501 
L 122.471169 47.378802 
L 122.09349 47.312698 
L 121.715692 47.249179 
L 121.337812 47.188236 
L 120.959886 47.129857 
L 120.58195 47.074032 
L 120.20404 47.02075 
" clip-path="url(#p4029389801)" style="fill: none; stroke: #2255aa; stroke-width: 2.8; stroke-linecap: round"/>
   </g>
   <g id="line2d_43">
    <path d="M 112.3346 46.46551 
L 111.965798 46.464615 
L 111.597772 46.465911 
L 111.230551 46.469379 
L 110.864164 46.474998 
L 110.49864 46.482749 
L 110.134006 46.492613 
L 109.77029 46.50457 
L 109.407519 46.518599 
L 109.045721 46.53468 
L 108.684921 46.552792 
L 108.325146 46.572914 
L 107.966422 46.595025 
L 107.608773 46.619104 
L 107.252226 46.645128 
L 106.896804 46.673076 
L 106.542532 46.702927 
L 106.189435 46.734657 
L 105.837534 46.768244 
L 105.486853 46.803666 
L 105.137416 46.8409 
L 104.789244 46.879923 
L 104.442359 46.920711 
L 104.096783 46.963242 
L 103.752536 47.007491 
L 103.409639 47.053436 
L 103.068113 47.101053 
L 102.727977 47.150317 
L 102.389251 47.201204 
L 102.051954 47.253691 
L 101.716104 47.307753 
L 101.381718 47.363365 
L 101.048816 47.420503 
L 100.717414 47.479143 
L 100.387529 47.53926 
L 100.059178 47.600828 
L 99.732375 47.663823 
L 99.407138 47.72822 
L 99.08348 47.793994 
L 98.761417 47.861119 
L 98.440963 47.929571 
L 98.122131 47.999324 
L 97.804935 48.070352 
L 97.489388 48.142632 
L 97.175502 48.216136 
L 96.863289 48.290839 
L 96.552761 48.366717 
L 96.243928 48.443743 
L 95.936802 48.521892 
L 95.631393 48.601139 
" clip-path="url(#p4029389801)" style="fill: none; stroke: #2255aa; stroke-width: 2.8; stroke-linecap: round"/>
   </g>
   <g id="line2d_44">
    <path d="M 109.77029 46.50457 
L 109.407519 46.518599 
L 109.045721 46.53468 
L 108.684921 46.552792 
L 108.325146 46.572914 
L 107.966422 46.595025 
L 107.608773 46.619104 
L 107.252226 46.645128 
L 106.896804 46.673076 
L 106.542532 46.702927 
L 106.189435 46.734657 
L 105.837534 46.768244 
L 105.486853 46.803666 
L 105.137416 46.8409 
L 104.789244 46.879923 
L 104.442359 46.920711 
L 104.096783 46.963242 
L 103.752536 47.007491 
L 103.409639 47.053436 
L 103.068113 47.101053 
L 102.727977 47.150317 
L 102.389251 47.201204 
L 102.051954 47.253691 
L 101.716104 47.307753 
L 101.381718 47.363365 
L 101.048816 47.420503 
L 100.717414 47.479143 
L 100.387529 47.53926 
L 100.059178 47.600828 
L 99.732375 47.663823 
L 99.407138 47.72822 
L 99.08348 47.793994 
L 98.761417 47.861119 
L 98.440963 47.929571 
L 98.122131 47.999324 
L 97.804935 48.070352 
L 97.489388 48.142632 
L 97.175502 48.216136 
L 96.863289 48.290839 
L 96.552761 48.366717 
L 96.243928 48.443743 
L 95.936802 48.521892 
L 95.631393 48.601139 
L 95.32771 48.681457 
L 95.025763 48.762822 
L 94.725561 48.845208 
L 94.427111 48.92859 
L 94.130423 49.012941 
L 93.835504 49.098236 
L 93.54236 49.184451 
" clip-path="url(#p4029389801)" style="fill: none; stroke: #2255aa; stroke-width: 2.8; stroke-linecap: round"/>
   </g>
   <g id="line2d_45">
    <path d="M 104.789244 46.879923 
L 104.442359 46.920711 
L 104.096783 46.963242 
L 103.752536 47.007491 
L 103.409639 47.053436 
L 103.068113 47.101053 
L 102.727977 47.150317 
L 102.389251 47.201204 
L 102.051954 47.253691 
L 101.716104 47.307753 
L 101.381718 47.363365 
L 101.048816 47.420503 
L 100.717414 47.479143 
L 100.387529 47.53926 
L 100.059178 47.600828 
L 99.732375 47.663823 
L 99.407138 47.72822 
L 99.08348 47.793994 
L 98.761417 47.861119 
L 98.440963 47.929571 
L 98.122131 47.999324 
L 97.804935 48.070352 
L 97.489388 48.142632 
L 97.175502 48.216136 
L 96.863289 48.290839 
L 96.552761 48.366717 
L 96.243928 48.443743 
L 95.936802 48.521892 
L 95.631393 48.601139 
L 95.32771 48.681457 
L 95.025763 48.762822 
L 94.725561 48.845208 
L 94.427111 48.92859 
L 94.130423 49.012941 
L 93.835504 49.098236 
L 93.54236 49.184451 
L 93.250999 49.271559 
L 92.961426 49.359536 
L 92.673648 49.448355 
L 92.38767 49.537993 
L 92.103496 49.628422 
L 91.821132 49.719619 
L 91.540581 49.811559 
L 91.261847 49.904216 
L 90.984933 49.997565 
L 90.709841 50.091583 
L 90.436575 50.186243 
L 90.165136 50.281522 
L 89.895525 50.377395 
L 89.627744 50.473837 
" clip-path="url(#p4029389801)" style="fill: none; stroke: #2255aa; stroke-width: 2.8; stroke-linecap: round"/>
   </g>
   <g id="line2d_46">
    <path d="M 102.389251 47.201204 
L 102.051954 47.253691 
L 101.716104 47.307753 
L 101.381718 47.363365 
L 101.048816 47.420503 
L 100.717414 47.479143 
L 100.387529 47.53926 
L 100.059178 47.600828 
L 99.732375 47.663823 
L 99.407138 47.72822 
L 99.08348 47.793994 
L 98.761417 47.861119 
L 98.440963 47.929571 
L 98.122131 47.999324 
L 97.804935 48.070352 
L 97.489388 48.142632 
L 97.175502 48.216136 
L 96.863289 48.290839 
L 96.552761 48.366717 
L 96.243928 48.443743 
L 95.936802 48.521892 
L 95.631393 48.601139 
L 95.32771 48.681457 
L 95.025763 48.762822 
L 94.725561 48.845208 
L 94.427111 48.92859 
L 94.130423 49.012941 
L 93.835504 49.098236 
L 93.54236 49.184451 
L 93.250999 49.271559 
L 92.961426 49.359536 
L 92.673648 49.448355 
L 92.38767 49.537993 
L 92.103496 49.628422 
L 91.821132 49.719619 
L 91.540581 49.811559 
L 91.261847 49.904216 
L 90.984933 49.997565 
L 90.709841 50.091583 
L 90.436575 50.186243 
L 90.165136 50.281522 
L 89.895525 50.377395 
L 89.627744 50.473837 
L 89.361792 50.570825 
L 89.097671 50.668334 
L 88.83538 50.76634 
L 88.574919 50.86482 
L 88.316285 50.96375 
L 88.059479 51.063106 
L 87.804498 51.162864 
" clip-path="url(#p4029389801)" style="fill: none; stroke: #2255aa; stroke-width: 2.8; stroke-linecap: round"/>
   </g>
   <g id="line2d_47">
    <path d="M 41.066231 66.330033 
L 41.058791 66.677156 
L 41.054295 67.022996 
L 41.052724 67.367527 
L 41.054055 67.710722 
L 41.058269 68.052555 
L 41.065344 68.393 
L 41.075259 68.732031 
L 41.087991 69.069624 
L 41.103518 69.405753 
L 41.121818 69.740394 
L 41.142868 70.073524 
L 41.166645 70.405118 
L 41.193126 70.735154 
L 41.222287 71.063608 
L 41.254105 71.390459 
L 41.288554 71.715684 
L 41.325611 72.039261 
L 41.365252 72.36117 
L 41.407451 72.681389 
L 41.452183 72.999898 
L 41.499423 73.316678 
L 41.549145 73.631709 
L 41.601324 73.94497 
L 41.655934 74.256445 
L 41.712948 74.566114 
L 41.772341 74.873959 
L 41.834085 75.179964 
L 41.898154 75.484111 
L 41.964522 75.786383 
L 42.03316 76.086764 
L 42.104042 76.385239 
L 42.177141 76.681791 
L 42.252429 76.976408 
L 42.329878 77.269073 
L 42.40946 77.559773 
L 42.491148 77.848494 
L 42.574913 78.135223 
L 42.660727 78.419948 
L 42.748562 78.702656 
L 42.83839 78.983335 
L 42.930182 79.261975 
L 43.023909 79.538564 
L 43.119544 79.813091 
L 43.217056 80.085547 
L 43.316417 80.355922 
L 43.417599 80.624207 
L 43.520572 80.890394 
L 43.625308 81.154473 
L 43.731777 81.416438 
" clip-path="url(#p4029389801)" style="fill: none; stroke: #2255aa; stroke-width: 2.8; stroke-linecap: round"/>
   </g>
   <g id="line2d_48">
    <path d="M 41.499423 73.316678 
L 41.549145 73.631709 
L 41.601324 73.94497 
L 41.655934 74.256445 
L 41.712948 74.566114 
L 41.772341 74.873959 
L 41.834085 75.179964 
L 41.898154 75.484111 
L 41.964522 75.786383 
L 42.03316 76.086764 
L 42.104042 76.385239 
L 42.177141 76.681791 
L 42.252429 76.976408 
L 42.329878 77.269073 
L 42.40946 77.559773 
L 42.491148 77.848494 
L 42.574913 78.135223 
L 42.660727 78.419948 
L 42.748562 78.702656 
L 42.83839 78.983335 
L 42.930182 79.261975 
L 43.023909 79.538564 
L 43.119544 79.813091 
L 43.217056 80.085547 
L 43.316417 80.355922 
L 43.417599 80.624207 
L 43.520572 80.890394 
L 43.625308 81.154473 
L 43.731777 81.416438 
L 43.83995 81.67628 
L 43.949799 81.933994 
L 44.061293 82.189572 
L 44.174405 82.443008 
L 44.289104 82.694298 
L 44.405362 82.943435 
L 44.523149 83.190415 
L 44.642437 83.435235 
L 44.763196 83.677889 
L 44.885397 83.918375 
L 45.00901 84.15669 
L 45.134008 84.392831 
L 45.260361 84.626797 
L 45.388039 84.858585 
L 45.517015 85.088195 
L 45.647259 85.315626 
L 45.778742 85.540877 
L 45.911436 85.763949 
L 46.045312 85.984842 
L 46.180342 86.203557 
L 46.316496 86.420095 
" clip-path="url(#p4029389801)" style="fill: none; stroke: #2255aa; stroke-width: 2.8; stroke-linecap: round"/>
   </g>
   <g id="line2d_49">
    <path d="M 41.075259 68.732031 
L 41.087991 69.069624 
L 41.103518 69.405753 
L 41.121818 69.740394 
L 41.142868 70.073524 
L 41.166645 70.405118 
L 41.193126 70.735154 
L 41.222287 71.063608 
L 41.254105 71.390459 
L 41.288554 71.715684 
L 41.325611 72.039261 
L 41.365252 72.36117 
L 41.407451 72.681389 
L 41.452183 72.999898 
L 41.499423 73.316678 
L 41.549145 73.631709 
L 41.601324 73.94497 
L 41.655934 74.256445 
L 41.712948 74.566114 
L 41.772341 74.873959 
L 41.834085 75.179964 
L 41.898154 75.484111 
L 41.964522 75.786383 
L 42.03316 76.086764 
L 42.104042 76.385239 
L 42.177141 76.681791 
L 42.252429 76.976408 
L 42.329878 77.269073 
L 42.40946 77.559773 
L 42.491148 77.848494 
L 42.574913 78.135223 
L 42.660727 78.419948 
L 42.748562 78.702656 
L 42.83839 78.983335 
L 42.930182 79.261975 
L 43.023909 79.538564 
L 43.119544 79.813091 
L 43.217056 80.085547 
L 43.316417 80.355922 
L 43.417599 80.624207 
L 43.520572 80.890394 
L 43.625308 81.154473 
L 43.731777 81.416438 
L 43.83995 81.67628 
L 43.949799 81.933994 
L 44.061293 82.189572 
L 44.174405 82.443008 
L 44.289104 82.694298 
L 44.405362 82.943435 
L 44.523149 83.190415 
" clip-path="url(#p4029389801)" style="fill: none; stroke: #2255aa; stroke-width: 2.8; stroke-linecap: round"/>
   </g>
   <g id="line2d_50">
    <path d="M 41.898154 75.484111 
L 41.964522 75.786383 
L 42.03316 76.086764 
L 42.104042 76.385239 
L 42.177141 76.681791 
L 42.252429 76.976408 
L 42.329878 77.269073 
L 42.40946 77.559773 
L 42.491148 77.848494 
L 42.574913 78.135223 
L 42.660727 78.419948 
L 42.748562 78.702656 
L 42.83839 78.983335 
L 42.930182 79.261975 
L 43.023909 79.538564 
L 43.119544 79.813091 
L 43.217056 80.085547 
L 43.316417 80.355922 
L 43.417599 80.624207 
L 43.520572 80.890394 
L 43.625308 81.154473 
L 43.731777 81.416438 
L 43.83995 81.67628 
L 43.949799 81.933994 
L 44.061293 82.189572 
L 44.174405 82.443008 
L 44.289104 82.694298 
L 44.405362 82.943435 
L 44.523149 83.190415 
L 44.642437 83.435235 
L 44.763196 83.677889 
L 44.885397 83.918375 
L 45.00901 84.15669 
L 45.134008 84.392831 
L 45.260361 84.626797 
L 45.388039 84.858585 
L 45.517015 85.088195 
L 45.647259 85.315626 
L 45.778742 85.540877 
L 45.911436 85.763949 
L 46.045312 85.984842 
L 46.180342 86.203557 
L 46.316496 86.420095 
L 46.453748 86.634459 
L 46.592067 86.84665 
L 46.731428 87.056672 
L 46.8718 87.264527 
L 47.013157 87.470219 
L 47.15547 87.673751 
L 47.298713 87.875129 
" clip-path="url(#p4029389801)" style="fill: none; stroke: #2255aa; stroke-width: 2.8; stroke-linecap: round"/>
   </g>
   <g id="line2d_51">
    <path d="M 43.731777 81.416438 
L 43.83995 81.67628 
L 43.949799 81.933994 
L 44.061293 82.189572 
L 44.174405 82.443008 
L 44.289104 82.694298 
L 44.405362 82.943435 
L 44.523149 83.190415 
L 44.642437 83.435235 
L 44.763196 83.677889 
L 44.885397 83.918375 
L 45.00901 84.15669 
L 45.134008 84.392831 
L 45.260361 84.626797 
L 45.388039 84.858585 
L 45.517015 85.088195 
L 45.647259 85.315626 
L 45.778742 85.540877 
L 45.911436 85.763949 
L 46.045312 85.984842 
L 46.180342 86.203557 
L 46.316496 86.420095 
L 46.453748 86.634459 
L 46.592067 86.84665 
L 46.731428 87.056672 
L 46.8718 87.264527 
L 47.013157 87.470219 
L 47.15547 87.673751 
L 47.298713 87.875129 
L 47.442857 88.074356 
L 47.587875 88.271438 
L 47.733741 88.466381 
L 47.880426 88.65919 
L 48.027904 88.849871 
L 48.176149 89.038432 
L 48.325133 89.224879 
L 48.474831 89.409219 
L 48.625217 89.591462 
L 48.776263 89.771614 
L 48.927946 89.949685 
L 49.080238 90.125684 
L 49.233115 90.299619 
L 49.386552 90.471501 
L 49.540523 90.64134 
L 49.695004 90.809146 
L 49.849971 90.974929 
L 50.005399 91.138702 
L 50.161264 91.300475 
L 50.317543 91.46026 
L 50.474211 91.61807 
" clip-path="url(#p4029389801)" style="fill: none; stroke: #2255aa; stroke-width: 2.8; stroke-linecap: round"/>
   </g>
   <g id="line2d_52">
    <path d="M 39.628172 123.859437 
L 39.979159 124.094778 
L 40.331574 124.32656 
L 40.68538 124.554772 
L 41.040535 124.779405 
L 41.397002 125.000451 
L 41.754741 125.217902 
L 42.113711 125.43175 
L 42.473875 125.641988 
L 42.835192 125.84861 
L 43.197623 126.05161 
L 43.561129 126.250983 
L 43.925671 126.446722 
L 44.291209 126.638825 
L 44.657703 126.827286 
L 45.025116 127.012103 
L 45.393407 127.193272 
L 45.762538 127.370791 
L 46.13247 127.544658 
L 46.503163 127.714871 
L 46.874579 127.881429 
L 47.24668 128.044332 
L 47.619426 128.203579 
L 47.992779 128.359172 
L 48.366701 128.51111 
L 48.741153 128.659396 
L 49.116097 128.80403 
L 49.491495 128.945017 
L 49.867309 129.082357 
L 50.243502 129.216055 
L 50.620035 129.346115 
L 50.996872 129.47254 
L 51.373975 129.595335 
L 51.751307 129.714505 
L 52.128831 129.830057 
L 52.50651 129.941995 
L 52.884308 130.050328 
L 53.262188 130.15506 
L 53.640114 130.256201 
L 54.01805 130.353758 
L 54.39596 130.447739 
L 54.77381 130.538152 
L 55.151563 130.625008 
L 55.529184 130.708316 
L 55.906639 130.788085 
L 56.283893 130.864327 
L 56.660911 130.937052 
L 57.03766 131.006272 
L 57.414106 131.071998 
L 57.790215 131.134242 
" clip-path="url(#p4029389801)" style="fill: none; stroke: #2255aa; stroke-width: 2.8; stroke-linecap: round"/>
   </g>
   <g id="line2d_53">
    <path d="M 47.24668 128.044332 
L 47.619426 128.203579 
L 47.992779 128.359172 
L 48.366701 128.51111 
L 48.741153 128.659396 
L 49.116097 128.80403 
L 49.491495 128.945017 
L 49.867309 129.082357 
L 50.243502 129.216055 
L 50.620035 129.346115 
L 50.996872 129.47254 
L 51.373975 129.595335 
L 51.751307 129.714505 
L 52.128831 129.830057 
L 52.50651 129.941995 
L 52.884308 130.050328 
L 53.262188 130.15506 
L 53.640114 130.256201 
L 54.01805 130.353758 
L 54.39596 130.447739 
L 54.77381 130.538152 
L 55.151563 130.625008 
L 55.529184 130.708316 
L 55.906639 130.788085 
L 56.283893 130.864327 
L 56.660911 130.937052 
L 57.03766 131.006272 
L 57.414106 131.071998 
L 57.790215 131.134242 
L 58.165953 131.193018 
L 58.541288 131.248337 
L 58.916187 131.300214 
L 59.290618 131.348662 
L 59.664548 131.393695 
L 60.037946 131.435329 
L 60.410779 131.473577 
L 60.783017 131.508455 
L 61.154628 131.539978 
L 61.525583 131.568164 
L 61.89585 131.593028 
L 62.2654 131.614587 
L 62.634202 131.632858 
L 63.002228 131.647859 
L 63.369449 131.659608 
L 63.735836 131.668122 
L 64.10136 131.67342 
L 64.465994 131.675522 
L 64.82971 131.674446 
L 65.192481 131.670211 
L 65.554279 131.662839 
" clip-path="url(#p4029389801)" style="fill: none; stroke: #2255aa; stroke-width: 2.8; stroke-linecap: round"/>
   </g>
   <g id="line2d_54">
    <path d="M 47.24668 128.044332 
L 47.619426 128.203579 
L 47.992779 128.359172 
L 48.366701 128.51111 
L 48.741153 128.659396 
L 49.116097 128.80403 
L 49.491495 128.945017 
L 49.867309 129.082357 
L 50.243502 129.216055 
L 50.620035 129.346115 
L 50.996872 129.47254 
L 51.373975 129.595335 
L 51.751307 129.714505 
L 52.128831 129.830057 
L 52.50651 129.941995 
L 52.884308 130.050328 
L 53.262188 130.15506 
L 53.640114 130.256201 
L 54.01805 130.353758 
L 54.39596 130.447739 
L 54.77381 130.538152 
L 55.151563 130.625008 
L 55.529184 130.708316 
L 55.906639 130.788085 
L 56.283893 130.864327 
L 56.660911 130.937052 
L 57.03766 131.006272 
L 57.414106 131.071998 
L 57.790215 131.134242 
L 58.165953 131.193018 
L 58.541288 131.248337 
L 58.916187 131.300214 
L 59.290618 131.348662 
L 59.664548 131.393695 
L 60.037946 131.435329 
L 60.410779 131.473577 
L 60.783017 131.508455 
L 61.154628 131.539978 
L 61.525583 131.568164 
L 61.89585 131.593028 
L 62.2654 131.614587 
L 62.634202 131.632858 
L 63.002228 131.647859 
L 63.369449 131.659608 
L 63.735836 131.668122 
L 64.10136 131.67342 
L 64.465994 131.675522 
L 64.82971 131.674446 
L 65.192481 131.670211 
L 65.554279 131.662839 
" clip-path="url(#p4029389801)" style="fill: none; stroke: #2255aa; stroke-width: 2.8; stroke-linecap: round"/>
   </g>
   <g id="line2d_55">
    <path d="M 55.151563 130.625008 
L 55.529184 130.708316 
L 55.906639 130.788085 
L 56.283893 130.864327 
L 56.660911 130.937052 
L 57.03766 131.006272 
L 57.414106 131.071998 
L 57.790215 131.134242 
L 58.165953 131.193018 
L 58.541288 131.248337 
L 58.916187 131.300214 
L 59.290618 131.348662 
L 59.664548 131.393695 
L 60.037946 131.435329 
L 60.410779 131.473577 
L 60.783017 131.508455 
L 61.154628 131.539978 
L 61.525583 131.568164 
L 61.89585 131.593028 
L 62.2654 131.614587 
L 62.634202 131.632858 
L 63.002228 131.647859 
L 63.369449 131.659608 
L 63.735836 131.668122 
L 64.10136 131.67342 
L 64.465994 131.675522 
L 64.82971 131.674446 
L 65.192481 131.670211 
L 65.554279 131.662839 
L 65.915079 131.652348 
L 66.274854 131.638759 
L 66.633578 131.622093 
L 66.991227 131.602371 
L 67.347774 131.579614 
L 67.703196 131.553844 
L 68.057468 131.525083 
L 68.410565 131.493353 
L 68.762466 131.458676 
L 69.113147 131.421076 
L 69.462584 131.380574 
L 69.810756 131.337195 
L 70.157641 131.290962 
L 70.503217 131.241898 
L 70.847464 131.190027 
L 71.190361 131.135374 
L 71.531887 131.077963 
L 71.872023 131.017819 
L 72.210749 130.954966 
L 72.548046 130.889429 
L 72.883896 130.821234 
" clip-path="url(#p4029389801)" style="fill: none; stroke: #2255aa; stroke-width: 2.8; stroke-linecap: round"/>
   </g>
   <g id="line2d_56">
    <path d="M 130.049517 126.087552 
L 130.200832 125.776963 
L 130.3487 125.465228 
L 130.493125 125.15238 
L 130.634107 124.838453 
L 130.771649 124.52348 
L 130.905754 124.207494 
L 131.036427 123.890529 
L 131.163671 123.572618 
L 131.287492 123.253793 
L 131.407893 122.934089 
L 131.52488 122.613538 
L 131.638461 122.292173 
L 131.74864 121.970026 
L 131.855426 121.64713 
L 131.958825 121.323518 
L 132.058846 120.999221 
L 132.155497 120.674273 
L 132.248787 120.348705 
L 132.338724 120.022549 
L 132.42532 119.695838 
L 132.508583 119.368601 
L 132.588525 119.040872 
L 132.665157 118.712681 
L 132.73849 118.38406 
L 132.808535 118.055039 
L 132.875307 117.725649 
L 132.938816 117.395921 
L 132.999077 117.065885 
L 133.056102 116.735572 
L 133.109907 116.405011 
L 133.160506 116.074232 
L 133.207912 115.743265 
L 133.252142 115.412139 
L 133.293211 115.080884 
L 133.331136 114.749527 
L 133.365932 114.418099 
L 133.397616 114.086627 
L 133.426206 113.75514 
L 133.451719 113.423665 
L 133.474173 113.092231 
L 133.493586 112.760864 
L 133.509978 112.429592 
L 133.523365 112.098442 
L 133.533769 111.767441 
L 133.541209 111.436615 
L 133.545705 111.10599 
L 133.547276 110.775592 
L 133.545945 110.445447 
L 133.541731 110.11558 
" clip-path="url(#p4029389801)" style="fill: none; stroke: #2255aa; stroke-width: 2.8; stroke-linecap: round"/>
   </g>
   <g id="line2d_57">
    <path d="M 132.508583 119.368601 
L 132.588525 119.040872 
L 132.665157 118.712681 
L 132.73849 118.38406 
L 132.808535 118.055039 
L 132.875307 117.725649 
L 132.938816 117.395921 
L 132.999077 117.065885 
L 133.056102 116.735572 
L 133.109907 116.405011 
L 133.160506 116.074232 
L 133.207912 115.743265 
L 133.252142 115.412139 
L 133.293211 115.080884 
L 133.331136 114.749527 
L 133.365932 114.418099 
L 133.397616 114.086627 
L 133.426206 113.75514 
L 133.451719 113.423665 
L 133.474173 113.092231 
L 133.493586 112.760864 
L 133.509978 112.429592 
L 133.523365 112.098442 
L 133.533769 111.767441 
L 133.541209 111.436615 
L 133.545705 111.10599 
L 133.547276 110.775592 
L 133.545945 110.445447 
L 133.541731 110.11558 
L 133.534656 109.786016 
L 133.524741 109.456779 
L 133.512009 109.127895 
L 133.496482 108.799386 
L 133.478182 108.471278 
L 133.457132 108.143594 
L 133.433355 107.816356 
L 133.406874 107.489588 
L 133.377713 107.163312 
L 133.345895 106.837551 
L 133.311446 106.512326 
L 133.274389 106.18766 
L 133.234748 105.863572 
L 133.192549 105.540085 
L 133.147817 105.217219 
L 133.100577 104.894994 
L 133.050855 104.573431 
L 132.998676 104.252548 
L 132.944066 103.932366 
L 132.887052 103.612902 
L 132.827659 103.294176 
" clip-path="url(#p4029389801)" style="fill: none; stroke: #2255aa; stroke-width: 2.8; stroke-linecap: round"/>
   </g>
   <g id="line2d_58">
    <path d="M 132.508583 119.368601 
L 132.588525 119.040872 
L 132.665157 118.712681 
L 132.73849 118.38406 
L 132.808535 118.055039 
L 132.875307 117.725649 
L 132.938816 117.395921 
L 132.999077 117.065885 
L 133.056102 116.735572 
L 133.109907 116.405011 
L 133.160506 116.074232 
L 133.207912 115.743265 
L 133.252142 115.412139 
L 133.293211 115.080884 
L 133.331136 114.749527 
L 133.365932 114.418099 
L 133.397616 114.086627 
L 133.426206 113.75514 
L 133.451719 113.423665 
L 133.474173 113.092231 
L 133.493586 112.760864 
L 133.509978 112.429592 
L 133.523365 112.098442 
L 133.533769 111.767441 
L 133.541209 111.436615 
L 133.545705 111.10599 
L 133.547276 110.775592 
L 133.545945 110.445447 
L 133.541731 110.11558 
L 133.534656 109.786016 
L 133.524741 109.456779 
L 133.512009 109.127895 
L 133.496482 108.799386 
L 133.478182 108.471278 
L 133.457132 108.143594 
L 133.433355 107.816356 
L 133.406874 107.489588 
L 133.377713 107.163312 
L 133.345895 106.837551 
L 133.311446 106.512326 
L 133.274389 106.18766 
L 133.234748 105.863572 
L 133.192549 105.540085 
L 133.147817 105.217219 
L 133.100577 104.894994 
L 133.050855 104.573431 
L 132.998676 104.252548 
L 132.944066 103.932366 
L 132.887052 103.612902 
L 132.827659 103.294176 
" clip-path="url(#p4029389801)" style="fill: none; stroke: #2255aa; stroke-width: 2.8; stroke-linecap: round"/>
   </g>
   <g id="line2d_59">
    <path d="M 129.465992 92.721308 
L 129.339639 92.438464 
L 129.211961 92.15679 
L 129.082985 91.876291 
L 128.952741 91.59697 
L 128.821258 91.318831 
L 128.688564 91.041878 
L 128.554688 90.766115 
L 128.419658 90.491544 
L 128.283504 90.218168 
L 128.146252 89.945989 
L 128.007933 89.675008 
L 127.868572 89.405228 
L 127.7282 89.136649 
L 127.586843 88.869272 
L 127.44453 88.603098 
L 127.301287 88.338126 
L 127.157143 88.074356 
L 127.012125 87.811789 
L 126.866259 87.550422 
L 126.719574 87.290254 
L 126.572096 87.031285 
L 126.423851 86.773512 
L 126.274867 86.516933 
L 126.125169 86.261545 
L 125.974783 86.007346 
L 125.823737 85.754331 
L 125.672054 85.502499 
L 125.519762 85.251845 
L 125.366885 85.002364 
L 125.213448 84.754053 
L 125.059477 84.506907 
L 124.904996 84.26092 
L 124.750029 84.016088 
L 124.594601 83.772405 
L 124.438736 83.529865 
L 124.282457 83.288461 
L 124.125789 83.048189 
L 123.968753 82.809039 
L 123.811374 82.571007 
L 123.653674 82.334084 
L 123.495676 82.098263 
L 123.337401 81.863537 
L 123.178871 81.629897 
L 123.020109 81.397334 
L 122.861135 81.165842 
L 122.701971 80.93541 
L 122.542637 80.706029 
L 122.383154 80.477692 
L 122.223542 80.250387 
" clip-path="url(#p4029389801)" style="fill: none; stroke: #2255aa; stroke-width: 2.8; stroke-linecap: round"/>
   </g>
   <g id="line2d_60">
    <path d="M 127.586843 88.869272 
L 127.44453 88.603098 
L 127.301287 88.338126 
L 127.157143 88.074356 
L 127.012125 87.811789 
L 126.866259 87.550422 
L 126.719574 87.290254 
L 126.572096 87.031285 
L 126.423851 86.773512 
L 126.274867 86.516933 
L 126.125169 86.261545 
L 125.974783 86.007346 
L 125.823737 85.754331 
L 125.672054 85.502499 
L 125.519762 85.251845 
L 125.366885 85.002364 
L 125.213448 84.754053 
L 125.059477 84.506907 
L 124.904996 84.26092 
L 124.750029 84.016088 
L 124.594601 83.772405 
L 124.438736 83.529865 
L 124.282457 83.288461 
L 124.125789 83.048189 
L 123.968753 82.809039 
L 123.811374 82.571007 
L 123.653674 82.334084 
L 123.495676 82.098263 
L 123.337401 81.863537 
L 123.178871 81.629897 
L 123.020109 81.397334 
L 122.861135 81.165842 
L 122.701971 80.93541 
L 122.542637 80.706029 
L 122.383154 80.477692 
L 122.223542 80.250387 
L 122.063821 80.024106 
L 121.90401 79.798839 
L 121.744128 79.574575 
L 121.584195 79.351304 
L 121.42423 79.129016 
L 121.264249 78.9077 
L 121.104272 78.687345 
L 120.944316 78.46794 
L 120.784398 78.249473 
L 120.624535 78.031934 
L 120.464744 77.81531 
L 120.30504 77.59959 
L 120.145441 77.384762 
L 119.985961 77.170814 
" clip-path="url(#p4029389801)" style="fill: none; stroke: #2255aa; stroke-width: 2.8; stroke-linecap: round"/>
   </g>
   <g id="line2d_61">
    <path d="M 126.572096 87.031285 
L 126.423851 86.773512 
L 126.274867 86.516933 
L 126.125169 86.261545 
L 125.974783 86.007346 
L 125.823737 85.754331 
L 125.672054 85.502499 
L 125.519762 85.251845 
L 125.366885 85.002364 
L 125.213448 84.754053 
L 125.059477 84.506907 
L 124.904996 84.26092 
L 124.750029 84.016088 
L 124.594601 83.772405 
L 124.438736 83.529865 
L 124.282457 83.288461 
L 124.125789 83.048189 
L 123.968753 82.809039 
L 123.811374 82.571007 
L 123.653674 82.334084 
L 123.495676 82.098263 
L 123.337401 81.863537 
L 123.178871 81.629897 
L 123.020109 81.397334 
L 122.861135 81.165842 
L 122.701971 80.93541 
L 122.542637 80.706029 
L 122.383154 80.477692 
L 122.223542 80.250387 
L 122.063821 80.024106 
L 121.90401 79.798839 
L 121.744128 79.574575 
L 121.584195 79.351304 
L 121.42423 79.129016 
L 121.264249 78.9077 
L 121.104272 78.687345 
L 120.944316 78.46794 
L 120.784398 78.249473 
L 120.624535 78.031934 
L 120.464744 77.81531 
L 120.30504 77.59959 
L 120.145441 77.384762 
L 119.985961 77.170814 
L 119.826616 76.957732 
L 119.66742 76.745506 
L 119.508389 76.534122 
L 119.349535 76.323567 
L 119.190874 76.113829 
L 119.032417 75.904895 
L 118.87418 75.696752 
" clip-path="url(#p4029389801)" style="fill: none; stroke: #2255aa; stroke-width: 2.8; stroke-linecap: round"/>
   </g>
   <g id="line2d_62">
    <path d="M 124.438736 83.529865 
L 124.282457 83.288461 
L 124.125789 83.048189 
L 123.968753 82.809039 
L 123.811374 82.571007 
L 123.653674 82.334084 
L 123.495676 82.098263 
L 123.337401 81.863537 
L 123.178871 81.629897 
L 123.020109 81.397334 
L 122.861135 81.165842 
L 122.701971 80.93541 
L 122.542637 80.706029 
L 122.383154 80.477692 
L 122.223542 80.250387 
L 122.063821 80.024106 
L 121.90401 79.798839 
L 121.744128 79.574575 
L 121.584195 79.351304 
L 121.42423 79.129016 
L 121.264249 78.9077 
L 121.104272 78.687345 
L 120.944316 78.46794 
L 120.784398 78.249473 
L 120.624535 78.031934 
L 120.464744 77.81531 
L 120.30504 77.59959 
L 120.145441 77.384762 
L 119.985961 77.170814 
L 119.826616 76.957732 
L 119.66742 76.745506 
L 119.508389 76.534122 
L 119.349535 76.323567 
L 119.190874 76.113829 
L 119.032417 75.904895 
L 118.87418 75.696752 
L 118.716173 75.489385 
L 118.55841 75.282783 
L 118.400902 75.076931 
L 118.24366 74.871816 
L 118.086697 74.667424 
L 117.930023 74.463741 
L 117.773648 74.260754 
L 117.617583 74.058449 
L 117.461836 73.856812 
L 117.306418 73.655828 
L 117.151337 73.455483 
L 116.996602 73.255763 
L 116.84222 73.056655 
L 116.6882 72.858143 
" clip-path="url(#p4029389801)" style="fill: none; stroke: #2255aa; stroke-width: 2.8; stroke-linecap: round"/>
   </g>
   <g id="line2d_63">
    <path d="M 73.51239 21.101785 
L 73.096866 21.285893 
L 72.682741 21.473411 
L 72.270053 21.664319 
L 71.858843 21.858596 
L 71.449149 22.056222 
L 71.04101 22.257173 
L 70.634465 22.461429 
L 70.229553 22.668967 
L 69.826311 22.879763 
L 69.424779 23.093794 
L 69.024992 23.311037 
L 68.626988 23.531468 
L 68.230806 23.755061 
L 67.83648 23.981793 
L 67.444048 24.211637 
L 67.053546 24.444568 
L 66.66501 24.680559 
L 66.278475 24.919585 
L 65.893976 25.161618 
L 65.511548 25.406631 
L 65.131226 25.654597 
L 64.753043 25.905487 
L 64.377034 26.159274 
L 64.003232 26.415928 
L 63.631671 26.675421 
L 63.262382 26.937723 
L 62.895398 27.202805 
L 62.530751 27.470637 
L 62.168473 27.741188 
L 61.808595 28.014427 
L 61.451148 28.290324 
L 61.096162 28.568848 
L 60.743667 28.849967 
L 60.393694 29.133648 
L 60.04627 29.419861 
L 59.701425 29.708572 
L 59.359188 29.999748 
L 59.019587 30.293358 
L 58.682648 30.589367 
L 58.348399 30.887742 
L 58.016867 31.188449 
L 57.688079 31.491454 
L 57.362059 31.796723 
L 57.038833 32.104221 
L 56.718427 32.413914 
L 56.400865 32.725766 
L 56.08617 33.039743 
L 55.774367 33.355808 
L 55.465479 33.673927 
" clip-path="url(#p4029389801)" style="fill: none; stroke: #2255aa; stroke-width: 2.8; stroke-linecap: round"/>
   </g>
   <g id="line2d_64">
    <path d="M 70.634465 22.461429 
L 70.229553 22.668967 
L 69.826311 22.879763 
L 69.424779 23.093794 
L 69.024992 23.311037 
L 68.626988 23.531468 
L 68.230806 23.755061 
L 67.83648 23.981793 
L 67.444048 24.211637 
L 67.053546 24.444568 
L 66.66501 24.680559 
L 66.278475 24.919585 
L 65.893976 25.161618 
L 65.511548 25.406631 
L 65.131226 25.654597 
L 64.753043 25.905487 
L 64.377034 26.159274 
L 64.003232 26.415928 
L 63.631671 26.675421 
L 63.262382 26.937723 
L 62.895398 27.202805 
L 62.530751 27.470637 
L 62.168473 27.741188 
L 61.808595 28.014427 
L 61.451148 28.290324 
L 61.096162 28.568848 
L 60.743667 28.849967 
L 60.393694 29.133648 
L 60.04627 29.419861 
L 59.701425 29.708572 
L 59.359188 29.999748 
L 59.019587 30.293358 
L 58.682648 30.589367 
L 58.348399 30.887742 
L 58.016867 31.188449 
L 57.688079 31.491454 
L 57.362059 31.796723 
L 57.038833 32.104221 
L 56.718427 32.413914 
L 56.400865 32.725766 
L 56.08617 33.039743 
L 55.774367 33.355808 
L 55.465479 33.673927 
L 55.159528 33.994064 
L 54.856536 34.316182 
L 54.556525 34.640245 
L 54.259517 34.966217 
L 53.965532 35.294061 
L 53.674591 35.623741 
L 53.386713 35.955219 
" clip-path="url(#p4029389801)" style="fill: none; stroke: #2255aa; stroke-width: 2.8; stroke-linecap: round"/>
   </g>
   <g id="line2d_65">
    <path d="M 62.530751 27.470637 
L 62.168473 27.741188 
L 61.808595 28.014427 
L 61.451148 28.290324 
L 61.096162 28.568848 
L 60.743667 28.849967 
L 60.393694 29.133648 
L 60.04627 29.419861 
L 59.701425 29.708572 
L 59.359188 29.999748 
L 59.019587 30.293358 
L 58.682648 30.589367 
L 58.348399 30.887742 
L 58.016867 31.188449 
L 57.688079 31.491454 
L 57.362059 31.796723 
L 57.038833 32.104221 
L 56.718427 32.413914 
L 56.400865 32.725766 
L 56.08617 33.039743 
L 55.774367 33.355808 
L 55.465479 33.673927 
L 55.159528 33.994064 
L 54.856536 34.316182 
L 54.556525 34.640245 
L 54.259517 34.966217 
L 53.965532 35.294061 
L 53.674591 35.623741 
L 53.386713 35.955219 
L 53.101918 36.288459 
L 52.820225 36.623422 
L 52.541652 36.960073 
L 52.266217 37.298373 
L 51.993937 37.638285 
L 51.72483 37.979771 
L 51.458911 38.322792 
L 51.196197 38.667312 
L 50.936703 39.013291 
L 50.680445 39.360693 
L 50.427436 39.709477 
L 50.17769 40.059606 
L 49.931222 40.411042 
L 49.688043 40.763746 
L 49.448166 41.117679 
L 49.211604 41.472802 
L 48.978368 41.829077 
L 48.748468 42.186466 
L 48.521915 42.544928 
L 48.298719 42.904426 
L 48.078889 43.26492 
" clip-path="url(#p4029389801)" style="fill: none; stroke: #2255aa; stroke-width: 2.8; stroke-linecap: round"/>
   </g>
   <g id="line2d_66">
    <path d="M 60.04627 29.419861 
L 59.701425 29.708572 
L 59.359188 29.999748 
L 59.019587 30.293358 
L 58.682648 30.589367 
L 58.348399 30.887742 
L 58.016867 31.188449 
L 57.688079 31.491454 
L 57.362059 31.796723 
L 57.038833 32.104221 
L 56.718427 32.413914 
L 56.400865 32.725766 
L 56.08617 33.039743 
L 55.774367 33.355808 
L 55.465479 33.673927 
L 55.159528 33.994064 
L 54.856536 34.316182 
L 54.556525 34.640245 
L 54.259517 34.966217 
L 53.965532 35.294061 
L 53.674591 35.623741 
L 53.386713 35.955219 
L 53.101918 36.288459 
L 52.820225 36.623422 
L 52.541652 36.960073 
L 52.266217 37.298373 
L 51.993937 37.638285 
L 51.72483 37.979771 
L 51.458911 38.322792 
L 51.196197 38.667312 
L 50.936703 39.013291 
L 50.680445 39.360693 
L 50.427436 39.709477 
L 50.17769 40.059606 
L 49.931222 40.411042 
L 49.688043 40.763746 
L 49.448166 41.117679 
L 49.211604 41.472802 
L 48.978368 41.829077 
L 48.748468 42.186466 
L 48.521915 42.544928 
L 48.298719 42.904426 
L 48.078889 43.26492 
L 47.862434 43.626372 
L 47.649363 43.988742 
L 47.439683 44.351992 
L 47.233402 44.716083 
L 47.030527 45.080976 
L 46.831064 45.446631 
L 46.635018 45.813011 
" clip-path="url(#p4029389801)" style="fill: none; stroke: #2255aa; stroke-width: 2.8; stroke-linecap: round"/>
   </g>
   <g id="line2d_67">
    <path d="M 89.714165 123.069095 
L 89.945775 122.891496 
L 90.175627 122.712914 
L 90.403729 122.533375 
L 90.630091 122.352905 
L 90.854719 122.171528 
L 91.077622 121.98927 
L 91.298811 121.806156 
L 91.518293 121.622211 
L 91.736079 121.43746 
L 91.952179 121.251927 
L 92.166603 121.065636 
L 92.379363 120.878613 
L 92.590468 120.69088 
L 92.799931 120.502461 
L 93.007764 120.313379 
L 93.213977 120.123659 
L 93.418584 119.933322 
L 93.621597 119.742392 
L 93.823029 119.550892 
L 94.022893 119.358842 
L 94.221202 119.166266 
L 94.417971 118.973185 
L 94.613213 118.779621 
L 94.806943 118.585595 
L 94.999175 118.391128 
L 95.189924 118.19624 
L 95.379204 118.000953 
L 95.567032 117.805286 
L 95.753423 117.609259 
L 95.938392 117.412893 
L 96.121956 117.216205 
L 96.30413 117.019216 
L 96.484932 116.821944 
L 96.664377 116.624408 
L 96.842483 116.426626 
L 97.019266 116.228615 
L 97.194745 116.030393 
L 97.368936 115.831978 
L 97.541857 115.633387 
L 97.713525 115.434636 
L 97.88396 115.235742 
L 98.053178 115.03672 
L 98.221198 114.837587 
L 98.38804 114.638357 
L 98.55372 114.439047 
L 98.718258 114.23967 
L 98.881673 114.040242 
L 99.043985 113.840776 
L 99.205211 113.641286 
" clip-path="url(#p4029389801)" style="fill: none; stroke: #2255aa; stroke-width: 2.8; stroke-linecap: round"/>
   </g>
   <g id="line2d_68">
    <path d="M 91.298811 121.806156 
L 91.518293 121.622211 
L 91.736079 121.43746 
L 91.952179 121.251927 
L 92.166603 121.065636 
L 92.379363 120.878613 
L 92.590468 120.69088 
L 92.799931 120.502461 
L 93.007764 120.313379 
L 93.213977 120.123659 
L 93.418584 119.933322 
L 93.621597 119.742392 
L 93.823029 119.550892 
L 94.022893 119.358842 
L 94.221202 119.166266 
L 94.417971 118.973185 
L 94.613213 118.779621 
L 94.806943 118.585595 
L 94.999175 118.391128 
L 95.189924 118.19624 
L 95.379204 118.000953 
L 95.567032 117.805286 
L 95.753423 117.609259 
L 95.938392 117.412893 
L 96.121956 117.216205 
L 96.30413 117.019216 
L 96.484932 116.821944 
L 96.664377 116.624408 
L 96.842483 116.426626 
L 97.019266 116.228615 
L 97.194745 116.030393 
L 97.368936 115.831978 
L 97.541857 115.633387 
L 97.713525 115.434636 
L 97.88396 115.235742 
L 98.053178 115.03672 
L 98.221198 114.837587 
L 98.38804 114.638357 
L 98.55372 114.439047 
L 98.718258 114.23967 
L 98.881673 114.040242 
L 99.043985 113.840776 
L 99.205211 113.641286 
L 99.365371 113.441786 
L 99.524485 113.242288 
L 99.682572 113.042806 
L 99.839651 112.843352 
L 99.995743 112.643939 
L 100.150867 112.444577 
L 100.305043 112.245279 
" clip-path="url(#p4029389801)" style="fill: none; stroke: #2255aa; stroke-width: 2.8; stroke-linecap: round"/>
   </g>
   <g id="line2d_69">
    <path d="M 94.221202 119.166266 
L 94.417971 118.973185 
L 94.613213 118.779621 
L 94.806943 118.585595 
L 94.999175 118.391128 
L 95.189924 118.19624 
L 95.379204 118.000953 
L 95.567032 117.805286 
L 95.753423 117.609259 
L 95.938392 117.412893 
L 96.121956 117.216205 
L 96.30413 117.019216 
L 96.484932 116.821944 
L 96.664377 116.624408 
L 96.842483 116.426626 
L 97.019266 116.228615 
L 97.194745 116.030393 
L 97.368936 115.831978 
L 97.541857 115.633387 
L 97.713525 115.434636 
L 97.88396 115.235742 
L 98.053178 115.03672 
L 98.221198 114.837587 
L 98.38804 114.638357 
L 98.55372 114.439047 
L 98.718258 114.23967 
L 98.881673 114.040242 
L 99.043985 113.840776 
L 99.205211 113.641286 
L 99.365371 113.441786 
L 99.524485 113.242288 
L 99.682572 113.042806 
L 99.839651 112.843352 
L 99.995743 112.643939 
L 100.150867 112.444577 
L 100.305043 112.245279 
L 100.45829 112.046056 
L 100.61063 111.846918 
L 100.762081 111.647876 
L 100.912663 111.44894 
L 101.062398 111.25012 
L 101.211305 111.051425 
L 101.359404 110.852865 
L 101.506716 110.654447 
L 101.65326 110.456181 
L 101.799058 110.258075 
L 101.944129 110.060136 
L 102.088494 109.862371 
L 102.232173 109.664788 
L 102.375186 109.467394 
" clip-path="url(#p4029389801)" style="fill: none; stroke: #2255aa; stroke-width: 2.8; stroke-linecap: round"/>
   </g>
   <g id="line2d_70">
    <path d="M 95.567032 117.805286 
L 95.753423 117.609259 
L 95.938392 117.412893 
L 96.121956 117.216205 
L 96.30413 117.019216 
L 96.484932 116.821944 
L 96.664377 116.624408 
L 96.842483 116.426626 
L 97.019266 116.228615 
L 97.194745 116.030393 
L 97.368936 115.831978 
L 97.541857 115.633387 
L 97.713525 115.434636 
L 97.88396 115.235742 
L 98.053178 115.03672 
L 98.221198 114.837587 
L 98.38804 114.638357 
L 98.55372 114.439047 
L 98.718258 114.23967 
L 98.881673 114.040242 
L 99.043985 113.840776 
L 99.205211 113.641286 
L 99.365371 113.441786 
L 99.524485 113.242288 
L 99.682572 113.042806 
L 99.839651 112.843352 
L 99.995743 112.643939 
L 100.150867 112.444577 
L 100.305043 112.245279 
L 100.45829 112.046056 
L 100.61063 111.846918 
L 100.762081 111.647876 
L 100.912663 111.44894 
L 101.062398 111.25012 
L 101.211305 111.051425 
L 101.359404 110.852865 
L 101.506716 110.654447 
L 101.65326 110.456181 
L 101.799058 110.258075 
L 101.944129 110.060136 
L 102.088494 109.862371 
L 102.232173 109.664788 
L 102.375186 109.467394 
L 102.517554 109.270194 
L 102.659296 109.073195 
L 102.800434 108.876402 
L 102.940986 108.679821 
L 103.080974 108.483457 
L 103.220418 108.287314 
L 103.359337 108.091396 
" clip-path="url(#p4029389801)" style="fill: none; stroke: #2255aa; stroke-width: 2.8; stroke-linecap: round"/>
   </g>
  </g>
 </g>
 <defs>
  <clipPath id="p4029389801">
   <rect x="3.6" y="3.6" width="167.4" height="155.507043"/>
  </clipPath>
 </defs>
</svg>
