<?xml version="1.0" encoding="utf-8" standalone="no"?>
<!DOCTYPE svg PUBLIC "-//W3C//DTD SVG 1.1//EN"
  "http://www.w3.org/Graphics/SVG/1.1/DTD/svg11.dtd">
<svg xmlns:xlink="http://www.w3.org/1999/xlink" width="174.6pt" height="172.742175pt" viewBox="0 0 174.6 172.742175" xmlns="http://www.w3.org/2000/svg" version="1.1">
 <metadata>
  <rdf:RDF xmlns:dc="http://purl.org/dc/elements/1.1/" xmlns:cc="http://creativecommons.org/ns#" xmlns:rdf="http://www.w3.org/1999/02/22-rdf-syntax-ns#">
   <cc:Work>
    <dc:type rdf:resource="http://purl.org/dc/dcmitype/StillImage"/>
    <dc:format>image/svg+xml</dc:format>
    <dc:creator>
     <cc:Agent>
      <dc:title>Matplotlib v3.10.8, https://matplotlib.org/</dc:title>
     </cc:Agent>
    </dc:creator>
   </cc:Work>
  </rdf:RDF>
 </metadata>
 <defs>
  <style type="text/css">*{stroke-linejoin: round; stroke-linecap: butt}</style>
 </defs>
 <g id="figure_1">
  <g id="patch_1">
   <path d="M 0 172.742175 
L 174.6 172.742175 
L 174.6 0 
L 0 0 
L 0 172.742175 
z
" style="fill: none"/>
  </g>
  <g id="axes_1">
   <g id="line2d_1">
    <path d="M 117.432114 79.215404 
L 117.547969 78.975716 
L 117.667028 78.735221 
L 117.789247 78.493901 
L 117.914581 78.251736 
L 118.042986 78.008709 
L 118.174414 77.764802 
L 118.308818 77.519998 
L 118.446148 77.274279 
L 118.586354 77.027631 
L 118.729385 76.780037 
L 118.875189 76.531483 
L 119.023713 76.281954 
L 119.174902 76.031437 
L 119.328701 75.779919 
L 119.485054 75.527388 
L 119.643903 75.273832 
L 119.805191 75.01924 
L 119.968858 74.763602 
L 120.134845 74.506909 
L 120.30309 74.249151 
L 120.473532 73.99032 
L 120.646108 73.73041 
L 120.820755 73.469413 
L 120.997409 73.207323 
L 121.176004 72.944135 
L 121.356475 72.679845 
L 121.538757 72.414449 
L 121.72278 72.147944 
L 121.908478 71.880328 
L 122.095782 71.6116 
L 122.284624 71.341759 
L 122.474932 71.070804 
L 122.666637 70.798738 
L 122.859668 70.525563 
L 123.053954 70.251279 
L 123.249422 69.975892 
L 123.446 69.699405 
L 123.643614 69.421824 
L 123.842193 69.143153 
L 124.04166 68.863401 
L 124.241944 68.582574 
L 124.442968 68.300681 
L 124.644657 68.017731 
L 124.846937 67.733734 
L 125.049732 67.448701 
L 125.252966 67.162644 
L 125.456562 66.875575 
L 125.660445 66.587507 
L 125.864538 66.298455 
L 126.068763 66.008434 
L 126.273045 65.717459 
L 126.477306 65.425547 
L 126.681468 65.132717 
L 126.885456 64.838985 
" clip-path="url(#p04cc3dfba1)" style="fill: none; stroke: #ffffff; stroke-width: 7.8; stroke-linecap: round"/>
   </g>
   <g id="line2d_2">
    <path d="M 120.473532 73.99032 
L 120.646108 73.73041 
L 120.820755 73.469413 
L 120.997409 73.207323 
L 121.176004 72.944135 
L 121.356475 72.679845 
L 121.538757 72.414449 
L 121.72278 72.147944 
L 121.908478 71.880328 
L 122.095782 71.6116 
L 122.284624 71.341759 
L 122.474932 71.070804 
L 122.666637 70.798738 
L 122.859668 70.525563 
L 123.053954 70.251279 
L 123.249422 69.975892 
L 123.446 69.699405 
L 123.643614 69.421824 
L 123.842193 69.143153 
L 124.04166 68.863401 
L 124.241944 68.582574 
L 124.442968 68.300681 
L 124.644657 68.017731 
L 124.846937 67.733734 
L 125.049732 67.448701 
L 125.252966 67.162644 
L 125.456562 66.875575 
L 125.660445 66.587507 
L 125.864538 66.298455 
L 126.068763 66.008434 
L 126.273045 65.717459 
L 126.477306 65.425547 
L 126.681468 65.132717 
L 126.885456 64.838985 
L 127.08919 64.544372 
L 127.292595 64.248896 
L 127.495593 63.95258 
L 127.698107 63.655445 
L 127.900059 63.357512 
L 128.101372 63.058806 
L 128.30197 62.759351 
L 128.501775 62.45917 
L 128.700711 62.15829 
L 128.898701 61.856738 
L 129.095669 61.55454 
L 129.291539 61.251724 
L 129.486235 60.948319 
L 129.679681 60.644355 
L 129.871802 60.339861 
L 130.062524 60.034869 
L 130.251771 59.729411 
L 130.43947 59.423519 
L 130.625546 59.117225 
L 130.809927 58.810564 
L 130.99254 58.503571 
" clip-path="url(#p04cc3dfba1)" style="fill: none; stroke: #ffffff; stroke-width: 7.8; stroke-linecap: round"/>
   </g>
   <g id="line2d_3">
    <path d="M 116.167912 82.498379 
L 116.235048 82.267684 
L 116.305866 82.0365 
L 116.380339 81.804802 
L 116.458439 81.572567 
L 116.54014 81.339769 
L 116.625411 81.106383 
L 116.71422 80.872388 
L 116.806537 80.637758 
L 116.902327 80.402471 
L 117.001555 80.166505 
L 117.104186 79.929836 
L 117.210182 79.692444 
L 117.319505 79.454307 
L 117.432114 79.215404 
L 117.547969 78.975716 
L 117.667028 78.735221 
L 117.789247 78.493901 
L 117.914581 78.251736 
L 118.042986 78.008709 
L 118.174414 77.764802 
L 118.308818 77.519998 
L 118.446148 77.274279 
L 118.586354 77.027631 
L 118.729385 76.780037 
L 118.875189 76.531483 
L 119.023713 76.281954 
L 119.174902 76.031437 
L 119.328701 75.779919 
L 119.485054 75.527388 
L 119.643903 75.273832 
L 119.805191 75.01924 
L 119.968858 74.763602 
L 120.134845 74.506909 
L 120.30309 74.249151 
L 120.473532 73.99032 
L 120.646108 73.73041 
L 120.820755 73.469413 
L 120.997409 73.207323 
L 121.176004 72.944135 
L 121.356475 72.679845 
L 121.538757 72.414449 
L 121.72278 72.147944 
L 121.908478 71.880328 
L 122.095782 71.6116 
L 122.284624 71.341759 
L 122.474932 71.070804 
L 122.666637 70.798738 
L 122.859668 70.525563 
L 123.053954 70.251279 
L 123.249422 69.975892 
L 123.446 69.699405 
L 123.643614 69.421824 
L 123.842193 69.143153 
L 124.04166 68.863401 
" clip-path="url(#p04cc3dfba1)" style="fill: none; stroke: #ffffff; stroke-width: 7.8; stroke-linecap: round"/>
   </g>
   <g id="line2d_4">
    <path d="M 118.308818 77.519998 
L 118.446148 77.274279 
L 118.586354 77.027631 
L 118.729385 76.780037 
L 118.875189 76.531483 
L 119.023713 76.281954 
L 119.174902 76.031437 
L 119.328701 75.779919 
L 119.485054 75.527388 
L 119.643903 75.273832 
L 119.805191 75.01924 
L 119.968858 74.763602 
L 120.134845 74.506909 
L 120.30309 74.249151 
L 120.473532 73.99032 
L 120.646108 73.73041 
L 120.820755 73.469413 
L 120.997409 73.207323 
L 121.176004 72.944135 
L 121.356475 72.679845 
L 121.538757 72.414449 
L 121.72278 72.147944 
L 121.908478 71.880328 
L 122.095782 71.6116 
L 122.284624 71.341759 
L 122.474932 71.070804 
L 122.666637 70.798738 
L 122.859668 70.525563 
L 123.053954 70.251279 
L 123.249422 69.975892 
L 123.446 69.699405 
L 123.643614 69.421824 
L 123.842193 69.143153 
L 124.04166 68.863401 
L 124.241944 68.582574 
L 124.442968 68.300681 
L 124.644657 68.017731 
L 124.846937 67.733734 
L 125.049732 67.448701 
L 125.252966 67.162644 
L 125.456562 66.875575 
L 125.660445 66.587507 
L 125.864538 66.298455 
L 126.068763 66.008434 
L 126.273045 65.717459 
L 126.477306 65.425547 
L 126.681468 65.132717 
L 126.885456 64.838985 
L 127.08919 64.544372 
L 127.292595 64.248896 
L 127.495593 63.95258 
L 127.698107 63.655445 
L 127.900059 63.357512 
L 128.101372 63.058806 
L 128.30197 62.759351 
" clip-path="url(#p04cc3dfba1)" style="fill: none; stroke: #ffffff; stroke-width: 7.8; stroke-linecap: round"/>
   </g>
   <g id="line2d_5">
    <path d="M 101.647759 56.376037 
L 101.598661 56.104538 
L 101.550272 55.830463 
L 101.502532 55.55384 
L 101.455382 55.274698 
L 101.408762 54.993068 
L 101.362611 54.708981 
L 101.316868 54.422469 
L 101.271475 54.133566 
L 101.22637 53.842306 
L 101.181493 53.548727 
L 101.136783 53.252864 
L 101.092181 52.954755 
L 101.047626 52.654439 
L 101.003058 52.351957 
L 100.958418 52.04735 
L 100.913644 51.740659 
L 100.868678 51.431928 
L 100.82346 51.121201 
L 100.777931 50.808523 
L 100.732031 50.493941 
L 100.685702 50.177501 
L 100.638885 49.859252 
L 100.591522 49.539243 
L 100.543555 49.217524 
L 100.494927 48.894146 
L 100.445579 48.569161 
L 100.395457 48.242621 
L 100.344502 47.914581 
L 100.292659 47.585096 
L 100.239873 47.254219 
L 100.186089 46.922009 
L 100.131251 46.588522 
L 100.075307 46.253816 
L 100.018202 45.91795 
L 99.959884 45.580984 
L 99.9003 45.242977 
L 99.839399 44.903992 
L 99.77713 44.56409 
L 99.713442 44.223334 
L 99.648285 43.881787 
L 99.581611 43.539514 
L 99.51337 43.196578 
L 99.443516 42.853045 
L 99.372001 42.508982 
L 99.29878 42.164454 
L 99.223806 41.81953 
L 99.147036 41.474277 
L 99.068425 41.128763 
L 98.987931 40.783057 
L 98.905512 40.437229 
L 98.821125 40.091349 
L 98.734732 39.745487 
L 98.646292 39.399713 
L 98.555767 39.0541 
" clip-path="url(#p04cc3dfba1)" style="fill: none; stroke: #ffffff; stroke-width: 7.8; stroke-linecap: round"/>
   </g>
   <g id="line2d_6">
    <path d="M 100.685702 50.177501 
L 100.638885 49.859252 
L 100.591522 49.539243 
L 100.543555 49.217524 
L 100.494927 48.894146 
L 100.445579 48.569161 
L 100.395457 48.242621 
L 100.344502 47.914581 
L 100.292659 47.585096 
L 100.239873 47.254219 
L 100.186089 46.922009 
L 100.131251 46.588522 
L 100.075307 46.253816 
L 100.018202 45.91795 
L 99.959884 45.580984 
L 99.9003 45.242977 
L 99.839399 44.903992 
L 99.77713 44.56409 
L 99.713442 44.223334 
L 99.648285 43.881787 
L 99.581611 43.539514 
L 99.51337 43.196578 
L 99.443516 42.853045 
L 99.372001 42.508982 
L 99.29878 42.164454 
L 99.223806 41.81953 
L 99.147036 41.474277 
L 99.068425 41.128763 
L 98.987931 40.783057 
L 98.905512 40.437229 
L 98.821125 40.091349 
L 98.734732 39.745487 
L 98.646292 39.399713 
L 98.555767 39.0541 
L 98.463119 38.708719 
L 98.368311 38.363641 
L 98.271309 38.018941 
L 98.172076 37.674689 
L 98.07058 37.330961 
L 97.966787 36.987828 
L 97.860666 36.645366 
L 97.752186 36.303647 
L 97.641317 35.962747 
L 97.52803 35.622739 
L 97.412299 35.283698 
L 97.294095 34.9457 
L 97.173394 34.608819 
L 97.050171 34.273131 
L 96.924404 33.93871 
L 96.796069 33.605632 
L 96.665145 33.273973 
L 96.531614 32.943808 
L 96.395454 32.615211 
L 96.25665 32.28826 
L 96.115185 31.963028 
" clip-path="url(#p04cc3dfba1)" style="fill: none; stroke: #ffffff; stroke-width: 7.8; stroke-linecap: round"/>
   </g>
   <g id="line2d_7">
    <path d="M 100.685702 50.177501 
L 100.638885 49.859252 
L 100.591522 49.539243 
L 100.543555 49.217524 
L 100.494927 48.894146 
L 100.445579 48.569161 
L 100.395457 48.242621 
L 100.344502 47.914581 
L 100.292659 47.585096 
L 100.239873 47.254219 
L 100.186089 46.922009 
L 100.131251 46.588522 
L 100.075307 46.253816 
L 100.018202 45.91795 
L 99.959884 45.580984 
L 99.9003 45.242977 
L 99.839399 44.903992 
L 99.77713 44.56409 
L 99.713442 44.223334 
L 99.648285 43.881787 
L 99.581611 43.539514 
L 99.51337 43.196578 
L 99.443516 42.853045 
L 99.372001 42.508982 
L 99.29878 42.164454 
L 99.223806 41.81953 
L 99.147036 41.474277 
L 99.068425 41.128763 
L 98.987931 40.783057 
L 98.905512 40.437229 
L 98.821125 40.091349 
L 98.734732 39.745487 
L 98.646292 39.399713 
L 98.555767 39.0541 
L 98.463119 38.708719 
L 98.368311 38.363641 
L 98.271309 38.018941 
L 98.172076 37.674689 
L 98.07058 37.330961 
L 97.966787 36.987828 
L 97.860666 36.645366 
L 97.752186 36.303647 
L 97.641317 35.962747 
L 97.52803 35.622739 
L 97.412299 35.283698 
L 97.294095 34.9457 
L 97.173394 34.608819 
L 97.050171 34.273131 
L 96.924404 33.93871 
L 96.796069 33.605632 
L 96.665145 33.273973 
L 96.531614 32.943808 
L 96.395454 32.615211 
L 96.25665 32.28826 
L 96.115185 31.963028 
" clip-path="url(#p04cc3dfba1)" style="fill: none; stroke: #ffffff; stroke-width: 7.8; stroke-linecap: round"/>
   </g>
   <g id="line2d_8">
    <path d="M 63.805648 46.503958 
L 63.522444 46.319964 
L 63.236595 46.137189 
L 62.948117 45.95571 
L 62.657028 45.77561 
L 62.363344 45.596965 
L 62.067085 45.419856 
L 61.768271 45.244362 
L 61.466924 45.07056 
L 61.163067 44.898529 
L 60.856724 44.728345 
L 60.547919 44.560088 
L 60.23668 44.393832 
L 59.923035 44.229654 
L 59.607011 44.067631 
L 59.288639 43.907836 
L 58.96795 43.750345 
L 58.644977 43.595232 
L 58.319752 43.44257 
L 57.992311 43.292432 
L 57.66269 43.14489 
L 57.330925 43.000016 
L 56.997055 42.857881 
L 56.661119 42.718554 
L 56.323156 42.582105 
L 55.983209 42.448603 
L 55.641319 42.318114 
L 55.297531 42.190707 
L 54.951889 42.066448 
L 54.604438 41.945401 
L 54.255226 41.827631 
L 53.904299 41.713201 
L 53.551707 41.602175 
L 53.197499 41.494614 
L 52.841726 41.390578 
L 52.484439 41.290127 
L 52.125691 41.19332 
L 51.765536 41.100215 
L 51.404027 41.010867 
L 51.04122 40.925334 
L 50.677172 40.843669 
L 50.311939 40.765926 
L 49.945579 40.692157 
L 49.57815 40.622413 
L 49.209713 40.556744 
L 48.840327 40.4952 
L 48.470053 40.437827 
L 48.098954 40.384673 
L 47.727091 40.335782 
L 47.354529 40.291199 
L 46.98133 40.250967 
L 46.60756 40.215127 
L 46.233283 40.183719 
L 45.858566 40.156783 
L 45.483475 40.134356 
" clip-path="url(#p04cc3dfba1)" style="fill: none; stroke: #ffffff; stroke-width: 7.8; stroke-linecap: round"/>
   </g>
   <g id="line2d_9">
    <path d="M 63.805648 46.503958 
L 63.522444 46.319964 
L 63.236595 46.137189 
L 62.948117 45.95571 
L 62.657028 45.77561 
L 62.363344 45.596965 
L 62.067085 45.419856 
L 61.768271 45.244362 
L 61.466924 45.07056 
L 61.163067 44.898529 
L 60.856724 44.728345 
L 60.547919 44.560088 
L 60.23668 44.393832 
L 59.923035 44.229654 
L 59.607011 44.067631 
L 59.288639 43.907836 
L 58.96795 43.750345 
L 58.644977 43.595232 
L 58.319752 43.44257 
L 57.992311 43.292432 
L 57.66269 43.14489 
L 57.330925 43.000016 
L 56.997055 42.857881 
L 56.661119 42.718554 
L 56.323156 42.582105 
L 55.983209 42.448603 
L 55.641319 42.318114 
L 55.297531 42.190707 
L 54.951889 42.066448 
L 54.604438 41.945401 
L 54.255226 41.827631 
L 53.904299 41.713201 
L 53.551707 41.602175 
L 53.197499 41.494614 
L 52.841726 41.390578 
L 52.484439 41.290127 
L 52.125691 41.19332 
L 51.765536 41.100215 
L 51.404027 41.010867 
L 51.04122 40.925334 
L 50.677172 40.843669 
L 50.311939 40.765926 
L 49.945579 40.692157 
L 49.57815 40.622413 
L 49.209713 40.556744 
L 48.840327 40.4952 
L 48.470053 40.437827 
L 48.098954 40.384673 
L 47.727091 40.335782 
L 47.354529 40.291199 
L 46.98133 40.250967 
L 46.60756 40.215127 
L 46.233283 40.183719 
L 45.858566 40.156783 
L 45.483475 40.134356 
" clip-path="url(#p04cc3dfba1)" style="fill: none; stroke: #ffffff; stroke-width: 7.8; stroke-linecap: round"/>
   </g>
   <g id="line2d_10">
    <path d="M 34.868318 77.935124 
L 34.560345 78.113482 
L 34.252792 78.295754 
L 33.945743 78.481943 
L 33.639278 78.672053 
L 33.333478 78.866085 
L 33.028424 79.064039 
L 32.724198 79.265913 
L 32.420881 79.471706 
L 32.118554 79.681411 
L 31.817298 79.895025 
L 31.517195 80.112539 
L 31.218326 80.333945 
L 30.920771 80.559232 
L 30.624611 80.78839 
L 30.329928 81.021406 
L 30.036801 81.258265 
L 29.745311 81.498951 
L 29.455537 81.743447 
L 29.16756 81.991735 
L 28.881459 82.243795 
L 28.597312 82.499605 
L 28.315199 82.759142 
L 28.035197 83.022382 
L 27.757386 83.2893 
L 27.481841 83.559869 
L 27.208641 83.83406 
L 26.937862 84.111843 
L 26.66958 84.393189 
L 26.403871 84.678063 
L 26.140809 84.966433 
L 25.880469 85.258263 
L 25.622925 85.553518 
L 25.368251 85.852159 
L 25.116518 86.154148 
L 24.867799 86.459445 
L 24.622164 86.768007 
L 24.379685 87.079792 
L 24.140432 87.394757 
L 23.904472 87.712856 
L 23.671875 88.034043 
L 23.442709 88.35827 
L 23.217038 88.685489 
L 22.994931 89.015649 
L 22.77645 89.3487 
L 22.561661 89.684589 
L 22.350627 90.023263 
L 22.14341 90.364668 
L 21.940071 90.708748 
L 21.74067 91.055447 
L 21.545267 91.404708 
L 21.35392 91.756471 
L 21.166687 92.110677 
L 20.983623 92.467265 
L 20.804785 92.826174 
" clip-path="url(#p04cc3dfba1)" style="fill: none; stroke: #ffffff; stroke-width: 7.8; stroke-linecap: round"/>
   </g>
   <g id="line2d_11">
    <path d="M 34.868318 77.935124 
L 34.560345 78.113482 
L 34.252792 78.295754 
L 33.945743 78.481943 
L 33.639278 78.672053 
L 33.333478 78.866085 
L 33.028424 79.064039 
L 32.724198 79.265913 
L 32.420881 79.471706 
L 32.118554 79.681411 
L 31.817298 79.895025 
L 31.517195 80.112539 
L 31.218326 80.333945 
L 30.920771 80.559232 
L 30.624611 80.78839 
L 30.329928 81.021406 
L 30.036801 81.258265 
L 29.745311 81.498951 
L 29.455537 81.743447 
L 29.16756 81.991735 
L 28.881459 82.243795 
L 28.597312 82.499605 
L 28.315199 82.759142 
L 28.035197 83.022382 
L 27.757386 83.2893 
L 27.481841 83.559869 
L 27.208641 83.83406 
L 26.937862 84.111843 
L 26.66958 84.393189 
L 26.403871 84.678063 
L 26.140809 84.966433 
L 25.880469 85.258263 
L 25.622925 85.553518 
L 25.368251 85.852159 
L 25.116518 86.154148 
L 24.867799 86.459445 
L 24.622164 86.768007 
L 24.379685 87.079792 
L 24.140432 87.394757 
L 23.904472 87.712856 
L 23.671875 88.034043 
L 23.442709 88.35827 
L 23.217038 88.685489 
L 22.994931 89.015649 
L 22.77645 89.3487 
L 22.561661 89.684589 
L 22.350627 90.023263 
L 22.14341 90.364668 
L 21.940071 90.708748 
L 21.74067 91.055447 
L 21.545267 91.404708 
L 21.35392 91.756471 
L 21.166687 92.110677 
L 20.983623 92.467265 
L 20.804785 92.826174 
" clip-path="url(#p04cc3dfba1)" style="fill: none; stroke: #ffffff; stroke-width: 7.8; stroke-linecap: round"/>
   </g>
   <g id="line2d_12">
    <path d="M 28.597312 82.499605 
L 28.315199 82.759142 
L 28.035197 83.022382 
L 27.757386 83.2893 
L 27.481841 83.559869 
L 27.208641 83.83406 
L 26.937862 84.111843 
L 26.66958 84.393189 
L 26.403871 84.678063 
L 26.140809 84.966433 
L 25.880469 85.258263 
L 25.622925 85.553518 
L 25.368251 85.852159 
L 25.116518 86.154148 
L 24.867799 86.459445 
L 24.622164 86.768007 
L 24.379685 87.079792 
L 24.140432 87.394757 
L 23.904472 87.712856 
L 23.671875 88.034043 
L 23.442709 88.35827 
L 23.217038 88.685489 
L 22.994931 89.015649 
L 22.77645 89.3487 
L 22.561661 89.684589 
L 22.350627 90.023263 
L 22.14341 90.364668 
L 21.940071 90.708748 
L 21.74067 91.055447 
L 21.545267 91.404708 
L 21.35392 91.756471 
L 21.166687 92.110677 
L 20.983623 92.467265 
L 20.804785 92.826174 
L 20.630226 93.187342 
L 20.459999 93.550705 
L 20.294156 93.916199 
L 20.132749 94.283758 
L 19.975826 94.653317 
L 19.823437 95.024808 
L 19.675629 95.398164 
L 19.532447 95.773317 
L 19.393938 96.150197 
L 19.260145 96.528734 
L 19.13111 96.908857 
L 19.006876 97.290496 
L 18.887481 97.673577 
L 18.772965 98.058028 
L 18.663366 98.443775 
L 18.558719 98.830745 
L 18.45906 99.218863 
L 18.364423 99.608053 
L 18.274839 99.998241 
L 18.190341 100.389349 
L 18.110957 100.781301 
" clip-path="url(#p04cc3dfba1)" style="fill: none; stroke: #ffffff; stroke-width: 7.8; stroke-linecap: round"/>
   </g>
   <g id="line2d_13">
    <path d="M 52.164414 118.98717 
L 52.158614 119.348754 
L 52.155627 119.712319 
L 52.155495 120.077796 
L 52.158258 120.445117 
L 52.163957 120.814213 
L 52.172628 121.185012 
L 52.18431 121.557445 
L 52.19904 121.931438 
L 52.216851 122.306919 
L 52.237779 122.683815 
L 52.261856 123.062051 
L 52.289114 123.441552 
L 52.319583 123.822244 
L 52.353294 124.204049 
L 52.390275 124.586891 
L 52.430552 124.970692 
L 52.474152 125.355375 
L 52.5211 125.74086 
L 52.571419 126.12707 
L 52.625133 126.513923 
L 52.682261 126.901341 
L 52.742824 127.289242 
L 52.806841 127.677545 
L 52.874329 128.06617 
L 52.945305 128.455034 
L 53.019784 128.844056 
L 53.09778 129.233152 
L 53.179305 129.622241 
L 53.264371 130.011239 
L 53.352988 130.400063 
L 53.445165 130.788629 
L 53.540909 131.176854 
L 53.640227 131.564654 
L 53.743124 131.951945 
L 53.849603 132.338644 
L 53.959668 132.724665 
L 54.07332 133.109924 
L 54.190559 133.494338 
L 54.311383 133.877821 
L 54.435791 134.260291 
L 54.563778 134.641661 
L 54.69534 135.021849 
L 54.830471 135.40077 
L 54.969164 135.77834 
L 55.111409 136.154476 
L 55.257197 136.529093 
L 55.406516 136.902109 
L 55.559356 137.273439 
L 55.715701 137.643002 
L 55.875538 138.010714 
L 56.03885 138.376493 
L 56.205621 138.740257 
L 56.375832 139.101924 
L 56.549464 139.461413 
" clip-path="url(#p04cc3dfba1)" style="fill: none; stroke: #ffffff; stroke-width: 7.8; stroke-linecap: round"/>
   </g>
   <g id="line2d_14">
    <path d="M 52.164414 118.98717 
L 52.158614 119.348754 
L 52.155627 119.712319 
L 52.155495 120.077796 
L 52.158258 120.445117 
L 52.163957 120.814213 
L 52.172628 121.185012 
L 52.18431 121.557445 
L 52.19904 121.931438 
L 52.216851 122.306919 
L 52.237779 122.683815 
L 52.261856 123.062051 
L 52.289114 123.441552 
L 52.319583 123.822244 
L 52.353294 124.204049 
L 52.390275 124.586891 
L 52.430552 124.970692 
L 52.474152 125.355375 
L 52.5211 125.74086 
L 52.571419 126.12707 
L 52.625133 126.513923 
L 52.682261 126.901341 
L 52.742824 127.289242 
L 52.806841 127.677545 
L 52.874329 128.06617 
L 52.945305 128.455034 
L 53.019784 128.844056 
L 53.09778 129.233152 
L 53.179305 129.622241 
L 53.264371 130.011239 
L 53.352988 130.400063 
L 53.445165 130.788629 
L 53.540909 131.176854 
L 53.640227 131.564654 
L 53.743124 131.951945 
L 53.849603 132.338644 
L 53.959668 132.724665 
L 54.07332 133.109924 
L 54.190559 133.494338 
L 54.311383 133.877821 
L 54.435791 134.260291 
L 54.563778 134.641661 
L 54.69534 135.021849 
L 54.830471 135.40077 
L 54.969164 135.77834 
L 55.111409 136.154476 
L 55.257197 136.529093 
L 55.406516 136.902109 
L 55.559356 137.273439 
L 55.715701 137.643002 
L 55.875538 138.010714 
L 56.03885 138.376493 
L 56.205621 138.740257 
L 56.375832 139.101924 
L 56.549464 139.461413 
" clip-path="url(#p04cc3dfba1)" style="fill: none; stroke: #ffffff; stroke-width: 7.8; stroke-linecap: round"/>
   </g>
   <g id="line2d_15">
    <path d="M 88.851988 120.203775 
L 89.060479 120.40175 
L 89.271392 120.601873 
L 89.484738 120.804082 
L 89.700527 121.008313 
L 89.918768 121.214503 
L 90.139469 121.422586 
L 90.362636 121.632498 
L 90.588274 121.844173 
L 90.816388 122.057544 
L 91.046981 122.272545 
L 91.280054 122.489107 
L 91.515609 122.707163 
L 91.753644 122.926644 
L 91.994159 123.147481 
L 92.23715 123.369605 
L 92.482613 123.592945 
L 92.730543 123.817432 
L 92.980934 124.042994 
L 93.233777 124.26956 
L 93.489065 124.497059 
L 93.746786 124.72542 
L 94.006931 124.954569 
L 94.269486 125.184436 
L 94.534438 125.414946 
L 94.801773 125.646028 
L 95.071473 125.877609 
L 95.343524 126.109614 
L 95.617905 126.341971 
L 95.894598 126.574607 
L 96.173581 126.807448 
L 96.454835 127.04042 
L 96.738335 127.273449 
L 97.024057 127.506462 
L 97.311977 127.739385 
L 97.602067 127.972145 
L 97.894302 128.204667 
L 98.188652 128.436878 
L 98.485087 128.668705 
L 98.783577 128.900073 
L 99.084091 129.130911 
L 99.386594 129.361144 
L 99.691054 129.5907 
L 99.997436 129.819505 
L 100.305702 130.047488 
L 100.615817 130.274576 
L 100.927743 130.500698 
L 101.241439 130.72578 
L 101.556866 130.949753 
L 101.873984 131.172544 
L 102.192749 131.394084 
L 102.513119 131.614301 
L 102.83505 131.833126 
L 103.158498 132.05049 
L 103.483415 132.266323 
" clip-path="url(#p04cc3dfba1)" style="fill: none; stroke: #ffffff; stroke-width: 7.8; stroke-linecap: round"/>
   </g>
   <g id="line2d_16">
    <path d="M 93.746786 124.72542 
L 94.006931 124.954569 
L 94.269486 125.184436 
L 94.534438 125.414946 
L 94.801773 125.646028 
L 95.071473 125.877609 
L 95.343524 126.109614 
L 95.617905 126.341971 
L 95.894598 126.574607 
L 96.173581 126.807448 
L 96.454835 127.04042 
L 96.738335 127.273449 
L 97.024057 127.506462 
L 97.311977 127.739385 
L 97.602067 127.972145 
L 97.894302 128.204667 
L 98.188652 128.436878 
L 98.485087 128.668705 
L 98.783577 128.900073 
L 99.084091 129.130911 
L 99.386594 129.361144 
L 99.691054 129.5907 
L 99.997436 129.819505 
L 100.305702 130.047488 
L 100.615817 130.274576 
L 100.927743 130.500698 
L 101.241439 130.72578 
L 101.556866 130.949753 
L 101.873984 131.172544 
L 102.192749 131.394084 
L 102.513119 131.614301 
L 102.83505 131.833126 
L 103.158498 132.05049 
L 103.483415 132.266323 
L 103.809757 132.480557 
L 104.137474 132.693123 
L 104.466519 132.903954 
L 104.796843 133.112984 
L 105.128395 133.320144 
L 105.461124 133.525371 
L 105.794979 133.728597 
L 106.129907 133.929759 
L 106.465855 134.128792 
L 106.802768 134.325633 
L 107.140593 134.520219 
L 107.479273 134.712487 
L 107.818752 134.902377 
L 108.158974 135.089828 
L 108.499881 135.27478 
L 108.841415 135.457173 
L 109.183517 135.636949 
L 109.526128 135.814051 
L 109.869188 135.988421 
L 110.212636 136.160004 
L 110.556412 136.328744 
" clip-path="url(#p04cc3dfba1)" style="fill: none; stroke: #ffffff; stroke-width: 7.8; stroke-linecap: round"/>
   </g>
   <g id="line2d_17">
    <path d="M 93.746786 124.72542 
L 94.006931 124.954569 
L 94.269486 125.184436 
L 94.534438 125.414946 
L 94.801773 125.646028 
L 95.071473 125.877609 
L 95.343524 126.109614 
L 95.617905 126.341971 
L 95.894598 126.574607 
L 96.173581 126.807448 
L 96.454835 127.04042 
L 96.738335 127.273449 
L 97.024057 127.506462 
L 97.311977 127.739385 
L 97.602067 127.972145 
L 97.894302 128.204667 
L 98.188652 128.436878 
L 98.485087 128.668705 
L 98.783577 128.900073 
L 99.084091 129.130911 
L 99.386594 129.361144 
L 99.691054 129.5907 
L 99.997436 129.819505 
L 100.305702 130.047488 
L 100.615817 130.274576 
L 100.927743 130.500698 
L 101.241439 130.72578 
L 101.556866 130.949753 
L 101.873984 131.172544 
L 102.192749 131.394084 
L 102.513119 131.614301 
L 102.83505 131.833126 
L 103.158498 132.05049 
L 103.483415 132.266323 
L 103.809757 132.480557 
L 104.137474 132.693123 
L 104.466519 132.903954 
L 104.796843 133.112984 
L 105.128395 133.320144 
L 105.461124 133.525371 
L 105.794979 133.728597 
L 106.129907 133.929759 
L 106.465855 134.128792 
L 106.802768 134.325633 
L 107.140593 134.520219 
L 107.479273 134.712487 
L 107.818752 134.902377 
L 108.158974 135.089828 
L 108.499881 135.27478 
L 108.841415 135.457173 
L 109.183517 135.636949 
L 109.526128 135.814051 
L 109.869188 135.988421 
L 110.212636 136.160004 
L 110.556412 136.328744 
" clip-path="url(#p04cc3dfba1)" style="fill: none; stroke: #ffffff; stroke-width: 7.8; stroke-linecap: round"/>
   </g>
   <g id="line2d_18">
    <path d="M 115.705689 102.65915 
L 115.995052 102.605512 
L 116.287249 102.552699 
L 116.582246 102.500664 
L 116.880009 102.449361 
L 117.180501 102.398745 
L 117.483685 102.348769 
L 117.789523 102.299388 
L 118.097974 102.250555 
L 118.408997 102.202226 
L 118.722551 102.154355 
L 119.038591 102.106895 
L 119.357074 102.059802 
L 119.677954 102.013031 
L 120.001183 101.966536 
L 120.326715 101.920272 
L 120.654499 101.874196 
L 120.984486 101.828262 
L 121.316625 101.782427 
L 121.650863 101.736646 
L 121.987148 101.690876 
L 122.325424 101.645074 
L 122.665636 101.599196 
L 123.007728 101.553201 
L 123.351643 101.507045 
L 123.697322 101.460687 
L 124.044706 101.414085 
L 124.393735 101.367199 
L 124.744347 101.319986 
L 125.096482 101.272408 
L 125.450075 101.224424 
L 125.805063 101.175994 
L 126.161381 101.127081 
L 126.518965 101.077644 
L 126.877747 101.027648 
L 127.237661 100.977053 
L 127.598639 100.925823 
L 127.960613 100.873923 
L 128.323513 100.821315 
L 128.687269 100.767966 
L 129.051812 100.713839 
L 129.417068 100.658902 
L 129.782968 100.603121 
L 130.149437 100.546463 
L 130.516404 100.488896 
L 130.883794 100.430389 
L 131.251534 100.37091 
L 131.619548 100.31043 
L 131.987761 100.248919 
L 132.356098 100.186348 
L 132.724483 100.122689 
L 133.092839 100.057916 
L 133.461088 99.992 
L 133.829155 99.924917 
L 134.196961 99.856641 
" clip-path="url(#p04cc3dfba1)" style="fill: none; stroke: #ffffff; stroke-width: 7.8; stroke-linecap: round"/>
   </g>
   <g id="line2d_19">
    <path d="M 110.329963 104.056091 
L 110.554282 103.974766 
L 110.781847 103.895192 
L 111.01265 103.817329 
L 111.246684 103.741134 
L 111.48394 103.666565 
L 111.724408 103.593581 
L 111.968076 103.522137 
L 112.21493 103.452193 
L 112.464956 103.383703 
L 112.718139 103.316624 
L 112.974462 103.250912 
L 113.233906 103.186523 
L 113.496451 103.123413 
L 113.762078 103.061537 
L 114.030762 103.000849 
L 114.302482 102.941305 
L 114.577212 102.882859 
L 114.854925 102.825467 
L 115.135596 102.769081 
L 115.419194 102.713658 
L 115.705689 102.65915 
L 115.995052 102.605512 
L 116.287249 102.552699 
L 116.582246 102.500664 
L 116.880009 102.449361 
L 117.180501 102.398745 
L 117.483685 102.348769 
L 117.789523 102.299388 
L 118.097974 102.250555 
L 118.408997 102.202226 
L 118.722551 102.154355 
L 119.038591 102.106895 
L 119.357074 102.059802 
L 119.677954 102.013031 
L 120.001183 101.966536 
L 120.326715 101.920272 
L 120.654499 101.874196 
L 120.984486 101.828262 
L 121.316625 101.782427 
L 121.650863 101.736646 
L 121.987148 101.690876 
L 122.325424 101.645074 
L 122.665636 101.599196 
L 123.007728 101.553201 
L 123.351643 101.507045 
L 123.697322 101.460687 
L 124.044706 101.414085 
L 124.393735 101.367199 
L 124.744347 101.319986 
L 125.096482 101.272408 
L 125.450075 101.224424 
L 125.805063 101.175994 
L 126.161381 101.127081 
L 126.518965 101.077644 
" clip-path="url(#p04cc3dfba1)" style="fill: none; stroke: #ffffff; stroke-width: 7.8; stroke-linecap: round"/>
   </g>
   <g id="line2d_20">
    <path d="M 115.705689 102.65915 
L 115.995052 102.605512 
L 116.287249 102.552699 
L 116.582246 102.500664 
L 116.880009 102.449361 
L 117.180501 102.398745 
L 117.483685 102.348769 
L 117.789523 102.299388 
L 118.097974 102.250555 
L 118.408997 102.202226 
L 118.722551 102.154355 
L 119.038591 102.106895 
L 119.357074 102.059802 
L 119.677954 102.013031 
L 120.001183 101.966536 
L 120.326715 101.920272 
L 120.654499 101.874196 
L 120.984486 101.828262 
L 121.316625 101.782427 
L 121.650863 101.736646 
L 121.987148 101.690876 
L 122.325424 101.645074 
L 122.665636 101.599196 
L 123.007728 101.553201 
L 123.351643 101.507045 
L 123.697322 101.460687 
L 124.044706 101.414085 
L 124.393735 101.367199 
L 124.744347 101.319986 
L 125.096482 101.272408 
L 125.450075 101.224424 
L 125.805063 101.175994 
L 126.161381 101.127081 
L 126.518965 101.077644 
L 126.877747 101.027648 
L 127.237661 100.977053 
L 127.598639 100.925823 
L 127.960613 100.873923 
L 128.323513 100.821315 
L 128.687269 100.767966 
L 129.051812 100.713839 
L 129.417068 100.658902 
L 129.782968 100.603121 
L 130.149437 100.546463 
L 130.516404 100.488896 
L 130.883794 100.430389 
L 131.251534 100.37091 
L 131.619548 100.31043 
L 131.987761 100.248919 
L 132.356098 100.186348 
L 132.724483 100.122689 
L 133.092839 100.057916 
L 133.461088 99.992 
L 133.829155 99.924917 
L 134.196961 99.856641 
" clip-path="url(#p04cc3dfba1)" style="fill: none; stroke: #ffffff; stroke-width: 7.8; stroke-linecap: round"/>
   </g>
   <g id="line2d_21">
    <path d="M 133.461088 99.992 
L 138.20311 99.020442 
L 142.06265 98.011643 
L 145.355198 96.932498 
L 148.076701 95.827272 
L 150.514534 94.599371 
L 152.404533 93.412379 
L 154.002796 92.145462 
L 155.141914 90.980897 
L 156.024252 89.774016 
L 156.638962 88.535391 
L 156.947006 87.457023 
L 157.05 86.371088 
L 156.947006 85.285152 
L 156.638962 84.206784 
L 156.128666 83.143419 
L 155.283971 81.931335 
L 154.180752 80.760114 
L 152.832518 79.639469 
L 151.012828 78.431483 
L 148.923304 77.310934 
L 146.290722 76.164083 
L 143.40907 75.143338 
L 139.982006 74.157738 
L 136.029335 73.245634 
L 131.251534 72.371265 
L 124.744347 71.422189 
L 115.995052 70.136663 
L 112.718139 69.425551 
L 110.329963 68.686084 
L 108.457549 67.868792 
L 107.013012 66.998125 
L 105.769048 65.974101 
L 104.714466 64.782913 
L 103.833495 63.414297 
L 103.106251 61.861934 
L 102.442557 59.893515 
L 101.852436 57.435751 
L 101.598661 56.104538 
L 101.598661 56.104538 
" clip-path="url(#p04cc3dfba1)" style="fill: none; stroke: #2255aa; stroke-width: 2.8; stroke-linecap: round"/>
   </g>
   <g id="line2d_22">
    <path d="M 96.395454 32.615211 
L 95.209712 30.051969 
L 93.848666 27.632305 
L 92.310734 25.393619 
L 90.822406 23.611344 
L 89.206315 22.017396 
L 87.470407 20.632372 
L 85.625207 19.474724 
L 83.966349 18.675625 
L 82.246054 18.063861 
L 80.474765 17.646333 
L 78.663821 17.428264 
L 76.825311 17.413125 
L 74.971902 17.602582 
L 73.116673 17.996464 
L 71.272937 18.592745 
L 69.45406 19.387563 
L 67.381097 20.558111 
L 65.38043 21.979074 
L 63.471558 23.635339 
L 61.672658 25.508916 
L 60.000239 27.579194 
L 58.468823 29.823247 
L 57.090672 32.216172 
L 55.875538 34.731461 
L 54.69534 37.720326 
L 53.743124 40.79023 
L 53.019784 43.898119 
L 52.5211 47.001315 
L 52.237779 50.058361 
L 52.158614 53.393421 
L 52.306768 56.568554 
L 52.696653 59.853332 
L 53.27065 62.831449 
L 54.041136 65.705253 
L 55.021839 68.513727 
L 56.292845 71.445133 
L 56.989034 73.185171 
L 56.934656 73.529588 
L 56.670314 73.678987 
L 56.028599 73.709508 
L 49.589411 73.482183 
L 46.905284 73.750857 
L 44.196451 74.25854 
L 41.589697 74.97469 
L 38.87389 75.968018 
L 36.411693 77.10178 
L 34.560345 78.113482 
L 34.560345 78.113482 
" clip-path="url(#p04cc3dfba1)" style="fill: none; stroke: #2255aa; stroke-width: 2.8; stroke-linecap: round"/>
   </g>
   <g id="line2d_23">
    <path d="M 18.274839 99.998241 
L 17.791702 102.751004 
L 17.582443 105.126122 
L 17.566163 107.497432 
L 17.744642 109.847475 
L 18.117821 112.158809 
L 18.683817 114.414213 
L 19.438957 116.596898 
L 20.377828 118.690704 
L 21.493357 120.680294 
L 22.776901 122.551334 
L 24.218362 124.290669 
L 25.80632 125.886475 
L 27.528172 127.328403 
L 29.370299 128.607701 
L 31.318229 129.717317 
L 33.35682 130.651985 
L 35.470448 131.408286 
L 38.009942 132.063263 
L 40.604479 132.474297 
L 43.22887 132.645743 
L 45.858566 132.585392 
L 48.470053 132.304348 
L 51.04122 131.816841 
L 53.904299 131.028974 
L 56.661119 130.023621 
L 59.288639 128.834339 
L 62.067085 127.322319 
L 64.63926 125.679732 
L 67.487153 123.579524 
L 70.429968 121.104195 
L 77.555863 114.869431 
L 78.671916 114.311246 
L 79.634777 114.0737 
L 80.477543 114.072799 
L 81.46577 114.31115 
L 82.506243 114.802588 
L 83.770243 115.648067 
L 85.662034 117.223652 
L 89.060479 120.40175 
L 89.060479 120.40175 
" clip-path="url(#p04cc3dfba1)" style="fill: none; stroke: #2255aa; stroke-width: 2.8; stroke-linecap: round"/>
   </g>
   <g id="line2d_24">
    <path d="M 109.869188 135.988421 
L 112.96679 137.42588 
L 116.049882 138.60044 
L 118.739555 139.398357 
L 121.345749 139.946378 
L 123.834537 140.231722 
L 125.890037 140.259476 
L 127.809558 140.077489 
L 129.573649 139.686131 
L 131.164665 139.088456 
L 132.378815 138.416146 
L 133.446007 137.601293 
L 134.359302 136.650048 
L 135.113293 135.569655 
L 135.704182 134.368337 
L 136.129845 133.055165 
L 136.417172 131.394841 
L 136.481455 129.612093 
L 136.328233 127.724134 
L 135.898073 125.46024 
L 135.213061 123.108317 
L 134.166139 120.389377 
L 132.864229 117.626932 
L 131.173311 114.545895 
L 128.898701 110.885437 
L 125.660445 106.154668 
L 119.643903 97.468343 
L 118.042986 94.733466 
L 116.902327 92.339704 
L 116.167912 90.243796 
L 115.765968 88.412695 
L 115.61002 86.59756 
L 115.703679 84.784213 
L 116.044777 82.958408 
L 116.235048 82.267684 
L 116.235048 82.267684 
" clip-path="url(#p04cc3dfba1)" style="fill: none; stroke: #2255aa; stroke-width: 2.8; stroke-linecap: round"/>
   </g>
   <g id="line2d_25">
    <path d="M 130.625546 59.117225 
L 132.544694 55.731698 
L 134.033303 52.658209 
L 135.110592 49.932739 
L 135.825964 47.571649 
L 136.289057 45.295314 
L 136.472714 43.393757 
L 136.439916 41.594912 
L 136.184671 39.916069 
L 135.704182 38.373838 
L 135.113293 37.17252 
L 134.359302 36.092127 
L 133.446007 35.140882 
L 132.378815 34.326029 
L 131.164665 33.653719 
L 129.81192 33.128899 
L 128.07152 32.707818 
L 126.173051 32.495835 
L 124.135726 32.493707 
L 121.980261 32.699439 
L 119.400266 33.182806 
L 116.728253 33.919702 
L 113.998431 34.893883 
L 110.900454 36.247588 
L 107.818752 37.839798 
L 104.466519 39.838221 
L 101.241439 42.016395 
L 97.894302 44.537508 
L 94.269486 47.557739 
L 90.139469 51.319589 
L 84.371893 56.623465 
L 82.777499 57.777974 
L 81.592441 58.38333 
L 80.599113 58.653552 
L 79.634777 58.668475 
L 78.671916 58.430929 
L 77.682733 57.94944 
L 76.367728 57.026513 
L 74.450709 55.356173 
L 68.440942 49.932256 
L 65.713002 47.819263 
L 63.522444 46.319964 
L 63.522444 46.319964 
" clip-path="url(#p04cc3dfba1)" style="fill: none; stroke: #2255aa; stroke-width: 2.8; stroke-linecap: round"/>
   </g>
   <g id="line2d_26">
    <path d="M 46.233283 40.183719 
L 43.604777 40.091086 
L 40.978145 40.228862 
L 38.377812 40.605322 
L 35.8289 41.225315 
L 33.35682 42.09019 
L 31.318229 43.024858 
L 29.370299 44.134474 
L 27.528172 45.413772 
L 25.80632 46.8557 
L 24.218362 48.451506 
L 22.776901 50.190841 
L 21.493357 52.061881 
L 20.377828 54.051471 
L 19.438957 56.145277 
L 18.683817 58.327962 
L 18.117821 60.583366 
L 17.744642 62.8947 
L 17.566163 65.244743 
L 17.582443 67.616053 
L 17.791702 69.991171 
L 18.274839 72.743934 
L 19.006876 75.45168 
L 19.975826 78.088858 
L 21.166687 80.631499 
L 22.561661 83.057586 
L 24.140432 85.347418 
L 25.880469 87.483912 
L 27.757386 89.452875 
L 29.745311 91.243224 
L 32.118554 93.060764 
L 34.560345 94.628693 
L 37.029182 95.946651 
L 39.484133 97.020118 
L 42.180213 97.949639 
L 44.755864 98.608034 
L 47.418254 99.060681 
L 50.039173 99.282178 
L 52.642381 99.282445 
L 56.913156 99.186545 
L 56.997833 99.462288 
L 56.871831 99.979179 
L 56.179628 101.541426 
L 54.871553 104.617945 
L 53.893937 107.526357 
L 53.143991 110.479686 
L 52.602087 113.522786 
L 52.280079 116.517032 
L 52.158614 119.348754 
L 52.158614 119.348754 
" clip-path="url(#p04cc3dfba1)" style="fill: none; stroke: #2255aa; stroke-width: 2.8; stroke-linecap: round"/>
   </g>
   <g id="line2d_27">
    <path d="M 56.205621 138.740257 
L 57.468172 141.223368 
L 58.891222 143.5764 
L 60.46428 145.773264 
L 62.174411 147.789586 
L 64.006495 149.603067 
L 65.943513 151.193817 
L 67.966875 152.544644 
L 70.056769 153.641298 
L 71.885413 154.370479 
L 73.734466 154.899632 
L 75.590559 155.225505 
L 77.440439 155.346692 
L 79.271142 155.263635 
L 81.070177 154.978606 
L 82.825688 154.495667 
L 84.526615 153.820611 
L 86.162849 152.960878 
L 87.97804 151.73652 
L 89.680679 150.289821 
L 91.26096 148.639878 
L 92.711703 146.807839 
L 94.028485 144.816555 
L 95.367431 142.376872 
L 96.531614 139.798368 
L 97.641317 136.779429 
L 98.646292 133.342462 
L 99.51337 129.545597 
L 100.344502 124.827594 
L 102.13133 114.042641 
L 102.793076 111.726141 
L 103.543951 109.888275 
L 104.364741 108.451271 
L 105.352138 107.194547 
L 106.523518 106.109274 
L 107.891836 105.182921 
L 109.465224 104.39971 
L 110.554282 103.974766 
L 110.554282 103.974766 
" clip-path="url(#p04cc3dfba1)" style="fill: none; stroke: #2255aa; stroke-width: 2.8; stroke-linecap: round"/>
   </g>
   <g id="line2d_28">
    <path d="M 136.029335 73.245634 
L 135.66401 73.171043 
L 135.298031 73.097759 
L 134.931477 73.025761 
L 134.564427 72.955027 
L 134.196961 72.885534 
L 133.829155 72.817258 
L 133.461088 72.750175 
L 133.092839 72.684259 
L 132.724483 72.619486 
L 132.356098 72.555827 
L 131.987761 72.493257 
L 131.619548 72.431746 
L 131.251534 72.371265 
L 130.883794 72.311787 
L 130.516404 72.253279 
L 130.149437 72.195712 
L 129.782968 72.139054 
L 129.417068 72.083273 
L 129.051812 72.028336 
L 128.687269 71.97421 
L 128.323513 71.92086 
L 127.960613 71.868252 
L 127.598639 71.816352 
L 127.237661 71.765122 
L 126.877747 71.714528 
L 126.518965 71.664531 
L 126.161381 71.615095 
L 125.805063 71.566181 
L 125.450075 71.517752 
L 125.096482 71.469767 
L 124.744347 71.422189 
L 124.393735 71.374977 
L 124.044706 71.32809 
L 123.697322 71.281488 
L 123.351643 71.23513 
L 123.007728 71.188974 
L 122.665636 71.142979 
L 122.325424 71.097101 
L 121.987148 71.051299 
L 121.650863 71.005529 
L 121.316625 70.959749 
L 120.984486 70.913913 
L 120.654499 70.867979 
L 120.326715 70.821903 
L 120.001183 70.77564 
L 119.677954 70.729145 
L 119.357074 70.682373 
L 119.038591 70.63528 
L 118.722551 70.587821 
" clip-path="url(#p04cc3dfba1)" style="fill: none; stroke: #2255aa; stroke-width: 2.8; stroke-linecap: round"/>
   </g>
   <g id="line2d_29">
    <path d="M 136.029335 73.245634 
L 135.66401 73.171043 
L 135.298031 73.097759 
L 134.931477 73.025761 
L 134.564427 72.955027 
L 134.196961 72.885534 
L 133.829155 72.817258 
L 133.461088 72.750175 
L 133.092839 72.684259 
L 132.724483 72.619486 
L 132.356098 72.555827 
L 131.987761 72.493257 
L 131.619548 72.431746 
L 131.251534 72.371265 
L 130.883794 72.311787 
L 130.516404 72.253279 
L 130.149437 72.195712 
L 129.782968 72.139054 
L 129.417068 72.083273 
L 129.051812 72.028336 
L 128.687269 71.97421 
L 128.323513 71.92086 
L 127.960613 71.868252 
L 127.598639 71.816352 
L 127.237661 71.765122 
L 126.877747 71.714528 
L 126.518965 71.664531 
L 126.161381 71.615095 
L 125.805063 71.566181 
L 125.450075 71.517752 
L 125.096482 71.469767 
L 124.744347 71.422189 
L 124.393735 71.374977 
L 124.044706 71.32809 
L 123.697322 71.281488 
L 123.351643 71.23513 
L 123.007728 71.188974 
L 122.665636 71.142979 
L 122.325424 71.097101 
L 121.987148 71.051299 
L 121.650863 71.005529 
L 121.316625 70.959749 
L 120.984486 70.913913 
L 120.654499 70.867979 
L 120.326715 70.821903 
L 120.001183 70.77564 
L 119.677954 70.729145 
L 119.357074 70.682373 
L 119.038591 70.63528 
L 118.722551 70.587821 
" clip-path="url(#p04cc3dfba1)" style="fill: none; stroke: #2255aa; stroke-width: 2.8; stroke-linecap: round"/>
   </g>
   <g id="line2d_30">
    <path d="M 128.323513 71.92086 
L 127.960613 71.868252 
L 127.598639 71.816352 
L 127.237661 71.765122 
L 126.877747 71.714528 
L 126.518965 71.664531 
L 126.161381 71.615095 
L 125.805063 71.566181 
L 125.450075 71.517752 
L 125.096482 71.469767 
L 124.744347 71.422189 
L 124.393735 71.374977 
L 124.044706 71.32809 
L 123.697322 71.281488 
L 123.351643 71.23513 
L 123.007728 71.188974 
L 122.665636 71.142979 
L 122.325424 71.097101 
L 121.987148 71.051299 
L 121.650863 71.005529 
L 121.316625 70.959749 
L 120.984486 70.913913 
L 120.654499 70.867979 
L 120.326715 70.821903 
L 120.001183 70.77564 
L 119.677954 70.729145 
L 119.357074 70.682373 
L 119.038591 70.63528 
L 118.722551 70.587821 
L 118.408997 70.539949 
L 118.097974 70.49162 
L 117.789523 70.442787 
L 117.483685 70.393406 
L 117.180501 70.34343 
L 116.880009 70.292814 
L 116.582246 70.241511 
L 116.287249 70.189476 
L 115.995052 70.136663 
L 115.705689 70.083025 
L 115.419194 70.028517 
L 115.135596 69.973094 
L 114.854925 69.916708 
L 114.577212 69.859316 
L 114.302482 69.80087 
L 114.030762 69.741326 
L 113.762078 69.680638 
L 113.496451 69.618762 
L 113.233906 69.555652 
L 112.974462 69.491263 
L 112.718139 69.425551 
" clip-path="url(#p04cc3dfba1)" style="fill: none; stroke: #2255aa; stroke-width: 2.8; stroke-linecap: round"/>
   </g>
   <g id="line2d_31">
    <path d="M 128.323513 71.92086 
L 127.960613 71.868252 
L 127.598639 71.816352 
L 127.237661 71.765122 
L 126.877747 71.714528 
L 126.518965 71.664531 
L 126.161381 71.615095 
L 125.805063 71.566181 
L 125.450075 71.517752 
L 125.096482 71.469767 
L 124.744347 71.422189 
L 124.393735 71.374977 
L 124.044706 71.32809 
L 123.697322 71.281488 
L 123.351643 71.23513 
L 123.007728 71.188974 
L 122.665636 71.142979 
L 122.325424 71.097101 
L 121.987148 71.051299 
L 121.650863 71.005529 
L 121.316625 70.959749 
L 120.984486 70.913913 
L 120.654499 70.867979 
L 120.326715 70.821903 
L 120.001183 70.77564 
L 119.677954 70.729145 
L 119.357074 70.682373 
L 119.038591 70.63528 
L 118.722551 70.587821 
L 118.408997 70.539949 
L 118.097974 70.49162 
L 117.789523 70.442787 
L 117.483685 70.393406 
L 117.180501 70.34343 
L 116.880009 70.292814 
L 116.582246 70.241511 
L 116.287249 70.189476 
L 115.995052 70.136663 
L 115.705689 70.083025 
L 115.419194 70.028517 
L 115.135596 69.973094 
L 114.854925 69.916708 
L 114.577212 69.859316 
L 114.302482 69.80087 
L 114.030762 69.741326 
L 113.762078 69.680638 
L 113.496451 69.618762 
L 113.233906 69.555652 
L 112.974462 69.491263 
L 112.718139 69.425551 
" clip-path="url(#p04cc3dfba1)" style="fill: none; stroke: #2255aa; stroke-width: 2.8; stroke-linecap: round"/>
   </g>
   <g id="line2d_32">
    <path d="M 107.479273 38.029688 
L 107.140593 38.221956 
L 106.802768 38.416542 
L 106.465855 38.613383 
L 106.129907 38.812416 
L 105.794979 39.013578 
L 105.461124 39.216804 
L 105.128395 39.422031 
L 104.796843 39.629192 
L 104.466519 39.838221 
L 104.137474 40.049052 
L 103.809757 40.261619 
L 103.483415 40.475852 
L 103.158498 40.691685 
L 102.83505 40.909049 
L 102.513119 41.127874 
L 102.192749 41.348091 
L 101.873984 41.569631 
L 101.556866 41.792422 
L 101.241439 42.016395 
L 100.927743 42.241477 
L 100.615817 42.467599 
L 100.305702 42.694687 
L 99.997436 42.92267 
L 99.691054 43.151476 
L 99.386594 43.381031 
L 99.084091 43.611264 
L 98.783577 43.842102 
L 98.485087 44.073471 
L 98.188652 44.305297 
L 97.894302 44.537508 
L 97.602067 44.770031 
L 97.311977 45.00279 
L 97.024057 45.235713 
L 96.738335 45.468726 
L 96.454835 45.701756 
L 96.173581 45.934727 
L 95.894598 46.167568 
L 95.617905 46.400204 
L 95.343524 46.632561 
L 95.071473 46.864567 
L 94.801773 47.096147 
L 94.534438 47.327229 
L 94.269486 47.557739 
L 94.006931 47.787606 
L 93.746786 48.016755 
L 93.489065 48.245116 
L 93.233777 48.472615 
L 92.980934 48.699182 
L 92.730543 48.924744 
" clip-path="url(#p04cc3dfba1)" style="fill: none; stroke: #2255aa; stroke-width: 2.8; stroke-linecap: round"/>
   </g>
   <g id="line2d_33">
    <path d="M 112.278036 35.61424 
L 111.933554 35.76797 
L 111.589088 35.924805 
L 111.2447 36.084695 
L 110.900454 36.247588 
L 110.556412 36.413431 
L 110.212636 36.582171 
L 109.869188 36.753754 
L 109.526128 36.928125 
L 109.183517 37.105226 
L 108.841415 37.285002 
L 108.499881 37.467395 
L 108.158974 37.652347 
L 107.818752 37.839798 
L 107.479273 38.029688 
L 107.140593 38.221956 
L 106.802768 38.416542 
L 106.465855 38.613383 
L 106.129907 38.812416 
L 105.794979 39.013578 
L 105.461124 39.216804 
L 105.128395 39.422031 
L 104.796843 39.629192 
L 104.466519 39.838221 
L 104.137474 40.049052 
L 103.809757 40.261619 
L 103.483415 40.475852 
L 103.158498 40.691685 
L 102.83505 40.909049 
L 102.513119 41.127874 
L 102.192749 41.348091 
L 101.873984 41.569631 
L 101.556866 41.792422 
L 101.241439 42.016395 
L 100.927743 42.241477 
L 100.615817 42.467599 
L 100.305702 42.694687 
L 99.997436 42.92267 
L 99.691054 43.151476 
L 99.386594 43.381031 
L 99.084091 43.611264 
L 98.783577 43.842102 
L 98.485087 44.073471 
L 98.188652 44.305297 
L 97.894302 44.537508 
L 97.602067 44.770031 
L 97.311977 45.00279 
L 97.024057 45.235713 
L 96.738335 45.468726 
L 96.454835 45.701756 
" clip-path="url(#p04cc3dfba1)" style="fill: none; stroke: #2255aa; stroke-width: 2.8; stroke-linecap: round"/>
   </g>
   <g id="line2d_34">
    <path d="M 105.128395 39.422031 
L 104.796843 39.629192 
L 104.466519 39.838221 
L 104.137474 40.049052 
L 103.809757 40.261619 
L 103.483415 40.475852 
L 103.158498 40.691685 
L 102.83505 40.909049 
L 102.513119 41.127874 
L 102.192749 41.348091 
L 101.873984 41.569631 
L 101.556866 41.792422 
L 101.241439 42.016395 
L 100.927743 42.241477 
L 100.615817 42.467599 
L 100.305702 42.694687 
L 99.997436 42.92267 
L 99.691054 43.151476 
L 99.386594 43.381031 
L 99.084091 43.611264 
L 98.783577 43.842102 
L 98.485087 44.073471 
L 98.188652 44.305297 
L 97.894302 44.537508 
L 97.602067 44.770031 
L 97.311977 45.00279 
L 97.024057 45.235713 
L 96.738335 45.468726 
L 96.454835 45.701756 
L 96.173581 45.934727 
L 95.894598 46.167568 
L 95.617905 46.400204 
L 95.343524 46.632561 
L 95.071473 46.864567 
L 94.801773 47.096147 
L 94.534438 47.327229 
L 94.269486 47.557739 
L 94.006931 47.787606 
L 93.746786 48.016755 
L 93.489065 48.245116 
L 93.233777 48.472615 
L 92.980934 48.699182 
L 92.730543 48.924744 
L 92.482613 49.14923 
L 92.23715 49.37257 
L 91.994159 49.594694 
L 91.753644 49.815531 
L 91.515609 50.035012 
L 91.280054 50.253068 
L 91.046981 50.469631 
" clip-path="url(#p04cc3dfba1)" style="fill: none; stroke: #2255aa; stroke-width: 2.8; stroke-linecap: round"/>
   </g>
   <g id="line2d_35">
    <path d="M 58.891222 29.165776 
L 58.678473 29.492953 
L 58.468823 29.823247 
L 58.262305 30.156582 
L 58.058951 30.492881 
L 57.858791 30.83207 
L 57.661856 31.174071 
L 57.468172 31.518808 
L 57.277769 31.8662 
L 57.090672 32.216172 
L 56.906906 32.568642 
L 56.726496 32.923532 
L 56.549464 33.280762 
L 56.375832 33.640251 
L 56.205621 34.001918 
L 56.03885 34.365682 
L 55.875538 34.731461 
L 55.715701 35.099173 
L 55.559356 35.468736 
L 55.406516 35.840066 
L 55.257197 36.213082 
L 55.111409 36.587699 
L 54.969164 36.963835 
L 54.830471 37.341405 
L 54.69534 37.720326 
L 54.563778 38.100514 
L 54.435791 38.481885 
L 54.311383 38.864354 
L 54.190559 39.247837 
L 54.07332 39.632251 
L 53.959668 40.017511 
L 53.849603 40.403532 
L 53.743124 40.79023 
L 53.640227 41.177521 
L 53.540909 41.565321 
L 53.445165 41.953546 
L 53.352988 42.342113 
L 53.264371 42.730936 
L 53.179305 43.119934 
L 53.09778 43.509023 
L 53.019784 43.898119 
L 52.945305 44.287141 
L 52.874329 44.676005 
L 52.806841 45.06463 
L 52.742824 45.452933 
L 52.682261 45.840834 
L 52.625133 46.228252 
L 52.571419 46.615105 
L 52.5211 47.001315 
L 52.474152 47.3868 
" clip-path="url(#p04cc3dfba1)" style="fill: none; stroke: #2255aa; stroke-width: 2.8; stroke-linecap: round"/>
   </g>
   <g id="line2d_36">
    <path d="M 55.111409 36.587699 
L 54.969164 36.963835 
L 54.830471 37.341405 
L 54.69534 37.720326 
L 54.563778 38.100514 
L 54.435791 38.481885 
L 54.311383 38.864354 
L 54.190559 39.247837 
L 54.07332 39.632251 
L 53.959668 40.017511 
L 53.849603 40.403532 
L 53.743124 40.79023 
L 53.640227 41.177521 
L 53.540909 41.565321 
L 53.445165 41.953546 
L 53.352988 42.342113 
L 53.264371 42.730936 
L 53.179305 43.119934 
L 53.09778 43.509023 
L 53.019784 43.898119 
L 52.945305 44.287141 
L 52.874329 44.676005 
L 52.806841 45.06463 
L 52.742824 45.452933 
L 52.682261 45.840834 
L 52.625133 46.228252 
L 52.571419 46.615105 
L 52.5211 47.001315 
L 52.474152 47.3868 
L 52.430552 47.771483 
L 52.390275 48.155284 
L 52.353294 48.538126 
L 52.319583 48.919932 
L 52.289114 49.300623 
L 52.261856 49.680125 
L 52.237779 50.058361 
L 52.216851 50.435256 
L 52.19904 50.810737 
L 52.18431 51.18473 
L 52.172628 51.557163 
L 52.163957 51.927962 
L 52.158258 52.297058 
L 52.155495 52.664379 
L 52.155627 53.029856 
L 52.158614 53.393421 
L 52.164414 53.755006 
L 52.172984 54.114543 
L 52.184282 54.471967 
L 52.198262 54.827212 
L 52.214879 55.180215 
" clip-path="url(#p04cc3dfba1)" style="fill: none; stroke: #2255aa; stroke-width: 2.8; stroke-linecap: round"/>
   </g>
   <g id="line2d_37">
    <path d="M 18.274839 72.743934 
L 18.364423 73.134122 
L 18.45906 73.523312 
L 18.558719 73.91143 
L 18.663366 74.2984 
L 18.772965 74.684148 
L 18.887481 75.068599 
L 19.006876 75.45168 
L 19.13111 75.833318 
L 19.260145 76.213441 
L 19.393938 76.591978 
L 19.532447 76.968858 
L 19.675629 77.344011 
L 19.823437 77.717367 
L 19.975826 78.088858 
L 20.132749 78.458417 
L 20.294156 78.825976 
L 20.459999 79.19147 
L 20.630226 79.554833 
L 20.804785 79.916001 
L 20.983623 80.27491 
L 21.166687 80.631499 
L 21.35392 80.985705 
L 21.545267 81.337467 
L 21.74067 81.686728 
L 21.940071 82.033427 
L 22.14341 82.377507 
L 22.350627 82.718912 
L 22.561661 83.057586 
L 22.77645 83.393476 
L 22.994931 83.726526 
L 23.217038 84.056686 
L 23.442709 84.383905 
L 23.671875 84.708132 
L 23.904472 85.029319 
L 24.140432 85.347418 
L 24.379685 85.662383 
L 24.622164 85.974168 
L 24.867799 86.282731 
L 25.116518 86.588027 
L 25.368251 86.890016 
L 25.622925 87.188657 
L 25.880469 87.483912 
L 26.140809 87.775742 
L 26.403871 88.064112 
L 26.66958 88.348987 
L 26.937862 88.630332 
L 27.208641 88.908115 
L 27.481841 89.182306 
L 27.757386 89.452875 
" clip-path="url(#p04cc3dfba1)" style="fill: none; stroke: #2255aa; stroke-width: 2.8; stroke-linecap: round"/>
   </g>
   <g id="line2d_38">
    <path d="M 21.166687 80.631499 
L 21.35392 80.985705 
L 21.545267 81.337467 
L 21.74067 81.686728 
L 21.940071 82.033427 
L 22.14341 82.377507 
L 22.350627 82.718912 
L 22.561661 83.057586 
L 22.77645 83.393476 
L 22.994931 83.726526 
L 23.217038 84.056686 
L 23.442709 84.383905 
L 23.671875 84.708132 
L 23.904472 85.029319 
L 24.140432 85.347418 
L 24.379685 85.662383 
L 24.622164 85.974168 
L 24.867799 86.282731 
L 25.116518 86.588027 
L 25.368251 86.890016 
L 25.622925 87.188657 
L 25.880469 87.483912 
L 26.140809 87.775742 
L 26.403871 88.064112 
L 26.66958 88.348987 
L 26.937862 88.630332 
L 27.208641 88.908115 
L 27.481841 89.182306 
L 27.757386 89.452875 
L 28.035197 89.719793 
L 28.315199 89.983033 
L 28.597312 90.24257 
L 28.881459 90.49838 
L 29.16756 90.75044 
L 29.455537 90.998728 
L 29.745311 91.243224 
L 30.036801 91.48391 
L 30.329928 91.720769 
L 30.624611 91.953785 
L 30.920771 92.182943 
L 31.218326 92.408231 
L 31.517195 92.629636 
L 31.817298 92.84715 
L 32.118554 93.060764 
L 32.420881 93.270469 
L 32.724198 93.476262 
L 33.028424 93.678136 
L 33.333478 93.87609 
L 33.639278 94.070122 
L 33.945743 94.260232 
" clip-path="url(#p04cc3dfba1)" style="fill: none; stroke: #2255aa; stroke-width: 2.8; stroke-linecap: round"/>
   </g>
   <g id="line2d_39">
    <path d="M 19.975826 78.088858 
L 20.132749 78.458417 
L 20.294156 78.825976 
L 20.459999 79.19147 
L 20.630226 79.554833 
L 20.804785 79.916001 
L 20.983623 80.27491 
L 21.166687 80.631499 
L 21.35392 80.985705 
L 21.545267 81.337467 
L 21.74067 81.686728 
L 21.940071 82.033427 
L 22.14341 82.377507 
L 22.350627 82.718912 
L 22.561661 83.057586 
L 22.77645 83.393476 
L 22.994931 83.726526 
L 23.217038 84.056686 
L 23.442709 84.383905 
L 23.671875 84.708132 
L 23.904472 85.029319 
L 24.140432 85.347418 
L 24.379685 85.662383 
L 24.622164 85.974168 
L 24.867799 86.282731 
L 25.116518 86.588027 
L 25.368251 86.890016 
L 25.622925 87.188657 
L 25.880469 87.483912 
L 26.140809 87.775742 
L 26.403871 88.064112 
L 26.66958 88.348987 
L 26.937862 88.630332 
L 27.208641 88.908115 
L 27.481841 89.182306 
L 27.757386 89.452875 
L 28.035197 89.719793 
L 28.315199 89.983033 
L 28.597312 90.24257 
L 28.881459 90.49838 
L 29.16756 90.75044 
L 29.455537 90.998728 
L 29.745311 91.243224 
L 30.036801 91.48391 
L 30.329928 91.720769 
L 30.624611 91.953785 
L 30.920771 92.182943 
L 31.218326 92.408231 
L 31.517195 92.629636 
L 31.817298 92.84715 
" clip-path="url(#p04cc3dfba1)" style="fill: none; stroke: #2255aa; stroke-width: 2.8; stroke-linecap: round"/>
   </g>
   <g id="line2d_40">
    <path d="M 40.978145 132.513313 
L 41.352347 132.547452 
L 41.727013 132.576734 
L 42.102069 132.601181 
L 42.477445 132.620815 
L 42.853069 132.63566 
L 43.22887 132.645743 
L 43.604777 132.651089 
L 43.980721 132.651728 
L 44.356632 132.647688 
L 44.73244 132.639002 
L 45.108077 132.625701 
L 45.483475 132.60782 
L 45.858566 132.585392 
L 46.233283 132.558456 
L 46.60756 132.527048 
L 46.98133 132.491208 
L 47.354529 132.450976 
L 47.727091 132.406393 
L 48.098954 132.357502 
L 48.470053 132.304348 
L 48.840327 132.246975 
L 49.209713 132.185431 
L 49.57815 132.119762 
L 49.945579 132.050018 
L 50.311939 131.976249 
L 50.677172 131.898506 
L 51.04122 131.816841 
L 51.404027 131.731308 
L 51.765536 131.641961 
L 52.125691 131.548855 
L 52.484439 131.452048 
L 52.841726 131.351598 
L 53.197499 131.247562 
L 53.551707 131.14 
L 53.904299 131.028974 
L 54.255226 130.914544 
L 54.604438 130.796774 
L 54.951889 130.675727 
L 55.297531 130.551468 
L 55.641319 130.424061 
L 55.983209 130.293573 
L 56.323156 130.16007 
L 56.661119 130.023621 
L 56.997055 129.884294 
L 57.330925 129.742159 
L 57.66269 129.597285 
L 57.992311 129.449743 
L 58.319752 129.299605 
L 58.644977 129.146943 
" clip-path="url(#p04cc3dfba1)" style="fill: none; stroke: #2255aa; stroke-width: 2.8; stroke-linecap: round"/>
   </g>
   <g id="line2d_41">
    <path d="M 48.840327 132.246975 
L 49.209713 132.185431 
L 49.57815 132.119762 
L 49.945579 132.050018 
L 50.311939 131.976249 
L 50.677172 131.898506 
L 51.04122 131.816841 
L 51.404027 131.731308 
L 51.765536 131.641961 
L 52.125691 131.548855 
L 52.484439 131.452048 
L 52.841726 131.351598 
L 53.197499 131.247562 
L 53.551707 131.14 
L 53.904299 131.028974 
L 54.255226 130.914544 
L 54.604438 130.796774 
L 54.951889 130.675727 
L 55.297531 130.551468 
L 55.641319 130.424061 
L 55.983209 130.293573 
L 56.323156 130.16007 
L 56.661119 130.023621 
L 56.997055 129.884294 
L 57.330925 129.742159 
L 57.66269 129.597285 
L 57.992311 129.449743 
L 58.319752 129.299605 
L 58.644977 129.146943 
L 58.96795 128.99183 
L 59.288639 128.834339 
L 59.607011 128.674545 
L 59.923035 128.512521 
L 60.23668 128.348343 
L 60.547919 128.182087 
L 60.856724 128.01383 
L 61.163067 127.843647 
L 61.466924 127.671615 
L 61.768271 127.497813 
L 62.067085 127.322319 
L 62.363344 127.14521 
L 62.657028 126.966566 
L 62.948117 126.786465 
L 63.236595 126.604987 
L 63.522444 126.422211 
L 63.805648 126.238217 
L 64.086194 126.053086 
L 64.364069 125.866897 
L 64.63926 125.679732 
L 64.911758 125.49167 
" clip-path="url(#p04cc3dfba1)" style="fill: none; stroke: #2255aa; stroke-width: 2.8; stroke-linecap: round"/>
   </g>
   <g id="line2d_42">
    <path d="M 97.294095 137.796475 
L 97.412299 137.458477 
L 97.52803 137.119436 
L 97.641317 136.779429 
L 97.752186 136.438528 
L 97.860666 136.096809 
L 97.966787 135.754347 
L 98.07058 135.411214 
L 98.172076 135.067486 
L 98.271309 134.723234 
L 98.368311 134.378534 
L 98.463119 134.033457 
L 98.555767 133.688075 
L 98.646292 133.342462 
L 98.734732 132.996689 
L 98.821125 132.650826 
L 98.905512 132.304946 
L 98.987931 131.959118 
L 99.068425 131.613412 
L 99.147036 131.267898 
L 99.223806 130.922645 
L 99.29878 130.577721 
L 99.372001 130.233193 
L 99.443516 129.88913 
L 99.51337 129.545597 
L 99.581611 129.202661 
L 99.648285 128.860388 
L 99.713442 128.518841 
L 99.77713 128.178085 
L 99.839399 127.838183 
L 99.9003 127.499198 
L 99.959884 127.161192 
L 100.018202 126.824225 
L 100.075307 126.488359 
L 100.131251 126.153653 
L 100.186089 125.820166 
L 100.239873 125.487956 
L 100.292659 125.15708 
L 100.344502 124.827594 
L 100.395457 124.499554 
L 100.445579 124.173014 
L 100.494927 123.848029 
L 100.543555 123.524651 
L 100.591522 123.202932 
L 100.638885 122.882923 
L 100.685702 122.564674 
L 100.732031 122.248234 
L 100.777931 121.933652 
L 100.82346 121.620974 
L 100.868678 121.310247 
" clip-path="url(#p04cc3dfba1)" style="fill: none; stroke: #2255aa; stroke-width: 2.8; stroke-linecap: round"/>
   </g>
   <g id="line2d_43">
    <path d="M 95.367431 142.376872 
L 95.522414 142.061368 
L 95.674669 141.743769 
L 95.824208 141.424149 
L 95.971042 141.102583 
L 96.115185 140.779147 
L 96.25665 140.453915 
L 96.395454 140.126964 
L 96.531614 139.798368 
L 96.665145 139.468202 
L 96.796069 139.136543 
L 96.924404 138.803465 
L 97.050171 138.469044 
L 97.173394 138.133356 
L 97.294095 137.796475 
L 97.412299 137.458477 
L 97.52803 137.119436 
L 97.641317 136.779429 
L 97.752186 136.438528 
L 97.860666 136.096809 
L 97.966787 135.754347 
L 98.07058 135.411214 
L 98.172076 135.067486 
L 98.271309 134.723234 
L 98.368311 134.378534 
L 98.463119 134.033457 
L 98.555767 133.688075 
L 98.646292 133.342462 
L 98.734732 132.996689 
L 98.821125 132.650826 
L 98.905512 132.304946 
L 98.987931 131.959118 
L 99.068425 131.613412 
L 99.147036 131.267898 
L 99.223806 130.922645 
L 99.29878 130.577721 
L 99.372001 130.233193 
L 99.443516 129.88913 
L 99.51337 129.545597 
L 99.581611 129.202661 
L 99.648285 128.860388 
L 99.713442 128.518841 
L 99.77713 128.178085 
L 99.839399 127.838183 
L 99.9003 127.499198 
L 99.959884 127.161192 
L 100.018202 126.824225 
L 100.075307 126.488359 
L 100.131251 126.153653 
L 100.186089 125.820166 
" clip-path="url(#p04cc3dfba1)" style="fill: none; stroke: #2255aa; stroke-width: 2.8; stroke-linecap: round"/>
   </g>
   <g id="line2d_44">
    <path d="M 98.07058 135.411214 
L 98.172076 135.067486 
L 98.271309 134.723234 
L 98.368311 134.378534 
L 98.463119 134.033457 
L 98.555767 133.688075 
L 98.646292 133.342462 
L 98.734732 132.996689 
L 98.821125 132.650826 
L 98.905512 132.304946 
L 98.987931 131.959118 
L 99.068425 131.613412 
L 99.147036 131.267898 
L 99.223806 130.922645 
L 99.29878 130.577721 
L 99.372001 130.233193 
L 99.443516 129.88913 
L 99.51337 129.545597 
L 99.581611 129.202661 
L 99.648285 128.860388 
L 99.713442 128.518841 
L 99.77713 128.178085 
L 99.839399 127.838183 
L 99.9003 127.499198 
L 99.959884 127.161192 
L 100.018202 126.824225 
L 100.075307 126.488359 
L 100.131251 126.153653 
L 100.186089 125.820166 
L 100.239873 125.487956 
L 100.292659 125.15708 
L 100.344502 124.827594 
L 100.395457 124.499554 
L 100.445579 124.173014 
L 100.494927 123.848029 
L 100.543555 123.524651 
L 100.591522 123.202932 
L 100.638885 122.882923 
L 100.685702 122.564674 
L 100.732031 122.248234 
L 100.777931 121.933652 
L 100.82346 121.620974 
L 100.868678 121.310247 
L 100.913644 121.001516 
L 100.958418 120.694825 
L 101.003058 120.390218 
L 101.047626 120.087736 
L 101.092181 119.78742 
L 101.136783 119.489311 
L 101.181493 119.193448 
" clip-path="url(#p04cc3dfba1)" style="fill: none; stroke: #2255aa; stroke-width: 2.8; stroke-linecap: round"/>
   </g>
   <g id="line2d_45">
    <path d="M 130.625546 113.62495 
L 130.43947 113.318657 
L 130.251771 113.012764 
L 130.062524 112.707306 
L 129.871802 112.402314 
L 129.679681 112.09782 
L 129.486235 111.793856 
L 129.291539 111.490451 
L 129.095669 111.187635 
L 128.898701 110.885437 
L 128.700711 110.583885 
L 128.501775 110.283005 
L 128.30197 109.982824 
L 128.101372 109.683369 
L 127.900059 109.384663 
L 127.698107 109.08673 
L 127.495593 108.789595 
L 127.292595 108.493279 
L 127.08919 108.197804 
L 126.885456 107.90319 
L 126.681468 107.609459 
L 126.477306 107.316628 
L 126.273045 107.024716 
L 126.068763 106.733741 
L 125.864538 106.44372 
L 125.660445 106.154668 
L 125.456562 105.8666 
L 125.252966 105.579531 
L 125.049732 105.293474 
L 124.846937 105.008441 
L 124.644657 104.724444 
L 124.442968 104.441494 
L 124.241944 104.159601 
L 124.04166 103.878774 
L 123.842193 103.599022 
L 123.643614 103.320352 
L 123.446 103.04277 
L 123.249422 102.766283 
L 123.053954 102.490896 
L 122.859668 102.216613 
L 122.666637 101.943437 
L 122.474932 101.671371 
L 122.284624 101.400417 
L 122.095782 101.130575 
L 121.908478 100.861847 
L 121.72278 100.594231 
L 121.538757 100.327726 
L 121.356475 100.06233 
L 121.176004 99.79804 
L 120.997409 99.534852 
" clip-path="url(#p04cc3dfba1)" style="fill: none; stroke: #2255aa; stroke-width: 2.8; stroke-linecap: round"/>
   </g>
   <g id="line2d_46">
    <path d="M 127.900059 109.384663 
L 127.698107 109.08673 
L 127.495593 108.789595 
L 127.292595 108.493279 
L 127.08919 108.197804 
L 126.885456 107.90319 
L 126.681468 107.609459 
L 126.477306 107.316628 
L 126.273045 107.024716 
L 126.068763 106.733741 
L 125.864538 106.44372 
L 125.660445 106.154668 
L 125.456562 105.8666 
L 125.252966 105.579531 
L 125.049732 105.293474 
L 124.846937 105.008441 
L 124.644657 104.724444 
L 124.442968 104.441494 
L 124.241944 104.159601 
L 124.04166 103.878774 
L 123.842193 103.599022 
L 123.643614 103.320352 
L 123.446 103.04277 
L 123.249422 102.766283 
L 123.053954 102.490896 
L 122.859668 102.216613 
L 122.666637 101.943437 
L 122.474932 101.671371 
L 122.284624 101.400417 
L 122.095782 101.130575 
L 121.908478 100.861847 
L 121.72278 100.594231 
L 121.538757 100.327726 
L 121.356475 100.06233 
L 121.176004 99.79804 
L 120.997409 99.534852 
L 120.820755 99.272762 
L 120.646108 99.011765 
L 120.473532 98.751855 
L 120.30309 98.493024 
L 120.134845 98.235266 
L 119.968858 97.978573 
L 119.805191 97.722935 
L 119.643903 97.468343 
L 119.485054 97.214787 
L 119.328701 96.962256 
L 119.174902 96.710738 
L 119.023713 96.460221 
L 118.875189 96.210693 
L 118.729385 95.962138 
" clip-path="url(#p04cc3dfba1)" style="fill: none; stroke: #2255aa; stroke-width: 2.8; stroke-linecap: round"/>
   </g>
   <g id="line2d_47">
    <path d="M 126.477306 107.316628 
L 126.273045 107.024716 
L 126.068763 106.733741 
L 125.864538 106.44372 
L 125.660445 106.154668 
L 125.456562 105.8666 
L 125.252966 105.579531 
L 125.049732 105.293474 
L 124.846937 105.008441 
L 124.644657 104.724444 
L 124.442968 104.441494 
L 124.241944 104.159601 
L 124.04166 103.878774 
L 123.842193 103.599022 
L 123.643614 103.320352 
L 123.446 103.04277 
L 123.249422 102.766283 
L 123.053954 102.490896 
L 122.859668 102.216613 
L 122.666637 101.943437 
L 122.474932 101.671371 
L 122.284624 101.400417 
L 122.095782 101.130575 
L 121.908478 100.861847 
L 121.72278 100.594231 
L 121.538757 100.327726 
L 121.356475 100.06233 
L 121.176004 99.79804 
L 120.997409 99.534852 
L 120.820755 99.272762 
L 120.646108 99.011765 
L 120.473532 98.751855 
L 120.30309 98.493024 
L 120.134845 98.235266 
L 119.968858 97.978573 
L 119.805191 97.722935 
L 119.643903 97.468343 
L 119.485054 97.214787 
L 119.328701 96.962256 
L 119.174902 96.710738 
L 119.023713 96.460221 
L 118.875189 96.210693 
L 118.729385 95.962138 
L 118.586354 95.714544 
L 118.446148 95.467896 
L 118.308818 95.222177 
L 118.174414 94.977373 
L 118.042986 94.733466 
L 117.914581 94.490439 
L 117.789247 94.248275 
" clip-path="url(#p04cc3dfba1)" style="fill: none; stroke: #2255aa; stroke-width: 2.8; stroke-linecap: round"/>
   </g>
  </g>
 </g>
 <defs>
  <clipPath id="p04cc3dfba1">
   <rect x="3.6" y="3.6" width="167.4" height="165.542175"/>
  </clipPath>
 </defs>
</svg>
