<?xml version="1.0" encoding="utf-8" standalone="no"?>
<!DOCTYPE svg PUBLIC "-//W3C//DTD SVG 1.1//EN"
  "http://www.w3.org/Graphics/SVG/1.1/DTD/svg11.dtd">
<svg xmlns:xlink="http://www.w3.org/1999/xlink" width="166.851821pt" height="173.52pt" viewBox="0 0 166.851821 173.52" xmlns="http://www.w3.org/2000/svg" version="1.1">
 <metadata>
  <rdf:RDF xmlns:dc="http://purl.org/dc/elements/1.1/" xmlns:cc="http://creativecommons.org/ns#" xmlns:rdf="http://www.w3.org/1999/02/22-rdf-syntax-ns#">
   <cc:Work>
    <dc:type rdf:resource="http://purl.org/dc/dcmitype/StillImage"/>
    <dc:format>image/svg+xml</dc:format>
    <dc:creator>
     <cc:Agent>
      <dc:title>Matplotlib v3.10.8, https://matplotlib.org/</dc:title>
     </cc:Agent>
    </dc:creator>
   </cc:Work>
  </rdf:RDF>
 </metadata>
 <defs>
  <style type="text/css">*{stroke-linejoin: round; stroke-linecap: butt}</style>
 </defs>
 <g id="figure_1">
  <g id="patch_1">
   <path d="M 0 173.52 
L 166.851821 173.52 
L 166.851821 -0 
L 0 -0 
L 0 173.52 
z
" style="fill: none"/>
  </g>
  <g id="axes_1">
   <g id="line2d_1">
    <path d="M 108.903927 59.665792 
L 108.888974 59.347016 
L 108.872506 59.02747 
L 108.854491 58.707167 
L 108.834894 58.386121 
L 108.813682 58.064347 
L 108.790823 57.741857 
L 108.766284 57.418668 
L 108.740031 57.094794 
L 108.712031 56.770253 
L 108.682253 56.44506 
L 108.650663 56.119233 
L 108.617229 55.792789 
L 108.581918 55.465746 
L 108.544699 55.138123 
L 108.50554 54.809939 
L 108.464408 54.481213 
L 108.421273 54.151965 
L 108.376102 53.822216 
L 108.328865 53.491987 
L 108.27953 53.1613 
L 108.228066 52.830176 
L 108.174444 52.498637 
L 108.118632 52.166708 
L 108.060601 51.83441 
L 108.00032 51.501768 
L 107.937761 51.168807 
L 107.872894 50.835551 
L 107.805689 50.502025 
L 107.736119 50.168255 
L 107.664154 49.834267 
L 107.589767 49.500088 
L 107.51293 49.165745 
L 107.433615 48.831265 
L 107.351795 48.496676 
L 107.267444 48.162007 
L 107.180535 47.827286 
" clip-path="url(#p891580a850)" style="fill: none; stroke: #ffffff; stroke-width: 7.8; stroke-linecap: round"/>
   </g>
   <g id="line2d_2">
    <path d="M 108.682253 56.44506 
L 108.650663 56.119233 
L 108.617229 55.792789 
L 108.581918 55.465746 
L 108.544699 55.138123 
L 108.50554 54.809939 
L 108.464408 54.481213 
L 108.421273 54.151965 
L 108.376102 53.822216 
L 108.328865 53.491987 
L 108.27953 53.1613 
L 108.228066 52.830176 
L 108.174444 52.498637 
L 108.118632 52.166708 
L 108.060601 51.83441 
L 108.00032 51.501768 
L 107.937761 51.168807 
L 107.872894 50.835551 
L 107.805689 50.502025 
L 107.736119 50.168255 
L 107.664154 49.834267 
L 107.589767 49.500088 
L 107.51293 49.165745 
L 107.433615 48.831265 
L 107.351795 48.496676 
L 107.267444 48.162007 
L 107.180535 47.827286 
L 107.091042 47.492542 
L 106.998939 47.157805 
L 106.904201 46.823105 
L 106.806803 46.488472 
L 106.706721 46.153937 
L 106.603931 45.819531 
L 106.498408 45.485286 
L 106.390129 45.151234 
L 106.279073 44.817407 
L 106.165215 44.483837 
" clip-path="url(#p891580a850)" style="fill: none; stroke: #ffffff; stroke-width: 7.8; stroke-linecap: round"/>
   </g>
   <g id="line2d_3">
    <path d="M 108.957137 61.24771 
L 108.949257 60.932959 
L 108.94003 60.617381 
L 108.929421 60.300987 
L 108.917398 59.983787 
L 108.903927 59.665792 
L 108.888974 59.347016 
L 108.872506 59.02747 
L 108.854491 58.707167 
L 108.834894 58.386121 
L 108.813682 58.064347 
L 108.790823 57.741857 
L 108.766284 57.418668 
L 108.740031 57.094794 
L 108.712031 56.770253 
L 108.682253 56.44506 
L 108.650663 56.119233 
L 108.617229 55.792789 
L 108.581918 55.465746 
L 108.544699 55.138123 
L 108.50554 54.809939 
L 108.464408 54.481213 
L 108.421273 54.151965 
L 108.376102 53.822216 
L 108.328865 53.491987 
L 108.27953 53.1613 
L 108.228066 52.830176 
L 108.174444 52.498637 
L 108.118632 52.166708 
L 108.060601 51.83441 
L 108.00032 51.501768 
L 107.937761 51.168807 
L 107.872894 50.835551 
L 107.805689 50.502025 
L 107.736119 50.168255 
L 107.664154 49.834267 
L 107.589767 49.500088 
" clip-path="url(#p891580a850)" style="fill: none; stroke: #ffffff; stroke-width: 7.8; stroke-linecap: round"/>
   </g>
   <g id="line2d_4">
    <path d="M 108.813682 58.064347 
L 108.790823 57.741857 
L 108.766284 57.418668 
L 108.740031 57.094794 
L 108.712031 56.770253 
L 108.682253 56.44506 
L 108.650663 56.119233 
L 108.617229 55.792789 
L 108.581918 55.465746 
L 108.544699 55.138123 
L 108.50554 54.809939 
L 108.464408 54.481213 
L 108.421273 54.151965 
L 108.376102 53.822216 
L 108.328865 53.491987 
L 108.27953 53.1613 
L 108.228066 52.830176 
L 108.174444 52.498637 
L 108.118632 52.166708 
L 108.060601 51.83441 
L 108.00032 51.501768 
L 107.937761 51.168807 
L 107.872894 50.835551 
L 107.805689 50.502025 
L 107.736119 50.168255 
L 107.664154 49.834267 
L 107.589767 49.500088 
L 107.51293 49.165745 
L 107.433615 48.831265 
L 107.351795 48.496676 
L 107.267444 48.162007 
L 107.180535 47.827286 
L 107.091042 47.492542 
L 106.998939 47.157805 
L 106.904201 46.823105 
L 106.806803 46.488472 
L 106.706721 46.153937 
" clip-path="url(#p891580a850)" style="fill: none; stroke: #ffffff; stroke-width: 7.8; stroke-linecap: round"/>
   </g>
   <g id="line2d_5">
    <path d="M 108.50554 54.809939 
L 108.464408 54.481213 
L 108.421273 54.151965 
L 108.376102 53.822216 
L 108.328865 53.491987 
L 108.27953 53.1613 
L 108.228066 52.830176 
L 108.174444 52.498637 
L 108.118632 52.166708 
L 108.060601 51.83441 
L 108.00032 51.501768 
L 107.937761 51.168807 
L 107.872894 50.835551 
L 107.805689 50.502025 
L 107.736119 50.168255 
L 107.664154 49.834267 
L 107.589767 49.500088 
L 107.51293 49.165745 
L 107.433615 48.831265 
L 107.351795 48.496676 
L 107.267444 48.162007 
L 107.180535 47.827286 
L 107.091042 47.492542 
L 106.998939 47.157805 
L 106.904201 46.823105 
L 106.806803 46.488472 
L 106.706721 46.153937 
L 106.603931 45.819531 
L 106.498408 45.485286 
L 106.390129 45.151234 
L 106.279073 44.817407 
L 106.165215 44.483837 
L 106.048534 44.150558 
L 105.92901 43.817603 
L 105.80662 43.485005 
L 105.681343 43.152799 
L 105.553161 42.82102 
" clip-path="url(#p891580a850)" style="fill: none; stroke: #ffffff; stroke-width: 7.8; stroke-linecap: round"/>
   </g>
   <g id="line2d_6">
    <path d="M 108.957137 61.24771 
L 108.949257 60.932959 
L 108.94003 60.617381 
L 108.929421 60.300987 
L 108.917398 59.983787 
L 108.903927 59.665792 
L 108.888974 59.347016 
L 108.872506 59.02747 
L 108.854491 58.707167 
L 108.834894 58.386121 
L 108.813682 58.064347 
L 108.790823 57.741857 
L 108.766284 57.418668 
L 108.740031 57.094794 
L 108.712031 56.770253 
L 108.682253 56.44506 
L 108.650663 56.119233 
L 108.617229 55.792789 
L 108.581918 55.465746 
L 108.544699 55.138123 
L 108.50554 54.809939 
L 108.464408 54.481213 
L 108.421273 54.151965 
L 108.376102 53.822216 
L 108.328865 53.491987 
L 108.27953 53.1613 
L 108.228066 52.830176 
L 108.174444 52.498637 
L 108.118632 52.166708 
L 108.060601 51.83441 
L 108.00032 51.501768 
L 107.937761 51.168807 
L 107.872894 50.835551 
L 107.805689 50.502025 
L 107.736119 50.168255 
L 107.664154 49.834267 
L 107.589767 49.500088 
" clip-path="url(#p891580a850)" style="fill: none; stroke: #ffffff; stroke-width: 7.8; stroke-linecap: round"/>
   </g>
   <g id="line2d_7">
    <path d="M 108.813682 58.064347 
L 108.790823 57.741857 
L 108.766284 57.418668 
L 108.740031 57.094794 
L 108.712031 56.770253 
L 108.682253 56.44506 
L 108.650663 56.119233 
L 108.617229 55.792789 
L 108.581918 55.465746 
L 108.544699 55.138123 
L 108.50554 54.809939 
L 108.464408 54.481213 
L 108.421273 54.151965 
L 108.376102 53.822216 
L 108.328865 53.491987 
L 108.27953 53.1613 
L 108.228066 52.830176 
L 108.174444 52.498637 
L 108.118632 52.166708 
L 108.060601 51.83441 
L 108.00032 51.501768 
L 107.937761 51.168807 
L 107.872894 50.835551 
L 107.805689 50.502025 
L 107.736119 50.168255 
L 107.664154 49.834267 
L 107.589767 49.500088 
L 107.51293 49.165745 
L 107.433615 48.831265 
L 107.351795 48.496676 
L 107.267444 48.162007 
L 107.180535 47.827286 
L 107.091042 47.492542 
L 106.998939 47.157805 
L 106.904201 46.823105 
L 106.806803 46.488472 
L 106.706721 46.153937 
" clip-path="url(#p891580a850)" style="fill: none; stroke: #ffffff; stroke-width: 7.8; stroke-linecap: round"/>
   </g>
   <g id="line2d_8">
    <path d="M 108.50554 54.809939 
L 108.464408 54.481213 
L 108.421273 54.151965 
L 108.376102 53.822216 
L 108.328865 53.491987 
L 108.27953 53.1613 
L 108.228066 52.830176 
L 108.174444 52.498637 
L 108.118632 52.166708 
L 108.060601 51.83441 
L 108.00032 51.501768 
L 107.937761 51.168807 
L 107.872894 50.835551 
L 107.805689 50.502025 
L 107.736119 50.168255 
L 107.664154 49.834267 
L 107.589767 49.500088 
L 107.51293 49.165745 
L 107.433615 48.831265 
L 107.351795 48.496676 
L 107.267444 48.162007 
L 107.180535 47.827286 
L 107.091042 47.492542 
L 106.998939 47.157805 
L 106.904201 46.823105 
L 106.806803 46.488472 
L 106.706721 46.153937 
L 106.603931 45.819531 
L 106.498408 45.485286 
L 106.390129 45.151234 
L 106.279073 44.817407 
L 106.165215 44.483837 
L 106.048534 44.150558 
L 105.92901 43.817603 
L 105.80662 43.485005 
L 105.681343 43.152799 
L 105.553161 42.82102 
" clip-path="url(#p891580a850)" style="fill: none; stroke: #ffffff; stroke-width: 7.8; stroke-linecap: round"/>
   </g>
   <g id="line2d_9">
    <path d="M 26.439135 75.764537 
L 26.218098 76.036996 
L 25.998642 76.312537 
L 25.780807 76.591154 
L 25.564635 76.872842 
L 25.350168 77.157596 
L 25.137447 77.445409 
L 24.926514 77.736273 
L 24.71741 78.030181 
L 24.510176 78.327123 
L 24.304854 78.627091 
L 24.101484 78.930075 
L 23.900109 79.236063 
L 23.70077 79.545045 
L 23.503507 79.857009 
L 23.308362 80.171942 
L 23.115376 80.489831 
L 22.924589 80.810662 
L 22.736043 81.134421 
L 22.549777 81.461091 
L 22.365833 81.790659 
L 22.184251 82.123106 
L 22.005071 82.458415 
L 21.828332 82.79657 
L 21.654076 83.137551 
L 21.482341 83.481339 
L 21.313168 83.827915 
L 21.146594 84.177259 
L 20.982661 84.529348 
L 20.821405 84.884162 
L 20.662867 85.241678 
L 20.507083 85.601873 
L 20.354094 85.964724 
L 20.203935 86.330207 
L 20.056646 86.698297 
L 19.912263 87.068967 
L 19.770823 87.442193 
" clip-path="url(#p891580a850)" style="fill: none; stroke: #ffffff; stroke-width: 7.8; stroke-linecap: round"/>
   </g>
   <g id="line2d_10">
    <path d="M 26.439135 75.764537 
L 26.218098 76.036996 
L 25.998642 76.312537 
L 25.780807 76.591154 
L 25.564635 76.872842 
L 25.350168 77.157596 
L 25.137447 77.445409 
L 24.926514 77.736273 
L 24.71741 78.030181 
L 24.510176 78.327123 
L 24.304854 78.627091 
L 24.101484 78.930075 
L 23.900109 79.236063 
L 23.70077 79.545045 
L 23.503507 79.857009 
L 23.308362 80.171942 
L 23.115376 80.489831 
L 22.924589 80.810662 
L 22.736043 81.134421 
L 22.549777 81.461091 
L 22.365833 81.790659 
L 22.184251 82.123106 
L 22.005071 82.458415 
L 21.828332 82.79657 
L 21.654076 83.137551 
L 21.482341 83.481339 
L 21.313168 83.827915 
L 21.146594 84.177259 
L 20.982661 84.529348 
L 20.821405 84.884162 
L 20.662867 85.241678 
L 20.507083 85.601873 
L 20.354094 85.964724 
L 20.203935 86.330207 
L 20.056646 86.698297 
L 19.912263 87.068967 
L 19.770823 87.442193 
" clip-path="url(#p891580a850)" style="fill: none; stroke: #ffffff; stroke-width: 7.8; stroke-linecap: round"/>
   </g>
   <g id="line2d_11">
    <path d="M 25.350168 77.157596 
L 25.137447 77.445409 
L 24.926514 77.736273 
L 24.71741 78.030181 
L 24.510176 78.327123 
L 24.304854 78.627091 
L 24.101484 78.930075 
L 23.900109 79.236063 
L 23.70077 79.545045 
L 23.503507 79.857009 
L 23.308362 80.171942 
L 23.115376 80.489831 
L 22.924589 80.810662 
L 22.736043 81.134421 
L 22.549777 81.461091 
L 22.365833 81.790659 
L 22.184251 82.123106 
L 22.005071 82.458415 
L 21.828332 82.79657 
L 21.654076 83.137551 
L 21.482341 83.481339 
L 21.313168 83.827915 
L 21.146594 84.177259 
L 20.982661 84.529348 
L 20.821405 84.884162 
L 20.662867 85.241678 
L 20.507083 85.601873 
L 20.354094 85.964724 
L 20.203935 86.330207 
L 20.056646 86.698297 
L 19.912263 87.068967 
L 19.770823 87.442193 
L 19.632363 87.817948 
L 19.49692 88.196204 
L 19.364529 88.576934 
L 19.235227 88.960109 
L 19.109048 89.3457 
" clip-path="url(#p891580a850)" style="fill: none; stroke: #ffffff; stroke-width: 7.8; stroke-linecap: round"/>
   </g>
   <g id="line2d_12">
    <path d="M 24.304854 78.627091 
L 24.101484 78.930075 
L 23.900109 79.236063 
L 23.70077 79.545045 
L 23.503507 79.857009 
L 23.308362 80.171942 
L 23.115376 80.489831 
L 22.924589 80.810662 
L 22.736043 81.134421 
L 22.549777 81.461091 
L 22.365833 81.790659 
L 22.184251 82.123106 
L 22.005071 82.458415 
L 21.828332 82.79657 
L 21.654076 83.137551 
L 21.482341 83.481339 
L 21.313168 83.827915 
L 21.146594 84.177259 
L 20.982661 84.529348 
L 20.821405 84.884162 
L 20.662867 85.241678 
L 20.507083 85.601873 
L 20.354094 85.964724 
L 20.203935 86.330207 
L 20.056646 86.698297 
L 19.912263 87.068967 
L 19.770823 87.442193 
L 19.632363 87.817948 
L 19.49692 88.196204 
L 19.364529 88.576934 
L 19.235227 88.960109 
L 19.109048 89.3457 
L 18.986029 89.733677 
L 18.866203 90.12401 
L 18.749606 90.516669 
L 18.63627 90.911622 
L 18.526231 91.308838 
" clip-path="url(#p891580a850)" style="fill: none; stroke: #ffffff; stroke-width: 7.8; stroke-linecap: round"/>
   </g>
   <g id="line2d_13">
    <path d="M 23.308362 80.171942 
L 23.115376 80.489831 
L 22.924589 80.810662 
L 22.736043 81.134421 
L 22.549777 81.461091 
L 22.365833 81.790659 
L 22.184251 82.123106 
L 22.005071 82.458415 
L 21.828332 82.79657 
L 21.654076 83.137551 
L 21.482341 83.481339 
L 21.313168 83.827915 
L 21.146594 84.177259 
L 20.982661 84.529348 
L 20.821405 84.884162 
L 20.662867 85.241678 
L 20.507083 85.601873 
L 20.354094 85.964724 
L 20.203935 86.330207 
L 20.056646 86.698297 
L 19.912263 87.068967 
L 19.770823 87.442193 
L 19.632363 87.817948 
L 19.49692 88.196204 
L 19.364529 88.576934 
L 19.235227 88.960109 
L 19.109048 89.3457 
L 18.986029 89.733677 
L 18.866203 90.12401 
L 18.749606 90.516669 
L 18.63627 90.911622 
L 18.526231 91.308838 
L 18.41952 91.708282 
L 18.316171 92.109924 
L 18.216217 92.513728 
L 18.119689 92.919661 
L 18.026619 93.327688 
" clip-path="url(#p891580a850)" style="fill: none; stroke: #ffffff; stroke-width: 7.8; stroke-linecap: round"/>
   </g>
   <g id="line2d_14">
    <path d="M 23.308362 80.171942 
L 23.115376 80.489831 
L 22.924589 80.810662 
L 22.736043 81.134421 
L 22.549777 81.461091 
L 22.365833 81.790659 
L 22.184251 82.123106 
L 22.005071 82.458415 
L 21.828332 82.79657 
L 21.654076 83.137551 
L 21.482341 83.481339 
L 21.313168 83.827915 
L 21.146594 84.177259 
L 20.982661 84.529348 
L 20.821405 84.884162 
L 20.662867 85.241678 
L 20.507083 85.601873 
L 20.354094 85.964724 
L 20.203935 86.330207 
L 20.056646 86.698297 
L 19.912263 87.068967 
L 19.770823 87.442193 
L 19.632363 87.817948 
L 19.49692 88.196204 
L 19.364529 88.576934 
L 19.235227 88.960109 
L 19.109048 89.3457 
L 18.986029 89.733677 
L 18.866203 90.12401 
L 18.749606 90.516669 
L 18.63627 90.911622 
L 18.526231 91.308838 
L 18.41952 91.708282 
L 18.316171 92.109924 
L 18.216217 92.513728 
L 18.119689 92.919661 
L 18.026619 93.327688 
" clip-path="url(#p891580a850)" style="fill: none; stroke: #ffffff; stroke-width: 7.8; stroke-linecap: round"/>
   </g>
   <g id="line2d_15">
    <path d="M 22.365833 81.790659 
L 22.184251 82.123106 
L 22.005071 82.458415 
L 21.828332 82.79657 
L 21.654076 83.137551 
L 21.482341 83.481339 
L 21.313168 83.827915 
L 21.146594 84.177259 
L 20.982661 84.529348 
L 20.821405 84.884162 
L 20.662867 85.241678 
L 20.507083 85.601873 
L 20.354094 85.964724 
L 20.203935 86.330207 
L 20.056646 86.698297 
L 19.912263 87.068967 
L 19.770823 87.442193 
L 19.632363 87.817948 
L 19.49692 88.196204 
L 19.364529 88.576934 
L 19.235227 88.960109 
L 19.109048 89.3457 
L 18.986029 89.733677 
L 18.866203 90.12401 
L 18.749606 90.516669 
L 18.63627 90.911622 
L 18.526231 91.308838 
L 18.41952 91.708282 
L 18.316171 92.109924 
L 18.216217 92.513728 
L 18.119689 92.919661 
L 18.026619 93.327688 
L 17.937038 93.737773 
L 17.850977 94.149882 
L 17.768467 94.563978 
L 17.689536 94.980023 
L 17.614215 95.397981 
" clip-path="url(#p891580a850)" style="fill: none; stroke: #ffffff; stroke-width: 7.8; stroke-linecap: round"/>
   </g>
   <g id="line2d_16">
    <path d="M 21.482341 83.481339 
L 21.313168 83.827915 
L 21.146594 84.177259 
L 20.982661 84.529348 
L 20.821405 84.884162 
L 20.662867 85.241678 
L 20.507083 85.601873 
L 20.354094 85.964724 
L 20.203935 86.330207 
L 20.056646 86.698297 
L 19.912263 87.068967 
L 19.770823 87.442193 
L 19.632363 87.817948 
L 19.49692 88.196204 
L 19.364529 88.576934 
L 19.235227 88.960109 
L 19.109048 89.3457 
L 18.986029 89.733677 
L 18.866203 90.12401 
L 18.749606 90.516669 
L 18.63627 90.911622 
L 18.526231 91.308838 
L 18.41952 91.708282 
L 18.316171 92.109924 
L 18.216217 92.513728 
L 18.119689 92.919661 
L 18.026619 93.327688 
L 17.937038 93.737773 
L 17.850977 94.149882 
L 17.768467 94.563978 
L 17.689536 94.980023 
L 17.614215 95.397981 
L 17.542532 95.817813 
L 17.474516 96.239482 
L 17.410194 96.662948 
L 17.349595 97.088173 
L 17.292744 97.515115 
" clip-path="url(#p891580a850)" style="fill: none; stroke: #ffffff; stroke-width: 7.8; stroke-linecap: round"/>
   </g>
   <g id="line2d_17">
    <path d="M 21.482341 83.481339 
L 21.313168 83.827915 
L 21.146594 84.177259 
L 20.982661 84.529348 
L 20.821405 84.884162 
L 20.662867 85.241678 
L 20.507083 85.601873 
L 20.354094 85.964724 
L 20.203935 86.330207 
L 20.056646 86.698297 
L 19.912263 87.068967 
L 19.770823 87.442193 
L 19.632363 87.817948 
L 19.49692 88.196204 
L 19.364529 88.576934 
L 19.235227 88.960109 
L 19.109048 89.3457 
L 18.986029 89.733677 
L 18.866203 90.12401 
L 18.749606 90.516669 
L 18.63627 90.911622 
L 18.526231 91.308838 
L 18.41952 91.708282 
L 18.316171 92.109924 
L 18.216217 92.513728 
L 18.119689 92.919661 
L 18.026619 93.327688 
L 17.937038 93.737773 
L 17.850977 94.149882 
L 17.768467 94.563978 
L 17.689536 94.980023 
L 17.614215 95.397981 
L 17.542532 95.817813 
L 17.474516 96.239482 
L 17.410194 96.662948 
L 17.349595 97.088173 
L 17.292744 97.515115 
" clip-path="url(#p891580a850)" style="fill: none; stroke: #ffffff; stroke-width: 7.8; stroke-linecap: round"/>
   </g>
   <g id="line2d_18">
    <path d="M 20.662867 85.241678 
L 20.507083 85.601873 
L 20.354094 85.964724 
L 20.203935 86.330207 
L 20.056646 86.698297 
L 19.912263 87.068967 
L 19.770823 87.442193 
L 19.632363 87.817948 
L 19.49692 88.196204 
L 19.364529 88.576934 
L 19.235227 88.960109 
L 19.109048 89.3457 
L 18.986029 89.733677 
L 18.866203 90.12401 
L 18.749606 90.516669 
L 18.63627 90.911622 
L 18.526231 91.308838 
L 18.41952 91.708282 
L 18.316171 92.109924 
L 18.216217 92.513728 
L 18.119689 92.919661 
L 18.026619 93.327688 
L 17.937038 93.737773 
L 17.850977 94.149882 
L 17.768467 94.563978 
L 17.689536 94.980023 
L 17.614215 95.397981 
L 17.542532 95.817813 
L 17.474516 96.239482 
L 17.410194 96.662948 
L 17.349595 97.088173 
L 17.292744 97.515115 
L 17.23967 97.943736 
L 17.190396 98.373994 
L 17.144949 98.805848 
L 17.103354 99.239257 
L 17.065635 99.674178 
" clip-path="url(#p891580a850)" style="fill: none; stroke: #ffffff; stroke-width: 7.8; stroke-linecap: round"/>
   </g>
   <g id="line2d_19">
    <path d="M 96.481258 121.963725 
L 96.845274 122.001341 
L 97.210834 122.037188 
L 97.577916 122.071236 
L 97.946494 122.103453 
L 98.316545 122.133809 
L 98.688042 122.162274 
L 99.06096 122.188816 
L 99.435271 122.213407 
L 99.81095 122.236017 
L 100.187967 122.256616 
L 100.566296 122.275174 
L 100.945907 122.291664 
L 101.326771 122.306055 
L 101.708857 122.31832 
L 102.092137 122.328431 
L 102.476578 122.33636 
L 102.86215 122.342078 
L 103.24882 122.34556 
L 103.636556 122.346778 
L 104.025325 122.345704 
L 104.415094 122.342314 
L 104.805828 122.336581 
L 105.197493 122.32848 
L 105.590055 122.317985 
L 105.983478 122.305071 
L 106.377726 122.289714 
L 106.772762 122.271889 
L 107.168551 122.251574 
L 107.565054 122.228744 
L 107.962235 122.203377 
L 108.360055 122.17545 
L 108.758475 122.14494 
L 109.157457 122.111827 
L 109.556961 122.076089 
L 109.956948 122.037705 
L 110.357378 121.996654 
" clip-path="url(#p891580a850)" style="fill: none; stroke: #ffffff; stroke-width: 7.8; stroke-linecap: round"/>
   </g>
   <g id="line2d_20">
    <path d="M 100.187967 122.256616 
L 100.566296 122.275174 
L 100.945907 122.291664 
L 101.326771 122.306055 
L 101.708857 122.31832 
L 102.092137 122.328431 
L 102.476578 122.33636 
L 102.86215 122.342078 
L 103.24882 122.34556 
L 103.636556 122.346778 
L 104.025325 122.345704 
L 104.415094 122.342314 
L 104.805828 122.336581 
L 105.197493 122.32848 
L 105.590055 122.317985 
L 105.983478 122.305071 
L 106.377726 122.289714 
L 106.772762 122.271889 
L 107.168551 122.251574 
L 107.565054 122.228744 
L 107.962235 122.203377 
L 108.360055 122.17545 
L 108.758475 122.14494 
L 109.157457 122.111827 
L 109.556961 122.076089 
L 109.956948 122.037705 
L 110.357378 121.996654 
L 110.758209 121.952917 
L 111.159402 121.906473 
L 111.560914 121.857305 
L 111.962705 121.805393 
L 112.364731 121.750719 
L 112.766952 121.693265 
L 113.169323 121.633014 
L 113.571803 121.56995 
L 113.974347 121.504056 
L 114.376912 121.435317 
" clip-path="url(#p891580a850)" style="fill: none; stroke: #ffffff; stroke-width: 7.8; stroke-linecap: round"/>
   </g>
   <g id="line2d_21">
    <path d="M 104.025325 122.345704 
L 104.415094 122.342314 
L 104.805828 122.336581 
L 105.197493 122.32848 
L 105.590055 122.317985 
L 105.983478 122.305071 
L 106.377726 122.289714 
L 106.772762 122.271889 
L 107.168551 122.251574 
L 107.565054 122.228744 
L 107.962235 122.203377 
L 108.360055 122.17545 
L 108.758475 122.14494 
L 109.157457 122.111827 
L 109.556961 122.076089 
L 109.956948 122.037705 
L 110.357378 121.996654 
L 110.758209 121.952917 
L 111.159402 121.906473 
L 111.560914 121.857305 
L 111.962705 121.805393 
L 112.364731 121.750719 
L 112.766952 121.693265 
L 113.169323 121.633014 
L 113.571803 121.56995 
L 113.974347 121.504056 
L 114.376912 121.435317 
L 114.779455 121.363717 
L 115.18193 121.289241 
L 115.584294 121.211876 
L 115.986502 121.131607 
L 116.388507 121.048422 
L 116.790266 120.962308 
L 117.191732 120.873252 
L 117.59286 120.781243 
L 117.993604 120.68627 
L 118.393916 120.588323 
" clip-path="url(#p891580a850)" style="fill: none; stroke: #ffffff; stroke-width: 7.8; stroke-linecap: round"/>
   </g>
   <g id="line2d_22">
    <path d="M 96.481258 121.963725 
L 96.845274 122.001341 
L 97.210834 122.037188 
L 97.577916 122.071236 
L 97.946494 122.103453 
L 98.316545 122.133809 
L 98.688042 122.162274 
L 99.06096 122.188816 
L 99.435271 122.213407 
L 99.81095 122.236017 
L 100.187967 122.256616 
L 100.566296 122.275174 
L 100.945907 122.291664 
L 101.326771 122.306055 
L 101.708857 122.31832 
L 102.092137 122.328431 
L 102.476578 122.33636 
L 102.86215 122.342078 
L 103.24882 122.34556 
L 103.636556 122.346778 
L 104.025325 122.345704 
L 104.415094 122.342314 
L 104.805828 122.336581 
L 105.197493 122.32848 
L 105.590055 122.317985 
L 105.983478 122.305071 
L 106.377726 122.289714 
L 106.772762 122.271889 
L 107.168551 122.251574 
L 107.565054 122.228744 
L 107.962235 122.203377 
L 108.360055 122.17545 
L 108.758475 122.14494 
L 109.157457 122.111827 
L 109.556961 122.076089 
L 109.956948 122.037705 
L 110.357378 121.996654 
" clip-path="url(#p891580a850)" style="fill: none; stroke: #ffffff; stroke-width: 7.8; stroke-linecap: round"/>
   </g>
   <g id="line2d_23">
    <path d="M 100.187967 122.256616 
L 100.566296 122.275174 
L 100.945907 122.291664 
L 101.326771 122.306055 
L 101.708857 122.31832 
L 102.092137 122.328431 
L 102.476578 122.33636 
L 102.86215 122.342078 
L 103.24882 122.34556 
L 103.636556 122.346778 
L 104.025325 122.345704 
L 104.415094 122.342314 
L 104.805828 122.336581 
L 105.197493 122.32848 
L 105.590055 122.317985 
L 105.983478 122.305071 
L 106.377726 122.289714 
L 106.772762 122.271889 
L 107.168551 122.251574 
L 107.565054 122.228744 
L 107.962235 122.203377 
L 108.360055 122.17545 
L 108.758475 122.14494 
L 109.157457 122.111827 
L 109.556961 122.076089 
L 109.956948 122.037705 
L 110.357378 121.996654 
L 110.758209 121.952917 
L 111.159402 121.906473 
L 111.560914 121.857305 
L 111.962705 121.805393 
L 112.364731 121.750719 
L 112.766952 121.693265 
L 113.169323 121.633014 
L 113.571803 121.56995 
L 113.974347 121.504056 
L 114.376912 121.435317 
" clip-path="url(#p891580a850)" style="fill: none; stroke: #ffffff; stroke-width: 7.8; stroke-linecap: round"/>
   </g>
   <g id="line2d_24">
    <path d="M 104.025325 122.345704 
L 104.415094 122.342314 
L 104.805828 122.336581 
L 105.197493 122.32848 
L 105.590055 122.317985 
L 105.983478 122.305071 
L 106.377726 122.289714 
L 106.772762 122.271889 
L 107.168551 122.251574 
L 107.565054 122.228744 
L 107.962235 122.203377 
L 108.360055 122.17545 
L 108.758475 122.14494 
L 109.157457 122.111827 
L 109.556961 122.076089 
L 109.956948 122.037705 
L 110.357378 121.996654 
L 110.758209 121.952917 
L 111.159402 121.906473 
L 111.560914 121.857305 
L 111.962705 121.805393 
L 112.364731 121.750719 
L 112.766952 121.693265 
L 113.169323 121.633014 
L 113.571803 121.56995 
L 113.974347 121.504056 
L 114.376912 121.435317 
L 114.779455 121.363717 
L 115.18193 121.289241 
L 115.584294 121.211876 
L 115.986502 121.131607 
L 116.388507 121.048422 
L 116.790266 120.962308 
L 117.191732 120.873252 
L 117.59286 120.781243 
L 117.993604 120.68627 
L 118.393916 120.588323 
" clip-path="url(#p891580a850)" style="fill: none; stroke: #ffffff; stroke-width: 7.8; stroke-linecap: round"/>
   </g>
   <g id="line2d_25">
    <path d="M 98.316545 122.133809 
L 98.688042 122.162274 
L 99.06096 122.188816 
L 99.435271 122.213407 
L 99.81095 122.236017 
L 100.187967 122.256616 
L 100.566296 122.275174 
L 100.945907 122.291664 
L 101.326771 122.306055 
L 101.708857 122.31832 
L 102.092137 122.328431 
L 102.476578 122.33636 
L 102.86215 122.342078 
L 103.24882 122.34556 
L 103.636556 122.346778 
L 104.025325 122.345704 
L 104.415094 122.342314 
L 104.805828 122.336581 
L 105.197493 122.32848 
L 105.590055 122.317985 
L 105.983478 122.305071 
L 106.377726 122.289714 
L 106.772762 122.271889 
L 107.168551 122.251574 
L 107.565054 122.228744 
L 107.962235 122.203377 
L 108.360055 122.17545 
L 108.758475 122.14494 
L 109.157457 122.111827 
L 109.556961 122.076089 
L 109.956948 122.037705 
L 110.357378 121.996654 
L 110.758209 121.952917 
L 111.159402 121.906473 
L 111.560914 121.857305 
L 111.962705 121.805393 
L 112.364731 121.750719 
" clip-path="url(#p891580a850)" style="fill: none; stroke: #ffffff; stroke-width: 7.8; stroke-linecap: round"/>
   </g>
   <g id="line2d_26">
    <path d="M 102.092137 122.328431 
L 102.476578 122.33636 
L 102.86215 122.342078 
L 103.24882 122.34556 
L 103.636556 122.346778 
L 104.025325 122.345704 
L 104.415094 122.342314 
L 104.805828 122.336581 
L 105.197493 122.32848 
L 105.590055 122.317985 
L 105.983478 122.305071 
L 106.377726 122.289714 
L 106.772762 122.271889 
L 107.168551 122.251574 
L 107.565054 122.228744 
L 107.962235 122.203377 
L 108.360055 122.17545 
L 108.758475 122.14494 
L 109.157457 122.111827 
L 109.556961 122.076089 
L 109.956948 122.037705 
L 110.357378 121.996654 
L 110.758209 121.952917 
L 111.159402 121.906473 
L 111.560914 121.857305 
L 111.962705 121.805393 
L 112.364731 121.750719 
L 112.766952 121.693265 
L 113.169323 121.633014 
L 113.571803 121.56995 
L 113.974347 121.504056 
L 114.376912 121.435317 
L 114.779455 121.363717 
L 115.18193 121.289241 
L 115.584294 121.211876 
L 115.986502 121.131607 
L 116.388507 121.048422 
" clip-path="url(#p891580a850)" style="fill: none; stroke: #ffffff; stroke-width: 7.8; stroke-linecap: round"/>
   </g>
   <g id="line2d_27">
    <path d="M 117.59286 120.781243 
L 121.180108 119.818636 
L 124.314841 118.756719 
L 127.373112 117.498765 
L 130.330003 116.045434 
L 133.1607 114.399834 
L 135.840836 112.567525 
L 138.346821 110.556469 
L 140.378995 108.658205 
L 142.24642 106.639229 
L 143.935902 104.509058 
L 145.435371 102.278341 
L 146.734016 99.958758 
L 147.822399 97.562902 
L 148.69256 95.104156 
L 149.338102 92.59655 
L 149.754258 90.054624 
L 149.937951 87.493273 
L 149.887817 84.927592 
L 149.60423 82.372725 
L 149.089289 79.843701 
L 148.346802 77.355281 
L 147.382241 74.921805 
L 146.202683 72.557042 
L 144.816732 70.274053 
L 143.234429 68.085054 
L 141.467139 66.001297 
L 139.527431 64.03296 
L 137.42894 62.189042 
L 134.854947 60.243933 
L 132.115537 58.480834 
L 129.23463 56.906815 
L 126.236801 55.526517 
L 123.146942 54.342131 
L 119.989925 53.353404 
L 116.388507 52.471578 
L 112.766952 51.826735 
L 109.157457 51.408173 
L 105.590055 51.202015 
L 101.708857 51.20168 
L 97.946494 51.416547 
L 93.978276 51.866473 
L 89.885717 52.564721 
L 85.75921 53.501809 
L 81.414156 54.72558 
L 76.541489 56.340607 
L 66.056712 59.921493 
L 62.964434 60.663015 
L 59.717494 61.196065 
L 54.042361 61.82926 
L 49.942588 62.396974 
L 46.608296 63.087472 
L 43.793017 63.887426 
L 41.117867 64.865154 
L 38.630228 65.990782 
L 36.115578 67.368723 
L 33.85391 68.842716 
L 31.61906 70.55142 
L 29.437724 72.503945 
L 27.338262 74.705588 
L 26.218098 76.036996 
L 26.218098 76.036996 
" clip-path="url(#p891580a850)" style="fill: none; stroke: #2255aa; stroke-width: 2.8; stroke-linecap: round"/>
   </g>
   <g id="line2d_28">
    <path d="M 17.144949 98.805848 
L 16.935992 101.869963 
L 16.923418 104.995291 
L 17.113594 108.166034 
L 17.511391 111.365603 
L 18.120117 114.576774 
L 18.941455 117.781843 
L 19.975419 120.962798 
L 21.220333 124.101483 
L 22.672827 127.179773 
L 24.327851 130.179748 
L 26.178707 133.083857 
L 28.217101 135.875093 
L 30.433215 138.537145 
L 32.81579 141.054559 
L 35.352228 143.412879 
L 38.028715 145.598778 
L 40.830345 147.600184 
L 43.741266 149.406386 
L 46.744834 151.008123 
L 49.823775 152.397666 
L 52.960352 153.568874 
L 56.136537 154.51724 
L 59.334191 155.239914 
L 62.535241 155.735711 
L 65.72185 156.005099 
L 68.876595 156.050175 
L 71.982629 155.874612 
L 75.023846 155.483604 
L 77.985025 154.883783 
L 80.851974 154.083128 
L 83.611656 153.090857 
L 86.252301 151.917311 
L 88.763502 150.573821 
L 91.136303 149.07257 
L 93.363255 147.426447 
L 95.722271 145.385033 
L 97.876899 143.192653 
L 99.823605 140.87036 
L 101.561549 138.439268 
L 103.09252 135.920249 
L 104.420828 133.333644 
L 105.681343 130.367201 
L 106.706721 127.366063 
L 107.51293 124.354255 
L 108.174444 121.021363 
L 108.650663 117.400767 
L 108.917398 113.536213 
L 108.972907 109.478212 
L 108.812845 104.692406 
L 108.267097 96.597453 
L 107.917237 90.072884 
L 107.876442 85.233585 
L 108.065246 80.09173 
L 108.973023 62.186905 
L 108.949257 60.932959 
L 108.949257 60.932959 
" clip-path="url(#p891580a850)" style="fill: none; stroke: #2255aa; stroke-width: 2.8; stroke-linecap: round"/>
   </g>
   <g id="line2d_29">
    <path d="M 105.80662 43.485005 
L 104.572925 40.51345 
L 103.269527 37.91979 
L 101.764175 35.391224 
L 100.052253 32.948008 
L 98.131651 30.610962 
L 96.002876 28.401188 
L 93.669122 26.339762 
L 91.463523 24.674029 
L 89.111138 23.151279 
L 86.619194 21.784487 
L 83.996437 20.585948 
L 81.253071 19.567123 
L 78.400675 18.738503 
L 75.452114 18.109472 
L 72.421422 17.688195 
L 69.32368 17.481502 
L 66.174879 17.494797 
L 62.991767 17.731975 
L 59.791696 18.195361 
L 56.592453 18.885657 
L 53.41209 19.801917 
L 50.268747 20.941528 
L 47.180478 22.300218 
L 44.165072 23.872079 
L 41.239879 25.649603 
L 38.421646 27.623746 
L 35.726346 29.783998 
L 33.169027 32.118474 
L 30.763671 34.61402 
L 28.523056 37.256335 
L 26.458637 40.030095 
L 24.580446 42.919107 
L 22.896998 45.90645 
L 21.415223 48.974643 
L 20.140409 52.105807 
L 19.076167 55.281836 
L 18.224415 58.484568 
L 17.58538 61.69596 
L 17.157616 64.898254 
L 16.938043 68.074147 
L 16.922008 71.20695 
L 17.103354 74.280743 
L 17.542532 77.702187 
L 18.216217 81.006272 
L 19.109048 84.1743 
L 20.203935 87.189793 
L 21.482341 90.038661 
L 22.924589 92.709338 
L 24.510176 95.192877 
L 26.218098 97.483004 
L 28.25938 99.823851 
L 30.398817 101.914375 
L 32.607352 103.757649 
L 34.857299 105.360696 
L 37.374512 106.873253 
L 39.87912 108.122041 
L 42.586751 109.219723 
L 45.450003 110.129764 
L 48.413761 110.837425 
L 51.836306 111.415284 
L 56.691249 111.974256 
L 61.434858 112.577848 
L 64.498402 113.194879 
L 67.659772 114.071341 
L 71.891833 115.509874 
L 80.868619 118.625046 
L 85.455566 119.940312 
L 89.556667 120.889012 
L 93.627403 121.602897 
L 96.845274 122.001341 
L 96.845274 122.001341 
" clip-path="url(#p891580a850)" style="fill: none; stroke: #2255aa; stroke-width: 2.8; stroke-linecap: round"/>
   </g>
   <g id="line2d_30">
    <path d="M 119.591803 53.243464 
L 119.193062 53.136535 
L 118.793751 53.032609 
L 118.393916 52.931677 
L 117.993604 52.83373 
L 117.59286 52.738757 
L 117.191732 52.646748 
L 116.790266 52.557692 
L 116.388507 52.471578 
L 115.986502 52.388393 
L 115.584294 52.308124 
L 115.18193 52.230759 
L 114.779455 52.156283 
L 114.376912 52.084683 
L 113.974347 52.015944 
L 113.571803 51.95005 
L 113.169323 51.886986 
L 112.766952 51.826735 
L 112.364731 51.769281 
L 111.962705 51.714607 
L 111.560914 51.662695 
L 111.159402 51.613527 
L 110.758209 51.567083 
L 110.357378 51.523346 
L 109.956948 51.482295 
L 109.556961 51.443911 
L 109.157457 51.408173 
L 108.758475 51.37506 
L 108.360055 51.34455 
L 107.962235 51.316623 
L 107.565054 51.291256 
L 107.168551 51.268426 
" clip-path="url(#p891580a850)" style="fill: none; stroke: #2255aa; stroke-width: 2.8; stroke-linecap: round"/>
   </g>
   <g id="line2d_31">
    <path d="M 119.591803 53.243464 
L 119.193062 53.136535 
L 118.793751 53.032609 
L 118.393916 52.931677 
L 117.993604 52.83373 
L 117.59286 52.738757 
L 117.191732 52.646748 
L 116.790266 52.557692 
L 116.388507 52.471578 
L 115.986502 52.388393 
L 115.584294 52.308124 
L 115.18193 52.230759 
L 114.779455 52.156283 
L 114.376912 52.084683 
L 113.974347 52.015944 
L 113.571803 51.95005 
L 113.169323 51.886986 
L 112.766952 51.826735 
L 112.364731 51.769281 
L 111.962705 51.714607 
L 111.560914 51.662695 
L 111.159402 51.613527 
L 110.758209 51.567083 
L 110.357378 51.523346 
L 109.956948 51.482295 
L 109.556961 51.443911 
L 109.157457 51.408173 
L 108.758475 51.37506 
L 108.360055 51.34455 
L 107.962235 51.316623 
L 107.565054 51.291256 
L 107.168551 51.268426 
" clip-path="url(#p891580a850)" style="fill: none; stroke: #2255aa; stroke-width: 2.8; stroke-linecap: round"/>
   </g>
   <g id="line2d_32">
    <path d="M 115.584294 52.308124 
L 115.18193 52.230759 
L 114.779455 52.156283 
L 114.376912 52.084683 
L 113.974347 52.015944 
L 113.571803 51.95005 
L 113.169323 51.886986 
L 112.766952 51.826735 
L 112.364731 51.769281 
L 111.962705 51.714607 
L 111.560914 51.662695 
L 111.159402 51.613527 
L 110.758209 51.567083 
L 110.357378 51.523346 
L 109.956948 51.482295 
L 109.556961 51.443911 
L 109.157457 51.408173 
L 108.758475 51.37506 
L 108.360055 51.34455 
L 107.962235 51.316623 
L 107.565054 51.291256 
L 107.168551 51.268426 
L 106.772762 51.248111 
L 106.377726 51.230286 
L 105.983478 51.214929 
L 105.590055 51.202015 
L 105.197493 51.19152 
L 104.805828 51.183419 
L 104.415094 51.177686 
L 104.025325 51.174296 
L 103.636556 51.173222 
L 103.24882 51.17444 
" clip-path="url(#p891580a850)" style="fill: none; stroke: #2255aa; stroke-width: 2.8; stroke-linecap: round"/>
   </g>
   <g id="line2d_33">
    <path d="M 115.584294 52.308124 
L 115.18193 52.230759 
L 114.779455 52.156283 
L 114.376912 52.084683 
L 113.974347 52.015944 
L 113.571803 51.95005 
L 113.169323 51.886986 
L 112.766952 51.826735 
L 112.364731 51.769281 
L 111.962705 51.714607 
L 111.560914 51.662695 
L 111.159402 51.613527 
L 110.758209 51.567083 
L 110.357378 51.523346 
L 109.956948 51.482295 
L 109.556961 51.443911 
L 109.157457 51.408173 
L 108.758475 51.37506 
L 108.360055 51.34455 
L 107.962235 51.316623 
L 107.565054 51.291256 
L 107.168551 51.268426 
L 106.772762 51.248111 
L 106.377726 51.230286 
L 105.983478 51.214929 
L 105.590055 51.202015 
L 105.197493 51.19152 
L 104.805828 51.183419 
L 104.415094 51.177686 
L 104.025325 51.174296 
L 103.636556 51.173222 
L 103.24882 51.17444 
" clip-path="url(#p891580a850)" style="fill: none; stroke: #2255aa; stroke-width: 2.8; stroke-linecap: round"/>
   </g>
   <g id="line2d_34">
    <path d="M 115.584294 52.308124 
L 115.18193 52.230759 
L 114.779455 52.156283 
L 114.376912 52.084683 
L 113.974347 52.015944 
L 113.571803 51.95005 
L 113.169323 51.886986 
L 112.766952 51.826735 
L 112.364731 51.769281 
L 111.962705 51.714607 
L 111.560914 51.662695 
L 111.159402 51.613527 
L 110.758209 51.567083 
L 110.357378 51.523346 
L 109.956948 51.482295 
L 109.556961 51.443911 
L 109.157457 51.408173 
L 108.758475 51.37506 
L 108.360055 51.34455 
L 107.962235 51.316623 
L 107.565054 51.291256 
L 107.168551 51.268426 
L 106.772762 51.248111 
L 106.377726 51.230286 
L 105.983478 51.214929 
L 105.590055 51.202015 
L 105.197493 51.19152 
L 104.805828 51.183419 
L 104.415094 51.177686 
L 104.025325 51.174296 
L 103.636556 51.173222 
L 103.24882 51.17444 
" clip-path="url(#p891580a850)" style="fill: none; stroke: #2255aa; stroke-width: 2.8; stroke-linecap: round"/>
   </g>
   <g id="line2d_35">
    <path d="M 111.560914 51.662695 
L 111.159402 51.613527 
L 110.758209 51.567083 
L 110.357378 51.523346 
L 109.956948 51.482295 
L 109.556961 51.443911 
L 109.157457 51.408173 
L 108.758475 51.37506 
L 108.360055 51.34455 
L 107.962235 51.316623 
L 107.565054 51.291256 
L 107.168551 51.268426 
L 106.772762 51.248111 
L 106.377726 51.230286 
L 105.983478 51.214929 
L 105.590055 51.202015 
L 105.197493 51.19152 
L 104.805828 51.183419 
L 104.415094 51.177686 
L 104.025325 51.174296 
L 103.636556 51.173222 
L 103.24882 51.17444 
L 102.86215 51.177922 
L 102.476578 51.18364 
L 102.092137 51.191569 
L 101.708857 51.20168 
L 101.326771 51.213945 
L 100.945907 51.228336 
L 100.566296 51.244826 
L 100.187967 51.263384 
L 99.81095 51.283983 
L 99.435271 51.306593 
" clip-path="url(#p891580a850)" style="fill: none; stroke: #2255aa; stroke-width: 2.8; stroke-linecap: round"/>
   </g>
   <g id="line2d_36">
    <path d="M 111.560914 51.662695 
L 111.159402 51.613527 
L 110.758209 51.567083 
L 110.357378 51.523346 
L 109.956948 51.482295 
L 109.556961 51.443911 
L 109.157457 51.408173 
L 108.758475 51.37506 
L 108.360055 51.34455 
L 107.962235 51.316623 
L 107.565054 51.291256 
L 107.168551 51.268426 
L 106.772762 51.248111 
L 106.377726 51.230286 
L 105.983478 51.214929 
L 105.590055 51.202015 
L 105.197493 51.19152 
L 104.805828 51.183419 
L 104.415094 51.177686 
L 104.025325 51.174296 
L 103.636556 51.173222 
L 103.24882 51.17444 
L 102.86215 51.177922 
L 102.476578 51.18364 
L 102.092137 51.191569 
L 101.708857 51.20168 
L 101.326771 51.213945 
L 100.945907 51.228336 
L 100.566296 51.244826 
L 100.187967 51.263384 
L 99.81095 51.283983 
L 99.435271 51.306593 
" clip-path="url(#p891580a850)" style="fill: none; stroke: #2255aa; stroke-width: 2.8; stroke-linecap: round"/>
   </g>
   <g id="line2d_37">
    <path d="M 111.560914 51.662695 
L 111.159402 51.613527 
L 110.758209 51.567083 
L 110.357378 51.523346 
L 109.956948 51.482295 
L 109.556961 51.443911 
L 109.157457 51.408173 
L 108.758475 51.37506 
L 108.360055 51.34455 
L 107.962235 51.316623 
L 107.565054 51.291256 
L 107.168551 51.268426 
L 106.772762 51.248111 
L 106.377726 51.230286 
L 105.983478 51.214929 
L 105.590055 51.202015 
L 105.197493 51.19152 
L 104.805828 51.183419 
L 104.415094 51.177686 
L 104.025325 51.174296 
L 103.636556 51.173222 
L 103.24882 51.17444 
L 102.86215 51.177922 
L 102.476578 51.18364 
L 102.092137 51.191569 
L 101.708857 51.20168 
L 101.326771 51.213945 
L 100.945907 51.228336 
L 100.566296 51.244826 
L 100.187967 51.263384 
L 99.81095 51.283983 
L 99.435271 51.306593 
" clip-path="url(#p891580a850)" style="fill: none; stroke: #2255aa; stroke-width: 2.8; stroke-linecap: round"/>
   </g>
   <g id="line2d_38">
    <path d="M 16.975969 72.532413 
L 17.001919 72.971614 
L 17.031816 73.409432 
L 17.065635 73.845822 
L 17.103354 74.280743 
L 17.144949 74.714152 
L 17.190396 75.146006 
L 17.23967 75.576264 
L 17.292744 76.004885 
L 17.349595 76.431827 
L 17.410194 76.857052 
L 17.474516 77.280518 
L 17.542532 77.702187 
L 17.614215 78.122019 
L 17.689536 78.539977 
L 17.768467 78.956022 
L 17.850977 79.370118 
L 17.937038 79.782227 
L 18.026619 80.192312 
L 18.119689 80.600339 
L 18.216217 81.006272 
L 18.316171 81.410076 
L 18.41952 81.811718 
L 18.526231 82.211162 
L 18.63627 82.608378 
L 18.749606 83.003331 
L 18.866203 83.39599 
L 18.986029 83.786323 
L 19.109048 84.1743 
L 19.235227 84.559891 
L 19.364529 84.943066 
L 19.49692 85.323796 
" clip-path="url(#p891580a850)" style="fill: none; stroke: #2255aa; stroke-width: 2.8; stroke-linecap: round"/>
   </g>
   <g id="line2d_39">
    <path d="M 17.410194 76.857052 
L 17.474516 77.280518 
L 17.542532 77.702187 
L 17.614215 78.122019 
L 17.689536 78.539977 
L 17.768467 78.956022 
L 17.850977 79.370118 
L 17.937038 79.782227 
L 18.026619 80.192312 
L 18.119689 80.600339 
L 18.216217 81.006272 
L 18.316171 81.410076 
L 18.41952 81.811718 
L 18.526231 82.211162 
L 18.63627 82.608378 
L 18.749606 83.003331 
L 18.866203 83.39599 
L 18.986029 83.786323 
L 19.109048 84.1743 
L 19.235227 84.559891 
L 19.364529 84.943066 
L 19.49692 85.323796 
L 19.632363 85.702052 
L 19.770823 86.077807 
L 19.912263 86.451033 
L 20.056646 86.821703 
L 20.203935 87.189793 
L 20.354094 87.555276 
L 20.507083 87.918127 
L 20.662867 88.278322 
L 20.821405 88.635838 
L 20.982661 88.990652 
" clip-path="url(#p891580a850)" style="fill: none; stroke: #2255aa; stroke-width: 2.8; stroke-linecap: round"/>
   </g>
   <g id="line2d_40">
    <path d="M 18.216217 81.006272 
L 18.316171 81.410076 
L 18.41952 81.811718 
L 18.526231 82.211162 
L 18.63627 82.608378 
L 18.749606 83.003331 
L 18.866203 83.39599 
L 18.986029 83.786323 
L 19.109048 84.1743 
L 19.235227 84.559891 
L 19.364529 84.943066 
L 19.49692 85.323796 
L 19.632363 85.702052 
L 19.770823 86.077807 
L 19.912263 86.451033 
L 20.056646 86.821703 
L 20.203935 87.189793 
L 20.354094 87.555276 
L 20.507083 87.918127 
L 20.662867 88.278322 
L 20.821405 88.635838 
L 20.982661 88.990652 
L 21.146594 89.342741 
L 21.313168 89.692085 
L 21.482341 90.038661 
L 21.654076 90.382449 
L 21.828332 90.72343 
L 22.005071 91.061585 
L 22.184251 91.396894 
L 22.365833 91.729341 
L 22.549777 92.058909 
L 22.736043 92.385579 
" clip-path="url(#p891580a850)" style="fill: none; stroke: #2255aa; stroke-width: 2.8; stroke-linecap: round"/>
   </g>
   <g id="line2d_41">
    <path d="M 17.144949 74.714152 
L 17.190396 75.146006 
L 17.23967 75.576264 
L 17.292744 76.004885 
L 17.349595 76.431827 
L 17.410194 76.857052 
L 17.474516 77.280518 
L 17.542532 77.702187 
L 17.614215 78.122019 
L 17.689536 78.539977 
L 17.768467 78.956022 
L 17.850977 79.370118 
L 17.937038 79.782227 
L 18.026619 80.192312 
L 18.119689 80.600339 
L 18.216217 81.006272 
L 18.316171 81.410076 
L 18.41952 81.811718 
L 18.526231 82.211162 
L 18.63627 82.608378 
L 18.749606 83.003331 
L 18.866203 83.39599 
L 18.986029 83.786323 
L 19.109048 84.1743 
L 19.235227 84.559891 
L 19.364529 84.943066 
L 19.49692 85.323796 
L 19.632363 85.702052 
L 19.770823 86.077807 
L 19.912263 86.451033 
L 20.056646 86.821703 
L 20.203935 87.189793 
" clip-path="url(#p891580a850)" style="fill: none; stroke: #2255aa; stroke-width: 2.8; stroke-linecap: round"/>
   </g>
   <g id="line2d_42">
    <path d="M 17.768467 78.956022 
L 17.850977 79.370118 
L 17.937038 79.782227 
L 18.026619 80.192312 
L 18.119689 80.600339 
L 18.216217 81.006272 
L 18.316171 81.410076 
L 18.41952 81.811718 
L 18.526231 82.211162 
L 18.63627 82.608378 
L 18.749606 83.003331 
L 18.866203 83.39599 
L 18.986029 83.786323 
L 19.109048 84.1743 
L 19.235227 84.559891 
L 19.364529 84.943066 
L 19.49692 85.323796 
L 19.632363 85.702052 
L 19.770823 86.077807 
L 19.912263 86.451033 
L 20.056646 86.821703 
L 20.203935 87.189793 
L 20.354094 87.555276 
L 20.507083 87.918127 
L 20.662867 88.278322 
L 20.821405 88.635838 
L 20.982661 88.990652 
L 21.146594 89.342741 
L 21.313168 89.692085 
L 21.482341 90.038661 
L 21.654076 90.382449 
L 21.828332 90.72343 
" clip-path="url(#p891580a850)" style="fill: none; stroke: #2255aa; stroke-width: 2.8; stroke-linecap: round"/>
   </g>
   <g id="line2d_43">
    <path d="M 18.749606 83.003331 
L 18.866203 83.39599 
L 18.986029 83.786323 
L 19.109048 84.1743 
L 19.235227 84.559891 
L 19.364529 84.943066 
L 19.49692 85.323796 
L 19.632363 85.702052 
L 19.770823 86.077807 
L 19.912263 86.451033 
L 20.056646 86.821703 
L 20.203935 87.189793 
L 20.354094 87.555276 
L 20.507083 87.918127 
L 20.662867 88.278322 
L 20.821405 88.635838 
L 20.982661 88.990652 
L 21.146594 89.342741 
L 21.313168 89.692085 
L 21.482341 90.038661 
L 21.654076 90.382449 
L 21.828332 90.72343 
L 22.005071 91.061585 
L 22.184251 91.396894 
L 22.365833 91.729341 
L 22.549777 92.058909 
L 22.736043 92.385579 
L 22.924589 92.709338 
L 23.115376 93.030169 
L 23.308362 93.348058 
L 23.503507 93.662991 
L 23.70077 93.974955 
" clip-path="url(#p891580a850)" style="fill: none; stroke: #2255aa; stroke-width: 2.8; stroke-linecap: round"/>
   </g>
   <g id="line2d_44">
    <path d="M 20.056646 86.821703 
L 20.203935 87.189793 
L 20.354094 87.555276 
L 20.507083 87.918127 
L 20.662867 88.278322 
L 20.821405 88.635838 
L 20.982661 88.990652 
L 21.146594 89.342741 
L 21.313168 89.692085 
L 21.482341 90.038661 
L 21.654076 90.382449 
L 21.828332 90.72343 
L 22.005071 91.061585 
L 22.184251 91.396894 
L 22.365833 91.729341 
L 22.549777 92.058909 
L 22.736043 92.385579 
L 22.924589 92.709338 
L 23.115376 93.030169 
L 23.308362 93.348058 
L 23.503507 93.662991 
L 23.70077 93.974955 
L 23.900109 94.283937 
L 24.101484 94.589925 
L 24.304854 94.892909 
L 24.510176 95.192877 
L 24.71741 95.489819 
L 24.926514 95.783727 
L 25.137447 96.074591 
L 25.350168 96.362404 
L 25.564635 96.647158 
L 25.780807 96.928846 
" clip-path="url(#p891580a850)" style="fill: none; stroke: #2255aa; stroke-width: 2.8; stroke-linecap: round"/>
   </g>
   <g id="line2d_45">
    <path d="M 17.768467 78.956022 
L 17.850977 79.370118 
L 17.937038 79.782227 
L 18.026619 80.192312 
L 18.119689 80.600339 
L 18.216217 81.006272 
L 18.316171 81.410076 
L 18.41952 81.811718 
L 18.526231 82.211162 
L 18.63627 82.608378 
L 18.749606 83.003331 
L 18.866203 83.39599 
L 18.986029 83.786323 
L 19.109048 84.1743 
L 19.235227 84.559891 
L 19.364529 84.943066 
L 19.49692 85.323796 
L 19.632363 85.702052 
L 19.770823 86.077807 
L 19.912263 86.451033 
L 20.056646 86.821703 
L 20.203935 87.189793 
L 20.354094 87.555276 
L 20.507083 87.918127 
L 20.662867 88.278322 
L 20.821405 88.635838 
L 20.982661 88.990652 
L 21.146594 89.342741 
L 21.313168 89.692085 
L 21.482341 90.038661 
L 21.654076 90.382449 
L 21.828332 90.72343 
" clip-path="url(#p891580a850)" style="fill: none; stroke: #2255aa; stroke-width: 2.8; stroke-linecap: round"/>
   </g>
   <g id="line2d_46">
    <path d="M 18.749606 83.003331 
L 18.866203 83.39599 
L 18.986029 83.786323 
L 19.109048 84.1743 
L 19.235227 84.559891 
L 19.364529 84.943066 
L 19.49692 85.323796 
L 19.632363 85.702052 
L 19.770823 86.077807 
L 19.912263 86.451033 
L 20.056646 86.821703 
L 20.203935 87.189793 
L 20.354094 87.555276 
L 20.507083 87.918127 
L 20.662867 88.278322 
L 20.821405 88.635838 
L 20.982661 88.990652 
L 21.146594 89.342741 
L 21.313168 89.692085 
L 21.482341 90.038661 
L 21.654076 90.382449 
L 21.828332 90.72343 
L 22.005071 91.061585 
L 22.184251 91.396894 
L 22.365833 91.729341 
L 22.549777 92.058909 
L 22.736043 92.385579 
L 22.924589 92.709338 
L 23.115376 93.030169 
L 23.308362 93.348058 
L 23.503507 93.662991 
L 23.70077 93.974955 
" clip-path="url(#p891580a850)" style="fill: none; stroke: #2255aa; stroke-width: 2.8; stroke-linecap: round"/>
   </g>
   <g id="line2d_47">
    <path d="M 20.056646 86.821703 
L 20.203935 87.189793 
L 20.354094 87.555276 
L 20.507083 87.918127 
L 20.662867 88.278322 
L 20.821405 88.635838 
L 20.982661 88.990652 
L 21.146594 89.342741 
L 21.313168 89.692085 
L 21.482341 90.038661 
L 21.654076 90.382449 
L 21.828332 90.72343 
L 22.005071 91.061585 
L 22.184251 91.396894 
L 22.365833 91.729341 
L 22.549777 92.058909 
L 22.736043 92.385579 
L 22.924589 92.709338 
L 23.115376 93.030169 
L 23.308362 93.348058 
L 23.503507 93.662991 
L 23.70077 93.974955 
L 23.900109 94.283937 
L 24.101484 94.589925 
L 24.304854 94.892909 
L 24.510176 95.192877 
L 24.71741 95.489819 
L 24.926514 95.783727 
L 25.137447 96.074591 
L 25.350168 96.362404 
L 25.564635 96.647158 
L 25.780807 96.928846 
" clip-path="url(#p891580a850)" style="fill: none; stroke: #2255aa; stroke-width: 2.8; stroke-linecap: round"/>
   </g>
   <g id="line2d_48">
    <path d="M 105.150984 131.691413 
L 105.288 131.361122 
L 105.422053 131.030299 
L 105.553161 130.69898 
L 105.681343 130.367201 
L 105.80662 130.034995 
L 105.92901 129.702397 
L 106.048534 129.369442 
L 106.165215 129.036163 
L 106.279073 128.702593 
L 106.390129 128.368766 
L 106.498408 128.034714 
L 106.603931 127.700469 
L 106.706721 127.366063 
L 106.806803 127.031528 
L 106.904201 126.696895 
L 106.998939 126.362195 
L 107.091042 126.027458 
L 107.180535 125.692714 
L 107.267444 125.357993 
L 107.351795 125.023324 
L 107.433615 124.688735 
L 107.51293 124.354255 
L 107.589767 124.019912 
L 107.664154 123.685733 
L 107.736119 123.351745 
L 107.805689 123.017975 
L 107.872894 122.684449 
L 107.937761 122.351193 
L 108.00032 122.018232 
L 108.060601 121.68559 
L 108.118632 121.353292 
" clip-path="url(#p891580a850)" style="fill: none; stroke: #2255aa; stroke-width: 2.8; stroke-linecap: round"/>
   </g>
   <g id="line2d_49">
    <path d="M 105.150984 131.691413 
L 105.288 131.361122 
L 105.422053 131.030299 
L 105.553161 130.69898 
L 105.681343 130.367201 
L 105.80662 130.034995 
L 105.92901 129.702397 
L 106.048534 129.369442 
L 106.165215 129.036163 
L 106.279073 128.702593 
L 106.390129 128.368766 
L 106.498408 128.034714 
L 106.603931 127.700469 
L 106.706721 127.366063 
L 106.806803 127.031528 
L 106.904201 126.696895 
L 106.998939 126.362195 
L 107.091042 126.027458 
L 107.180535 125.692714 
L 107.267444 125.357993 
L 107.351795 125.023324 
L 107.433615 124.688735 
L 107.51293 124.354255 
L 107.589767 124.019912 
L 107.664154 123.685733 
L 107.736119 123.351745 
L 107.805689 123.017975 
L 107.872894 122.684449 
L 107.937761 122.351193 
L 108.00032 122.018232 
L 108.060601 121.68559 
L 108.118632 121.353292 
" clip-path="url(#p891580a850)" style="fill: none; stroke: #2255aa; stroke-width: 2.8; stroke-linecap: round"/>
   </g>
   <g id="line2d_50">
    <path d="M 105.80662 130.034995 
L 105.92901 129.702397 
L 106.048534 129.369442 
L 106.165215 129.036163 
L 106.279073 128.702593 
L 106.390129 128.368766 
L 106.498408 128.034714 
L 106.603931 127.700469 
L 106.706721 127.366063 
L 106.806803 127.031528 
L 106.904201 126.696895 
L 106.998939 126.362195 
L 107.091042 126.027458 
L 107.180535 125.692714 
L 107.267444 125.357993 
L 107.351795 125.023324 
L 107.433615 124.688735 
L 107.51293 124.354255 
L 107.589767 124.019912 
L 107.664154 123.685733 
L 107.736119 123.351745 
L 107.805689 123.017975 
L 107.872894 122.684449 
L 107.937761 122.351193 
L 108.00032 122.018232 
L 108.060601 121.68559 
L 108.118632 121.353292 
L 108.174444 121.021363 
L 108.228066 120.689824 
L 108.27953 120.3587 
L 108.328865 120.028013 
L 108.376102 119.697784 
" clip-path="url(#p891580a850)" style="fill: none; stroke: #2255aa; stroke-width: 2.8; stroke-linecap: round"/>
   </g>
   <g id="line2d_51">
    <path d="M 106.390129 128.368766 
L 106.498408 128.034714 
L 106.603931 127.700469 
L 106.706721 127.366063 
L 106.806803 127.031528 
L 106.904201 126.696895 
L 106.998939 126.362195 
L 107.091042 126.027458 
L 107.180535 125.692714 
L 107.267444 125.357993 
L 107.351795 125.023324 
L 107.433615 124.688735 
L 107.51293 124.354255 
L 107.589767 124.019912 
L 107.664154 123.685733 
L 107.736119 123.351745 
L 107.805689 123.017975 
L 107.872894 122.684449 
L 107.937761 122.351193 
L 108.00032 122.018232 
L 108.060601 121.68559 
L 108.118632 121.353292 
L 108.174444 121.021363 
L 108.228066 120.689824 
L 108.27953 120.3587 
L 108.328865 120.028013 
L 108.376102 119.697784 
L 108.421273 119.368035 
L 108.464408 119.038787 
L 108.50554 118.710061 
L 108.544699 118.381877 
L 108.581918 118.054254 
" clip-path="url(#p891580a850)" style="fill: none; stroke: #2255aa; stroke-width: 2.8; stroke-linecap: round"/>
   </g>
   <g id="line2d_52">
    <path d="M 106.390129 128.368766 
L 106.498408 128.034714 
L 106.603931 127.700469 
L 106.706721 127.366063 
L 106.806803 127.031528 
L 106.904201 126.696895 
L 106.998939 126.362195 
L 107.091042 126.027458 
L 107.180535 125.692714 
L 107.267444 125.357993 
L 107.351795 125.023324 
L 107.433615 124.688735 
L 107.51293 124.354255 
L 107.589767 124.019912 
L 107.664154 123.685733 
L 107.736119 123.351745 
L 107.805689 123.017975 
L 107.872894 122.684449 
L 107.937761 122.351193 
L 108.00032 122.018232 
L 108.060601 121.68559 
L 108.118632 121.353292 
L 108.174444 121.021363 
L 108.228066 120.689824 
L 108.27953 120.3587 
L 108.328865 120.028013 
L 108.376102 119.697784 
L 108.421273 119.368035 
L 108.464408 119.038787 
L 108.50554 118.710061 
L 108.544699 118.381877 
L 108.581918 118.054254 
" clip-path="url(#p891580a850)" style="fill: none; stroke: #2255aa; stroke-width: 2.8; stroke-linecap: round"/>
   </g>
   <g id="line2d_53">
    <path d="M 106.904201 126.696895 
L 106.998939 126.362195 
L 107.091042 126.027458 
L 107.180535 125.692714 
L 107.267444 125.357993 
L 107.351795 125.023324 
L 107.433615 124.688735 
L 107.51293 124.354255 
L 107.589767 124.019912 
L 107.664154 123.685733 
L 107.736119 123.351745 
L 107.805689 123.017975 
L 107.872894 122.684449 
L 107.937761 122.351193 
L 108.00032 122.018232 
L 108.060601 121.68559 
L 108.118632 121.353292 
L 108.174444 121.021363 
L 108.228066 120.689824 
L 108.27953 120.3587 
L 108.328865 120.028013 
L 108.376102 119.697784 
L 108.421273 119.368035 
L 108.464408 119.038787 
L 108.50554 118.710061 
L 108.544699 118.381877 
L 108.581918 118.054254 
L 108.617229 117.727211 
L 108.650663 117.400767 
L 108.682253 117.07494 
L 108.712031 116.749747 
L 108.740031 116.425206 
" clip-path="url(#p891580a850)" style="fill: none; stroke: #2255aa; stroke-width: 2.8; stroke-linecap: round"/>
   </g>
   <g id="line2d_54">
    <path d="M 107.351795 125.023324 
L 107.433615 124.688735 
L 107.51293 124.354255 
L 107.589767 124.019912 
L 107.664154 123.685733 
L 107.736119 123.351745 
L 107.805689 123.017975 
L 107.872894 122.684449 
L 107.937761 122.351193 
L 108.00032 122.018232 
L 108.060601 121.68559 
L 108.118632 121.353292 
L 108.174444 121.021363 
L 108.228066 120.689824 
L 108.27953 120.3587 
L 108.328865 120.028013 
L 108.376102 119.697784 
L 108.421273 119.368035 
L 108.464408 119.038787 
L 108.50554 118.710061 
L 108.544699 118.381877 
L 108.581918 118.054254 
L 108.617229 117.727211 
L 108.650663 117.400767 
L 108.682253 117.07494 
L 108.712031 116.749747 
L 108.740031 116.425206 
L 108.766284 116.101332 
L 108.790823 115.778143 
L 108.813682 115.455653 
L 108.834894 115.133879 
L 108.854491 114.812833 
" clip-path="url(#p891580a850)" style="fill: none; stroke: #2255aa; stroke-width: 2.8; stroke-linecap: round"/>
   </g>
   <g id="line2d_55">
    <path d="M 107.736119 123.351745 
L 107.805689 123.017975 
L 107.872894 122.684449 
L 107.937761 122.351193 
L 108.00032 122.018232 
L 108.060601 121.68559 
L 108.118632 121.353292 
L 108.174444 121.021363 
L 108.228066 120.689824 
L 108.27953 120.3587 
L 108.328865 120.028013 
L 108.376102 119.697784 
L 108.421273 119.368035 
L 108.464408 119.038787 
L 108.50554 118.710061 
L 108.544699 118.381877 
L 108.581918 118.054254 
L 108.617229 117.727211 
L 108.650663 117.400767 
L 108.682253 117.07494 
L 108.712031 116.749747 
L 108.740031 116.425206 
L 108.766284 116.101332 
L 108.790823 115.778143 
L 108.813682 115.455653 
L 108.834894 115.133879 
L 108.854491 114.812833 
L 108.872506 114.49253 
L 108.888974 114.172984 
L 108.903927 113.854208 
L 108.917398 113.536213 
L 108.929421 113.219013 
" clip-path="url(#p891580a850)" style="fill: none; stroke: #2255aa; stroke-width: 2.8; stroke-linecap: round"/>
   </g>
  </g>
 </g>
 <defs>
  <clipPath id="p891580a850">
   <rect x="3.6" y="3.6" width="159.651821" height="166.32"/>
  </clipPath>
 </defs>
</svg>
