<?xml version="1.0" encoding="utf-8" standalone="no"?>
<!DOCTYPE svg PUBLIC "-//W3C//DTD SVG 1.1//EN"
  "http://www.w3.org/Graphics/SVG/1.1/DTD/svg11.dtd">
<svg xmlns:xlink="http://www.w3.org/1999/xlink" width="173.514819pt" height="173.52pt" viewBox="0 0 173.514819 173.52" xmlns="http://www.w3.org/2000/svg" version="1.1">
 <metadata>
  <rdf:RDF xmlns:dc="http://purl.org/dc/elements/1.1/" xmlns:cc="http://creativecommons.org/ns#" xmlns:rdf="http://www.w3.org/1999/02/22-rdf-syntax-ns#">
   <cc:Work>
    <dc:type rdf:resource="http://purl.org/dc/dcmitype/StillImage"/>
    <dc:format>image/svg+xml</dc:format>
    <dc:creator>
     <cc:Agent>
      <dc:title>Matplotlib v3.10.8, https://matplotlib.org/</dc:title>
     </cc:Agent>
    </dc:creator>
   </cc:Work>
  </rdf:RDF>
 </metadata>
 <defs>
  <style type="text/css">*{stroke-linejoin: round; stroke-linecap: butt}</style>
 </defs>
 <g id="figure_1">
  <g id="patch_1">
   <path d="M 0 173.52 
L 173.514819 173.52 
L 173.514819 -0 
L 0 -0 
L 0 173.52 
z
" style="fill: none"/>
  </g>
  <g id="axes_1">
   <g id="line2d_1">
    <path d="M 156.05525 86.76 
L 155.917121 82.386644 
L 155.503284 78.03072 
L 154.815388 73.709595 
L 153.856175 69.440492 
L 152.629471 65.24043 
L 151.140163 61.126151 
L 149.39419 57.114056 
L 147.398511 53.220139 
L 145.161082 49.459921 
L 142.690821 45.848393 
L 139.997576 42.39995 
L 137.092083 39.128339 
L 133.985924 36.046602 
L 130.691481 33.167024 
L 127.221887 30.501082 
L 123.590972 28.059406 
L 119.813211 25.851727 
L 115.903662 23.886846 
L 111.877911 22.172597 
L 107.752005 20.715811 
L 103.54239 19.522297 
L 99.265849 18.596812 
L 94.939428 17.943046 
L 90.580375 17.563605 
L 86.206064 17.46 
L 81.833934 17.632646 
L 77.481413 18.080853 
L 73.165852 18.802836 
L 68.904454 19.795716 
L 64.714205 21.055535 
L 60.61181 22.577271 
L 56.613622 24.354859 
L 52.735579 26.381212 
L 48.993139 28.648252 
L 45.401222 31.146943 
L 41.974145 33.867324 
L 38.72557 36.79855 
L 35.668447 39.928938 
L 32.814963 43.246008 
L 30.176491 46.736537 
L 27.763551 50.386612 
L 25.58576 54.181682 
L 23.6518 58.106618 
L 21.969381 62.145775 
L 20.545208 66.283052 
L 19.384959 70.501956 
L 18.49326 74.785669 
L 17.873664 79.117115 
L 17.528642 83.479029 
L 17.459568 87.854021 
L 17.666719 92.224652 
L 18.149269 96.573499 
L 18.905293 100.883227 
L 19.931779 105.136655 
L 21.224634 109.316829 
L 22.778705 113.407085 
L 24.587796 117.391117 
L 26.644697 121.253045 
L 28.941207 124.977473 
L 31.468172 128.549556 
L 34.21552 131.955053 
L 37.172297 135.180389 
L 40.326718 138.212707 
L 43.666208 141.03992 
L 47.177455 143.650757 
L 50.846463 146.034811 
L 54.658604 148.182578 
L 58.598684 150.085497 
L 62.650995 151.735982 
L 66.799384 153.127453 
L 71.027315 154.254364 
L 75.317933 155.112223 
L 79.654136 155.69761 
L 84.018636 156.008191 
L 88.394037 156.042729 
L 92.762897 155.801085 
L 97.1078 155.284224 
L 101.411426 154.494205 
L 105.656619 153.434177 
L 109.826458 152.108366 
L 113.904319 150.522058 
L 117.873948 148.681576 
L 121.719519 146.594256 
L 125.425705 144.268419 
L 128.977729 141.713336 
L 132.361435 138.939194 
L 135.563331 135.95705 
L 138.570656 132.778792 
L 141.371421 129.417089 
L 143.954461 125.885343 
L 146.30948 122.197632 
L 148.42709 118.368656 
L 150.298849 114.413679 
L 151.917296 110.348466 
L 153.275979 106.189223 
L 154.369482 101.952529 
L 155.193447 97.655273 
L 155.744588 93.314585 
L 156.020709 88.947769 
L 156.05525 86.76 
L 156.05525 86.76 
" clip-path="url(#p62b218c403)" style="fill: none; stroke: #2255aa; stroke-width: 2.8; stroke-linecap: round"/>
   </g>
  </g>
 </g>
 <defs>
  <clipPath id="p62b218c403">
   <rect x="3.6" y="3.6" width="166.314819" height="166.32"/>
  </clipPath>
 </defs>
</svg>
