<svg xmlns="http://www.w3.org/2000/svg" xmlns:xlink="http://www.w3.org/1999/xlink" contentStyleType="text/css" height="1764px" preserveAspectRatio="none" style="width:2355px;height:1764px;background:#FFFFFF;" version="1.1" viewBox="0 0 2355 1764" width="2355px" zoomAndPan="magnify"><!-- GENERATED from cat-harness/uml/harness-schemas.puml (landscape view, landscapeOf) by cat-harness/scripts/gen-uml-overview.ts (PlantUML 1.2024.7) --><!-- puml-sha256: 2df5d690ed4d4371c1000f62a2807252c51e472f93f3cad3d6edf68ee92f41e3 --><title>Harness schemas &#8212; attributes derived from JSON Schema</title><defs/><g><text fill="#000000" font-family="Verdana" font-size="22" font-weight="bold" lengthAdjust="spacing" textLength="719.2002" x="813.3999" y="35.4209">Harness schemas &#8212; attributes derived from JSON Schema</text><!--cluster scenario--><g id="cluster_scenario"><rect fill="#FFFFFF" height="451" rx="2.5" ry="2.5" style="stroke:#000000;stroke-width:1.0;" width="2202.5" x="146.5" y="205.1753"/><text fill="#000000" font-family="Verdana" font-size="14" font-weight="bold" lengthAdjust="spacing" textLength="66.8623" x="1214.3188" y="220.1704">scenario</text></g><!--cluster process--><g id="cluster_process"><rect fill="#FFFFFF" height="267" rx="2.5" ry="2.5" style="stroke:#000000;stroke-width:1.0;" width="1120" x="200" y="1491.1753"/><text fill="#000000" font-family="Verdana" font-size="14" font-weight="bold" lengthAdjust="spacing" textLength="61.0039" x="729.498" y="1506.1704">process</text></g><!--cluster schema--><g id="cluster_schema"><rect fill="#FFFFFF" height="287" rx="2.5" ry="2.5" style="stroke:#000000;stroke-width:1.0;" width="1177" x="1046" y="1164.1753"/><text fill="#000000" font-family="Verdana" font-size="14" font-weight="bold" lengthAdjust="spacing" textLength="60.1289" x="1604.4355" y="1179.1704">schema</text></g><!--cluster test--><g id="cluster_test"><rect fill="#FFFFFF" height="582" rx="2.5" ry="2.5" style="stroke:#000000;stroke-width:1.0;" width="635" x="12" y="696.1753"/><text fill="#000000" font-family="Verdana" font-size="14" font-weight="bold" lengthAdjust="spacing" textLength="31.2129" x="313.8936" y="711.1704">test</text></g><!--class Actor--><g id="elem_Actor"><rect codeLine="19" fill="#E8F0EE" height="129.75" id="Actor" rx="2.5" ry="2.5" style="stroke:#000000;stroke-width:1.0;" width="317.6484" x="170.5" y="448.1753"/><ellipse cx="253.5967" cy="468.3081" fill="#FFFFFF" rx="9" ry="9" style="stroke:#000000;stroke-width:1.0;"/><path d="M256.5654,473.9487 Q255.9873,474.2456 255.3467,474.3862 Q254.7061,474.5425 254.0029,474.5425 Q251.5029,474.5425 250.1748,472.9019 Q248.8623,471.2456 248.8623,468.1206 Q248.8623,464.9956 250.1748,463.3394 Q251.5029,461.6831 254.0029,461.6831 Q254.7061,461.6831 255.3467,461.8394 Q256.0029,461.9956 256.5654,462.2925 L256.5654,465.0112 Q255.9404,464.4331 255.3467,464.1675 Q254.7529,463.8862 254.1279,463.8862 Q252.7842,463.8862 252.0967,464.9644 Q251.4092,466.0269 251.4092,468.1206 Q251.4092,470.2144 252.0967,471.2925 Q252.7842,472.355 254.1279,472.355 Q254.7529,472.355 255.3467,472.0894 Q255.9404,471.8081 256.5654,471.23 L256.5654,473.9487 Z " fill="#000000"/><text fill="#000000" font-family="Verdana" font-size="12" font-style="italic" lengthAdjust="spacing" textLength="147.9551" x="269.0967" y="464.314">&#171;json: ActorDefSchema&#187;</text><text fill="#000000" font-family="Verdana" font-size="14" lengthAdjust="spacing" textLength="37.085" x="324.5317" y="480.1392">Actor</text><line style="stroke:#000000;stroke-width:1.0;" x1="171.5" x2="487.1484" y1="488.4409" y2="488.4409"/><text fill="#000000" font-family="Verdana" font-size="14" lengthAdjust="spacing" textLength="90.8633" x="176.5" y="505.436">id [1] : string</text><text fill="#000000" font-family="Verdana" font-size="14" lengthAdjust="spacing" textLength="105.458" x="176.5" y="521.7329">title [1] : string</text><text fill="#000000" font-family="Verdana" font-size="14" lengthAdjust="spacing" textLength="305.6484" x="176.5" y="538.0298">kind [1] : person | agent | system | external</text><text fill="#000000" font-family="Verdana" font-size="14" lengthAdjust="spacing" textLength="173.7354" x="176.5" y="554.3267">description [0..1] : string</text><text fill="#000000" font-family="Verdana" font-size="14" lengthAdjust="spacing" textLength="139.0293" x="176.5" y="570.6235">roles [0..*] : string[]</text></g><!--class Role--><g id="elem_Role"><rect codeLine="26" fill="#E8F0EE" height="194.9375" id="Role" rx="2.5" ry="2.5" style="stroke:#000000;stroke-width:1.0;" width="422.0264" x="957" y="383.6753"/><ellipse cx="1094.981" cy="403.8081" fill="#FFFFFF" rx="9" ry="9" style="stroke:#000000;stroke-width:1.0;"/><path d="M1097.9497,409.4487 Q1097.3716,409.7456 1096.731,409.8862 Q1096.0903,410.0425 1095.3872,410.0425 Q1092.8872,410.0425 1091.5591,408.4019 Q1090.2466,406.7456 1090.2466,403.6206 Q1090.2466,400.4956 1091.5591,398.8394 Q1092.8872,397.1831 1095.3872,397.1831 Q1096.0903,397.1831 1096.731,397.3394 Q1097.3872,397.4956 1097.9497,397.7925 L1097.9497,400.5112 Q1097.3247,399.9331 1096.731,399.6675 Q1096.1372,399.3862 1095.5122,399.3862 Q1094.1685,399.3862 1093.481,400.4644 Q1092.7935,401.5269 1092.7935,403.6206 Q1092.7935,405.7144 1093.481,406.7925 Q1094.1685,407.855 1095.5122,407.855 Q1096.1372,407.855 1096.731,407.5894 Q1097.3247,407.3081 1097.9497,406.73 L1097.9497,409.4487 Z " fill="#000000"/><text fill="#000000" font-family="Verdana" font-size="12" font-style="italic" lengthAdjust="spacing" textLength="142.5645" x="1110.481" y="399.814">&#171;json: RoleDefSchema&#187;</text><text fill="#000000" font-family="Verdana" font-size="14" lengthAdjust="spacing" textLength="30.7959" x="1166.3652" y="415.6392">Role</text><line style="stroke:#000000;stroke-width:1.0;" x1="958" x2="1378.0264" y1="423.9409" y2="423.9409"/><text fill="#000000" font-family="Verdana" font-size="14" lengthAdjust="spacing" textLength="152.4619" x="963" y="440.936">persona [0..1] : string</text><text fill="#000000" font-family="Verdana" font-size="14" lengthAdjust="spacing" textLength="90.8633" x="963" y="457.2329">id [1] : string</text><text fill="#000000" font-family="Verdana" font-size="14" lengthAdjust="spacing" textLength="105.458" x="963" y="473.5298">title [1] : string</text><text fill="#000000" font-family="Verdana" font-size="14" lengthAdjust="spacing" textLength="155.9277" x="963" y="489.8267">description [1] : string</text><text fill="#000000" font-family="Verdana" font-size="14" lengthAdjust="spacing" textLength="410.0264" x="963" y="506.1235">actorKinds [1..*] : list&lt;person | agent | system | external&gt;</text><text fill="#000000" font-family="Verdana" font-size="14" lengthAdjust="spacing" textLength="139.2754" x="963" y="522.4204">skills [0..*] : string[]</text><text fill="#000000" font-family="Verdana" font-size="14" lengthAdjust="spacing" textLength="157.5889" x="963" y="538.7173">inherits [0..*] : string[]</text><text fill="#000000" font-family="Verdana" font-size="14" lengthAdjust="spacing" textLength="187.5166" x="963" y="555.0142">actedUpon [0..1] : boolean</text><text fill="#000000" font-family="Verdana" font-size="14" lengthAdjust="spacing" textLength="219.5088" x="963" y="571.311">judgementOnly [0..1] : boolean</text></g><!--class Skill--><g id="elem_Skill"><rect codeLine="37" fill="#E8F0EE" height="227.5313" id="Skill" rx="2.5" ry="2.5" style="stroke:#000000;stroke-width:1.0;" width="669.4873" x="1656" y="350.1753"/><ellipse cx="1899.9956" cy="370.3081" fill="#FFFFFF" rx="9" ry="9" style="stroke:#000000;stroke-width:1.0;"/><path d="M1902.9644,375.9487 Q1902.3862,376.2456 1901.7456,376.3862 Q1901.105,376.5425 1900.4019,376.5425 Q1897.9019,376.5425 1896.5737,374.9019 Q1895.2612,373.2456 1895.2612,370.1206 Q1895.2612,366.9956 1896.5737,365.3394 Q1897.9019,363.6831 1900.4019,363.6831 Q1901.105,363.6831 1901.7456,363.8394 Q1902.4019,363.9956 1902.9644,364.2925 L1902.9644,367.0112 Q1902.3394,366.4331 1901.7456,366.1675 Q1901.1519,365.8862 1900.5269,365.8862 Q1899.1831,365.8862 1898.4956,366.9644 Q1897.8081,368.0269 1897.8081,370.1206 Q1897.8081,372.2144 1898.4956,373.2925 Q1899.1831,374.355 1900.5269,374.355 Q1901.1519,374.355 1901.7456,374.0894 Q1902.3394,373.8081 1902.9644,373.23 L1902.9644,375.9487 Z " fill="#000000"/><text fill="#000000" font-family="Verdana" font-size="12" font-style="italic" lengthAdjust="spacing" textLength="177.9961" x="1915.4956" y="366.314">&#171;json: SkillDefinitionSchema&#187;</text><text fill="#000000" font-family="Verdana" font-size="14" lengthAdjust="spacing" textLength="28.6631" x="1990.1621" y="382.1392">Skill</text><line style="stroke:#000000;stroke-width:1.0;" x1="1657" x2="2324.4873" y1="390.4409" y2="390.4409"/><text fill="#000000" font-family="Verdana" font-size="14" lengthAdjust="spacing" textLength="90.8633" x="1662" y="407.436">id [1] : string</text><text fill="#000000" font-family="Verdana" font-size="14" lengthAdjust="spacing" textLength="117.79" x="1662" y="423.7329">name [1] : string</text><text fill="#000000" font-family="Verdana" font-size="14" lengthAdjust="spacing" textLength="155.9277" x="1662" y="440.0298">description [1] : string</text><text fill="#000000" font-family="Verdana" font-size="14" lengthAdjust="spacing" textLength="139.0293" x="1662" y="456.3267">roles [0..*] : string[]</text><text fill="#000000" font-family="Verdana" font-size="14" lengthAdjust="spacing" textLength="398.4668" x="1662" y="472.6235">requiredCapabilities [0..*] : {capabilityId, degradation}[]</text><text fill="#000000" font-family="Verdana" font-size="14" lengthAdjust="spacing" textLength="321.125" x="1662" y="488.9204">dependsOn [0..*] : {ref, kind, conformance}[]</text><text fill="#000000" font-family="Verdana" font-size="14" lengthAdjust="spacing" textLength="195.6514" x="1662" y="505.2173">allowedTools [0..*] : string[]</text><text fill="#000000" font-family="Verdana" font-size="14" lengthAdjust="spacing" textLength="213.7803" x="1662" y="521.5142">routingPatterns [0..*] : string[]</text><text fill="#000000" font-family="Verdana" font-size="14" lengthAdjust="spacing" textLength="135.1602" x="1662" y="537.811">tags [0..*] : string[]</text><text fill="#000000" font-family="Verdana" font-size="14" lengthAdjust="spacing" textLength="155.2441" x="1662" y="554.1079">package [0..1] : string</text><text fill="#000000" font-family="Verdana" font-size="14" lengthAdjust="spacing" textLength="657.4873" x="1662" y="570.4048">lifecycleStages [0..*] : list&lt;plan | author | validate | review | test | publish | feedback | retire&gt;</text></g><!--class UserStory--><g id="elem_UserStory"><rect codeLine="50" fill="#E8F0EE" height="129.75" id="UserStory" rx="2.5" ry="2.5" style="stroke:#000000;stroke-width:1.0;" width="198.4775" x="230.5" y="248.1753"/><ellipse cx="252.5479" cy="268.3081" fill="#FFFFFF" rx="9" ry="9" style="stroke:#000000;stroke-width:1.0;"/><path d="M255.5167,273.9487 Q254.9385,274.2456 254.2979,274.3862 Q253.6573,274.5425 252.9542,274.5425 Q250.4542,274.5425 249.126,272.9019 Q247.8135,271.2456 247.8135,268.1206 Q247.8135,264.9956 249.126,263.3394 Q250.4542,261.6831 252.9542,261.6831 Q253.6573,261.6831 254.2979,261.8394 Q254.9542,261.9956 255.5167,262.2925 L255.5167,265.0112 Q254.8917,264.4331 254.2979,264.1675 Q253.7042,263.8862 253.0792,263.8862 Q251.7354,263.8862 251.0479,264.9644 Q250.3604,266.0269 250.3604,268.1206 Q250.3604,270.2144 251.0479,271.2925 Q251.7354,272.355 253.0792,272.355 Q253.7042,272.355 254.2979,272.0894 Q254.8917,271.8081 255.5167,271.23 L255.5167,273.9487 Z " fill="#000000"/><text fill="#000000" font-family="Verdana" font-size="12" font-style="italic" lengthAdjust="spacing" textLength="154.3711" x="264.5585" y="264.314">&#171;json: UserStorySchema&#187;</text><text fill="#000000" font-family="Verdana" font-size="14" lengthAdjust="spacing" textLength="73.3428" x="305.0727" y="280.1392">User Story</text><line style="stroke:#000000;stroke-width:1.0;" x1="231.5" x2="427.9775" y1="288.4409" y2="288.4409"/><text fill="#000000" font-family="Verdana" font-size="14" lengthAdjust="spacing" textLength="90.8633" x="236.5" y="305.436">id [1] : string</text><text fill="#000000" font-family="Verdana" font-size="14" lengthAdjust="spacing" textLength="186.4775" x="236.5" y="321.7329">role.instance [0..1] : string</text><text fill="#000000" font-family="Verdana" font-size="14" lengthAdjust="spacing" textLength="136.1855" x="236.5" y="338.0298">role.role [1] : string</text><text fill="#000000" font-family="Verdana" font-size="14" lengthAdjust="spacing" textLength="112.4785" x="236.5" y="354.3267">want [1] : string</text><text fill="#000000" font-family="Verdana" font-size="14" lengthAdjust="spacing" textLength="143.2471" x="236.5" y="370.6235">soThat [0..1] : string</text></g><!--class Process--><g id="elem_Process"><rect codeLine="60" fill="#EEE9F5" height="178.6406" id="Process" rx="2.5" ry="2.5" style="stroke:#000000;stroke-width:1.0;" width="255.6328" x="1040" y="1554.6753"/><ellipse cx="1099.8965" cy="1574.8081" fill="#FFFFFF" rx="9" ry="9" style="stroke:#000000;stroke-width:1.0;"/><path d="M1102.8652,1580.4487 Q1102.2871,1580.7456 1101.6465,1580.8862 Q1101.0059,1581.0425 1100.3027,1581.0425 Q1097.8027,1581.0425 1096.4746,1579.4019 Q1095.1621,1577.7456 1095.1621,1574.6206 Q1095.1621,1571.4956 1096.4746,1569.8394 Q1097.8027,1568.1831 1100.3027,1568.1831 Q1101.0059,1568.1831 1101.6465,1568.3394 Q1102.3027,1568.4956 1102.8652,1568.7925 L1102.8652,1571.5112 Q1102.2402,1570.9331 1101.6465,1570.6675 Q1101.0527,1570.3862 1100.4277,1570.3862 Q1099.084,1570.3862 1098.3965,1571.4644 Q1097.709,1572.5269 1097.709,1574.6206 Q1097.709,1576.7144 1098.3965,1577.7925 Q1099.084,1578.855 1100.4277,1578.855 Q1101.0527,1578.855 1101.6465,1578.5894 Q1102.2402,1578.3081 1102.8652,1577.73 L1102.8652,1580.4487 Z " fill="#000000"/><text fill="#000000" font-family="Verdana" font-size="12" font-style="italic" lengthAdjust="spacing" textLength="132.3398" x="1115.3965" y="1570.814">&#171;ext: OMG BPMN 2.0&#187;</text><text fill="#000000" font-family="Verdana" font-size="14" lengthAdjust="spacing" textLength="53.6621" x="1154.7354" y="1586.6392">Process</text><line style="stroke:#000000;stroke-width:1.0;" x1="1041" x2="1294.6328" y1="1594.9409" y2="1594.9409"/><text fill="#000000" font-family="Verdana" font-size="14" lengthAdjust="spacing" textLength="182.8271" x="1046" y="1611.936">bpmn:endEvent : element</text><text fill="#000000" font-family="Verdana" font-size="14" lengthAdjust="spacing" textLength="243.6328" x="1046" y="1628.2329">bpmn:exclusiveGateway : element</text><text fill="#000000" font-family="Verdana" font-size="14" lengthAdjust="spacing" textLength="146.3027" x="1046" y="1644.5298">bpmn:lane : element</text><text fill="#000000" font-family="Verdana" font-size="14" lengthAdjust="spacing" textLength="169.292" x="1046" y="1660.8267">bpmn:laneSet : element</text><text fill="#000000" font-family="Verdana" font-size="14" lengthAdjust="spacing" textLength="230.2754" x="1046" y="1677.1235">bpmn:parallelGateway : element</text><text fill="#000000" font-family="Verdana" font-size="14" lengthAdjust="spacing" textLength="170.4541" x="1046" y="1693.4204">bpmn:process : element</text><text fill="#000000" font-family="Verdana" font-size="14" lengthAdjust="spacing" textLength="215.7695" x="1046" y="1709.7173">bpmn:sequenceFlow : element</text><text fill="#000000" font-family="Verdana" font-size="14" lengthAdjust="spacing" textLength="189.0615" x="1046" y="1726.0142">bpmn:startEvent : element</text></g><!--class Task--><g id="elem_Task"><rect codeLine="70" fill="#EEE9F5" height="146.0469" id="Task" rx="2.5" ry="2.5" style="stroke:#000000;stroke-width:1.0;" width="211.0283" x="224" y="1588.1753"/><ellipse cx="256.7451" cy="1608.3081" fill="#FFFFFF" rx="9" ry="9" style="stroke:#000000;stroke-width:1.0;"/><path d="M259.7138,1613.9487 Q259.1357,1614.2456 258.4951,1614.3862 Q257.8544,1614.5425 257.1513,1614.5425 Q254.6513,1614.5425 253.3232,1612.9019 Q252.0107,1611.2456 252.0107,1608.1206 Q252.0107,1604.9956 253.3232,1603.3394 Q254.6513,1601.6831 257.1513,1601.6831 Q257.8544,1601.6831 258.4951,1601.8394 Q259.1513,1601.9956 259.7138,1602.2925 L259.7138,1605.0112 Q259.0888,1604.4331 258.4951,1604.1675 Q257.9013,1603.8862 257.2763,1603.8862 Q255.9326,1603.8862 255.2451,1604.9644 Q254.5576,1606.0269 254.5576,1608.1206 Q254.5576,1610.2144 255.2451,1611.2925 Q255.9326,1612.355 257.2763,1612.355 Q257.9013,1612.355 258.4951,1612.0894 Q259.0888,1611.8081 259.7138,1611.23 L259.7138,1613.9487 Z " fill="#000000"/><text fill="#000000" font-family="Verdana" font-size="12" font-style="italic" lengthAdjust="spacing" textLength="143.1504" x="271.1329" y="1604.314">&#171;json: TaskRefSchema&#187;</text><text fill="#000000" font-family="Verdana" font-size="14" lengthAdjust="spacing" textLength="32.5322" x="326.4419" y="1620.1392">Task</text><line style="stroke:#000000;stroke-width:1.0;" x1="225" x2="434.0283" y1="1628.4409" y2="1628.4409"/><text fill="#000000" font-family="Verdana" font-size="14" lengthAdjust="spacing" textLength="132.1934" x="230" y="1645.436">process [1] : string</text><text fill="#000000" font-family="Verdana" font-size="14" lengthAdjust="spacing" textLength="107.5566" x="230" y="1661.7329">task [1] : string</text><text fill="#000000" font-family="Verdana" font-size="14" lengthAdjust="spacing" textLength="193.0059" x="230" y="1678.0298">bpmn:callActivity : element</text><text fill="#000000" font-family="Verdana" font-size="14" lengthAdjust="spacing" textLength="199.0283" x="230" y="1694.3267">bpmn:serviceTask : element</text><text fill="#000000" font-family="Verdana" font-size="14" lengthAdjust="spacing" textLength="145.8174" x="230" y="1710.6235">bpmn:task : element</text><text fill="#000000" font-family="Verdana" font-size="14" lengthAdjust="spacing" textLength="179.416" x="230" y="1726.9204">bpmn:userTask : element</text></g><!--class ExternalSchema--><g id="elem_ExternalSchema"><rect codeLine="81" fill="#E9EDF3" height="211.2344" id="ExternalSchema" rx="2.5" ry="2.5" style="stroke:#000000;stroke-width:1.0;" width="416.7832" x="1782" y="1207.6753"/><ellipse cx="1891.8594" cy="1227.8081" fill="#FFFFFF" rx="9" ry="9" style="stroke:#000000;stroke-width:1.0;"/><path d="M1894.8281,1233.4487 Q1894.25,1233.7456 1893.6094,1233.8862 Q1892.9688,1234.0425 1892.2656,1234.0425 Q1889.7656,1234.0425 1888.4375,1232.4019 Q1887.125,1230.7456 1887.125,1227.6206 Q1887.125,1224.4956 1888.4375,1222.8394 Q1889.7656,1221.1831 1892.2656,1221.1831 Q1892.9688,1221.1831 1893.6094,1221.3394 Q1894.2656,1221.4956 1894.8281,1221.7925 L1894.8281,1224.5112 Q1894.2031,1223.9331 1893.6094,1223.6675 Q1893.0156,1223.3862 1892.3906,1223.3862 Q1891.0469,1223.3862 1890.3594,1224.4644 Q1889.6719,1225.5269 1889.6719,1227.6206 Q1889.6719,1229.7144 1890.3594,1230.7925 Q1891.0469,1231.855 1892.3906,1231.855 Q1893.0156,1231.855 1893.6094,1231.5894 Q1894.2031,1231.3081 1894.8281,1230.73 L1894.8281,1233.4487 Z " fill="#000000"/><text fill="#000000" font-family="Verdana" font-size="12" font-style="italic" lengthAdjust="spacing" textLength="193.5645" x="1907.3594" y="1223.814">&#171;json: ExternalSchemaSchema&#187;</text><text fill="#000000" font-family="Verdana" font-size="14" lengthAdjust="spacing" textLength="119.0684" x="1944.6074" y="1239.6392">External Schema</text><line style="stroke:#000000;stroke-width:1.0;" x1="1783" x2="2197.7832" y1="1247.9409" y2="1247.9409"/><text fill="#000000" font-family="Verdana" font-size="14" lengthAdjust="spacing" textLength="283.8418" x="1788" y="1264.936">$schema [1] : 'folio-external-schema/v1'</text><text fill="#000000" font-family="Verdana" font-size="14" lengthAdjust="spacing" textLength="90.8633" x="1788" y="1281.2329">id [1] : string</text><text fill="#000000" font-family="Verdana" font-size="14" lengthAdjust="spacing" textLength="404.7832" x="1788" y="1297.5298">authority [1] : OMG | DCMI | W3C | IETF | ISO | HL7 | other</text><text fill="#000000" font-family="Verdana" font-size="14" lengthAdjust="spacing" textLength="105.458" x="1788" y="1313.8267">title [1] : string</text><text fill="#000000" font-family="Verdana" font-size="14" lengthAdjust="spacing" textLength="129.3633" x="1788" y="1330.1235">version [1] : string</text><text fill="#000000" font-family="Verdana" font-size="14" lengthAdjust="spacing" textLength="172.4502" x="1788" y="1346.4204">specUrl [1] : string&lt;uri&gt;</text><text fill="#000000" font-family="Verdana" font-size="14" lengthAdjust="spacing" textLength="192.9785" x="1788" y="1362.7173">namespaces [0..*] : string[]</text><text fill="#000000" font-family="Verdana" font-size="14" lengthAdjust="spacing" textLength="227.3428" x="1788" y="1379.0142">use [1] : conforms | reads | cites</text><text fill="#000000" font-family="Verdana" font-size="14" lengthAdjust="spacing" textLength="232.4014" x="1788" y="1395.311">terms [0..*] : {term, operative}[]</text><text fill="#000000" font-family="Verdana" font-size="14" lengthAdjust="spacing" textLength="127.4355" x="1788" y="1411.6079">note [0..1] : string</text></g><!--class JsonSchema--><g id="elem_JsonSchema"><rect codeLine="93" fill="#E9EDF3" height="80.8594" id="JsonSchema" rx="2.5" ry="2.5" style="stroke:#000000;stroke-width:1.0;" width="195.668" x="1070" y="1272.6753"/><ellipse cx="1103.5822" cy="1292.8081" fill="#FFFFFF" rx="9" ry="9" style="stroke:#000000;stroke-width:1.0;"/><path d="M1106.551,1298.4487 Q1105.9729,1298.7456 1105.3322,1298.8862 Q1104.6916,1299.0425 1103.9885,1299.0425 Q1101.4885,1299.0425 1100.1604,1297.4019 Q1098.8479,1295.7456 1098.8479,1292.6206 Q1098.8479,1289.4956 1100.1604,1287.8394 Q1101.4885,1286.1831 1103.9885,1286.1831 Q1104.6916,1286.1831 1105.3322,1286.3394 Q1105.9885,1286.4956 1106.551,1286.7925 L1106.551,1289.5112 Q1105.926,1288.9331 1105.3322,1288.6675 Q1104.7385,1288.3862 1104.1135,1288.3862 Q1102.7697,1288.3862 1102.0822,1289.4644 Q1101.3947,1290.5269 1101.3947,1292.6206 Q1101.3947,1294.7144 1102.0822,1295.7925 Q1102.7697,1296.855 1104.1135,1296.855 Q1104.7385,1296.855 1105.3322,1296.5894 Q1105.926,1296.3081 1106.551,1295.73 L1106.551,1298.4487 Z " fill="#000000"/><text fill="#000000" font-family="Verdana" font-size="12" font-style="italic" lengthAdjust="spacing" textLength="125.9297" x="1118.1561" y="1288.814">&#171;draft-07, from Zod&#187;</text><text fill="#000000" font-family="Verdana" font-size="14" lengthAdjust="spacing" textLength="95.2451" x="1133.4983" y="1304.6392">JSON Schema</text><line style="stroke:#000000;stroke-width:1.0;" x1="1071" x2="1264.668" y1="1312.9409" y2="1312.9409"/><text fill="#000000" font-family="Verdana" font-size="14" lengthAdjust="spacing" textLength="183.668" x="1076" y="1329.936">$schema [1] : string&lt;uri&gt;</text><text fill="#000000" font-family="Verdana" font-size="14" lengthAdjust="spacing" textLength="180.2432" x="1076" y="1346.2329">properties [0..*] : schema</text></g><!--class TestRun--><g id="elem_TestRun"><rect codeLine="101" fill="#F4E6E6" height="211.2344" id="TestRun" rx="2.5" ry="2.5" style="stroke:#000000;stroke-width:1.0;" width="233.4365" x="213" y="739.6753"/><ellipse cx="255.6987" cy="759.8081" fill="#FFFFFF" rx="9" ry="9" style="stroke:#000000;stroke-width:1.0;"/><path d="M258.6675,765.4487 Q258.0894,765.7456 257.4487,765.8862 Q256.8081,766.0425 256.105,766.0425 Q253.605,766.0425 252.2769,764.4019 Q250.9644,762.7456 250.9644,759.6206 Q250.9644,756.4956 252.2769,754.8394 Q253.605,753.1831 256.105,753.1831 Q256.8081,753.1831 257.4487,753.3394 Q258.105,753.4956 258.6675,753.7925 L258.6675,756.5112 Q258.0425,755.9331 257.4487,755.6675 Q256.855,755.3862 256.23,755.3862 Q254.8862,755.3862 254.1987,756.4644 Q253.5112,757.5269 253.5112,759.6206 Q253.5112,761.7144 254.1987,762.7925 Q254.8862,763.855 256.23,763.855 Q256.855,763.855 257.4487,763.5894 Q258.0425,763.3081 258.6675,762.73 L258.6675,765.4487 Z " fill="#000000"/><text fill="#000000" font-family="Verdana" font-size="12" font-style="italic" lengthAdjust="spacing" textLength="144.5391" x="271.1987" y="755.814">&#171;json: TestRunSchema&#187;</text><text fill="#000000" font-family="Verdana" font-size="14" lengthAdjust="spacing" textLength="61.8721" x="312.5322" y="771.6392">Test Run</text><line style="stroke:#000000;stroke-width:1.0;" x1="214" x2="445.4365" y1="779.9409" y2="779.9409"/><text fill="#000000" font-family="Verdana" font-size="14" lengthAdjust="spacing" textLength="221.4365" x="219" y="796.936">$schema [1] : 'folio-test-run/v1'</text><text fill="#000000" font-family="Verdana" font-size="14" lengthAdjust="spacing" textLength="105.1572" x="219" y="813.2329">skill [1] : string</text><text fill="#000000" font-family="Verdana" font-size="14" lengthAdjust="spacing" textLength="128.8301" x="219" y="829.5298">subject [1] : string</text><text fill="#000000" font-family="Verdana" font-size="14" lengthAdjust="spacing" textLength="147.6904" x="219" y="845.8267">data.hash [1] : string</text><text fill="#000000" font-family="Verdana" font-size="14" lengthAdjust="spacing" textLength="184.2012" x="219" y="862.1235">data.inputs [1..*] : string[]</text><text fill="#000000" font-family="Verdana" font-size="14" lengthAdjust="spacing" textLength="170.2627" x="219" y="878.4204">process.hash [1] : string</text><text fill="#000000" font-family="Verdana" font-size="14" lengthAdjust="spacing" textLength="206.7734" x="219" y="894.7173">process.inputs [1..*] : string[]</text><text fill="#000000" font-family="Verdana" font-size="14" lengthAdjust="spacing" textLength="179.6416" x="219" y="911.0142">outcome [1] : map&lt;any&gt;</text><text fill="#000000" font-family="Verdana" font-size="14" lengthAdjust="spacing" textLength="213.1035" x="219" y="927.311">cases [0..*] : {input, output}[]</text><text fill="#000000" font-family="Verdana" font-size="14" lengthAdjust="spacing" textLength="157.3701" x="219" y="943.6079">updated_at [1] : string</text></g><!--class KgQaReport--><g id="elem_KgQaReport"><rect codeLine="113" fill="#F4E6E6" height="178.6406" id="KgQaReport" rx="2.5" ry="2.5" style="stroke:#000000;stroke-width:1.0;" width="587.2988" x="36" y="1020.6753"/><ellipse cx="243.9375" cy="1040.8081" fill="#FFFFFF" rx="9" ry="9" style="stroke:#000000;stroke-width:1.0;"/><path d="M246.9063,1046.4487 Q246.3281,1046.7456 245.6875,1046.8862 Q245.0469,1047.0425 244.3438,1047.0425 Q241.8438,1047.0425 240.5156,1045.4019 Q239.2031,1043.7456 239.2031,1040.6206 Q239.2031,1037.4956 240.5156,1035.8394 Q241.8438,1034.1831 244.3438,1034.1831 Q245.0469,1034.1831 245.6875,1034.3394 Q246.3438,1034.4956 246.9063,1034.7925 L246.9063,1037.5112 Q246.2813,1036.9331 245.6875,1036.6675 Q245.0938,1036.3862 244.4688,1036.3862 Q243.125,1036.3862 242.4375,1037.4644 Q241.75,1038.5269 241.75,1040.6206 Q241.75,1042.7144 242.4375,1043.7925 Q243.125,1044.855 244.4688,1044.855 Q245.0938,1044.855 245.6875,1044.5894 Q246.2813,1044.3081 246.9063,1043.73 L246.9063,1046.4487 Z " fill="#000000"/><text fill="#000000" font-family="Verdana" font-size="12" font-style="italic" lengthAdjust="spacing" textLength="167.9238" x="259.4375" y="1036.814">&#171;json: KgQaReportSchema&#187;</text><text fill="#000000" font-family="Verdana" font-size="14" lengthAdjust="spacing" textLength="96.5645" x="295.1172" y="1052.6392">KG QA Report</text><line style="stroke:#000000;stroke-width:1.0;" x1="37" x2="622.2988" y1="1060.9409" y2="1060.9409"/><text fill="#000000" font-family="Verdana" font-size="14" lengthAdjust="spacing" textLength="170.6182" x="42" y="1077.936">$schema [1] : 'kg-qa/v1'</text><text fill="#000000" font-family="Verdana" font-size="14" lengthAdjust="spacing" textLength="524.7539" x="42" y="1094.2329">subject.kind [1] : process | decision | role | requirement | skill | graph | tool</text><text fill="#000000" font-family="Verdana" font-size="14" lengthAdjust="spacing" textLength="146.0566" x="42" y="1110.5298">subject.id [1] : string</text><text fill="#000000" font-family="Verdana" font-size="14" lengthAdjust="spacing" textLength="204.251" x="42" y="1126.8267">subject.path [1] : string | null</text><text fill="#000000" font-family="Verdana" font-size="14" lengthAdjust="spacing" textLength="204.6475" x="42" y="1143.1235">source_hash [1] : string | null</text><text fill="#000000" font-family="Verdana" font-size="14" lengthAdjust="spacing" textLength="185.2744" x="42" y="1159.4204">criteria [1] : map&lt;object&gt;</text><text fill="#000000" font-family="Verdana" font-size="14" lengthAdjust="spacing" textLength="186.4092" x="42" y="1175.7173">totals [1] : map&lt;number&gt;</text><text fill="#000000" font-family="Verdana" font-size="14" lengthAdjust="spacing" textLength="575.2988" x="42" y="1192.0142">pair_attestations [0..*] : {kind, prose, code, prose_hash, code_hash, by, reason}[]</text></g><g id="elem_GMN17"><path d="M159.5,122.6753 L159.5,178.0737 L499.73,178.0737 L499.73,132.6753 L489.73,122.6753 L159.5,122.6753 " fill="#FFFFFF" style="stroke:#000000;stroke-width:1.0;"/><path d="M489.73,122.6753 L489.73,132.6753 L499.73,132.6753 L489.73,122.6753 " fill="#FFFFFF" style="stroke:#000000;stroke-width:1.0;"/><text fill="#000000" font-family="Verdana" font-size="13" lengthAdjust="spacing" textLength="303.8877" x="165.5" y="139.7422">As a &lt;role&gt; I want &lt;want&gt; so that &lt;soThat&gt;.</text><text fill="#000000" font-family="Verdana" font-size="13" lengthAdjust="spacing" textLength="287.8027" x="165.5" y="154.875">scenarios/stories.json; the role names none.</text><text fill="#000000" font-family="Verdana" font-size="13" lengthAdjust="spacing" textLength="319.23" x="165.5" y="170.0078">SMART DAK's SGUserStory is the external shape.</text></g><g id="elem_GMN20"><path d="M1023.5,125.6753 L1023.5,181.0737 L1312.2378,181.0737 L1312.2378,135.6753 L1302.2378,125.6753 L1023.5,125.6753 " fill="#FFFFFF" style="stroke:#000000;stroke-width:1.0;"/><path d="M1302.2378,125.6753 L1302.2378,135.6753 L1312.2378,135.6753 L1302.2378,125.6753 " fill="#FFFFFF" style="stroke:#000000;stroke-width:1.0;"/><text fill="#000000" font-family="Verdana" font-size="13" lengthAdjust="spacing" textLength="243.6548" x="1029.5" y="142.7422">XSD, not JSON Schema: the elements</text><text fill="#000000" font-family="Verdana" font-size="13" lengthAdjust="spacing" textLength="243.0327" x="1029.5" y="157.875">listed are the operative terms pinned</text><text fill="#000000" font-family="Verdana" font-size="13" lengthAdjust="spacing" textLength="267.7378" x="1029.5" y="173.0078">in external-schemas/omg-bpmn-2.0.json.</text></g><!--link JsonSchema to ExternalSchema--><g id="link_JsonSchema_ExternalSchema"><path codeLine="97" d="M1266.34,1313.1753 C1392.74,1313.1753 1610.69,1313.1753 1775.99,1313.1753 " fill="none" id="JsonSchema-to-ExternalSchema" style="stroke:#000000;stroke-width:1.0;stroke-dasharray:7.0,7.0;"/><polygon fill="#000000" points="1781.99,1313.1753,1772.99,1309.1753,1776.99,1313.1753,1772.99,1317.1753,1781.99,1313.1753" style="stroke:#000000;stroke-width:1.0;"/><text fill="#000000" font-family="Verdana" font-size="13" lengthAdjust="spacing" textLength="115.3813" x="1460" y="1309.2422">$ref / conformsTo</text></g><!--link UserStory to GMN17--><g id="link_UserStory_GMN17"><path d="M329.5,248.1053 C329.5,232.2753 329.5,204.5053 329.5,204.5053 C329.5,204.5053 329.5,191.3453 329.5,177.9753 " fill="none" id="UserStory-GMN17" style="stroke:#000000;stroke-width:1.0;stroke-dasharray:7.0,7.0;"/></g><!--link Process to GMN20--><g id="link_Process_GMN20"><path d="M1039.76,1568.5953 C937.04,1508.0553 810,1433.1753 810,1433.1753 C810,1433.1753 810,258.1753 810,258.1753 C810,258.1753 967.87,211.8753 1073.94,180.7653 " fill="none" id="Process-GMN20" style="stroke:#000000;stroke-width:1.0;stroke-dasharray:7.0,7.0;"/></g><!--link Actor to Role--><g id="link_Actor_Role"><path codeLine="136" d="M488.82,507.1153 C621.33,502.0453 805.5044,495.0048 950.7644,489.4448 " fill="none" id="Actor-to-Role" style="stroke:#000000;stroke-width:1.0;"/><polygon fill="#000000" points="956.76,489.2153,947.6136,485.5625,951.7637,489.4065,947.9196,493.5566,956.76,489.2153" style="stroke:#000000;stroke-width:1.0;"/><text fill="#000000" font-family="Verdana" font-size="13" lengthAdjust="spacing" textLength="55.688" x="762.5" y="474.2422">takes on</text><text fill="#000000" font-family="Verdana" font-size="13" lengthAdjust="spacing" textLength="31.6812" x="774.5034" y="489.375">roles</text><text fill="#000000" font-family="Verdana" font-size="13" lengthAdjust="spacing" textLength="23.0356" x="925.7554" y="501.8442">0..*</text></g><!--link Role to Role--><g id="link_Role_Role"><path codeLine="137" d="M1103.04,383.5253 C1099.96,345.4253 1121.61,313.6753 1168,313.6753 C1214.39,313.6753 1236.5235,339.4448 1233.4435,377.5448 " fill="none" id="Role-to-Role" style="stroke:#000000;stroke-width:1.0;"/><polygon fill="#000000" points="1232.96,383.5253,1237.6722,374.8769,1233.3629,378.5416,1229.6982,374.2322,1232.96,383.5253" style="stroke:#000000;stroke-width:1.0;"/><text fill="#000000" font-family="Verdana" font-size="13" lengthAdjust="spacing" textLength="48.915" x="1144" y="304.7422">inherits</text><text fill="#000000" font-family="Verdana" font-size="13" lengthAdjust="spacing" textLength="23.0356" x="1214.0534" y="372.5491">0..*</text></g><!--link Role to Skill--><g id="link_Role_Skill"><path codeLine="138" d="M1379.23,476.8153 C1463.39,475.0753 1556.4213,473.1497 1649.9413,471.2097 " fill="none" id="Role-to-Skill" style="stroke:#000000;stroke-width:1.0;"/><polygon fill="#000000" points="1655.94,471.0853,1646.859,467.2728,1650.9411,471.189,1647.0249,475.2711,1655.94,471.0853" style="stroke:#000000;stroke-width:1.0;"/><text fill="#000000" font-family="Verdana" font-size="13" lengthAdjust="spacing" textLength="44.186" x="1495.5" y="455.2422">carries</text><text fill="#000000" font-family="Verdana" font-size="13" lengthAdjust="spacing" textLength="31.9097" x="1501.6382" y="470.375">skills</text><text fill="#000000" font-family="Verdana" font-size="13" lengthAdjust="spacing" textLength="23.0356" x="1624.8239" y="483.497">0..*</text></g><!--link UserStory to Role--><g id="link_UserStory_Role"><path codeLine="139" d="M428.51,332.8553 C557.5,358.7653 781.8075,403.8139 951.0075,437.7939 " fill="none" id="UserStory-to-Role" style="stroke:#000000;stroke-width:1.0;"/><polygon fill="#000000" points="956.89,438.9753,948.8538,433.2815,951.9879,437.9908,947.2786,441.1249,956.89,438.9753" style="stroke:#000000;stroke-width:1.0;"/><text fill="#000000" font-family="Verdana" font-size="13" lengthAdjust="spacing" textLength="26.8379" x="777.0554" y="373.2422">as a</text><text fill="#000000" font-family="Verdana" font-size="13" lengthAdjust="spacing" textLength="53.9487" x="763.5" y="388.375">role.role</text><text fill="#000000" font-family="Verdana" font-size="13" lengthAdjust="spacing" textLength="8.271" x="940.492" y="449.6905">1</text></g><!--link Task to Process--><g id="link_Task_Process"><path codeLine="140" d="M435.17,1659.0453 C588.61,1655.9253 868.2512,1650.2472 1033.6512,1646.8872 " fill="none" id="Task-to-Process" style="stroke:#000000;stroke-width:1.0;"/><polygon fill="#000000" points="1039.65,1646.7653,1030.5706,1642.9489,1034.651,1646.8668,1030.7331,1650.9473,1039.65,1646.7653" style="stroke:#000000;stroke-width:1.0;"/><text fill="#000000" font-family="Verdana" font-size="13" lengthAdjust="spacing" textLength="11.8511" x="784.1953" y="1630.2422">in</text><text fill="#000000" font-family="Verdana" font-size="13" lengthAdjust="spacing" textLength="50.2417" x="765" y="1645.375">process</text><text fill="#000000" font-family="Verdana" font-size="13" lengthAdjust="spacing" textLength="8.271" x="1023.6044" y="1659.462">1</text></g><!--link Task to Role--><g id="link_Task_Role"><path codeLine="141" d="M435.25,1636.9153 C532.71,1614.3453 663,1584.1753 663,1584.1753 C663,1584.1753 703,1045.1753 703,1045.1753 C703,1045.1753 877,926.1753 877,926.1753 C877,926.1753 1014.714,714.852 1100.084,583.862 " fill="none" id="Task-to-Role" style="stroke:#000000;stroke-width:1.0;stroke-dasharray:7.0,7.0;"/><polygon fill="#000000" points="1103.36,578.8353,1095.0948,584.1913,1100.63,583.0242,1101.7971,588.5593,1103.36,578.8353" style="stroke:#000000;stroke-width:1.0;"/><text fill="#000000" font-family="Verdana" font-size="13" lengthAdjust="spacing" textLength="60.4614" x="760.1165" y="907.2422">in lane of</text><text fill="#000000" font-family="Verdana" font-size="13" lengthAdjust="spacing" textLength="172.6943" x="704" y="922.375">&#171;folio:role ref on the lane&#187;</text><text fill="#000000" font-family="Verdana" font-size="13" lengthAdjust="spacing" textLength="8.271" x="1090.3282" y="598.632">1</text></g><!--link Task to Skill--><g id="link_Task_Skill"><path codeLine="142" d="M435.25,1636.9153 C532.71,1614.3453 663,1584.1753 663,1584.1753 C663,1584.1753 703,1181.1753 703,1181.1753 C703,1181.1753 1379,991.1753 1379,991.1753 C1379,991.1753 1673.3481,737.0859 1852.8681,582.1259 " fill="none" id="Task-to-Skill" style="stroke:#000000;stroke-width:1.0;stroke-dasharray:7.0,7.0;"/><polygon fill="#000000" points="1857.41,578.2053,1847.9834,581.0582,1853.6251,581.4724,1853.2108,587.1141,1857.41,578.2053" style="stroke:#000000;stroke-width:1.0;"/><text fill="#000000" font-family="Verdana" font-size="13" lengthAdjust="spacing" textLength="29.7832" x="1153.2" y="972.2422">uses</text><text fill="#000000" font-family="Verdana" font-size="13" lengthAdjust="spacing" textLength="95.1831" x="1120.5" y="987.375">&#171;folio:skill ref&#187;</text><text fill="#000000" font-family="Verdana" font-size="13" lengthAdjust="spacing" textLength="8.271" x="1841.0495" y="597.6963">1</text></g><!--link TestRun to Skill--><g id="link_TestRun_Skill"><path codeLine="143" d="M446.06,812.3953 C606.44,766.9153 877,690.1753 877,690.1753 C877,690.1753 957,90.1753 957,90.1753 C957,90.1753 1379,90.1753 1379,90.1753 C1379,90.1753 1618.3638,236.8108 1797.8938,346.8008 " fill="none" id="TestRun-to-Skill" style="stroke:#000000;stroke-width:1.0;"/><polygon fill="#000000" points="1803.01,349.9353,1797.4254,341.8228,1798.7465,347.3233,1793.2461,348.6444,1803.01,349.9353" style="stroke:#000000;stroke-width:1.0;"/><text fill="#000000" font-family="Verdana" font-size="13" lengthAdjust="spacing" textLength="31.7383" x="1152.5" y="71.2422">tests</text><text fill="#000000" font-family="Verdana" font-size="13" lengthAdjust="spacing" textLength="25.1367" x="1155.8008" y="86.375">skill</text><text fill="#000000" font-family="Verdana" font-size="13" lengthAdjust="spacing" textLength="8.271" x="1782.7357" y="339.2225">1</text></g><!--link KgQaReport to Role--><g id="link_KgQaReport_Role"><path codeLine="144" d="M570.82,1020.5553 C623.04,1001.0753 663,986.1753 663,986.1753 C663,986.1753 703,877.1753 703,877.1753 C703,877.1753 877,815.1753 877,815.1753 C877,815.1753 992.8063,681.7959 1078.4063,583.2059 " fill="none" id="KgQaReport-to-Role" style="stroke:#000000;stroke-width:1.0;"/><polygon fill="#000000" points="1082.34,578.6753,1073.4191,582.8488,1079.062,582.4508,1079.4599,588.0936,1082.34,578.6753" style="stroke:#000000;stroke-width:1.0;"/><text fill="#000000" font-family="Verdana" font-size="13" lengthAdjust="spacing" textLength="39.9395" x="770.4714" y="796.2422">audits</text><text fill="#000000" font-family="Verdana" font-size="13" lengthAdjust="spacing" textLength="78.8823" x="751" y="811.375">subject.kind</text><text fill="#000000" font-family="Verdana" font-size="13" lengthAdjust="spacing" textLength="8.271" x="1067.4848" y="598.7887">1</text></g><!--link KgQaReport to Process--><g id="link_KgQaReport_Process"><path codeLine="145" d="M623.22,1192.9253 C647.51,1199.7953 663,1204.1753 663,1204.1753 C663,1204.1753 877,1340.1753 877,1340.1753 C877,1340.1753 957,1468.1753 957,1468.1753 C957,1468.1753 1003.6818,1507.2909 1055.5518,1550.7709 " fill="none" id="KgQaReport-to-Process" style="stroke:#000000;stroke-width:1.0;"/><polygon fill="#000000" points="1060.15,1554.6253,1055.8223,1545.7782,1056.3182,1551.4133,1050.6831,1551.9091,1060.15,1554.6253" style="stroke:#000000;stroke-width:1.0;"/><text fill="#000000" font-family="Verdana" font-size="13" lengthAdjust="spacing" textLength="39.9395" x="770.4714" y="1211.2422">audits</text><text fill="#000000" font-family="Verdana" font-size="13" lengthAdjust="spacing" textLength="78.8823" x="751" y="1226.375">subject.kind</text><text fill="#000000" font-family="Verdana" font-size="13" lengthAdjust="spacing" textLength="8.271" x="1042.9138" y="1543.6756">1</text></g><!--link KgQaReport to Skill--><g id="link_KgQaReport_Skill"><path codeLine="146" d="M623.35,1041.0453 C753.14,1010.4153 877,981.1753 877,981.1753 C877,981.1753 1410.9188,733.0539 1738.5388,580.8039 " fill="none" id="KgQaReport-to-Skill" style="stroke:#000000;stroke-width:1.0;"/><polygon fill="#000000" points="1743.98,578.2753,1734.1325,578.4407,1739.4457,580.3825,1737.504,585.6956,1743.98,578.2753" style="stroke:#000000;stroke-width:1.0;"/><text fill="#000000" font-family="Verdana" font-size="13" lengthAdjust="spacing" textLength="39.9395" x="1148.4714" y="730.2422">audits</text><text fill="#000000" font-family="Verdana" font-size="13" lengthAdjust="spacing" textLength="78.8823" x="1129" y="745.375">subject.kind</text><text fill="#000000" font-family="Verdana" font-size="13" lengthAdjust="spacing" textLength="8.271" x="1720.7073" y="597.7705">1</text></g><!--link scenario to schema--><g id="link_scenario_schema"><path codeLine="148" d="M372.0351,656.4196 C372.4787,656.5077 372.9252,656.5963 373.3745,656.6855 C376.9683,657.3989 380.738,658.1472 384.6638,658.9265 C416.07,665.1609 457.465,673.3778 498.7,681.5628 C581.17,697.9328 663,714.1753 663,714.1753 C663,714.1753 877,766.1753 877,766.1753 C877,766.1753 957,1439.1753 957,1439.1753 C957,1439.1753 969.7181,1439.4178 988.8947,1439.7834 C998.483,1439.9662 1009.6859,1440.1798 1021.7209,1440.4093 C1027.7384,1440.524 1033.964,1440.6427 1040.2998,1440.7635 C1041.8837,1440.7937 1037.4756,1440.7096 1039.0718,1440.7401 " fill="none" id="scenario-to-schema" style="stroke:#000000;stroke-width:1.0;stroke-dasharray:7.0,7.0;"/><polygon fill="#000000" points="1045.0707,1440.8544,1036.1486,1436.6836,1040.0716,1440.7591,1035.9961,1444.6822,1045.0707,1440.8544" style="stroke:#000000;stroke-width:1.0;"/><text fill="#000000" font-family="Verdana" font-size="13" lengthAdjust="spacing" textLength="92.4536" x="744" y="720.2422">&#171;conformsTo&#187;</text></g><!--link process to schema--><g id="link_process_schema"><path codeLine="149" d="M634.2994,1490.9368 C646.7282,1489.8224 659.3031,1488.6949 671.9753,1487.5587 C697.3198,1485.2863 723.0538,1482.9789 748.7875,1480.6715 C851.7225,1471.4422 954.6544,1462.2131 1032.6444,1455.2201 C1042.3931,1454.346 1051.7522,1453.5068 1060.6728,1452.707 C1065.1331,1452.307 1069.4838,1451.9169 1073.7188,1451.5372 C1074.7775,1451.4422 1069.853,1451.8838 1070.8972,1451.7902 " fill="none" id="process-to-schema" style="stroke:#000000;stroke-width:1.0;stroke-dasharray:7.0,7.0;"/><polygon fill="#000000" points="1076.8732,1451.2543,1067.552,1448.0741,1071.8932,1451.7009,1068.2664,1456.0421,1076.8732,1451.2543" style="stroke:#000000;stroke-width:1.0;"/><text fill="#000000" font-family="Verdana" font-size="13" lengthAdjust="spacing" textLength="92.4536" x="744" y="1465.2422">&#171;conformsTo&#187;</text></g><!--link test to schema--><g id="link_test_schema"><path codeLine="150" d="M360.2929,1278.2122 C378.0798,1283.0102 402.9623,1289.7223 432.5503,1297.7037 C491.7263,1313.6665 569.7238,1334.7065 647.42,1355.6653 C802.8125,1397.5828 957,1439.1753 957,1439.1753 C957,1439.1753 969.7181,1439.4178 988.8947,1439.7834 C998.483,1439.9662 1009.6859,1440.1798 1021.7209,1440.4093 C1027.7384,1440.524 1033.964,1440.6427 1040.2998,1440.7635 C1041.8837,1440.7937 1037.4756,1440.7096 1039.0718,1440.7401 " fill="none" id="test-to-schema" style="stroke:#000000;stroke-width:1.0;stroke-dasharray:7.0,7.0;"/><polygon fill="#000000" points="1045.0707,1440.8544,1036.1486,1436.6836,1040.0716,1440.7591,1035.9961,1444.6822,1045.0707,1440.8544" style="stroke:#000000;stroke-width:1.0;"/><text fill="#000000" font-family="Verdana" font-size="13" lengthAdjust="spacing" textLength="92.4536" x="744" y="1370.2422">&#171;conformsTo&#187;</text></g><!--SRC=[bLZXRXCv4Fw_J-439AHJ4zhZ3euIHIejb5AWfIcwqm52pkuaCTtOY-rDoT5Azn3t5lS8zuz7kIUvp_Rkncas1LGfQtjcx9dnp3VZvZIop2gcnNXYMIOqfLOecPWp8Gkk-PJbGfAT5yGAbS_T9A99bP6XWjtVZ1OrbsTkSUlUPdARFNv-oBGgBHb6sHY_73EPiJJdnh2X-aJc8SkKPHoBPagMIyuopS-PdO1pFC6Nfjta1_U14ZaNiNP-cnrhjHZYZ8DKoO7uarYiZvdmJ9qBEMOZdfjO_OAdPtnC0plFYJdBkHpdCOEnf4avwtSVWNViLTzLkTBivfCz_3rA9Y8ZHjF2pXcKdwZC98aL5Xi-vLeIR3GfDEU6_VVNtupNcXgMaHOpojX8gobxDZXwoGQUCKagjI18ackXsEU4LVwwiPDQfMymRET7hDVxO9JS3hCz6eKz-drsatuTRH9vMSP4njvilMFRi4Z34tujQBco3EDhve8qDcSN3Df8Yw-PmoDJ3EWJF2DvxYKG0waMXOiRzcQpsxswerOvx7MK7nUKD-z0krmOTW8cRvSRD6QvoNghWdwyzT3li7X9_wj4xXnx29_0WgtAWbmOs_kwS_f-0qHJdhUR3otb165Wrv5nE6MlYzYlGmMNSEd97qfar1Id7ybytiOI-NVWrF0EzgF6mtu65mifd0E-8tuadtwlCzT70cZqiGJyPBkyu4EHGvkOzNDQByyFiWsSCjOyu-wKoqe-eu9mIqSo4j8qsl01lS6032EbfrocL4lmF5Vdb9t2NMkL0d9XTeoynPMkux9yl8vKvt9RYEPYHEaypG50V1mR6-8hvpwwIe2Anc36Sm6B2KDDCq7d6017NEGLvH0Y4un6HDaGHtec2tVsbwFWjI7D1eZekGy5D_Mp9XoQbUy817UhNI6DTSvTYm1TzxCgVCwHF2khHfrEk6tPwpAvN01aeLNg43R2n-EmvAshnh0D6RdDZbxiiqV7BrwodxgRtYwY1wDVAhk6nLHk8tuUprmoRpFAVM95j4zfNXeWzZxku9pFstXmOxHkVK2jsxewa-UKNxDhRMKBoI1d24v_Wa1kfLkkxQf9KK2SSdFcdUK6JHIuoSaIxCQ-gXLQnLUtnyggroI5bQXHOeO4RhT4pqHANeiMibspNa9kHMOfHaBrZKFaSGNFLRtrrjThOQdnm_9ov8u7b8tkLkwuLHqH3ByzKhbGdRe6T0Bnpcphzjhy2Idk71D8Bb0lsDxkYmDyVhkxYz-3nwTFt6TmXD-dp-_ZLw4XqjULjHaAL2iAcuBIrpfV8lHABVeDh1juRorGm-ULQ8MfngCDpzmt5S2ae1KvoWABtNo3APHDmFQi0M6fBBNcUNDVKM_ax-gPgSiKxWcTuiXsDkzlX3xg3vLzvNwkcejWXahBnIO8L5f4ntMx_QkHiirkeSYmEuqlJbKSVHwWezWxTVEJKeQKmmJZHTQ5-IBCHZ_JFRftNPYv_Jkwb4ry-MwZvShBuGVqjotbcblUdN0KZtOIEk7IHgtFSd4BGB16lgPUkmNgQwgQFcBAYnwNyt0pAJTB7O3VPyD9u5k7JrcucfYzvoksHH5qkCzUxR0JAfIstlE7urSyJ1ldBvQ-pVzduyx7HLfN_kt6pNE5aXVeJ5BXC_725qAVBRxNcLQDex-p2uQMfd15tA8XMTgr3JHgMi7jik-nWIppQWDLwfJUhznFp8Dk3H4jU7G5ocyTRi4gotCJ4MKv7PAkaeSB_TxrHYWqhXUBhokqNV228TTzPLHDl3PXfHeEvniEFqpTotdyzhWmLDOYgzLeqPU0leD79EivL_RPGMWWUkwt3tlnMaGez4B_qE-2ktv5cJi6yiZphhlmX-vP6Qx30nvmI99Z7xpOEJbbUpk7jz4fxoyQ966yH8thxbLPG00jWuUmg_fMlGSs_7smj-5OuZVUTjWhL2p7v3e-l0Mv9azfKB92qK98ILdYtWliIcKnTzHqt775i8E-njiMQPM4LsAdqsSttCtS2CyhdC_FOBIIRwNloHE_lCfMlqzMwE4HWHB0jVFfMncUESd2OPvvgza9MSV3ORuHJ7pLhdcEcnP7GACgSmABmzne6pZ0Trbgz5P- -SU3uBQ_HOV2I37dFSVmvTzbyLfV52-pa0oP1r77Ng5nhLCjuOAxjY-9WEEgVMKcF5-416ti2rE_LQ9Mf9K_QVv9u2mrTL7gzHRrgDzFQYowZiUNgciO_WS0]--></g></svg>