<svg xmlns="http://www.w3.org/2000/svg" xmlns:xlink="http://www.w3.org/1999/xlink" contentStyleType="text/css" height="1465px" preserveAspectRatio="none" style="width:2462px;height:1465px;background:#FFFFFF;" version="1.1" viewBox="0 0 2462 1465" width="2462px" zoomAndPan="magnify"><!-- GENERATED from cat-harness/uml/overview/folio-assistant-sci.puml (landscape view, landscapeOf) by cat-harness/scripts/gen-uml-overview.ts (PlantUML 1.2024.7) --><!-- puml-sha256: cea09fda2a11cd3bfc70048ee8a91f3c4056569b1dedf14a904317cc430a9d2c --><defs/><g><rect fill="#FFFFFF" height="328.9063" rx="2.5" ry="2.5" style="stroke:#000000;stroke-width:1.0;" width="921.6357" x="663.5379" y="324.4688"/><text fill="#000000" font-family="Verdana" font-size="14" font-style="italic" lengthAdjust="spacing" textLength="62.1729" x="1093.2694" y="339.4639">&#171;library&#187;</text><text fill="#000000" font-family="Verdana" font-size="14" font-weight="bold" lengthAdjust="spacing" textLength="197.1348" x="1025.7884" y="355.7607">folio-assistant-sci/library</text><rect fill="#FFFFFF" height="102.2656" rx="2.5" ry="2.5" style="stroke:#000000;stroke-width:1.0;" width="350.2412" x="1975.4149" y="551.1094"/><text fill="#000000" font-family="Verdana" font-size="14" font-style="italic" lengthAdjust="spacing" textLength="109.3887" x="2095.8411" y="566.1045">&#171;methodology&#187;</text><text fill="#000000" font-family="Verdana" font-size="14" font-weight="bold" lengthAdjust="spacing" textLength="289.4404" x="2005.8153" y="582.4014">folio-assistant-sci/sci-methodologies</text><rect fill="#FFFFFF" height="102.2656" rx="2.5" ry="2.5" style="stroke:#000000;stroke-width:1.0;" width="350.2412" x="1605.1737" y="284.0547"/><text fill="#000000" font-family="Verdana" font-size="14" font-style="italic" lengthAdjust="spacing" textLength="50.8936" x="1754.8475" y="299.0498">&#171;code&#187;</text><text fill="#000000" font-family="Verdana" font-size="14" font-weight="bold" lengthAdjust="spacing" textLength="242.7373" x="1658.9256" y="315.3467">folio-assistant-sci/sci-adapters</text><rect fill="#FFFFFF" height="636.375" rx="2.5" ry="2.5" style="stroke:#000000;stroke-width:1.0;" width="626.5379" x="17" y="17"/><text fill="#000000" font-family="Verdana" font-size="14" font-style="italic" lengthAdjust="spacing" textLength="34.5967" x="312.9706" y="31.9951">&#171;qa&#187;</text><text fill="#000000" font-family="Verdana" font-size="14" font-weight="bold" lengthAdjust="spacing" textLength="164.6025" x="247.9677" y="48.292">folio-assistant-sci/qa</text><rect fill="#FFFFFF" height="766.4531" rx="2.5" ry="2.5" style="stroke:#000000;stroke-width:1.0;" width="538.0288" x="855.3414" y="693.375"/><text fill="#000000" font-family="Verdana" font-size="14" font-style="italic" lengthAdjust="spacing" textLength="61.4756" x="1093.618" y="708.3701">&#171;voices&#187;</text><text fill="#000000" font-family="Verdana" font-size="14" font-weight="bold" lengthAdjust="spacing" textLength="194.8037" x="1026.9539" y="724.667">folio-assistant-sci/voices</text><rect fill="#FFFFFF" height="102.2656" rx="2.5" ry="2.5" style="stroke:#000000;stroke-width:1.0;" width="611.5742" x="1844.7484" y="693.375"/><text fill="#000000" font-family="Verdana" font-size="14" font-style="italic" lengthAdjust="spacing" textLength="51.4951" x="2124.7879" y="708.3701">&#171;skills&#187;</text><text fill="#000000" font-family="Verdana" font-size="14" font-weight="bold" lengthAdjust="spacing" textLength="225.0254" x="2038.0228" y="724.667">folio-assistant-sci/lean-skills</text><!--class folio_assistant_sci_library_folio_document_images_v1_folio_document_images_v1--><g id="elem_folio_assistant_sci_library_folio_document_images_v1_folio_document_images_v1"><rect codeLine="11" fill="#F4F4F1" height="113.4531" id="folio_assistant_sci_library_folio_document_images_v1_folio_document_images_v1" rx="2.5" ry="2.5" style="stroke:#000000;stroke-width:1.0;" width="304.585" x="878.5238" y="371.4688"/><ellipse cx="935.3724" cy="391.6016" fill="#FFFFFF" rx="9" ry="9" style="stroke:#000000;stroke-width:1.0;"/><path d="M938.3411,397.2422 Q937.763,397.5391 937.1224,397.6797 Q936.4818,397.8359 935.7786,397.8359 Q933.2786,397.8359 931.9505,396.1953 Q930.638,394.5391 930.638,391.4141 Q930.638,388.2891 931.9505,386.6328 Q933.2786,384.9766 935.7786,384.9766 Q936.4818,384.9766 937.1224,385.1328 Q937.7786,385.2891 938.3411,385.5859 L938.3411,388.3047 Q937.7161,387.7266 937.1224,387.4609 Q936.5286,387.1797 935.9036,387.1797 Q934.5599,387.1797 933.8724,388.2578 Q933.1849,389.3203 933.1849,391.4141 Q933.1849,393.5078 933.8724,394.5859 Q934.5599,395.6484 935.9036,395.6484 Q936.5286,395.6484 937.1224,395.3828 Q937.7161,395.1016 938.3411,394.5234 L938.3411,397.2422 Z " fill="#000000"/><text fill="#000000" font-family="Verdana" font-size="12" font-style="italic" lengthAdjust="spacing" textLength="183.9902" x="952.5711" y="387.6074">&#171;json: ImagesSidecarSchema&#187;</text><text fill="#000000" font-family="Verdana" font-size="14" lengthAdjust="spacing" textLength="183.3877" x="952.8724" y="403.4326">folio-document-images/v1</text><line style="stroke:#000000;stroke-width:1.0;" x1="879.5238" x2="1182.1087" y1="411.7344" y2="411.7344"/><text fill="#000000" font-family="Verdana" font-size="14" lengthAdjust="spacing" textLength="292.585" x="884.5238" y="428.7295">$schema [1] : 'folio-document-images/v1'</text><text fill="#000000" font-family="Verdana" font-size="14" lengthAdjust="spacing" textLength="123.0127" x="884.5238" y="445.0264">doc_id [1] : string</text><text fill="#000000" font-family="Verdana" font-size="14" lengthAdjust="spacing" textLength="182.0068" x="884.5238" y="461.3232">images [1] : object[] | null</text><text fill="#000000" font-family="Verdana" font-size="14" lengthAdjust="spacing" textLength="249.5801" x="884.5238" y="477.6201">undetermined_reason [0..1] : string</text></g><!--class folio_assistant_sci_library_folio_image_verdicts_v1--><g id="elem_folio_assistant_sci_library_folio_image_verdicts_v1"><rect codeLine="17" fill="#F4F4F1" height="113.4531" id="folio_assistant_sci_library_folio_image_verdicts_v1" rx="2.5" ry="2.5" style="stroke:#000000;stroke-width:1.0;" width="603.0283" x="678.5379" y="524.9219"/><ellipse cx="895.6175" cy="545.0547" fill="#FFFFFF" rx="9" ry="9" style="stroke:#000000;stroke-width:1.0;"/><path d="M898.5863,550.6953 Q898.0081,550.9922 897.3675,551.1328 Q896.7269,551.2891 896.0238,551.2891 Q893.5238,551.2891 892.1956,549.6484 Q890.8831,547.9922 890.8831,544.8672 Q890.8831,541.7422 892.1956,540.0859 Q893.5238,538.4297 896.0238,538.4297 Q896.7269,538.4297 897.3675,538.5859 Q898.0238,538.7422 898.5863,539.0391 L898.5863,541.7578 Q897.9613,541.1797 897.3675,540.9141 Q896.7738,540.6328 896.1488,540.6328 Q894.805,540.6328 894.1175,541.7109 Q893.43,542.7734 893.43,544.8672 Q893.43,546.9609 894.1175,548.0391 Q894.805,549.1016 896.1488,549.1016 Q896.7738,549.1016 897.3675,548.8359 Q897.9613,548.5547 898.5863,547.9766 L898.5863,550.6953 Z " fill="#000000"/><text fill="#000000" font-family="Verdana" font-size="12" font-style="italic" lengthAdjust="spacing" textLength="97.2305" x="945.1868" y="541.0605">&#171;ts: VerdictFile&#187;</text><text fill="#000000" font-family="Verdana" font-size="14" lengthAdjust="spacing" textLength="161.3691" x="913.1175" y="556.8857">folio-image-verdicts/v1</text><line style="stroke:#000000;stroke-width:1.0;" x1="679.5379" x2="1280.5662" y1="565.1875" y2="565.1875"/><text fill="#000000" font-family="Verdana" font-size="14" lengthAdjust="spacing" textLength="193.9287" x="684.5379" y="582.1826">inspected_by [1] : unknown</text><text fill="#000000" font-family="Verdana" font-size="14" lengthAdjust="spacing" textLength="167.3984" x="684.5379" y="598.4795">inspected_at [1] : string</text><text fill="#000000" font-family="Verdana" font-size="14" lengthAdjust="spacing" textLength="591.0283" x="684.5379" y="614.7764">attribution [0..1] : Record&lt;string, { inspected_by: unknown; inspected_at: string }&gt;</text><text fill="#000000" font-family="Verdana" font-size="14" lengthAdjust="spacing" textLength="387.3105" x="684.5379" y="631.0732">verdicts [1] : Record&lt;string, Record&lt;string, Verdict&gt;&gt;</text></g><!--class folio_assistant_sci_library_folio_vector_labels_v1_folio_vector_labels_v1--><g id="elem_folio_assistant_sci_library_folio_vector_labels_v1_folio_vector_labels_v1"><rect codeLine="23" fill="#F4F4F1" height="113.4531" id="folio_assistant_sci_library_folio_vector_labels_v1_folio_vector_labels_v1" rx="2.5" ry="2.5" style="stroke:#000000;stroke-width:1.0;" width="268.6074" x="1301.5662" y="524.9219"/><ellipse cx="1326.5616" cy="545.0547" fill="#FFFFFF" rx="9" ry="9" style="stroke:#000000;stroke-width:1.0;"/><path d="M1329.5303,550.6953 Q1328.9522,550.9922 1328.3116,551.1328 Q1327.6709,551.2891 1326.9678,551.2891 Q1324.4678,551.2891 1323.1397,549.6484 Q1321.8272,547.9922 1321.8272,544.8672 Q1321.8272,541.7422 1323.1397,540.0859 Q1324.4678,538.4297 1326.9678,538.4297 Q1327.6709,538.4297 1328.3116,538.5859 Q1328.9678,538.7422 1329.5303,539.0391 L1329.5303,541.7578 Q1328.9053,541.1797 1328.3116,540.9141 Q1327.7178,540.6328 1327.0928,540.6328 Q1325.7491,540.6328 1325.0616,541.7109 Q1324.3741,542.7734 1324.3741,544.8672 Q1324.3741,546.9609 1325.0616,548.0391 Q1325.7491,549.1016 1327.0928,549.1016 Q1327.7178,549.1016 1328.3116,548.8359 Q1328.9053,548.5547 1329.5303,547.9766 L1329.5303,550.6953 Z " fill="#000000"/><text fill="#000000" font-family="Verdana" font-size="12" font-style="italic" lengthAdjust="spacing" textLength="217.9512" x="1339.2272" y="541.0605">&#171;json: VectorLabelsSidecarSchema&#187;</text><text fill="#000000" font-family="Verdana" font-size="14" lengthAdjust="spacing" textLength="147.4102" x="1374.4977" y="556.8857">folio-vector-labels/v1</text><line style="stroke:#000000;stroke-width:1.0;" x1="1302.5662" x2="1569.1737" y1="565.1875" y2="565.1875"/><text fill="#000000" font-family="Verdana" font-size="14" lengthAdjust="spacing" textLength="256.6074" x="1307.5662" y="582.1826">$schema [1] : 'folio-vector-labels/v1'</text><text fill="#000000" font-family="Verdana" font-size="14" lengthAdjust="spacing" textLength="123.0127" x="1307.5662" y="598.4795">doc_id [1] : string</text><text fill="#000000" font-family="Verdana" font-size="14" lengthAdjust="spacing" textLength="173.3662" x="1307.5662" y="614.7764">pages [1] : object[] | null</text><text fill="#000000" font-family="Verdana" font-size="14" lengthAdjust="spacing" textLength="249.5801" x="1307.5662" y="631.0732">undetermined_reason [0..1] : string</text></g><g id="elem_n_folio_assistant_sci_sci_methodologies_methodology"><path d="M1990.4149,598.1094 L1990.4149,638.375 L2310.6561,638.375 L2310.6561,608.1094 L2300.6561,598.1094 L1990.4149,598.1094 " fill="#FFFFFF" style="stroke:#000000;stroke-width:1.0;"/><path d="M2300.6561,598.1094 L2300.6561,608.1094 L2310.6561,608.1094 L2300.6561,598.1094 " fill="#FFFFFF" style="stroke:#000000;stroke-width:1.0;"/><text fill="#000000" font-family="Verdana" font-size="13" lengthAdjust="spacing" textLength="262.5708" x="1996.4149" y="615.1763">methodology: no node schema declared</text><text fill="#000000" font-family="Verdana" font-size="13" lengthAdjust="spacing" textLength="299.2412" x="1996.4149" y="630.3091">(no validator registered: could not determine)</text></g><g id="elem_n_folio_assistant_sci_sci_adapters_code"><path d="M1620.1737,331.0547 L1620.1737,371.3203 L1940.4149,371.3203 L1940.4149,341.0547 L1930.4149,331.0547 L1620.1737,331.0547 " fill="#FFFFFF" style="stroke:#000000;stroke-width:1.0;"/><path d="M1930.4149,331.0547 L1930.4149,341.0547 L1940.4149,341.0547 L1930.4149,331.0547 " fill="#FFFFFF" style="stroke:#000000;stroke-width:1.0;"/><text fill="#000000" font-family="Verdana" font-size="13" lengthAdjust="spacing" textLength="208.2539" x="1626.1737" y="348.1216">code: no node schema declared</text><text fill="#000000" font-family="Verdana" font-size="13" lengthAdjust="spacing" textLength="299.2412" x="1626.1737" y="363.2544">(no validator registered: could not determine)</text></g><!--class folio_assistant_sci_qa_kg_qa_v1_Pair_attestation--><g id="elem_folio_assistant_sci_qa_kg_qa_v1_Pair_attestation"><rect codeLine="37" fill="#F4E6E6" height="162.3438" id="folio_assistant_sci_qa_kg_qa_v1_Pair_attestation" rx="2.5" ry="2.5" style="stroke:#000000;stroke-width:1.0;" width="249.1318" x="32" y="302.6094"/><ellipse cx="70.854" cy="322.7422" fill="#FFFFFF" rx="9" ry="9" style="stroke:#000000;stroke-width:1.0;"/><path d="M73.8228,328.3828 Q73.2446,328.6797 72.604,328.8203 Q71.9634,328.9766 71.2603,328.9766 Q68.7603,328.9766 67.4321,327.3359 Q66.1196,325.6797 66.1196,322.5547 Q66.1196,319.4297 67.4321,317.7734 Q68.7603,316.1172 71.2603,316.1172 Q71.9634,316.1172 72.604,316.2734 Q73.2603,316.4297 73.8228,316.7266 L73.8228,319.4453 Q73.1978,318.8672 72.604,318.6016 Q72.0103,318.3203 71.3853,318.3203 Q70.0415,318.3203 69.354,319.3984 Q68.6665,320.4609 68.6665,322.5547 Q68.6665,324.6484 69.354,325.7266 Q70.0415,326.7891 71.3853,326.7891 Q72.0103,326.7891 72.604,326.5234 Q73.1978,326.2422 73.8228,325.6641 L73.8228,328.3828 Z " fill="#000000"/><text fill="#000000" font-family="Verdana" font-size="12" font-style="italic" lengthAdjust="spacing" textLength="167.9238" x="86.354" y="318.748">&#171;json: KgQaReportSchema&#187;</text><text fill="#000000" font-family="Verdana" font-size="14" lengthAdjust="spacing" textLength="110.0176" x="115.3071" y="334.5732">Pair_attestation</text><line style="stroke:#000000;stroke-width:1.0;" x1="33" x2="280.1318" y1="342.875" y2="342.875"/><text fill="#000000" font-family="Verdana" font-size="14" lengthAdjust="spacing" textLength="237.1318" x="38" y="359.8701">kind [1] : implements | co-located</text><text fill="#000000" font-family="Verdana" font-size="14" lengthAdjust="spacing" textLength="117.2021" x="38" y="376.167">prose [1] : string</text><text fill="#000000" font-family="Verdana" font-size="14" lengthAdjust="spacing" textLength="111.8496" x="38" y="392.4639">code [1] : string</text><text fill="#000000" font-family="Verdana" font-size="14" lengthAdjust="spacing" textLength="157.8213" x="38" y="408.7607">prose_hash [1] : string</text><text fill="#000000" font-family="Verdana" font-size="14" lengthAdjust="spacing" textLength="152.4688" x="38" y="425.0576">code_hash [1] : string</text><text fill="#000000" font-family="Verdana" font-size="14" lengthAdjust="spacing" textLength="230.2207" x="38" y="441.3545">by [1] : baseline | agent | human</text><text fill="#000000" font-family="Verdana" font-size="14" lengthAdjust="spacing" textLength="143.5752" x="38" y="457.6514">reason [0..1] : string</text></g><!--class folio_assistant_sci_qa_kg_qa_v1_Verdict--><g id="elem_folio_assistant_sci_qa_kg_qa_v1_Verdict"><rect codeLine="46" fill="#F4E6E6" height="97.1563" id="folio_assistant_sci_qa_kg_qa_v1_Verdict" rx="2.5" ry="2.5" style="stroke:#000000;stroke-width:1.0;" width="192.5576" x="300.8149" y="541.2188"/><ellipse cx="314.1001" cy="561.3516" fill="#FFFFFF" rx="9" ry="9" style="stroke:#000000;stroke-width:1.0;"/><path d="M317.0689,566.9922 Q316.4908,567.2891 315.8501,567.4297 Q315.2095,567.5859 314.5064,567.5859 Q312.0064,567.5859 310.6783,565.9453 Q309.3658,564.2891 309.3658,561.1641 Q309.3658,558.0391 310.6783,556.3828 Q312.0064,554.7266 314.5064,554.7266 Q315.2095,554.7266 315.8501,554.8828 Q316.5064,555.0391 317.0689,555.3359 L317.0689,558.0547 Q316.4439,557.4766 315.8501,557.2109 Q315.2564,556.9297 314.6314,556.9297 Q313.2876,556.9297 312.6001,558.0078 Q311.9126,559.0703 311.9126,561.1641 Q311.9126,563.2578 312.6001,564.3359 Q313.2876,565.3984 314.6314,565.3984 Q315.2564,565.3984 315.8501,565.1328 Q316.4439,564.8516 317.0689,564.2734 L317.0689,566.9922 Z " fill="#000000"/><text fill="#000000" font-family="Verdana" font-size="12" font-style="italic" lengthAdjust="spacing" textLength="167.9238" x="324.1635" y="557.3574">&#171;json: KgQaReportSchema&#187;</text><text fill="#000000" font-family="Verdana" font-size="14" lengthAdjust="spacing" textLength="49.9092" x="383.1708" y="573.1826">Verdict</text><line style="stroke:#000000;stroke-width:1.0;" x1="301.8149" x2="492.3726" y1="581.4844" y2="581.4844"/><text fill="#000000" font-family="Verdana" font-size="14" lengthAdjust="spacing" textLength="105.2188" x="306.8149" y="598.4795">rule [1] : string</text><text fill="#000000" font-family="Verdana" font-size="14" lengthAdjust="spacing" textLength="180.5576" x="306.8149" y="614.7764">result [1] : pass | fail | n/a</text><text fill="#000000" font-family="Verdana" font-size="14" lengthAdjust="spacing" textLength="127.4355" x="306.8149" y="631.0732">note [0..1] : string</text></g><!--class folio_assistant_sci_qa_kg_qa_v1_Voice_review--><g id="elem_folio_assistant_sci_qa_kg_qa_v1_Voice_review"><rect codeLine="51" fill="#F4E6E6" height="162.3438" id="folio_assistant_sci_qa_kg_qa_v1_Voice_review" rx="2.5" ry="2.5" style="stroke:#000000;stroke-width:1.0;" width="191.9238" x="301.1318" y="302.6094"/><ellipse cx="314.1318" cy="322.7422" fill="#FFFFFF" rx="9" ry="9" style="stroke:#000000;stroke-width:1.0;"/><path d="M317.1006,328.3828 Q316.5225,328.6797 315.8818,328.8203 Q315.2412,328.9766 314.5381,328.9766 Q312.0381,328.9766 310.71,327.3359 Q309.3975,325.6797 309.3975,322.5547 Q309.3975,319.4297 310.71,317.7734 Q312.0381,316.1172 314.5381,316.1172 Q315.2412,316.1172 315.8818,316.2734 Q316.5381,316.4297 317.1006,316.7266 L317.1006,319.4453 Q316.4756,318.8672 315.8818,318.6016 Q315.2881,318.3203 314.6631,318.3203 Q313.3193,318.3203 312.6318,319.3984 Q311.9443,320.4609 311.9443,322.5547 Q311.9443,324.6484 312.6318,325.7266 Q313.3193,326.7891 314.6631,326.7891 Q315.2881,326.7891 315.8818,326.5234 Q316.4756,326.2422 317.1006,325.6641 L317.1006,328.3828 Z " fill="#000000"/><text fill="#000000" font-family="Verdana" font-size="12" font-style="italic" lengthAdjust="spacing" textLength="167.9238" x="324.1318" y="318.748">&#171;json: KgQaReportSchema&#187;</text><text fill="#000000" font-family="Verdana" font-size="14" lengthAdjust="spacing" textLength="91.9502" x="362.1187" y="334.5732">Voice_review</text><line style="stroke:#000000;stroke-width:1.0;" x1="302.1318" x2="492.0557" y1="342.875" y2="342.875"/><text fill="#000000" font-family="Verdana" font-size="14" lengthAdjust="spacing" textLength="115.1377" x="307.1318" y="359.8701">voice [1] : string</text><text fill="#000000" font-family="Verdana" font-size="14" lengthAdjust="spacing" textLength="137.3955" x="307.1318" y="376.167">instance [1] : string</text><text fill="#000000" font-family="Verdana" font-size="14" lengthAdjust="spacing" textLength="145.7764" x="307.1318" y="392.4639">skill_hash [1] : string</text><text fill="#000000" font-family="Verdana" font-size="14" lengthAdjust="spacing" textLength="155.7568" x="307.1318" y="408.7607">voice_hash [1] : string</text><text fill="#000000" font-family="Verdana" font-size="14" lengthAdjust="spacing" textLength="157.9648" x="307.1318" y="425.0576">by [1] : agent | human</text><text fill="#000000" font-family="Verdana" font-size="14" lengthAdjust="spacing" textLength="92.1553" x="307.1318" y="441.3545">at [1] : string</text><text fill="#000000" font-family="Verdana" font-size="14" lengthAdjust="spacing" textLength="170.543" x="307.1318" y="457.6514">verdicts [0..*] : Verdict[]</text></g><!--class folio_assistant_sci_qa_kg_qa_v1_kg_qa_v1--><g id="elem_folio_assistant_sci_qa_kg_qa_v1_kg_qa_v1"><rect codeLine="60" fill="#F4E6E6" height="162.3438" id="folio_assistant_sci_qa_kg_qa_v1_kg_qa_v1" rx="2.5" ry="2.5" style="stroke:#000000;stroke-width:1.0;" width="304.4961" x="55.0672" y="64"/><ellipse cx="121.6034" cy="84.1328" fill="#FFFFFF" rx="9" ry="9" style="stroke:#000000;stroke-width:1.0;"/><path d="M124.5721,89.7734 Q123.994,90.0703 123.3534,90.2109 Q122.7127,90.3672 122.0096,90.3672 Q119.5096,90.3672 118.1815,88.7266 Q116.869,87.0703 116.869,83.9453 Q116.869,80.8203 118.1815,79.1641 Q119.5096,77.5078 122.0096,77.5078 Q122.7127,77.5078 123.3534,77.6641 Q124.0096,77.8203 124.5721,78.1172 L124.5721,80.8359 Q123.9471,80.2578 123.3534,79.9922 Q122.7596,79.7109 122.1346,79.7109 Q120.7909,79.7109 120.1034,80.7891 Q119.4159,81.8516 119.4159,83.9453 Q119.4159,86.0391 120.1034,87.1172 Q120.7909,88.1797 122.1346,88.1797 Q122.7596,88.1797 123.3534,87.9141 Q123.9471,87.6328 124.5721,87.0547 L124.5721,89.7734 Z " fill="#000000"/><text fill="#000000" font-family="Verdana" font-size="12" font-style="italic" lengthAdjust="spacing" textLength="167.9238" x="137.1034" y="80.1387">&#171;json: KgQaReportSchema&#187;</text><text fill="#000000" font-family="Verdana" font-size="14" lengthAdjust="spacing" textLength="61.4209" x="190.3548" y="95.9639">kg-qa/v1</text><line style="stroke:#000000;stroke-width:1.0;" x1="56.0672" x2="358.5633" y1="104.2656" y2="104.2656"/><text fill="#000000" font-family="Verdana" font-size="14" lengthAdjust="spacing" textLength="170.6182" x="61.0672" y="121.2607">$schema [1] : 'kg-qa/v1'</text><text fill="#000000" font-family="Verdana" font-size="14" lengthAdjust="spacing" textLength="131.7832" x="61.0672" y="137.5576">subject [1] : object</text><text fill="#000000" font-family="Verdana" font-size="14" lengthAdjust="spacing" textLength="204.6475" x="61.0672" y="153.8545">source_hash [1] : string | null</text><text fill="#000000" font-family="Verdana" font-size="14" lengthAdjust="spacing" textLength="185.2744" x="61.0672" y="170.1514">criteria [1] : map&lt;object&gt;</text><text fill="#000000" font-family="Verdana" font-size="14" lengthAdjust="spacing" textLength="186.4092" x="61.0672" y="186.4482">totals [1] : map&lt;number&gt;</text><text fill="#000000" font-family="Verdana" font-size="14" lengthAdjust="spacing" textLength="292.4961" x="61.0672" y="202.7451">pair_attestations [0..*] : Pair_attestation[]</text><text fill="#000000" font-family="Verdana" font-size="14" lengthAdjust="spacing" textLength="254.625" x="61.0672" y="219.042">voice_reviews [0..*] : Voice_review[]</text></g><!--class folio_assistant_sci_qa_kg_qa_manifest_v1_kg_qa_manifest_v1--><g id="elem_folio_assistant_sci_qa_kg_qa_manifest_v1_kg_qa_manifest_v1"><rect codeLine="69" fill="#F4E6E6" height="80.8594" id="folio_assistant_sci_qa_kg_qa_manifest_v1_kg_qa_manifest_v1" rx="2.5" ry="2.5" style="stroke:#000000;stroke-width:1.0;" width="248.9746" x="379.5633" y="104.7422"/><ellipse cx="413.3345" cy="124.875" fill="#FFFFFF" rx="9" ry="9" style="stroke:#000000;stroke-width:1.0;"/><path d="M416.3033,130.5156 Q415.7251,130.8125 415.0845,130.9531 Q414.4439,131.1094 413.7408,131.1094 Q411.2408,131.1094 409.9126,129.4688 Q408.6001,127.8125 408.6001,124.6875 Q408.6001,121.5625 409.9126,119.9063 Q411.2408,118.25 413.7408,118.25 Q414.4439,118.25 415.0845,118.4063 Q415.7408,118.5625 416.3033,118.8594 L416.3033,121.5781 Q415.6783,121 415.0845,120.7344 Q414.4908,120.4531 413.8658,120.4531 Q412.522,120.4531 411.8345,121.5313 Q411.147,122.5938 411.147,124.6875 Q411.147,126.7813 411.8345,127.8594 Q412.522,128.9219 413.8658,128.9219 Q414.4908,128.9219 415.0845,128.6563 Q415.6783,128.375 416.3033,127.7969 L416.3033,130.5156 Z " fill="#000000"/><text fill="#000000" font-family="Verdana" font-size="12" font-style="italic" lengthAdjust="spacing" textLength="178.8164" x="427.9503" y="120.8809">&#171;json: KgQaManifestSchema&#187;</text><text fill="#000000" font-family="Verdana" font-size="14" lengthAdjust="spacing" textLength="127.7773" x="453.4699" y="136.7061">kg-qa-manifest/v1</text><line style="stroke:#000000;stroke-width:1.0;" x1="380.5633" x2="627.5379" y1="145.0078" y2="145.0078"/><text fill="#000000" font-family="Verdana" font-size="14" lengthAdjust="spacing" textLength="236.9746" x="385.5633" y="162.0029">$schema [1] : 'kg-qa-manifest/v1'</text><text fill="#000000" font-family="Verdana" font-size="14" lengthAdjust="spacing" textLength="131.0791" x="385.5633" y="178.2998">auditor [1] : object</text></g><!--class folio_assistant_sci_voices_Source--><g id="elem_folio_assistant_sci_voices_Source"><rect codeLine="75" fill="#E8F0EE" height="146.0469" id="folio_assistant_sci_voices_Source" rx="2.5" ry="2.5" style="stroke:#000000;stroke-width:1.0;" width="189.9727" x="1188.3975" y="1068.4688"/><ellipse cx="1201.3975" cy="1088.6016" fill="#FFFFFF" rx="9" ry="9" style="stroke:#000000;stroke-width:1.0;"/><path d="M1204.3663,1094.2422 Q1203.7882,1094.5391 1203.1475,1094.6797 Q1202.5069,1094.8359 1201.8038,1094.8359 Q1199.3038,1094.8359 1197.9757,1093.1953 Q1196.6632,1091.5391 1196.6632,1088.4141 Q1196.6632,1085.2891 1197.9757,1083.6328 Q1199.3038,1081.9766 1201.8038,1081.9766 Q1202.5069,1081.9766 1203.1475,1082.1328 Q1203.8038,1082.2891 1204.3663,1082.5859 L1204.3663,1085.3047 Q1203.7413,1084.7266 1203.1475,1084.4609 Q1202.5538,1084.1797 1201.9288,1084.1797 Q1200.585,1084.1797 1199.8975,1085.2578 Q1199.21,1086.3203 1199.21,1088.4141 Q1199.21,1090.5078 1199.8975,1091.5859 Q1200.585,1092.6484 1201.9288,1092.6484 Q1202.5538,1092.6484 1203.1475,1092.3828 Q1203.7413,1092.1016 1204.3663,1091.5234 L1204.3663,1094.2422 Z " fill="#000000"/><text fill="#000000" font-family="Verdana" font-size="12" font-style="italic" lengthAdjust="spacing" textLength="165.9727" x="1211.3975" y="1084.6074">&#171;json: VoiceProfileSchema&#187;</text><text fill="#000000" font-family="Verdana" font-size="14" lengthAdjust="spacing" textLength="48.3916" x="1270.1881" y="1100.4326">Source</text><line style="stroke:#000000;stroke-width:1.0;" x1="1189.3975" x2="1377.3702" y1="1108.7344" y2="1108.7344"/><text fill="#000000" font-family="Verdana" font-size="14" lengthAdjust="spacing" textLength="105.458" x="1194.3975" y="1125.7295">title [1] : string</text><text fill="#000000" font-family="Verdana" font-size="14" lengthAdjust="spacing" textLength="155.2031" x="1194.3975" y="1142.0264">instance [0..1] : string</text><text fill="#000000" font-family="Verdana" font-size="14" lengthAdjust="spacing" textLength="153.9521" x="1194.3975" y="1158.3232">libraryId [0..1] : string</text><text fill="#000000" font-family="Verdana" font-size="14" lengthAdjust="spacing" textLength="127.7227" x="1194.3975" y="1174.6201">path [0..1] : string</text><text fill="#000000" font-family="Verdana" font-size="14" lengthAdjust="spacing" textLength="156.3926" x="1194.3975" y="1190.917">url [0..1] : string&lt;uri&gt;</text><text fill="#000000" font-family="Verdana" font-size="14" lengthAdjust="spacing" textLength="137.0605" x="1194.3975" y="1207.2139">year [0..1] : integer</text></g><!--class folio_assistant_sci_voices_Pattern--><g id="elem_folio_assistant_sci_voices_Pattern"><rect codeLine="83" fill="#E8F0EE" height="97.1563" id="folio_assistant_sci_voices_Pattern" rx="2.5" ry="2.5" style="stroke:#000000;stroke-width:1.0;" width="219.6963" x="884.2857" y="1347.6719"/><ellipse cx="910.6614" cy="1367.8047" fill="#FFFFFF" rx="9" ry="9" style="stroke:#000000;stroke-width:1.0;"/><path d="M913.6301,1373.4453 Q913.052,1373.7422 912.4114,1373.8828 Q911.7707,1374.0391 911.0676,1374.0391 Q908.5676,1374.0391 907.2395,1372.3984 Q905.927,1370.7422 905.927,1367.6172 Q905.927,1364.4922 907.2395,1362.8359 Q908.5676,1361.1797 911.0676,1361.1797 Q911.7707,1361.1797 912.4114,1361.3359 Q913.0676,1361.4922 913.6301,1361.7891 L913.6301,1364.5078 Q913.0051,1363.9297 912.4114,1363.6641 Q911.8176,1363.3828 911.1926,1363.3828 Q909.8489,1363.3828 909.1614,1364.4609 Q908.4739,1365.5234 908.4739,1367.6172 Q908.4739,1369.7109 909.1614,1370.7891 Q909.8489,1371.8516 911.1926,1371.8516 Q911.8176,1371.8516 912.4114,1371.5859 Q913.0051,1371.3047 913.6301,1370.7266 L913.6301,1373.4453 Z " fill="#000000"/><text fill="#000000" font-family="Verdana" font-size="12" font-style="italic" lengthAdjust="spacing" textLength="165.9727" x="923.6337" y="1363.8105">&#171;json: VoiceProfileSchema&#187;</text><text fill="#000000" font-family="Verdana" font-size="14" lengthAdjust="spacing" textLength="51.2422" x="980.999" y="1379.6357">Pattern</text><line style="stroke:#000000;stroke-width:1.0;" x1="885.2857" x2="1102.982" y1="1387.9375" y2="1387.9375"/><text fill="#000000" font-family="Verdana" font-size="14" lengthAdjust="spacing" textLength="118.2412" x="890.2857" y="1404.9326">regex [1] : string</text><text fill="#000000" font-family="Verdana" font-size="14" lengthAdjust="spacing" textLength="207.6963" x="890.2857" y="1421.2295">caseSensitive [0..1] : boolean</text><text fill="#000000" font-family="Verdana" font-size="14" lengthAdjust="spacing" textLength="141.0049" x="890.2857" y="1437.5264">message [1] : string</text></g><!--class folio_assistant_sci_voices_Terminology--><g id="elem_folio_assistant_sci_voices_Terminology"><rect codeLine="88" fill="#E8F0EE" height="97.1563" id="folio_assistant_sci_voices_Terminology" rx="2.5" ry="2.5" style="stroke:#000000;stroke-width:1.0;" width="217.1533" x="1123.982" y="1347.6719"/><ellipse cx="1149.2133" cy="1367.8047" fill="#FFFFFF" rx="9" ry="9" style="stroke:#000000;stroke-width:1.0;"/><path d="M1152.1821,1373.4453 Q1151.6039,1373.7422 1150.9633,1373.8828 Q1150.3227,1374.0391 1149.6196,1374.0391 Q1147.1196,1374.0391 1145.7914,1372.3984 Q1144.4789,1370.7422 1144.4789,1367.6172 Q1144.4789,1364.4922 1145.7914,1362.8359 Q1147.1196,1361.1797 1149.6196,1361.1797 Q1150.3227,1361.1797 1150.9633,1361.3359 Q1151.6196,1361.4922 1152.1821,1361.7891 L1152.1821,1364.5078 Q1151.5571,1363.9297 1150.9633,1363.6641 Q1150.3696,1363.3828 1149.7446,1363.3828 Q1148.4008,1363.3828 1147.7133,1364.4609 Q1147.0258,1365.5234 1147.0258,1367.6172 Q1147.0258,1369.7109 1147.7133,1370.7891 Q1148.4008,1371.8516 1149.7446,1371.8516 Q1150.3696,1371.8516 1150.9633,1371.5859 Q1151.5571,1371.3047 1152.1821,1370.7266 L1152.1821,1373.4453 Z " fill="#000000"/><text fill="#000000" font-family="Verdana" font-size="12" font-style="italic" lengthAdjust="spacing" textLength="165.9727" x="1161.9314" y="1363.8105">&#171;json: VoiceProfileSchema&#187;</text><text fill="#000000" font-family="Verdana" font-size="14" lengthAdjust="spacing" textLength="87.5137" x="1201.1609" y="1379.6357">Terminology</text><line style="stroke:#000000;stroke-width:1.0;" x1="1124.982" x2="1340.1353" y1="1387.9375" y2="1387.9375"/><text fill="#000000" font-family="Verdana" font-size="14" lengthAdjust="spacing" textLength="127.6611" x="1129.982" y="1404.9326">correct [1] : string</text><text fill="#000000" font-family="Verdana" font-size="14" lengthAdjust="spacing" textLength="205.1533" x="1129.982" y="1421.2295">incorrect [1] : string | string[]</text><text fill="#000000" font-family="Verdana" font-size="14" lengthAdjust="spacing" textLength="148.9072" x="1129.982" y="1437.5264">context [0..1] : string</text></g><!--class folio_assistant_sci_voices_Rule--><g id="elem_folio_assistant_sci_voices_Rule"><rect codeLine="93" fill="#E8F0EE" height="202.9375" id="folio_assistant_sci_voices_Rule" rx="2.5" ry="2.5" style="stroke:#000000;stroke-width:1.0;" width="261.3955" x="907.002" y="1068.4688"/><ellipse cx="952.9635" cy="1088.6016" fill="#FFFFFF" rx="9" ry="9" style="stroke:#000000;stroke-width:1.0;"/><path d="M955.9322,1094.2422 Q955.3541,1094.5391 954.7135,1094.6797 Q954.0728,1094.8359 953.3697,1094.8359 Q950.8697,1094.8359 949.5416,1093.1953 Q948.2291,1091.5391 948.2291,1088.4141 Q948.2291,1085.2891 949.5416,1083.6328 Q950.8697,1081.9766 953.3697,1081.9766 Q954.0728,1081.9766 954.7135,1082.1328 Q955.3697,1082.2891 955.9322,1082.5859 L955.9322,1085.3047 Q955.3072,1084.7266 954.7135,1084.4609 Q954.1197,1084.1797 953.4947,1084.1797 Q952.151,1084.1797 951.4635,1085.2578 Q950.776,1086.3203 950.776,1088.4141 Q950.776,1090.5078 951.4635,1091.5859 Q952.151,1092.6484 953.4947,1092.6484 Q954.1197,1092.6484 954.7135,1092.3828 Q955.3072,1092.1016 955.9322,1091.5234 L955.9322,1094.2422 Z " fill="#000000"/><text fill="#000000" font-family="Verdana" font-size="12" font-style="italic" lengthAdjust="spacing" textLength="165.9727" x="968.4635" y="1084.6074">&#171;json: VoiceProfileSchema&#187;</text><text fill="#000000" font-family="Verdana" font-size="14" lengthAdjust="spacing" textLength="31.1035" x="1035.898" y="1100.4326">Rule</text><line style="stroke:#000000;stroke-width:1.0;" x1="908.002" x2="1167.3975" y1="1108.7344" y2="1108.7344"/><text fill="#000000" font-family="Verdana" font-size="14" lengthAdjust="spacing" textLength="90.8633" x="913.002" y="1125.7295">id [1] : string</text><text fill="#000000" font-family="Verdana" font-size="14" lengthAdjust="spacing" textLength="105.458" x="913.002" y="1142.0264">title [1] : string</text><text fill="#000000" font-family="Verdana" font-size="14" lengthAdjust="spacing" textLength="155.9277" x="913.002" y="1158.3232">description [1] : string</text><text fill="#000000" font-family="Verdana" font-size="14" lengthAdjust="spacing" textLength="249.3955" x="913.002" y="1174.6201">severity [1] : critical | major | minor</text><text fill="#000000" font-family="Verdana" font-size="14" lengthAdjust="spacing" textLength="127.8389" x="913.002" y="1190.917">source [1] : object</text><text fill="#000000" font-family="Verdana" font-size="14" lengthAdjust="spacing" textLength="174.9453" x="913.002" y="1207.2139">patterns [0..*] : Pattern[]</text><text fill="#000000" font-family="Verdana" font-size="14" lengthAdjust="spacing" textLength="236.6875" x="913.002" y="1223.5107">terminology [0..*] : Terminology[]</text><text fill="#000000" font-family="Verdana" font-size="14" lengthAdjust="spacing" textLength="219.5088" x="913.002" y="1239.8076">judgementOnly [0..1] : boolean</text><line style="stroke:#000000;stroke-width:1.0;" x1="908.002" x2="1167.3975" y1="1247.1094" y2="1247.1094"/><text fill="#000000" font-family="Verdana" font-size="14" lengthAdjust="spacing" textLength="168.5059" x="913.002" y="1264.1045">category [1] : enum(13)</text></g><!--class folio_assistant_sci_voices_VoiceProfile--><g id="elem_folio_assistant_sci_voices_VoiceProfile"><rect codeLine="104" fill="#E8F0EE" height="251.8281" id="folio_assistant_sci_voices_VoiceProfile" rx="2.5" ry="2.5" style="stroke:#000000;stroke-width:1.0;" width="502.0752" x="870.3414" y="740.375"/><ellipse cx="1036.6427" cy="760.5078" fill="#FFFFFF" rx="9" ry="9" style="stroke:#000000;stroke-width:1.0;"/><path d="M1039.6114,766.1484 Q1039.0333,766.4453 1038.3927,766.5859 Q1037.752,766.7422 1037.0489,766.7422 Q1034.5489,766.7422 1033.2208,765.1016 Q1031.9083,763.4453 1031.9083,760.3203 Q1031.9083,757.1953 1033.2208,755.5391 Q1034.5489,753.8828 1037.0489,753.8828 Q1037.752,753.8828 1038.3927,754.0391 Q1039.0489,754.1953 1039.6114,754.4922 L1039.6114,757.2109 Q1038.9864,756.6328 1038.3927,756.3672 Q1037.7989,756.0859 1037.1739,756.0859 Q1035.8302,756.0859 1035.1427,757.1641 Q1034.4552,758.2266 1034.4552,760.3203 Q1034.4552,762.4141 1035.1427,763.4922 Q1035.8302,764.5547 1037.1739,764.5547 Q1037.7989,764.5547 1038.3927,764.2891 Q1038.9864,764.0078 1039.6114,763.4297 L1039.6114,766.1484 Z " fill="#000000"/><text fill="#000000" font-family="Verdana" font-size="12" font-style="italic" lengthAdjust="spacing" textLength="165.9727" x="1052.1427" y="756.5137">&#171;json: VoiceProfileSchema&#187;</text><text fill="#000000" font-family="Verdana" font-size="14" lengthAdjust="spacing" textLength="82.4277" x="1093.9151" y="772.3389">VoiceProfile</text><line style="stroke:#000000;stroke-width:1.0;" x1="871.3414" x2="1371.4166" y1="780.6406" y2="780.6406"/><text fill="#000000" font-family="Verdana" font-size="14" lengthAdjust="spacing" textLength="350.335" x="876.3414" y="797.6357">$schema [1] : 'folio-voice/v1' | 'folio-voice-skill/v1'</text><text fill="#000000" font-family="Verdana" font-size="14" lengthAdjust="spacing" textLength="90.8633" x="876.3414" y="813.9326">id [1] : string</text><text fill="#000000" font-family="Verdana" font-size="14" lengthAdjust="spacing" textLength="105.458" x="876.3414" y="830.2295">title [1] : string</text><text fill="#000000" font-family="Verdana" font-size="14" lengthAdjust="spacing" textLength="155.9277" x="876.3414" y="846.5264">description [1] : string</text><text fill="#000000" font-family="Verdana" font-size="14" lengthAdjust="spacing" textLength="167.207" x="876.3414" y="862.8232">sources [1..*] : Source[]</text><text fill="#000000" font-family="Verdana" font-size="14" lengthAdjust="spacing" textLength="130.252" x="876.3414" y="879.1201">rules [1..*] : Rule[]</text><text fill="#000000" font-family="Verdana" font-size="14" lengthAdjust="spacing" textLength="320.7695" x="876.3414" y="895.417">overlaySeverity [0..1] : critical | major | minor</text><text fill="#000000" font-family="Verdana" font-size="14" lengthAdjust="spacing" textLength="317.9189" x="876.3414" y="911.7139">provenance [1] : assertion | evidence | house</text><text fill="#000000" font-family="Verdana" font-size="14" lengthAdjust="spacing" textLength="154.9023" x="876.3414" y="928.0107">extends [0..1] : object</text><text fill="#000000" font-family="Verdana" font-size="14" lengthAdjust="spacing" textLength="154.4033" x="876.3414" y="944.3076">activeIn [0..1] : object</text><text fill="#000000" font-family="Verdana" font-size="14" lengthAdjust="spacing" textLength="180.5645" x="876.3414" y="960.6045">superseded [0..1] : object</text><line style="stroke:#000000;stroke-width:1.0;" x1="871.3414" x2="1371.4166" y1="967.9063" y2="967.9063"/><text fill="#000000" font-family="Verdana" font-size="14" lengthAdjust="spacing" textLength="490.0752" x="876.3414" y="984.9014">appliesTo [0..*] : list&lt;enum(16) | docs | skill | readme | specification&gt;</text></g><g id="elem_n_folio_assistant_sci_lean_skills_skills"><path d="M1859.7484,740.375 L1859.7484,780.6406 L2441.3226,780.6406 L2441.3226,750.375 L2431.3226,740.375 L1859.7484,740.375 " fill="#FFFFFF" style="stroke:#000000;stroke-width:1.0;"/><path d="M2431.3226,740.375 L2431.3226,750.375 L2441.3226,750.375 L2431.3226,740.375 " fill="#FFFFFF" style="stroke:#000000;stroke-width:1.0;"/><text fill="#000000" font-family="Verdana" font-size="13" lengthAdjust="spacing" textLength="208.8125" x="1865.7484" y="757.4419">skills: no node schema declared</text><text fill="#000000" font-family="Verdana" font-size="13" lengthAdjust="spacing" textLength="560.5742" x="1865.7484" y="772.5747">(no node here carries a $schema family skills names (4 named): could not determine)</text></g><line style="stroke:#000000;stroke-width:1.0;" x1="156.5659" x2="156.5659" y1="226.3438" y2="302.6094"/><polygon fill="#000000" points="156.5659,226.3438,152.5659,232.3438,156.5659,238.3438,160.5659,232.3438,156.5659,226.3438" style="stroke:#000000;stroke-width:1.0;"/><text fill="#000000" font-family="Verdana" font-size="13" lengthAdjust="spacing" textLength="109.3447" x="43.2212" y="260.4106">pair_attestations</text><text fill="#000000" font-family="Verdana" font-size="13" lengthAdjust="spacing" textLength="23.0356" x="159.5659" y="297.5435">0..*</text><line style="stroke:#000000;stroke-width:1.0;" x1="397.0938" x2="397.0938" y1="464.9531" y2="541.2188"/><polygon fill="#000000" points="397.0938,464.9531,393.0938,470.9531,397.0938,476.9531,401.0938,470.9531,397.0938,464.9531" style="stroke:#000000;stroke-width:1.0;"/><text fill="#000000" font-family="Verdana" font-size="13" lengthAdjust="spacing" textLength="51.9175" x="341.1763" y="499.02">verdicts</text><text fill="#000000" font-family="Verdana" font-size="13" lengthAdjust="spacing" textLength="23.0356" x="400.0938" y="536.1528">0..*</text><line style="stroke:#000000;stroke-width:1.0;" x1="258.0646" x2="258.0646" y1="226.3438" y2="236.3438"/><line style="stroke:#000000;stroke-width:1.0;" x1="258.0646" x2="397.0938" y1="236.3438" y2="236.3438"/><line style="stroke:#000000;stroke-width:1.0;" x1="397.0938" x2="397.0938" y1="236.3438" y2="302.6094"/><polygon fill="#000000" points="258.0646,226.3438,254.0646,232.3438,258.0646,238.3438,262.0646,232.3438,258.0646,226.3438" style="stroke:#000000;stroke-width:1.0;"/><text fill="#000000" font-family="Verdana" font-size="13" lengthAdjust="spacing" textLength="90.9556" x="402.0938" y="260.4106">voice_reviews</text><text fill="#000000" font-family="Verdana" font-size="13" lengthAdjust="spacing" textLength="23.0356" x="400.0938" y="297.5435">0..*</text><line style="stroke:#000000;stroke-width:1.0;" x1="1205.0582" x2="1205.0582" y1="992.2031" y2="1002.2031"/><line style="stroke:#000000;stroke-width:1.0;" x1="1205.0582" x2="1283.3839" y1="1002.2031" y2="1002.2031"/><line style="stroke:#000000;stroke-width:1.0;" x1="1283.3839" x2="1283.3839" y1="1002.2031" y2="1068.4688"/><polygon fill="#000000" points="1205.0582,992.2031,1201.0582,998.2031,1205.0582,1004.2031,1209.0582,998.2031,1205.0582,992.2031" style="stroke:#000000;stroke-width:1.0;"/><text fill="#000000" font-family="Verdana" font-size="13" lengthAdjust="spacing" textLength="50.229" x="1288.3839" y="1026.27">sources</text><text fill="#000000" font-family="Verdana" font-size="13" lengthAdjust="spacing" textLength="23.0356" x="1286.3839" y="1063.4028">1..*</text><line style="stroke:#000000;stroke-width:1.0;" x1="994.1339" x2="994.1339" y1="1271.4063" y2="1347.6719"/><polygon fill="#000000" points="994.1339,1271.4063,990.1339,1277.4063,994.1339,1283.4063,998.1339,1277.4063,994.1339,1271.4063" style="stroke:#000000;stroke-width:1.0;"/><text fill="#000000" font-family="Verdana" font-size="13" lengthAdjust="spacing" textLength="54.7676" x="935.3663" y="1305.4731">patterns</text><text fill="#000000" font-family="Verdana" font-size="13" lengthAdjust="spacing" textLength="23.0356" x="997.1339" y="1342.606">0..*</text><line style="stroke:#000000;stroke-width:1.0;" x1="1081.2657" x2="1081.2657" y1="1271.4063" y2="1281.4063"/><line style="stroke:#000000;stroke-width:1.0;" x1="1081.2657" x2="1232.5587" y1="1281.4063" y2="1281.4063"/><line style="stroke:#000000;stroke-width:1.0;" x1="1232.5587" x2="1232.5587" y1="1281.4063" y2="1347.6719"/><polygon fill="#000000" points="1081.2657,1271.4063,1077.2657,1277.4063,1081.2657,1283.4063,1085.2657,1277.4063,1081.2657,1271.4063" style="stroke:#000000;stroke-width:1.0;"/><text fill="#000000" font-family="Verdana" font-size="13" lengthAdjust="spacing" textLength="78.4189" x="1237.5587" y="1305.4731">terminology</text><text fill="#000000" font-family="Verdana" font-size="13" lengthAdjust="spacing" textLength="23.0356" x="1235.5587" y="1342.606">0..*</text><line style="stroke:#000000;stroke-width:1.0;" x1="1037.6998" x2="1037.6998" y1="992.2031" y2="1068.4688"/><polygon fill="#000000" points="1037.6998,992.2031,1033.6998,998.2031,1037.6998,1004.2031,1041.6998,998.2031,1037.6998,992.2031" style="stroke:#000000;stroke-width:1.0;"/><text fill="#000000" font-family="Verdana" font-size="13" lengthAdjust="spacing" textLength="31.9668" x="1001.733" y="1026.27">rules</text><text fill="#000000" font-family="Verdana" font-size="13" lengthAdjust="spacing" textLength="23.0356" x="1040.6998" y="1063.4028">1..*</text><!--SRC=[lLXjRzis4FwkNy5c0veKLTjWGJ1uWO5z6H1imxgww9Si46ZfR3EXI8MadBelm7x4Vk5-oOuliYbRjkGX6_8YcNSaxvuxFdVqiqhHUKa9fojP6mByFdbc5b02gJXb8j7tJ5HKqPBad6hzep6AJMi3rxaK4_O9o9j8HIze8H-Pc9CPvHeYIKNpUpg7YLbn80foGyMSGx9W1H0eAxCY9PY5B7II15LoCfESoHGtPHhLJQfpzfgpgQ9gTKAe9jNzF7CwsLedGvqiw92hg_0s7fFF2V4EDCiMCgzBm5LPYPlfryjpj-Q1zS9UpSJCJyoMvti5QC6Tbc94hjt819tDgPha22z5cxwPNU3FkREDa6-r6oStvxTaH9xli_AvKyRnZ1L1LsD8nDoDUxKmBgTt2FJDBVb2HCsvKwX50GPKoGGKcGAAvf6RDwzUjHVwkesMMpTTWYfOReu0oytBcdaU4gD7v8CV-Obns0622LsXtMZVT1KygSMza8zYIqpDBW0qv2UB_Ne7kLJ5bLTxIJwtjbYl_aDhwMPLydNi5cvy25jkBRdrCRWt7dTXkSGjf4evdG8_0ae_BVFJDbctFRpEkGzEy8iR_nUPjstbuRohdYZjlXu-_VYNUfwGNCuPw8CyOFzQseZDvdF32a8Qt2qQ7-4G_Y8n1LmGEquL57-8KvGiAMS5HMoGnkQu6w1aH79PyyAkHTQEdZdZn33Jea-h8IZGWbQuJpy0ZIBwdgDFBQVjmF_bRMD7PZVjy_217lJhWQ8t3xHDwsyfKtXk3Q2UFVvxZzK3pN1T_8zdQ7lI-lJyFF-TleDAAXCV6hY4ot1eiB8rvu2L5GVBqXfJFfSfbpb54l47GqaDk-V5Wj1nYgnojg1wqJrZZsXDarEgWMCiq0o4LXXyBkgIUjuSGlQ1jmP15tI78wPgtk6p0btpXiWhQyKNR1uOj-pncZeLbwo7xPOi1-IL9OF7OSP74uPxiBIpEegki9jqIR3_uNnFrDnYVH7T3MDNqTlK9WJfXHM6uDpSjd6wdwSFz539YJ5gNeRZirL8cjrywT2rgmkj8k45ibPTICJr8rSCoOCrIvUqkl8h-E9ifC5-CnAAkfo26eVQr3xZ4KpRnz_XrOJ6PqSCQZJSYMoAGM8pN6mGn8to1kjef0Nwhs7y2DXZKpp-j2wOvV4j_7jhhWFZS9tnAcYoVsdpyiI5ToySVahcjJRDYnrzg-GC6yIDr_3zx0r0yDemmmyUnXt282HqLDT5fxIYPj4fg1NV7h-g5VFfjGAgDb8c3Cn1jPFZhKqn9Vem26h7W8156Jvs50ii11CGcXcsZ92OIiaXy4W9MjkOt-mbrVUkiBkEfC_oIFKOwx5dLXjAQ0MnIuI4u5_2CSKRg86Fvd1fU8TLfyzygtECtLqTy9vqB40ZTrN-Fh8R9amMgHgo1sIjq_FlpZmh0h8wCutC4Y3BgIsB9Rt3OunFH5n53BhBh9LFg1RXkP40e8d2jbQ9OXdKxkfYxlgRtmHVTMNJTYKEwFN17kiU0t_tVSNEisI7oCH3gQl1QnPygj1vo6t92R1v0Wk8sLOdajdy2XA9KULqDLb7jq7pO81fLN6y9BoNcp1nnFFAPypb6IhZpSosJivRV6AtLvIs4RGtMZR3bQqVuwRDN8A8EXQC3YZdvnU2rQq0AyAcGzOQt0myPI0AlR4sIZAQMvAv5fr2NLVOyqC1HOUuj_JOzFBnErn_h5xczJ2F_4lhekE7UguwJhB02mwUIwNiTP6kKsr6IuQv7_OG5DcJd5wub-BiwFjGP6zu81B9u7xiHPgI4vi79yVVRqQxxL1oLBDynERD3M6qRb3_4nzRvetQpLiob7xSVkTxzsjtAQFc-2TzHQN7ZQt2FrepzXCj7DVbKKptJuoBCsdaQIzvJkQA5SXG52aZfnMy91TuGdXTYbDzHlx-yw_URsw7VwCpwAkF0zyZzBIq0nWdwNCclLcm0Zdrjf2F8ktPCHdk-i1r8rF_0G00]--></g></svg>